<svg width="24" height="24" viewBox="0 0 24 24" fill="none" xmlns="http://www.w3.org/2000/svg">
<path fill-rule="evenodd" clip-rule="evenodd" d="M4.7479 14.481C4.43626 14.3446 4.09969 14.2744 3.75949 14.2748C3.3353 14.2744 2.91806 14.3826 2.54755 14.5891C2.17704 14.7957 1.8656 15.0937 1.64292 15.4547C1.42024 15.8157 1.29374 16.2278 1.27548 16.6516C1.25721 17.0754 1.34779 17.4968 1.53858 17.8757C1.72937 18.2546 2.01402 18.5782 2.36538 18.8159C2.71675 19.0536 3.12313 19.1973 3.54579 19.2333C3.96844 19.2694 4.39329 19.1966 4.77984 19.0219C5.16639 18.8472 5.50176 18.5764 5.75398 18.2354L9.72297 20.5266C9.55883 20.9044 9.49126 21.3172 9.52637 21.7276C9.56147 22.1381 9.69814 22.5334 9.92407 22.8778C10.15 23.2223 10.4581 23.5052 10.8205 23.7009C11.183 23.8967 11.5885 23.9991 12.0004 23.9991C12.4124 23.9991 12.8179 23.8967 13.1803 23.7009C13.5428 23.5052 13.8509 23.2223 14.0768 22.8778C14.3027 22.5334 14.4394 22.1381 14.4745 21.7276C14.5096 21.3172 14.4421 20.9044 14.2779 20.5266L18.2469 18.2352C18.5247 18.6111 18.903 18.901 19.3382 19.0715C19.7734 19.2421 20.2479 19.2864 20.7072 19.1993C21.1665 19.1123 21.5918 18.8974 21.9345 18.5794C22.2771 18.2614 22.523 17.8532 22.644 17.4017C22.765 16.9502 22.7562 16.4737 22.6185 16.027C22.4808 15.5803 22.2199 15.1815 21.8657 14.8765C21.5115 14.5714 21.0785 14.3725 20.6163 14.3026C20.1541 14.2326 19.6816 14.2945 19.253 14.4811L17.8202 12L19.253 9.51913C19.5646 9.65559 19.9012 9.72592 20.2414 9.72567C20.6656 9.72611 21.0829 9.6179 21.4534 9.41136C21.8239 9.20481 22.1354 8.90681 22.358 8.54576C22.5807 8.18471 22.7072 7.77264 22.7255 7.34883C22.7438 6.92501 22.6532 6.50359 22.4624 6.12471C22.2716 5.74583 21.987 5.42214 21.6356 5.18447C21.2842 4.94681 20.8778 4.80309 20.4552 4.76703C20.0325 4.73097 19.6076 4.80376 19.2211 4.97847C18.8345 5.15318 18.4991 5.42398 18.2469 5.76506L14.2779 3.47376C14.4421 3.09592 14.5096 2.68319 14.4745 2.27273C14.4394 1.86228 14.3027 1.46701 14.0768 1.12253C13.8509 0.778061 13.5428 0.495207 13.1803 0.299459C12.8179 0.103712 12.4124 0.0012207 12.0004 0.0012207C11.5885 0.0012207 11.183 0.103712 10.8205 0.299459C10.4581 0.495207 10.15 0.778061 9.92407 1.12253C9.69814 1.46701 9.56147 1.86228 9.52637 2.27273C9.49126 2.68319 9.55883 3.09592 9.72297 3.47376L5.75398 5.76515C5.47615 5.38913 5.09785 5.09914 4.66258 4.92851C4.22731 4.75788 3.75272 4.71353 3.29337 4.80057C2.83402 4.8876 2.40855 5.10248 2.06587 5.42051C1.72318 5.73854 1.47719 6.14682 1.35617 6.59841C1.23514 7.04999 1.244 7.52656 1.38172 7.97334C1.51944 8.42012 1.78043 8.81897 2.13469 9.12405C2.48896 9.42913 2.92212 9.62806 3.38439 9.69796C3.84665 9.76787 4.31926 9.70592 4.7479 9.51923L6.18068 12L4.7479 14.4809V14.481ZM6.50576 12.5625L7.49632 14.2761L5.75398 15.2813C5.60787 15.084 5.43352 14.9093 5.23652 14.7628L6.50576 12.5625ZM12.0003 4.96762C12.3412 4.96761 12.6785 4.8973 12.991 4.76109L15.7372 9.51815L13.9949 10.5235C13.7645 10.2112 13.464 9.95736 13.1175 9.78243C12.7711 9.60751 12.3884 9.51638 12.0003 9.51638C11.6123 9.51638 11.2296 9.60751 10.8832 9.78243C10.5367 9.95736 10.2362 10.2112 10.0058 10.5235L8.26343 9.51829L11.0096 4.76123C11.3222 4.8974 11.6594 4.96766 12.0003 4.96762ZM12.0003 19.0327C11.6594 19.0326 11.3222 19.1029 11.0097 19.2392L8.26362 14.4822L10.006 13.477C10.2364 13.7893 10.5369 14.0431 10.8834 14.218C11.2298 14.3929 11.6124 14.4841 12.0005 14.4841C12.3886 14.4841 12.7713 14.3929 13.1177 14.218C13.4642 14.0431 13.7647 13.7893 13.9951 13.477L15.7375 14.4822L12.9911 19.2392C12.6786 19.1029 12.3413 19.0326 12.0003 19.0327ZM14.2778 12.9901C14.4135 12.6776 14.4835 12.3407 14.4835 12C14.4835 11.6594 14.4135 11.3224 14.2778 11.01L16.018 10.0053L17.1701 12L16.0181 13.995L14.2779 12.9901H14.2778ZM9.72288 11.01C9.58724 11.3224 9.51724 11.6594 9.51724 12C9.51724 12.3407 9.58724 12.6776 9.72288 12.9901L7.98279 13.995L6.83079 12L7.98279 10.0052L9.72297 11.0099L9.72288 11.01ZM6.03701 17.7482C6.17262 17.4358 6.2426 17.0988 6.2426 16.7582C6.2426 16.4176 6.17262 16.0806 6.03701 15.7681L7.77715 14.7634L10.5234 19.5209C10.3264 19.6674 10.152 19.8422 10.006 20.0397L6.03701 17.7482ZM13.9949 20.0397C13.8489 19.8422 13.6745 19.6674 13.4775 19.5209L16.2238 14.7634L17.9639 15.7681C17.8283 16.0806 17.7583 16.4176 17.7583 16.7582C17.7583 17.0988 17.8283 17.4358 17.9639 17.7482L13.9949 20.0397ZM18.7644 14.7628C18.5674 14.9092 18.393 15.084 18.2469 15.2813L16.5045 14.2763L17.4951 12.5625L18.7644 14.7628ZM17.4951 11.4375L16.5045 9.72388L18.2469 8.71879C18.393 8.91609 18.5674 9.09081 18.7644 9.23732L17.4951 11.4375ZM17.9639 6.25195C17.8282 6.56435 17.7582 6.9013 17.7582 7.24188C17.7582 7.58246 17.8282 7.9194 17.9639 8.23181L16.2238 9.2369L13.4775 4.47937C13.6745 4.33287 13.8489 4.15808 13.9949 3.96065L17.9639 6.25204V6.25195ZM10.006 3.96065C10.152 4.15808 10.3264 4.33287 10.5234 4.47937L7.77715 9.2369L6.03701 8.2319C6.17262 7.91949 6.2426 7.58255 6.2426 7.24197C6.2426 6.90139 6.17262 6.56445 6.03701 6.25204L10.006 3.96065ZM5.23652 9.23732C5.43358 9.09088 5.60794 8.91615 5.75398 8.71879L7.49632 9.72398L6.50576 11.4375L5.23652 9.23732Z" fill="#99BBE2"/>
</svg>
