<svg width="24" height="24" viewBox="0 0 24 24" fill="none" xmlns="http://www.w3.org/2000/svg">
<g clip-path="url(#clip0_5477_435)">
<path fill-rule="evenodd" clip-rule="evenodd" d="M9.13872 16.7629L9.81686 11.7142C9.33233 11.5831 8.89062 11.3273 8.53577 10.9723C8.37623 10.8125 8.2359 10.6345 8.11765 10.4421L5.93796 11.4141C6.01155 11.7366 6.00225 12.0724 5.91092 12.3904C5.81959 12.7083 5.64921 12.9979 5.41568 13.2321C5.14287 13.5049 4.79529 13.6907 4.41689 13.766C4.03848 13.8413 3.64626 13.8027 3.28981 13.655C2.93336 13.5074 2.62869 13.2574 2.41434 12.9366C2.19999 12.6158 2.08558 12.2386 2.08558 11.8528C2.08558 11.467 2.19999 11.0898 2.41434 10.769C2.62869 10.4482 2.93336 10.1982 3.28981 10.0506C3.64626 9.90294 4.03848 9.86431 4.41689 9.93959C4.79529 10.0149 5.14287 10.2007 5.41568 10.4735C5.49538 10.5533 5.56817 10.6396 5.63327 10.7317L7.81296 9.75948C7.62219 9.11515 7.66272 8.42441 7.92752 7.80681L5.12908 6.14204C5.05918 6.23113 4.98386 6.31584 4.90357 6.39568C4.39909 6.89902 3.72512 7.19626 3.01325 7.22934C2.30138 7.26242 1.60275 7.02899 1.05376 6.57461C0.504771 6.12023 0.144857 5.47754 0.044297 4.77203C-0.056263 4.06653 0.109752 3.34887 0.509924 2.7592C0.910097 2.16954 1.51569 1.75019 2.20845 1.58307C2.90121 1.41594 3.63139 1.51303 4.25641 1.85538C4.88143 2.19772 5.3564 2.76074 5.58858 3.43449C5.82076 4.10824 5.79347 4.84435 5.51205 5.49906L8.31026 7.16359C8.38046 7.07475 8.45577 6.99008 8.53582 6.91C9.05197 6.39411 9.74511 6.094 10.4745 6.07059C11.2039 6.04718 11.9148 6.30223 12.463 6.78395L14.0375 5.40479C13.7187 4.8984 13.6025 4.29044 13.7121 3.70216C13.8216 3.11388 14.1488 2.5885 14.6285 2.23078C15.1082 1.87307 15.7051 1.7093 16.3002 1.77215C16.8953 1.83499 17.4449 2.11982 17.8393 2.56984C18.2337 3.01986 18.4439 3.60201 18.4282 4.20019C18.4124 4.79838 18.1718 5.36865 17.7543 5.79729C17.3367 6.22592 16.7729 6.48143 16.1754 6.51287C15.5778 6.5443 14.9904 6.34934 14.5301 5.96687L12.9556 7.34598C13.2716 7.81785 13.4399 8.37317 13.439 8.94109C13.4389 9.06648 13.4308 9.19174 13.4147 9.31609L18.4738 10.6716C18.7464 10.0124 19.2544 9.47809 19.8991 9.1727C20.5438 8.86731 21.279 8.81265 21.9618 9.01935C22.6446 9.22605 23.226 9.67933 23.5931 10.291C23.9601 10.9027 24.0865 11.6291 23.9477 12.3288C23.8088 13.0285 23.4147 13.6516 22.8419 14.0768C22.2691 14.502 21.5586 14.6989 20.8486 14.6292C20.1387 14.5596 19.48 14.2283 19.0008 13.6999C18.5215 13.1715 18.256 12.4837 18.2558 11.7703C18.2559 11.6449 18.2641 11.5197 18.2803 11.3953L13.2209 10.0397C13.0848 10.3683 12.8887 10.6688 12.6425 10.9256L13.9199 12.5136C14.3046 12.3222 14.7464 12.2796 15.1606 12.3941C15.5748 12.5085 15.932 12.7719 16.1639 13.1337C16.3957 13.4955 16.4857 13.9302 16.4166 14.3543C16.3476 14.7784 16.1243 15.162 15.7896 15.4315C15.455 15.701 15.0325 15.8374 14.6035 15.8145C14.1744 15.7916 13.7689 15.611 13.4648 15.3074C13.1608 15.0038 12.9796 14.5986 12.956 14.1696C12.9325 13.7405 13.0683 13.3179 13.3373 12.9828L12.0599 11.3949C11.6102 11.6692 11.0936 11.8139 10.5669 11.813H10.5581L9.87968 16.8619C10.5842 17.0518 11.1902 17.5025 11.5748 18.1226C11.9593 18.7427 12.0937 19.4858 11.9507 20.2014C11.8076 20.9169 11.3978 21.5512 10.8044 21.9758C10.211 22.4004 9.47834 22.5835 8.75495 22.4879C8.03156 22.3923 7.37158 22.0252 6.90881 21.4611C6.44604 20.8969 6.2151 20.1779 6.26281 19.4498C6.31053 18.7217 6.63332 18.0389 7.16575 17.54C7.69819 17.0411 8.40042 16.7633 9.1301 16.7629H9.13872Z" fill="#99BBE2"/>
</g>
<defs>
<clipPath id="clip0_5477_435">
<rect width="24" height="24" fill="white"/>
</clipPath>
</defs>
</svg>
