<svg width="20" height="20" viewBox="0 0 20 20" fill="none" xmlns="http://www.w3.org/2000/svg">
<path d="M3.33325 4.79169C3.33325 4.44651 3.61307 4.16669 3.95825 4.16669H16.4583C16.8034 4.16669 17.0833 4.44651 17.0833 4.79169C17.0833 5.13686 16.8034 5.41669 16.4583 5.41669H3.95825C3.61307 5.41669 3.33325 5.13686 3.33325 4.79169Z" fill="#001A41"/>
<path d="M3.33325 10.2084C3.33325 9.86318 3.61307 9.58335 3.95825 9.58335H16.4583C16.8034 9.58335 17.0833 9.86318 17.0833 10.2084C17.0833 10.5535 16.8034 10.8334 16.4583 10.8334H3.95825C3.61307 10.8334 3.33325 10.5535 3.33325 10.2084Z" fill="#001A41"/>
<path d="M3.33325 15.625C3.33325 15.2798 3.61307 15 3.95825 15H16.4583C16.8034 15 17.0833 15.2798 17.0833 15.625C17.0833 15.9702 16.8034 16.25 16.4583 16.25H3.95825C3.61307 16.25 3.33325 15.9702 3.33325 15.625Z" fill="#001A41"/>
</svg>
