<svg width="24" height="24" viewBox="0 0 24 24" fill="none" xmlns="http://www.w3.org/2000/svg">
<g clip-path="url(#clip0_16824_102600)">
<path fill-rule="evenodd" clip-rule="evenodd" d="M5 2C3.34315 2 2 3.34315 2 5V19C2 20.6569 3.34315 22 5 22H19C20.6569 22 22 20.6569 22 19V5C22 3.34315 20.6569 2 19 2H5ZM17.9858 7.54079C18.2844 7.07619 18.1498 6.45749 17.6852 6.15889C17.2206 5.86028 16.6019 5.99485 16.3033 6.45945L10.2652 15.8542L6.77015 11.6347C6.41785 11.2094 5.78746 11.1502 5.36213 11.5025C4.9368 11.8548 4.8776 12.4851 5.2299 12.9105L9.59709 18.1829C9.80057 18.4286 10.109 18.5624 10.4274 18.5432C10.7458 18.524 11.036 18.3541 11.2084 18.0857L17.9858 7.54079Z" fill="#ADADAD"/>
</g>
<defs>
<clipPath id="clip0_16824_102600">
<rect width="20" height="20" fill="white" transform="translate(2 2)"/>
</clipPath>
</defs>
</svg>
