<svg width="24" height="24" viewBox="0 0 24 24" fill="none" xmlns="http://www.w3.org/2000/svg">
<path fill-rule="evenodd" clip-rule="evenodd" d="M21.3518 17.0225C21.3519 16.903 21.3681 16.7841 21.4 16.6689L18.7207 15.122C18.678 15.0973 18.6425 15.0618 18.6178 15.019C18.5931 14.9762 18.5801 14.9277 18.5801 14.8783V13.8406H19.1426V14.7162L21.6626 16.1712C21.8629 15.9332 22.1406 15.7733 22.447 15.7197C22.7534 15.666 23.0689 15.722 23.3381 15.8778C23.6073 16.0336 23.813 16.2793 23.9191 16.5717C24.0252 16.8641 24.0249 17.1845 23.9182 17.4767C23.8116 17.7689 23.6054 18.0142 23.3359 18.1695C23.0664 18.3248 22.7508 18.3803 22.4446 18.326C22.1383 18.2718 21.8609 18.1114 21.6611 17.8731C21.4613 17.6347 21.3518 17.3335 21.352 17.0225H21.3518ZM17.7007 19.7289C17.7001 20.0323 17.8036 20.3267 17.9938 20.563C18.184 20.7993 18.4494 20.9633 18.7459 21.0276C19.0424 21.0919 19.3519 21.0526 19.6229 20.9162C19.8939 20.7799 20.11 20.5548 20.2351 20.2784C20.3602 20.0021 20.3868 19.6912 20.3104 19.3976C20.234 19.104 20.0592 18.8455 19.8153 18.6651C19.5714 18.4848 19.273 18.3935 18.9699 18.4066C18.6668 18.4196 18.3774 18.5362 18.1498 18.7368L15.4914 16.0091V13.8406H14.9289V16.1235C14.9287 16.1967 14.9573 16.267 15.0086 16.3194L17.8127 19.1969C17.7388 19.3646 17.7007 19.5457 17.7008 19.7289H17.7007ZM11.719 20.2048C11.3997 20.2742 11.1173 20.4591 10.9262 20.7241C10.7351 20.9891 10.6486 21.3154 10.6835 21.6403C10.7184 21.9651 10.8722 22.2656 11.1152 22.484C11.3583 22.7023 11.6735 22.8231 12.0002 22.8231C12.3269 22.8231 12.6421 22.7023 12.8852 22.484C13.1282 22.2656 13.282 21.9651 13.3169 21.6403C13.3518 21.3154 13.2654 20.9891 13.0742 20.7241C12.8831 20.4591 12.6007 20.2742 12.2815 20.2048V13.8406H11.719V20.2048ZM4.97543 18.4053C5.29795 18.405 5.6094 18.5229 5.85082 18.7368L8.50863 16.0091V13.8406H9.07155V16.1235C9.0717 16.1967 9.04309 16.2671 8.99187 16.3194L6.18771 19.1969C6.30244 19.4581 6.32976 19.7493 6.26559 20.0273C6.20142 20.3053 6.04921 20.5551 5.8316 20.7395C5.61399 20.924 5.34263 21.0332 5.05792 21.051C4.7732 21.0688 4.49036 20.9941 4.25149 20.8382C4.01263 20.6822 3.83052 20.4533 3.73228 20.1855C3.63403 19.9177 3.6249 19.6253 3.70626 19.3519C3.78761 19.0784 3.95509 18.8386 4.18376 18.668C4.41243 18.4975 4.69007 18.4053 4.97534 18.4053H4.97543ZM2.64865 17.0225C2.64855 16.903 2.63233 16.7841 2.60041 16.6689L5.27969 15.122C5.32243 15.0973 5.35792 15.0617 5.3826 15.019C5.40728 14.9762 5.42029 14.9277 5.42032 14.8783V13.8406H4.85782V14.7162L2.33754 16.1712C2.13722 15.9334 1.85953 15.7737 1.55322 15.7203C1.2469 15.6668 0.931553 15.723 0.662521 15.8789C0.393488 16.0348 0.187972 16.2804 0.0820498 16.5728C-0.0238721 16.8651 -0.023429 17.1854 0.0833012 17.4775C0.190031 17.7695 0.396227 18.0147 0.66569 18.1698C0.935152 18.325 1.25066 18.3803 1.55682 18.326C1.86298 18.2716 2.14023 18.1112 2.33989 17.8729C2.53956 17.6345 2.64887 17.3334 2.64865 17.0225ZM1.03146 9.68654C1.03255 8.73418 1.41138 7.82114 2.08482 7.14775C2.75826 6.47435 3.67132 6.09558 4.62368 6.09455C5.15969 6.09305 5.68911 6.2127 6.17238 6.44457C6.23971 6.47676 6.31706 6.48089 6.38743 6.45605C6.42228 6.44375 6.45436 6.4247 6.48184 6.40001C6.50933 6.37531 6.53168 6.34544 6.54762 6.3121C6.56356 6.27876 6.57277 6.24261 6.57474 6.20572C6.57671 6.16882 6.5714 6.13189 6.5591 6.09705C6.54679 6.06221 6.52775 6.03012 6.50305 6.00264C6.47835 5.97516 6.44848 5.95281 6.41515 5.93687C5.85603 5.66892 5.24368 5.53055 4.62368 5.53205C4.3504 5.53196 4.07777 5.55876 3.80974 5.61207C3.81332 4.85924 4.08529 4.13237 4.57677 3.56211C5.06826 2.99184 5.74702 2.61556 6.49108 2.50092C7.23513 2.38627 7.99568 2.54076 8.63603 2.93662C9.27639 3.33249 9.75455 3.94377 9.98458 4.6606C10.0073 4.73165 10.0574 4.79075 10.1237 4.8249C10.19 4.85906 10.2672 4.86546 10.3383 4.84271C10.4093 4.81996 10.4684 4.76992 10.5026 4.70359C10.5367 4.63726 10.5431 4.56009 10.5204 4.48904C10.3593 3.98411 10.0922 3.51937 9.73718 3.12587C10.1967 2.52136 10.7894 2.03101 11.4694 1.69295C12.1493 1.3549 12.898 1.17825 13.6573 1.17676C16.1698 1.17676 18.3087 3.12123 18.5506 5.61362C17.7313 5.77792 16.9814 6.18757 16.4005 6.78816C16.3484 6.84162 16.3196 6.91359 16.3206 6.98824C16.3215 7.06288 16.3521 7.13409 16.4055 7.1862C16.459 7.23831 16.531 7.26705 16.6056 7.2661C16.6803 7.26514 16.7515 7.23457 16.8036 7.18112C17.2171 6.7564 17.7292 6.44062 18.2944 6.26192C18.8595 6.08321 19.4601 6.04715 20.0426 6.15695C20.6251 6.26674 21.1713 6.51898 21.6327 6.89117C22.094 7.26335 22.456 7.74392 22.6865 8.29001C22.917 8.83611 23.0087 9.43075 22.9536 10.0209C22.8984 10.6111 22.6981 11.1784 22.3704 11.6724C22.0427 12.1663 21.5979 12.5714 21.0756 12.8517C20.5533 13.132 19.9698 13.2786 19.377 13.2786H4.62363C3.6713 13.2775 2.75828 12.8987 2.08487 12.2253C1.41145 11.5519 1.03261 10.6389 1.03146 9.68654Z" fill="#99BBE2"/>
</svg>
