<svg width="14" height="14" viewBox="0 0 14 14" fill="none" xmlns="http://www.w3.org/2000/svg">
<circle cx="7" cy="7" r="6" fill="#C5E8D9"/>
<path d="M13.6663 7.00016C13.6663 10.6821 10.6816 13.6668 6.99967 13.6668C3.31778 13.6668 0.333008 10.6821 0.333008 7.00016C0.333008 3.31826 3.31778 0.333496 6.99967 0.333496C10.6816 0.333496 13.6663 3.31826 13.6663 7.00016ZM1.7196 7.00016C1.7196 9.91626 4.08357 12.2802 6.99967 12.2802C9.91578 12.2802 12.2797 9.91626 12.2797 7.00016C12.2797 4.08406 9.91578 1.72009 6.99967 1.72009C4.08357 1.72009 1.7196 4.08406 1.7196 7.00016Z" fill="#0DA05F"/>
<path fill-rule="evenodd" clip-rule="evenodd" d="M9.13807 5.19526C9.39842 5.45561 9.39842 5.87772 9.13807 6.13807L6.4714 8.80474C6.21106 9.06509 5.78895 9.06509 5.5286 8.80474L4.19526 7.4714C3.93491 7.21106 3.93491 6.78895 4.19526 6.5286C4.45561 6.26825 4.87772 6.26825 5.13807 6.5286L6 7.39052L8.19526 5.19526C8.45561 4.93491 8.87772 4.93491 9.13807 5.19526Z" fill="#0DA05F"/>
</svg>
