<svg width="16" height="16" viewBox="0 0 16 16" fill="none" xmlns="http://www.w3.org/2000/svg">
<circle cx="8" cy="8" r="6" fill="#FFE9ED"/>
<path d="M14.6663 8.00016C14.6663 11.6821 11.6816 14.6668 7.99967 14.6668C4.31778 14.6668 1.33301 11.6821 1.33301 8.00016C1.33301 4.31826 4.31778 1.3335 7.99967 1.3335C11.6816 1.3335 14.6663 4.31826 14.6663 8.00016ZM2.7196 8.00016C2.7196 10.9163 5.08357 13.2802 7.99967 13.2802C10.9158 13.2802 13.2797 10.9163 13.2797 8.00016C13.2797 5.08406 10.9158 2.72009 7.99967 2.72009C5.08357 2.72009 2.7196 5.08406 2.7196 8.00016Z" fill="#BA192A"/>
<path fill-rule="evenodd" clip-rule="evenodd" d="M10.1381 6.19526C10.3984 6.45561 10.3984 6.87772 10.1381 7.13807L7.4714 9.80474C7.21106 10.0651 6.78895 10.0651 6.5286 9.80474L5.19526 8.4714C4.93491 8.21106 4.93491 7.78895 5.19526 7.5286C5.45561 7.26825 5.87772 7.26825 6.13807 7.5286L7 8.39052L9.19526 6.19526C9.45561 5.93491 9.87772 5.93491 10.1381 6.19526Z" fill="#BA192A"/>
</svg>
