<svg width="24" height="24" viewBox="0 0 24 24" fill="none" xmlns="http://www.w3.org/2000/svg">
<g clip-path="url(#clip0_821_17856)">
<g clip-path="url(#clip1_821_17856)">
<path d="M17.5781 0H0.703125C0.314484 0 0 0.314484 0 0.703125V23.2969C0 23.6855 0.314484 24 0.703125 24H17.5781C17.9668 24 18.2812 23.6855 18.2812 23.2969V0.703125C18.2812 0.314484 17.9668 0 17.5781 0ZM23.2969 1.45312H20.4844C20.0906 1.45312 19.7812 1.76245 19.7812 2.15625V6.375L21.8906 7.78125L24 6.375V2.15625C24 1.76245 23.6907 1.45312 23.2969 1.45312Z" fill="url(#paint0_linear_821_17856)"/>
<path d="M19.7812 6.375V17.625C19.7812 17.7375 19.8094 17.8359 19.8516 17.9343L21.1875 20.6061V21.8438C21.1875 22.2324 21.502 22.5469 21.8906 22.5469C22.2793 22.5469 22.5938 22.2324 22.5938 21.8438V20.6061L23.9296 17.9343C23.9719 17.8359 24 17.7375 24 17.625V6.375H19.7812ZM6.32812 12.7031H11.9531C12.3418 12.7031 12.6562 12.3886 12.6562 12V9.1875C12.6562 8.02434 11.71 7.07812 10.5469 7.07812H9.14062H7.73438C6.57122 7.07812 5.625 8.02434 5.625 9.1875V12C5.625 12.3886 5.93948 12.7031 6.32812 12.7031ZM11.25 4.96875C11.25 3.80559 10.3038 2.85938 9.14062 2.85938C7.97747 2.85938 7.03125 3.80559 7.03125 4.96875C7.03125 6.13191 7.97747 7.07812 9.14062 7.07812C10.3038 7.07812 11.25 6.13191 11.25 4.96875ZM14.7656 14.1094H3.51562C3.12698 14.1094 2.8125 14.4239 2.8125 14.8125C2.8125 15.2011 3.12698 15.5156 3.51562 15.5156H14.7656C15.1543 15.5156 15.4688 15.2011 15.4688 14.8125C15.4688 14.4239 15.1543 14.1094 14.7656 14.1094ZM14.7656 16.9219H3.51562C3.12698 16.9219 2.8125 17.2364 2.8125 17.625C2.8125 18.0136 3.12698 18.3281 3.51562 18.3281H14.7656C15.1543 18.3281 15.4688 18.0136 15.4688 17.625C15.4688 17.2364 15.1543 16.9219 14.7656 16.9219ZM14.7656 19.7344H11.9531C11.5645 19.7344 11.25 20.0489 11.25 20.4375C11.25 20.8261 11.5645 21.1406 11.9531 21.1406H14.7656C15.1543 21.1406 15.4688 20.8261 15.4688 20.4375C15.4688 20.0489 15.1543 19.7344 14.7656 19.7344Z" fill="url(#paint1_linear_821_17856)"/>
</g>
</g>
<defs>
<linearGradient id="paint0_linear_821_17856" x1="12" y1="24" x2="12" y2="0" gradientUnits="userSpaceOnUse">
<stop stop-color="#01035F"/>
<stop offset="1" stop-color="#00C0FF"/>
</linearGradient>
<linearGradient id="paint1_linear_821_17856" x1="13.4063" y1="22.5469" x2="13.4063" y2="2.85938" gradientUnits="userSpaceOnUse">
<stop stop-color="#ADDCFF"/>
<stop offset="0.5028" stop-color="#EAF6FF"/>
<stop offset="1" stop-color="#EAF6FF"/>
</linearGradient>
<clipPath id="clip0_821_17856">
<rect width="24" height="24" fill="white"/>
</clipPath>
<clipPath id="clip1_821_17856">
<rect width="24" height="24" fill="white"/>
</clipPath>
</defs>
</svg>
