<svg width="24" height="24" viewBox="0 0 24 24" fill="none" xmlns="http://www.w3.org/2000/svg">
<g clip-path="url(#clip0_794_5173)">
<path d="M12.0001 23.9388C5.41701 23.9388 0.0612793 18.583 0.0612793 12C0.0612793 5.38316 5.41701 0 12.0001 0C18.5831 0 23.9388 5.38316 23.9388 12C23.9388 18.583 18.5831 23.9388 12.0001 23.9388Z" fill="url(#paint0_linear_794_5173)"/>
<path d="M14.8115 17.2706L12.0001 15.7925L9.18863 17.2706C8.87902 17.4333 8.50426 17.4061 8.22147 17.2007C7.93867 16.9952 7.797 16.647 7.85608 16.3025L8.39302 13.1719L6.11853 10.9548C5.86824 10.7108 5.77812 10.3458 5.88618 10.0134C5.99424 9.68092 6.28157 9.4386 6.62749 9.38833L9.77081 8.93159L11.1765 6.08325C11.3312 5.76978 11.6505 5.57129 12.0001 5.57129C12.3496 5.57129 12.6689 5.76978 12.8236 6.08319L14.2293 8.93153L17.3726 9.38827C17.7185 9.43853 18.0059 9.68086 18.1139 10.0133C18.2219 10.3458 18.1319 10.7107 17.8816 10.9547L15.6071 13.1718L16.144 16.3024C16.2031 16.6469 16.0614 16.9952 15.7786 17.2006C15.4985 17.4043 15.1237 17.4347 14.8115 17.2706Z" fill="white"/>
</g>
<defs>
<linearGradient id="paint0_linear_794_5173" x1="12.0001" y1="23.9388" x2="12.0001" y2="0" gradientUnits="userSpaceOnUse">
<stop stop-color="#9D00FD"/>
<stop offset="1" stop-color="#5200FF"/>
</linearGradient>
<clipPath id="clip0_794_5173">
<rect width="24" height="24" fill="white"/>
</clipPath>
</defs>
</svg>
