<svg width="17" height="16" viewBox="0 0 17 16" fill="none" xmlns="http://www.w3.org/2000/svg">
<g clip-path="url(#clip0_5458_3480)">
<path d="M5.85352 7.67188C4.10885 7.67188 2.68945 9.09127 2.68945 10.8359C2.68945 12.5806 4.10885 14 5.85352 14C7.59818 14 9.01758 12.5806 9.01758 10.8359C9.01758 9.09127 7.59818 7.67188 5.85352 7.67188ZM7.25053 10.4517L5.60991 12.0923C5.54128 12.161 5.4513 12.1953 5.36133 12.1953C5.27135 12.1953 5.18138 12.161 5.11275 12.0923L4.40962 11.3892C4.27233 11.2519 4.27233 11.0293 4.40962 10.892C4.5469 10.7548 4.76951 10.7548 4.9068 10.892L5.36133 11.3466L6.75338 9.95452C6.89065 9.81725 7.11326 9.81725 7.25055 9.95452C7.38783 10.0918 7.38783 10.3144 7.25053 10.4517Z" fill="#001A41"/>
<path d="M11.9473 5.04688C11.7531 5.04688 11.5957 4.88947 11.5957 4.69531V2H6.55664C5.97509 2 5.50195 2.47313 5.50195 3.05469V6.9849C5.61778 6.9744 5.73499 6.96875 5.85352 6.96875C7.05183 6.96875 8.12454 7.51662 8.83444 8.375H12.6504C12.8445 8.375 13.002 8.53241 13.002 8.72656C13.002 8.92072 12.8445 9.07812 12.6504 9.07812H9.29761C9.51736 9.50694 9.65906 9.98199 9.70455 10.4844H12.6504C12.8445 10.4844 13.002 10.6418 13.002 10.8359C13.002 11.0301 12.8445 11.1875 12.6504 11.1875H9.70455C9.59941 12.3486 8.97907 13.3631 8.07441 14H13.5879C14.1694 14 14.6426 13.5269 14.6426 12.9453V5.04688H11.9473ZM12.6504 6.96875H7.49414C7.29998 6.96875 7.14258 6.81134 7.14258 6.61719C7.14258 6.42303 7.29998 6.26562 7.49414 6.26562H12.6504C12.8445 6.26562 13.002 6.42303 13.002 6.61719C13.002 6.81134 12.8445 6.96875 12.6504 6.96875Z" fill="#001A41"/>
<path d="M12.2988 2.20312V4.34102H14.4366L12.2988 2.20312Z" fill="#001A41"/>
</g>
<defs>
<clipPath id="clip0_5458_3480">
<rect width="12" height="12" fill="white" transform="translate(2.66602 2)"/>
</clipPath>
</defs>
</svg>
