<svg width="80" height="80" viewBox="0 0 80 80" fill="none" xmlns="http://www.w3.org/2000/svg">
<g clip-path="url(#clip0_5214_57933)">
<path d="M75.0081 57.772C82.7388 46.9256 81.557 32.0655 70.998 22.3856C66.1734 17.963 60.023 15.2097 53.3791 14.4408C53.3377 14.3898 53.2953 14.3394 53.2489 14.2911C47.4691 8.28719 39.1653 4.84375 30.4669 4.84375C13.9139 4.84375 0 17.177 0 32.9688C0 38.5055 1.71984 43.8131 4.98688 48.397L0.422969 62.7261C0.136094 63.6267 0.418281 64.6112 1.13844 65.2233C1.85984 65.8364 2.8775 65.9542 3.71828 65.5266L17.5975 58.4692C20.4478 59.6966 23.4703 60.5019 26.6003 60.8683C32.6381 67.2177 40.9867 70.4688 49.5281 70.4688C53.9681 70.4688 58.392 69.5639 62.3969 67.8441L76.2767 74.9017C76.6128 75.0727 76.9767 75.1562 77.3384 75.1562C78.9202 75.1562 80.0541 73.6148 79.572 72.1011L75.0081 57.772ZM18.5434 53.7533C17.887 53.4416 17.1234 53.4519 16.4758 53.7812L6.59031 58.8078L9.81844 48.6725C10.0534 47.9345 9.90891 47.1283 9.43203 46.5181C6.32797 42.5447 4.68719 37.8595 4.68719 32.9688C4.68719 20.0453 16.2519 9.53125 30.4669 9.53125C36.1912 9.53125 41.702 11.2655 46.1722 14.3884C31.1178 15.9022 19.0612 27.6606 19.0612 42.3438C19.0612 46.9106 20.2319 51.3072 22.4389 55.2462C21.1027 54.8483 19.8013 54.3506 18.5434 53.7533ZM63.5192 63.1561C62.8809 62.8316 62.1167 62.812 61.4516 63.1283C57.7977 64.8639 53.6747 65.7812 49.5281 65.7812C35.3131 65.7812 23.7484 55.2672 23.7484 42.3438C23.7484 29.4203 35.3131 18.9062 49.5281 18.9062C63.7431 18.9062 75.3078 29.4203 75.3078 42.3438C75.3078 47.2345 73.667 51.9197 70.5628 55.893C70.0861 56.5031 69.9416 57.3094 70.1764 58.0473L73.4045 68.1827L63.5192 63.1561Z" fill="#ADADAD"/>
<path d="M39.998 44.6875C41.2925 44.6875 42.3418 43.6382 42.3418 42.3438C42.3418 41.0493 41.2925 40 39.998 40C38.7036 40 37.6543 41.0493 37.6543 42.3438C37.6543 43.6382 38.7036 44.6875 39.998 44.6875Z" fill="#ADADAD"/>
<path d="M49.3711 44.6875C50.6655 44.6875 51.7148 43.6382 51.7148 42.3438C51.7148 41.0493 50.6655 40 49.3711 40C48.0767 40 47.0273 41.0493 47.0273 42.3438C47.0273 43.6382 48.0767 44.6875 49.3711 44.6875Z" fill="#ADADAD"/>
<path d="M58.7461 44.6875C60.0405 44.6875 61.0898 43.6382 61.0898 42.3438C61.0898 41.0493 60.0405 40 58.7461 40C57.4517 40 56.4023 41.0493 56.4023 42.3438C56.4023 43.6382 57.4517 44.6875 58.7461 44.6875Z" fill="#ADADAD"/>
</g>
<defs>
<clipPath id="clip0_5214_57933">
<rect width="80" height="80" fill="white"/>
</clipPath>
</defs>
</svg>
