<svg width="100" height="100" viewBox="0 0 100 100" fill="none" xmlns="http://www.w3.org/2000/svg">
<path d="M33.6201 0H81.1164C84.5539 0 87.3405 2.78652 87.3405 6.22402V97.0703C87.3405 98.6883 86.0287 100 84.4108 100H15.5895C13.9715 100 12.6598 98.6883 12.6598 97.0703V20.9627L26.5858 14.848L33.6201 0Z" fill="#ECECEC"/>
<path d="M30.6903 20.9604H12.6598L33.6199 0V18.0307C33.6199 19.6486 32.3084 20.9604 30.6903 20.9604Z" fill="#CCCCCC"/>
<path d="M50 84.0703C64.5083 84.0703 76.2695 72.309 76.2695 57.8008C76.2695 43.2925 64.5083 31.5312 50 31.5312C35.4917 31.5312 23.7305 43.2925 23.7305 57.8008C23.7305 72.309 35.4917 84.0703 50 84.0703Z" fill="#BA1A1A"/>
<path d="M50 60.8635C48.382 60.8635 47.0703 59.5518 47.0703 57.9338V47.6816C47.0703 46.0637 48.382 44.752 50 44.752C51.618 44.752 52.9297 46.0637 52.9297 47.6816V57.9338C52.9297 59.5518 51.618 60.8635 50 60.8635Z" fill="white"/>
<path d="M50 72.4727C51.5324 72.4727 53.0006 71.1252 52.9297 69.543C52.8586 67.9557 51.6424 66.6133 50 66.6133C48.4676 66.6133 46.9994 67.9607 47.0703 69.543C47.1414 71.1303 48.3576 72.4727 50 72.4727Z" fill="white"/>
</svg>
