<svg width="25" height="24" viewBox="0 0 25 24" fill="none" xmlns="http://www.w3.org/2000/svg">
<g id="Gold" clip-path="url(#clip0_5982_433328)">
<g id="Group">
<path id="Vector" d="M12.561 24C5.94423 24 0.561035 18.6306 0.561035 12.0307C0.561035 5.39693 5.94423 0 12.561 0C19.1778 0 24.561 5.39693 24.561 12.0307C24.561 18.6306 19.1778 24 12.561 24Z" fill="url(#paint0_linear_5982_433328)"/>
<path id="Vector_2" d="M15.3869 17.3151L12.5611 15.8333L9.73521 17.3152C9.42401 17.4783 9.04734 17.451 8.76309 17.2451C8.47885 17.0391 8.33645 16.69 8.39583 16.3446L8.93552 13.206L6.64937 10.9832C6.3978 10.7386 6.30721 10.3727 6.41583 10.0394C6.52444 9.70608 6.81324 9.46313 7.16094 9.41274L10.3204 8.95484L11.7333 6.09921C11.8888 5.78493 12.2097 5.58594 12.5611 5.58594C12.9124 5.58594 13.2333 5.78493 13.3888 6.09914L14.8017 8.95478L17.9612 9.41268C18.3089 9.46307 18.5977 9.70602 18.7063 10.0393C18.8148 10.3726 18.7243 10.7385 18.4728 10.9831L16.1866 13.2059L16.7263 16.3445C16.7857 16.6899 16.6433 17.039 16.359 17.245C16.0775 17.4492 15.7007 17.4797 15.3869 17.3151Z" fill="white"/>
</g>
</g>
<defs>
<linearGradient id="paint0_linear_5982_433328" x1="12.5611" y1="24" x2="12.5611" y2="0" gradientUnits="userSpaceOnUse">
<stop stop-color="#A67C00"/>
<stop offset="1" stop-color="#FFBF00"/>
</linearGradient>
<clipPath id="clip0_5982_433328">
<rect width="24" height="24" fill="white" transform="translate(0.5)"/>
</clipPath>
</defs>
</svg>
