<svg width="24" height="24" viewBox="0 0 24 24" fill="none" xmlns="http://www.w3.org/2000/svg">
<g clip-path="url(#clip0_821_17840)">
<path d="M13.4062 7.07812H10.5938C9.43059 7.07812 8.48438 8.02434 8.48438 9.1875V13.4062C8.48438 13.7949 8.79886 14.1094 9.1875 14.1094H9.89062V20.4844C9.89062 20.873 10.2051 21.1875 10.5938 21.1875H13.4062C13.7949 21.1875 14.1094 20.873 14.1094 20.4844V14.1094H14.8125C15.2011 14.1094 15.5156 13.7949 15.5156 13.4062V9.1875C15.5156 8.02434 14.5694 7.07812 13.4062 7.07812ZM4.92188 14.1094H2.10938C0.946219 14.1094 0 15.0556 0 16.2188V19.0312C0 19.4199 0.314484 19.7344 0.703125 19.7344H6.32812C6.71677 19.7344 7.03125 19.4199 7.03125 19.0312V16.2188C7.03125 15.0556 6.08503 14.1094 4.92188 14.1094ZM21.8906 14.1094H19.0781C17.915 14.1094 16.9688 15.0556 16.9688 16.2188V19.0312C16.9688 19.4199 17.2832 19.7344 17.6719 19.7344H23.2969C23.6855 19.7344 24 19.4199 24 19.0312V16.2188C24 15.0556 23.0538 14.1094 21.8906 14.1094Z" fill="url(#paint0_linear_821_17840)"/>
<path d="M12 2.85938C10.8368 2.85938 9.89062 3.80559 9.89062 4.96875C9.89062 6.13191 10.8368 7.07812 12 7.07812C13.1632 7.07812 14.1094 6.13191 14.1094 4.96875C14.1094 3.80559 13.1632 2.85938 12 2.85938ZM3.51562 9.89062C2.35247 9.89062 1.40625 10.8368 1.40625 12C1.40625 13.1632 2.35247 14.1094 3.51562 14.1094C4.67878 14.1094 5.625 13.1632 5.625 12C5.625 10.8368 4.67878 9.89062 3.51562 9.89062ZM20.4844 9.89062C19.3212 9.89062 18.375 10.8368 18.375 12C18.375 13.1632 19.3212 14.1094 20.4844 14.1094C21.6475 14.1094 22.5938 13.1632 22.5938 12C22.5938 10.8368 21.6475 9.89062 20.4844 9.89062ZM7.78125 2.8125C8.16989 2.8125 8.48438 2.49802 8.48438 2.10938V1.40625H9.1875C9.57614 1.40625 9.89062 1.09177 9.89062 0.703125C9.89062 0.314484 9.57614 0 9.1875 0H7.78125C7.39261 0 7.07812 0.314484 7.07812 0.703125V2.10938C7.07812 2.49802 7.39261 2.8125 7.78125 2.8125ZM16.2188 0H14.8125C14.4239 0 14.1094 0.314484 14.1094 0.703125C14.1094 1.09177 14.4239 1.40625 14.8125 1.40625H15.5156V2.10938C15.5156 2.49802 15.8301 2.8125 16.2188 2.8125C16.6074 2.8125 16.9219 2.49802 16.9219 2.10938V0.703125C16.9219 0.314484 16.6074 0 16.2188 0ZM9.1875 22.5938H8.48438V21.8906C8.48438 21.502 8.16989 21.1875 7.78125 21.1875C7.39261 21.1875 7.07812 21.502 7.07812 21.8906V23.2969C7.07812 23.6855 7.39261 24 7.78125 24H9.1875C9.57614 24 9.89062 23.6855 9.89062 23.2969C9.89062 22.9082 9.57614 22.5938 9.1875 22.5938ZM16.2188 21.1875C15.8301 21.1875 15.5156 21.502 15.5156 21.8906V22.5938H14.8125C14.4239 22.5938 14.1094 22.9082 14.1094 23.2969C14.1094 23.6855 14.4239 24 14.8125 24H16.2188C16.6074 24 16.9219 23.6855 16.9219 23.2969V21.8906C16.9219 21.502 16.6074 21.1875 16.2188 21.1875Z" fill="url(#paint1_linear_821_17840)"/>
</g>
<defs>
<linearGradient id="paint0_linear_821_17840" x1="12" y1="21.1875" x2="12" y2="7.07812" gradientUnits="userSpaceOnUse">
<stop stop-color="#01035F"/>
<stop offset="1" stop-color="#00C0FF"/>
</linearGradient>
<linearGradient id="paint1_linear_821_17840" x1="12" y1="24" x2="12" y2="0" gradientUnits="userSpaceOnUse">
<stop stop-color="#ADDCFF"/>
<stop offset="0.5028" stop-color="#EAF6FF"/>
<stop offset="1" stop-color="#EAF6FF"/>
</linearGradient>
<clipPath id="clip0_821_17840">
<rect width="24" height="24" fill="white"/>
</clipPath>
</defs>
</svg>
