<svg width="14" height="15" viewBox="0 0 14 15" fill="none" xmlns="http://www.w3.org/2000/svg">
<path fill-rule="evenodd" clip-rule="evenodd" d="M7.26751 1.50019C7.34949 1.14124 7.70693 0.916714 8.06588 0.998693C9.53853 1.33503 10.8534 2.16139 11.7951 3.34247C12.7369 4.52355 13.2497 5.98938 13.2497 7.49996C13.2497 9.01054 12.7369 10.4764 11.7951 11.6574C10.8534 12.8385 9.53853 13.6649 8.06588 14.0012C7.70693 14.0832 7.34949 13.8587 7.26751 13.4997C7.18553 13.1408 7.41005 12.7833 7.769 12.7014C8.94722 12.4323 9.99917 11.7711 10.7526 10.8262C11.5061 9.88126 11.9164 8.70851 11.9164 7.49996C11.9164 6.2914 11.5061 5.11866 10.7526 4.17372C9.99917 3.22878 8.94722 2.56765 7.769 2.29856C7.41005 2.21658 7.18553 1.85914 7.26751 1.50019ZM5.90086 1.50089C5.98245 1.85993 5.75754 2.21713 5.3985 2.29872C4.74252 2.44779 4.1209 2.72031 3.56679 3.10176C3.26351 3.31053 2.84841 3.23392 2.63964 2.93064C2.43087 2.62737 2.50748 2.21227 2.81075 2.00349C3.50419 1.52614 4.28212 1.18508 5.10304 0.998532C5.46208 0.916943 5.81927 1.14186 5.90086 1.50089ZM1.70255 3.93016C2.02461 4.10861 2.14102 4.51435 1.96257 4.8364L1.85383 5.03265C1.59976 5.51955 1.41856 6.05033 1.32418 6.61068C1.26303 6.97376 0.919127 7.21852 0.556051 7.15737C0.192974 7.09622 -0.0517856 6.75231 0.0093641 6.38924C0.127885 5.68552 0.356102 5.01862 0.676176 4.40737L0.68364 4.39351L0.796307 4.19018C0.974756 3.86812 1.3805 3.75171 1.70255 3.93016ZM0.633624 8.52685C0.98733 8.4246 1.35696 8.62844 1.45921 8.98214C1.61747 9.52956 1.86285 10.0479 2.18593 10.5173C2.39468 10.8206 2.31805 11.2357 2.01476 11.4444C1.71146 11.6532 1.29637 11.5766 1.08762 11.2733C0.683369 10.686 0.376343 10.0374 0.178331 9.35244C0.0760766 8.99873 0.279918 8.6291 0.633624 8.52685ZM3.01953 12.3729C3.20309 12.0538 3.61063 11.9438 3.9298 12.1274C4.38791 12.3908 4.88287 12.5842 5.39824 12.7011C5.75731 12.7826 5.98237 13.1397 5.90092 13.4988C5.81948 13.8578 5.46237 14.0829 5.1033 14.0014C4.45815 13.8551 3.83854 13.613 3.26507 13.2832C2.9459 13.0996 2.83597 12.6921 3.01953 12.3729Z" fill="#0055B6"/>
<path fill-rule="evenodd" clip-rule="evenodd" d="M9.05555 5.69526C9.3159 5.95561 9.3159 6.37772 9.05555 6.63807L6.38889 9.30474C6.12854 9.56509 5.70643 9.56509 5.44608 9.30474L4.11274 7.9714C3.85239 7.71106 3.85239 7.28895 4.11274 7.0286C4.37309 6.76825 4.7952 6.76825 5.05555 7.0286L5.91748 7.89052L8.11274 5.69526C8.37309 5.43491 8.7952 5.43491 9.05555 5.69526Z" fill="#0055B6"/>
</svg>
