<svg width="24" height="24" viewBox="0 0 24 24" fill="none" xmlns="http://www.w3.org/2000/svg">
<g clip-path="url(#clip0_821_17872)">
<path d="M19.4707 22.7475L15.734 19.7579C15.4298 19.5155 14.9896 19.5663 14.7452 19.8678C14.5028 20.1713 14.5522 20.6135 14.8551 20.8566L18.5918 23.8462C18.894 24.0877 19.3358 24.0402 19.5806 23.7363C19.823 23.4328 19.7735 22.9906 19.4707 22.7475ZM21.8906 8.4375H2.10938C1.72073 8.4375 1.40625 8.75198 1.40625 9.14062V17.6719C1.40625 18.0605 1.72073 18.375 2.10938 18.375H7.78125C8.16989 18.375 8.48438 18.0605 8.48438 17.6719C8.48438 15.7335 10.0616 14.1562 12 14.1562C13.9384 14.1562 15.5156 15.7335 15.5156 17.6719C15.5156 18.0605 15.8301 18.375 16.2188 18.375H21.8906C22.2793 18.375 22.5938 18.0605 22.5938 17.6719V9.14062C22.5938 8.75198 22.2793 8.4375 21.8906 8.4375ZM9.1875 4.21875C9.57614 4.21875 9.89062 3.90427 9.89062 3.51562V1.40625H14.1094V3.51562C14.1094 3.90427 14.4239 4.21875 14.8125 4.21875C15.2011 4.21875 15.5156 3.90427 15.5156 3.51562V0.703125C15.5156 0.314484 15.2011 0 14.8125 0H9.1875C8.79886 0 8.48438 0.314484 8.48438 0.703125V3.51562C8.48438 3.90427 8.79886 4.21875 9.1875 4.21875Z" fill="url(#paint0_linear_821_17872)"/>
<path d="M23.2969 2.8125H0.703125C0.314484 2.8125 0 3.12698 0 3.51562V7.73438C0 8.89753 0.946219 9.84375 2.10938 9.84375H11.2969V10.5469C11.2969 10.9355 11.6114 11.25 12 11.25C12.3886 11.25 12.7031 10.9355 12.7031 10.5469V9.84375H21.8906C23.0538 9.84375 24 8.89753 24 7.73438V3.51562C24 3.12698 23.6855 2.8125 23.2969 2.8125ZM12 12.75C9.28636 12.75 7.07812 14.9582 7.07812 17.6719C7.07812 20.3855 9.28636 22.5938 12 22.5938C14.7136 22.5938 16.9219 20.3855 16.9219 17.6719C16.9219 14.9582 14.7136 12.75 12 12.75Z" fill="url(#paint1_linear_821_17872)"/>
</g>
<defs>
<linearGradient id="paint0_linear_821_17872" x1="12" y1="24" x2="12" y2="0" gradientUnits="userSpaceOnUse">
<stop stop-color="#ADDCFF"/>
<stop offset="0.5028" stop-color="#EAF6FF"/>
<stop offset="1" stop-color="#EAF6FF"/>
</linearGradient>
<linearGradient id="paint1_linear_821_17872" x1="12" y1="22.5938" x2="12" y2="2.8125" gradientUnits="userSpaceOnUse">
<stop stop-color="#01035F"/>
<stop offset="1" stop-color="#00C0FF"/>
</linearGradient>
<clipPath id="clip0_821_17872">
<rect width="24" height="24" fill="white"/>
</clipPath>
</defs>
</svg>
