<svg width="48" height="48" viewBox="0 0 48 48" fill="none" xmlns="http://www.w3.org/2000/svg">
<path d="M33.4295 22.2822C27.2878 22.2822 22.2876 27.2838 22.2876 33.4273C22.2876 39.5707 27.2878 44.5723 33.4295 44.5723C39.5712 44.5723 44.5714 39.5707 44.5714 33.4273C44.5714 27.2838 39.5712 22.2822 33.4295 22.2822ZM33.4295 41.1628C32.7221 41.1628 32.1433 40.5839 32.1433 39.8763C32.1433 39.1686 32.7221 38.5897 33.4295 38.5897C34.1369 38.5897 34.7157 39.1686 34.7157 39.8763C34.7157 40.5839 34.1369 41.1628 33.4295 41.1628ZM35.9859 33.7167C34.8604 34.5852 34.7157 35.3732 34.7157 36.4507C34.7157 37.1584 34.1369 37.7373 33.4295 37.7373C32.7221 37.7373 32.1433 37.1584 32.1433 36.4507C32.1433 34.5691 32.706 32.993 34.4263 31.6743C34.8765 31.3205 35.1498 30.7576 35.1498 30.1626C35.1498 29.1333 34.3781 28.297 33.4295 28.297C32.4809 28.297 31.7092 29.1333 31.7092 30.1626C31.7092 30.8702 31.1304 31.4491 30.423 31.4491C29.7155 31.4491 29.1367 30.8702 29.1367 30.1626C29.1367 27.718 31.0661 25.7238 33.4295 25.7238C35.7929 25.7238 37.7223 27.718 37.7223 30.1626C37.7062 31.5456 37.0631 32.8805 35.9859 33.7167Z" fill="#001A41"/>
<path d="M34.2495 3.6101C29.812 2.96681 25.8891 4.02824 22.2877 6.85873C18.6862 4.02824 14.7633 2.96681 10.3258 3.6101C8.83056 3.81917 7.72119 5.10576 7.72119 6.56925V25.3856C7.72119 26.2218 8.0749 27.0259 8.71801 27.6049C9.36112 28.1839 10.2293 28.4573 11.0814 28.3608C13.8147 28.0552 16.4514 28.6181 18.8792 30.0012C19.0078 30.0494 19.1043 30.1298 19.2168 30.1942C19.2329 30.1298 19.249 30.0655 19.265 30.0012C19.458 29.2131 19.7152 28.4412 20.0368 27.7014C17.6894 26.3827 15.1491 25.6911 12.5284 25.6911C11.9496 25.6911 11.3708 25.7233 10.776 25.7876C10.583 25.8037 10.4705 25.7233 10.4223 25.659C10.3419 25.5946 10.2936 25.482 10.2936 25.3695V6.55316C10.2936 6.34409 10.4705 6.16719 10.6795 6.11894C14.5542 5.55606 17.8502 6.50492 21.0014 9.11025C21.1622 9.20675 21.2908 9.35149 21.4516 9.46406C21.9339 9.89829 22.6574 9.89829 23.1237 9.46406C23.2845 9.33541 23.4131 9.20675 23.5739 9.11025C26.7251 6.521 30.0211 5.57214 33.8958 6.11894C34.1209 6.15111 34.2977 6.34409 34.2977 6.55316V18.8561C35.1659 18.9044 36.0341 19.0491 36.8702 19.2421V6.55316C36.8541 5.10576 35.7447 3.81917 34.2495 3.6101Z" fill="#001A41"/>
<path d="M19.2653 29.9988C19.2492 30.0632 19.2332 30.1275 19.2171 30.1918C19.0402 30.9638 18.9277 31.7679 18.8795 32.572H6.43525C4.79532 32.572 3.42871 31.2211 3.42871 29.5646V9.84772C3.42871 8.20733 4.76316 6.85641 6.41918 6.84033H8.55752C9.26494 6.84033 9.84374 7.40321 9.84374 8.12692C9.84374 8.83454 9.28102 9.4135 8.55752 9.4135H6.41918C6.17801 9.4135 5.98508 9.62257 5.98508 9.84772V29.5807C5.98508 29.8219 6.17801 30.0149 6.41918 30.0149H19.2653V29.9988Z" fill="#001A41"/>
<path d="M41.1469 9.84772V21.0732C40.343 20.5746 39.4748 20.1404 38.5745 19.8027V9.84772C38.5745 9.60649 38.3815 9.4135 38.1404 9.4135H36.002C35.2946 9.4135 34.7158 8.83454 34.7158 8.12692C34.7158 7.4193 35.2946 6.84033 36.002 6.84033H38.1404C39.7803 6.84033 41.1469 8.20733 41.1469 9.84772Z" fill="#001A41"/>
<path d="M23.5578 8.56539V22.7178C22.561 23.6184 21.6928 24.6799 20.9854 25.8378V8.56539C20.9854 7.85777 21.5642 7.27881 22.2716 7.27881C22.979 7.27881 23.5578 7.85777 23.5578 8.56539Z" fill="#001A41"/>
</svg>
