<svg width="86" height="119" viewBox="0 0 86 119" fill="none" xmlns="http://www.w3.org/2000/svg">
<path d="M68.342 39.4156L85.2581 6.13335C85.6293 5.49046 85.8247 4.76119 85.8247 4.01884C85.8247 3.2765 85.6293 2.54723 85.2581 1.90434C84.8633 1.30442 84.3223 0.814917 83.686 0.481967C83.0497 0.149018 82.3391 -0.0164082 81.6211 0.00128375H59.292C58.511 0.00365075 57.746 0.222223 57.0816 0.632773C56.4173 1.04332 55.8796 1.62981 55.5282 2.32724L42.968 27.0247L30.281 2.32724C29.9395 1.64863 29.4216 1.07451 28.7817 0.66522C28.1417 0.255932 27.4033 0.0265866 26.644 0.00128375H4.31486C3.585 -0.00296657 2.86647 0.181748 2.22915 0.53746C1.59183 0.893172 1.05743 1.40777 0.677908 2.03121C0.306735 2.6741 0.111328 3.40337 0.111328 4.14571C0.111328 4.88806 0.306735 5.61733 0.677908 6.26022L17.5939 39.5425C17.9512 40.232 18.4913 40.8099 19.1553 41.2127C19.8192 41.6156 20.5812 41.8278 21.3578 41.8262H30.9153C30.3021 43.6964 29.9881 45.6517 29.9849 47.6199C29.9431 48.4088 29.9431 49.1993 29.9849 49.9882C22.2302 53.0236 15.779 58.672 11.7458 65.9579C7.71262 73.2437 6.35064 81.7094 7.89514 89.8925C9.43964 98.0757 13.7936 105.463 20.205 110.777C26.6164 116.092 34.6826 119 43.0103 119C51.338 119 59.4041 116.092 65.8155 110.777C72.2269 105.463 76.5809 98.0757 78.1254 89.8925C79.6699 81.7094 78.308 73.2437 74.2747 65.9579C70.2415 58.672 63.7904 53.0236 56.0356 49.9882C56.1498 49.1749 56.2204 48.3561 56.2471 47.5353C56.3407 45.5714 56.1412 43.6044 55.655 41.6993H64.9166C65.6348 41.642 66.3264 41.4021 66.9259 41.0025C67.5255 40.6028 68.0129 40.0566 68.342 39.4156ZM64.4514 77.4767L53.6674 88.007L56.2048 102.893L42.968 95.7883L29.6043 102.808L32.1417 87.9224L21.3578 77.3921L36.2862 75.2354L42.968 61.6602L49.6498 75.2354L64.4514 77.4767ZM47.7468 47.5776C47.7468 47.5776 47.7468 47.5776 47.7468 47.8737C46.1658 47.614 44.5694 47.4586 42.968 47.4085C41.4254 47.4129 39.8851 47.526 38.3584 47.7468C38.3386 47.6634 38.3386 47.5765 38.3584 47.4931C38.3028 45.4132 38.9427 43.3743 40.1769 41.6993H46.0975C47.3166 43.3797 47.9415 45.4181 47.8736 47.4931L47.7468 47.5776Z" fill="#990016"/>
</svg>
