<svg width="55" height="54" viewBox="0 0 55 54" fill="none" xmlns="http://www.w3.org/2000/svg">
<g clip-path="url(#clip0_4138_59544)">
<mask id="mask0_4138_59544" style="mask-type:luminance" maskUnits="userSpaceOnUse" x="0" y="0" width="55" height="54">
<path d="M0.5 1.52588e-05H54.5V54H0.5V1.52588e-05Z" fill="white"/>
</mask>
<g mask="url(#mask0_4138_59544)">
<path fill-rule="evenodd" clip-rule="evenodd" d="M33.4063 5.27344C24.669 5.27344 17.5859 12.3565 17.5859 21.0937C17.5859 29.8311 24.669 36.9141 33.4063 36.9141C33.7917 36.9141 34.1739 36.9001 34.5522 36.8731C34.5222 36.7189 34.5065 36.5602 34.5065 36.3983C34.5065 35.0102 35.6422 33.8745 37.0304 33.8745H37.5747C37.5747 31.0867 39.8346 28.8267 42.6224 28.8267C44.0394 28.8267 45.32 29.4106 46.2366 30.351C48.1179 27.7483 49.2266 24.5505 49.2266 21.0937C49.2266 12.3565 42.1436 5.27344 33.4063 5.27344Z" fill="#C4DCF2"/>
<path fill-rule="evenodd" clip-rule="evenodd" d="M17.5859 21.0938C17.5859 12.3565 24.6689 5.27345 33.4062 5.27345C42.1435 5.27345 49.2266 12.3565 49.2266 21.0938C49.2266 24.5505 48.1178 27.7483 46.2367 30.3509C46.5096 30.6308 46.7503 30.9422 46.9527 31.2793C47.2293 31.203 47.5205 31.162 47.8214 31.162C48.7267 31.162 49.5458 31.5311 50.1364 32.127C52.2276 28.9627 53.4453 25.1705 53.4453 21.0938C53.4453 10.0265 44.4735 1.0547 33.4062 1.0547C27.714 1.0547 22.5761 3.42806 18.9281 7.23917C17.261 8.98077 15.9051 11.0228 14.9496 13.2756C13.9307 15.6778 13.3672 18.3199 13.3672 21.0938C13.3672 25.507 14.7938 29.587 17.211 32.8978C18.4383 34.5787 19.9208 36.0612 21.6017 37.2886C24.9125 39.706 28.9927 41.1328 33.4062 41.1328C36.7058 41.1328 39.8191 40.335 42.5639 38.9223H37.0138C35.7993 38.9223 34.7766 38.0259 34.5522 36.8731C34.1738 36.9001 33.7916 36.9141 33.4062 36.9141C24.6689 36.9141 17.5859 29.8311 17.5859 21.0938Z" fill="#CCCCCC"/>
<path fill-rule="evenodd" clip-rule="evenodd" d="M14.9487 13.2734C15.9041 11.0206 17.2601 8.97865 18.9272 7.23704C18.3781 6.21125 17.2963 5.51326 16.0513 5.51326C15.7505 5.51326 15.4592 5.55418 15.1827 5.63054C14.3002 4.16115 12.6911 3.17797 10.8524 3.17797C8.0645 3.17797 5.80463 5.43785 5.80463 8.2257H5.2603C3.87212 8.2257 2.73633 9.36139 2.73633 10.7496C2.73633 12.1214 3.86695 13.2734 5.24364 13.2734H14.9487Z" fill="#EAF4FF"/>
<path fill-rule="evenodd" clip-rule="evenodd" d="M42.6258 28.8264C39.8379 28.8264 37.5781 31.0863 37.5781 33.8741H37.0337C35.6455 33.8741 34.5098 35.0098 34.5098 36.398C34.5098 36.5598 34.5255 36.7186 34.5555 36.8728C34.78 38.0256 35.8028 38.9219 37.0172 38.9219H42.5673H51.0756C52.3808 38.9219 53.4487 37.854 53.4487 36.5488C53.4487 35.2437 52.3808 34.1758 51.0756 34.1758C51.0161 33.3787 50.67 32.6614 50.14 32.1266C49.5493 31.5308 48.7301 31.1617 47.8248 31.1617C47.5239 31.1617 47.2327 31.2026 46.9561 31.279C46.7537 30.9419 46.513 30.6305 46.2401 30.3505C45.3234 29.4103 44.0428 28.8264 42.6258 28.8264Z" fill="#EAF4FF"/>
<path fill-rule="evenodd" clip-rule="evenodd" d="M17.4669 41.6033L12.8963 37.0327L2.58601 46.9133C1.21091 48.2885 1.21091 50.5388 2.58601 51.9139C3.96122 53.2891 6.2114 53.2891 7.5866 51.9139L17.4669 41.6033Z" fill="#CCCCCC"/>
<path fill-rule="evenodd" clip-rule="evenodd" d="M12.8965 37.0329L17.4671 41.6035L21.602 37.2886C19.9211 36.0613 18.4387 34.5787 17.2114 32.8978L12.8965 37.0329Z" fill="#001A41"/>
<path d="M50.1669 32.081C52.2394 28.9259 53.4453 25.1508 53.4453 21.0938C53.4453 10.0265 44.4735 1.05469 33.4062 1.05469C22.339 1.05469 13.3672 10.0265 13.3672 21.0938C13.3672 32.161 22.339 41.1328 33.4062 41.1328C36.7041 41.1328 39.8157 40.3359 42.5595 38.9246" stroke="#CCCCCC" stroke-width="2.10937" stroke-miterlimit="22.926" stroke-linecap="round" stroke-linejoin="round"/>
<path d="M26.0396 7.09098C28.2399 5.93104 30.7461 5.27344 33.4062 5.27344C42.1435 5.27344 49.2266 12.3565 49.2266 21.0938C49.2266 24.5032 48.1479 27.6608 46.3134 30.2438M34.3738 36.8848C33.9954 36.912 33.7916 36.9141 33.4062 36.9141C24.6689 36.9141 17.5859 29.8311 17.5859 21.0938C17.5859 18.4338 18.2433 15.9275 19.4033 13.7276" stroke="#EAF4FF" stroke-width="2.10937" stroke-miterlimit="22.926" stroke-linecap="round" stroke-linejoin="round"/>
<path d="M21.5375 37.3555L7.58668 51.9139C6.21148 53.2891 3.9613 53.2891 2.58609 51.9139C1.21089 50.5388 1.21089 48.2885 2.58609 46.9133L17.0481 33.054" stroke="#CCCCCC" stroke-width="2.10937" stroke-miterlimit="22.926" stroke-linecap="round" stroke-linejoin="round"/>
<path d="M13.1992 37.3339L17.1661 41.3008" stroke="#CCCCCC" stroke-width="2.10937" stroke-miterlimit="22.926" stroke-linecap="round" stroke-linejoin="round"/>
<path d="M28.1328 21.0938H28.1343" stroke="#EAF4FF" stroke-width="2.10937" stroke-miterlimit="22.926" stroke-linecap="round" stroke-linejoin="round"/>
<path d="M33.4062 21.0938H33.4078" stroke="#EAF4FF" stroke-width="2.10937" stroke-miterlimit="22.926" stroke-linecap="round" stroke-linejoin="round"/>
<path d="M38.6797 21.0938H38.6812" stroke="#EAF4FF" stroke-width="2.10937" stroke-miterlimit="22.926" stroke-linecap="round" stroke-linejoin="round"/>
<path d="M37.0171 38.9219H51.0755C52.3807 38.9219 53.4486 37.854 53.4486 36.5488C53.4486 35.2437 52.3807 34.1758 51.0755 34.1758C50.9498 32.4902 49.5424 31.1617 47.8247 31.1617C47.5239 31.1617 47.2326 31.2026 46.956 31.279C46.0736 29.8096 44.4644 28.8264 42.6257 28.8264C39.8378 28.8264 37.578 31.0863 37.578 33.8741H37.0336C35.6455 33.8741 34.5098 35.0098 34.5098 36.398C34.5098 37.7698 35.6403 38.9219 37.0171 38.9219Z" stroke="#C4DCF2" stroke-width="2.10937" stroke-miterlimit="22.926" stroke-linecap="round" stroke-linejoin="round"/>
<path d="M18.8703 7.13178C18.305 6.16379 17.2552 5.51326 16.0533 5.51326C15.7524 5.51326 15.4612 5.55418 15.1846 5.63054C14.3021 4.16115 12.6931 3.17797 10.8543 3.17797C8.06646 3.17797 5.80658 5.43785 5.80658 8.2257H5.26225C3.87397 8.2257 2.73828 9.36139 2.73828 10.7496C2.73828 12.1214 3.86891 13.2734 5.24559 13.2734H14.7729" stroke="#C4DCF2" stroke-width="2.10937" stroke-miterlimit="22.926" stroke-linecap="round" stroke-linejoin="round"/>
<path d="M22.2227 9.90625H22.2242" stroke="#EAF4FF" stroke-width="2.10937" stroke-miterlimit="2.613" stroke-linecap="round" stroke-linejoin="round"/>
</g>
</g>
<defs>
<clipPath id="clip0_4138_59544">
<rect width="54" height="54" fill="white" transform="translate(0.5)"/>
</clipPath>
</defs>
</svg>
