<svg width="48" height="48" viewBox="0 0 48 48" fill="none" xmlns="http://www.w3.org/2000/svg">
<g clip-path="url(#clip0_674_3371)">
<path fill-rule="evenodd" clip-rule="evenodd" d="M23.5623 43.9478C25.8187 43.9478 27.6649 42.1016 27.6649 39.8452H19.4597C19.4597 42.1016 21.2854 43.9478 23.5623 43.9478ZM35.87 31.6919V21.4354C35.87 15.138 32.5059 9.86619 26.6392 8.47131V7.07644C26.6392 5.37387 25.2648 3.99951 23.5623 3.99951C21.8597 3.99951 20.4853 5.37387 20.4853 7.07644V8.47131C14.5982 9.86619 11.2546 15.1175 11.2546 21.4354V31.6919L8.6084 34.338C7.31609 35.6303 8.21866 37.8457 10.0443 37.8457H37.0597C38.8854 37.8457 39.8084 35.6303 38.5161 34.338L35.87 31.6919Z" fill="#001A41"/>
</g>
<defs>
<clipPath id="clip0_674_3371">
<rect width="40" height="40" fill="white" transform="translate(4 4)"/>
</clipPath>
</defs>
</svg>
