<svg width="20" height="20" viewBox="0 0 20 20" fill="none" xmlns="http://www.w3.org/2000/svg">
<rect width="20" height="20" rx="4" fill="url(#paint0_radial_4755_27782)"/>
<path fill-rule="evenodd" clip-rule="evenodd" d="M14.1084 3.55264C14.2602 3.6898 14.272 3.92401 14.1348 4.07576L14.1281 4.08323C13.7212 4.53339 13.2967 5.00305 12.91 5.36923L12.9083 5.37086C12.5201 5.73376 12.1399 6.02888 11.7846 6.17652C11.4021 6.33735 11.09 6.30485 10.8173 6.24543C10.753 6.2323 10.7042 6.22084 10.661 6.21069C10.602 6.19685 10.5535 6.18545 10.4901 6.17559C10.4002 6.1616 10.345 6.16448 10.3048 6.17615L10.3031 6.17663C10.2518 6.19123 10.1812 6.22828 10.0848 6.30228C10.0804 6.30568 10.076 6.30912 10.0715 6.31259C10.065 6.32064 10.0581 6.32849 10.0509 6.3361C10.0238 6.36443 9.99324 6.38752 9.96056 6.40535C9.90294 6.45606 9.84258 6.51237 9.7768 6.57389C9.76447 6.58542 9.75156 6.59595 9.73818 6.60547C9.72098 6.64332 9.69706 6.6789 9.66641 6.71042L8.48388 7.92642C8.46221 7.9487 8.4494 7.96561 8.442 7.97698C8.45132 7.98888 8.46776 8.00689 8.49565 8.03013C8.54414 8.07056 8.61513 8.11673 8.71242 8.16619L8.71543 8.16774C8.82877 8.22667 9.01016 8.23952 9.22947 8.17967C9.44596 8.12058 9.63515 8.00725 9.73684 7.90269L10.1815 7.44548C10.189 7.43718 10.197 7.42834 10.2054 7.41904C10.3513 7.25758 10.6228 6.95715 11.0422 6.95715C11.2573 6.95715 11.4695 7.03562 11.68 7.15802C11.892 7.28124 12.1278 7.46406 12.3971 7.7084C12.8854 8.15147 13.5212 8.84046 13.9959 9.35478C14.0412 9.40389 14.085 9.45141 14.1271 9.49697C14.2928 9.67445 14.4343 9.82459 14.5599 9.95706C14.624 9.86013 14.6551 9.78975 14.6661 9.73897L14.6664 9.73727C14.6755 9.69633 14.6748 9.64111 14.6551 9.55229C14.6412 9.48967 14.6267 9.44194 14.6091 9.38403C14.5961 9.34155 14.5816 9.29359 14.5643 9.23025C14.4875 8.96195 14.4349 8.65251 14.5709 8.26044C14.6954 7.89636 14.9654 7.49798 15.3025 7.08729L15.304 7.08546C15.6446 6.67604 16.0859 6.22218 16.509 5.78717L16.516 5.77994C16.6586 5.6333 16.8931 5.63003 17.0397 5.77264C17.1864 5.91524 17.1896 6.14973 17.047 6.29637C16.6162 6.73938 16.1944 7.17348 15.8742 7.55827C15.5495 7.95392 15.3511 8.26769 15.2716 8.50066L15.2709 8.50257C15.2038 8.69584 15.2218 8.83616 15.277 9.0283C15.2775 9.03005 15.278 9.03181 15.2785 9.03357C15.2848 9.05685 15.2944 9.08911 15.3054 9.12615C15.3293 9.20651 15.3599 9.30933 15.3782 9.39156C15.4093 9.5318 15.4316 9.70685 15.3899 9.89616C15.3502 10.0796 15.2604 10.2424 15.1701 10.3771C15.1419 10.4194 15.1118 10.4612 15.081 10.5024C15.0998 10.522 15.1186 10.5416 15.1373 10.5611L15.2885 10.7173C15.2886 10.7174 15.2887 10.7175 15.2888 10.7177C15.7392 11.1812 15.7391 11.934 15.2885 12.3973C15.0698 12.6223 14.7836 12.7394 14.4947 12.7487C14.4881 13.0439 14.3758 13.3374 14.159 13.564L14.1569 13.5662C13.9375 13.7918 13.6511 13.9085 13.3618 13.9175C13.3551 14.2128 13.2409 14.506 13.0193 14.7308C12.8007 14.955 12.5149 15.0718 12.2264 15.0811C12.2197 15.3759 12.1072 15.6687 11.8887 15.8933C11.4326 16.3624 10.6832 16.3626 10.2268 15.8941C10.2266 15.8939 10.2263 15.8936 10.2261 15.8933L10.0114 15.6749L9.65562 16.0408C9.20619 16.5029 8.49887 16.3583 8.09147 15.9393C7.88659 15.7287 7.75126 15.4437 7.72411 15.1549C7.44024 15.1241 7.16163 14.9832 6.95796 14.7738C6.75307 14.5631 6.61774 14.2781 6.59061 13.9892C6.30673 13.9584 6.02812 13.8176 5.82445 13.6081C5.61958 13.3975 5.48425 13.1125 5.4571 12.8236C5.1732 12.7929 4.89455 12.652 4.69086 12.4425C4.28505 12.0252 4.15212 11.3164 4.59225 10.8638L4.82028 10.6293C4.65779 10.4179 4.49966 10.1616 4.43538 9.85008C4.43496 9.84803 4.43456 9.84598 4.43417 9.84393C4.41273 9.73028 4.40482 9.61648 4.39964 9.51503C4.3979 9.481 4.39648 9.44889 4.39509 9.41769C4.39206 9.3491 4.38921 9.28499 4.38366 9.2148C4.36849 9.02299 4.33538 8.83285 4.23884 8.6281C4.13782 8.41385 3.95708 8.16335 3.71531 7.87959C3.48417 7.6083 3.21434 7.32596 2.93491 7.03358C2.92474 7.02294 2.91455 7.01228 2.90436 7.00161C2.76304 6.85372 2.76837 6.61927 2.91625 6.47796C3.06414 6.33664 3.29859 6.34197 3.4399 6.48986C3.45206 6.50258 3.46424 6.51532 3.47643 6.52808C3.75083 6.81518 4.0339 7.11135 4.27915 7.39919C4.53308 7.69722 4.7652 8.00755 4.90884 8.31219C5.05697 8.62634 5.10286 8.91317 5.1221 9.1564C5.12871 9.23998 5.13248 9.32481 5.13576 9.39855C5.137 9.42662 5.13818 9.45309 5.13941 9.47727C5.14419 9.5708 5.15018 9.64224 5.16149 9.7035C5.18986 9.83832 5.25251 9.96047 5.34403 10.0907L5.78566 9.63659C6.23509 9.17444 6.9424 9.31905 7.34981 9.73799C7.55469 9.94867 7.69002 10.2337 7.71716 10.5225C8.00107 10.5532 8.27972 10.6941 8.4834 10.9036C8.68829 11.1143 8.82362 11.3993 8.85076 11.6881C9.13463 11.7189 9.41325 11.8598 9.61691 12.0692C9.82179 12.2799 9.95712 12.5649 9.98426 12.8537C10.0829 12.8644 10.1809 12.8884 10.2754 12.9239C10.4158 12.854 10.5909 12.8789 10.7061 12.9973L11.8887 14.2133C12.0542 14.3835 12.3238 14.3835 12.4893 14.2133L12.4914 14.2112C12.6648 14.0357 12.6648 13.7437 12.4914 13.5683L12.4887 13.5656L11.3113 12.3496C11.169 12.2026 11.1727 11.9682 11.3197 11.8259C11.4666 11.6836 11.7011 11.6874 11.8434 11.8343L13.0193 13.0487C13.1913 13.2215 13.4608 13.2184 13.6249 13.0508C13.7988 12.8678 13.7955 12.5718 13.6259 12.3973L12.4433 11.1813C12.3007 11.0347 12.304 10.8002 12.4506 10.6576C12.5973 10.515 12.8318 10.5183 12.9744 10.6649L14.1569 11.8809C14.3224 12.0511 14.592 12.0511 14.7575 11.8809C14.9286 11.7049 14.9286 11.4097 14.7575 11.2338L14.7569 11.2332L14.651 11.1238C14.6466 11.1196 14.6422 11.1152 14.638 11.1108C14.6265 11.0988 14.615 11.0868 14.6036 11.0748L13.5795 10.0172C13.5524 9.98919 13.5306 9.95804 13.5141 9.92495C13.4945 9.9038 13.4748 9.88238 13.4548 9.86071C12.9743 9.34015 12.3615 8.67628 11.8994 8.25698C11.6488 8.0296 11.4564 7.88483 11.3077 7.7984C11.1576 7.71114 11.0768 7.69789 11.0422 7.69789C11.0154 7.69789 10.985 7.70509 10.9341 7.74273C10.8738 7.78724 10.815 7.85055 10.7239 7.94996C10.7214 7.95263 10.719 7.95527 10.7164 7.95787L10.2679 8.41911C10.0586 8.63427 9.74576 8.8066 9.4245 8.89427C9.10656 8.98104 8.71525 9.00182 8.37533 8.82579C8.13374 8.7028 7.87692 8.5279 7.75839 8.27072C7.69286 8.12855 7.67366 7.96905 7.71595 7.8067C7.75629 7.65181 7.84565 7.52021 7.95284 7.41L9.13537 6.19399C9.15136 6.17755 9.16851 6.16291 9.18656 6.15008C9.19745 6.12608 9.21103 6.10303 9.22727 6.08139C9.13795 6.01384 9.05718 5.96959 8.97209 5.94856C8.88209 5.92976 8.76893 5.92978 8.6075 5.93999C8.57788 5.94187 8.54609 5.94415 8.51264 5.94655C8.37921 5.95612 8.21924 5.96759 8.0643 5.96284C7.64174 5.94986 7.24648 5.81662 6.82258 5.51806L6.81976 5.51606C6.41572 5.22579 5.97386 4.77502 5.56741 4.35706C5.4248 4.21041 5.42807 3.97593 5.57471 3.83332C5.72136 3.69072 5.95584 3.69399 6.09845 3.84063C6.51715 4.27118 6.91071 4.669 7.25054 4.91345C7.57017 5.13826 7.82696 5.21446 8.08703 5.22244C8.20037 5.22592 8.31058 5.21812 8.43865 5.20905C8.4775 5.2063 8.518 5.20344 8.56072 5.20073C8.72828 5.19013 8.93276 5.18213 9.13268 5.22541C9.13523 5.22596 9.13778 5.22654 9.14032 5.22715C9.40749 5.29093 9.62828 5.44403 9.80557 5.5962C9.89466 5.54219 9.99293 5.49484 10.0995 5.46442C10.2858 5.41064 10.462 5.42156 10.604 5.44365C10.6872 5.4566 10.7918 5.4805 10.8735 5.49917C10.9112 5.50778 10.944 5.51528 10.9676 5.52008C10.9694 5.52045 10.9712 5.52082 10.973 5.52121C11.1683 5.56394 11.3095 5.57289 11.498 5.49347L11.4999 5.49269C11.7272 5.39836 12.0276 5.18009 12.4016 4.83056C12.7649 4.48634 13.171 4.03747 13.5853 3.57905C13.7225 3.4273 13.9567 3.41548 14.1084 3.55264ZM11.3576 14.7298L11.075 14.4391C11.0317 14.5741 10.9579 14.7017 10.849 14.8136L10.5279 15.1438L10.7557 15.3755L10.7571 15.3769C10.9226 15.5471 11.1921 15.5471 11.3576 15.3769C11.5287 15.2009 11.5287 14.9057 11.3576 14.7298ZM5.561 10.9301C5.57708 10.9161 5.59167 10.9011 5.60474 10.8851L6.3167 10.153C6.38338 10.0844 6.60115 10.0306 6.81877 10.2544C7.03799 10.4798 6.99337 10.7222 6.91739 10.8003L5.72397 12.0275C5.65729 12.0961 5.43953 12.1499 5.2219 11.9261C5.00268 11.7007 5.04731 11.4583 5.12329 11.3802L5.561 10.9301ZM7.95236 11.42C7.73474 11.1962 7.51697 11.25 7.45029 11.3186L6.25688 12.5458C6.1809 12.6239 6.13627 12.8663 6.35549 13.0917C6.57312 13.3155 6.79088 13.2617 6.85756 13.1931L8.05098 11.9659C8.12696 11.8878 8.17158 11.6454 7.95236 11.42ZM9.08587 12.5856C8.86824 12.3618 8.65048 12.4157 8.5838 12.4842L7.39038 13.7114C7.31441 13.7895 7.26978 14.0319 7.489 14.2573C7.70663 14.4811 7.92439 14.4273 7.99107 14.3587L9.18449 13.1316C9.26046 13.0534 9.30509 12.8111 9.08587 12.5856ZM10.2194 13.7512C10.0017 13.5274 9.78399 13.5812 9.71731 13.6498L8.52389 14.877C8.44791 14.9551 8.40329 15.1975 8.62251 15.4229C8.84013 15.6467 9.0579 15.5929 9.12458 15.5243L10.318 14.2971C10.394 14.219 10.4386 13.9766 10.2194 13.7512Z" fill="white"/>
<defs>
<radialGradient id="paint0_radial_4755_27782" cx="0" cy="0" r="1" gradientUnits="userSpaceOnUse" gradientTransform="translate(-4.28408e-07 1.25) rotate(44.5265) scale(26.7384)">
<stop stop-color="#439CDC"/>
<stop offset="0.492708" stop-color="#072B52"/>
<stop offset="0.9875" stop-color="#0055B6"/>
</radialGradient>
</defs>
</svg>
