<svg width="100" height="101" viewBox="0 0 100 101" fill="none" xmlns="http://www.w3.org/2000/svg">
<g clip-path="url(#clip0_6285_3345)">
<mask id="mask0_6285_3345" style="mask-type:luminance" maskUnits="userSpaceOnUse" x="-1" y="0" width="101" height="101">
<path d="M-0.00488281 0.501968H99.9951V100.502H-0.00488281V0.501968Z" fill="white"/>
</mask>
<g mask="url(#mask0_6285_3345)">
<path fill-rule="evenodd" clip-rule="evenodd" d="M60.9336 10.2676C44.7535 10.2676 31.6367 23.3844 31.6367 39.5645C31.6367 55.7447 44.7535 68.8613 60.9336 68.8613C61.6475 68.8613 62.3551 68.8355 63.0557 68.7855C63.0002 68.5 62.9711 68.2061 62.9711 67.9062C62.9711 65.3357 65.0742 63.2324 67.6449 63.2324H68.6529C68.6529 58.0699 72.8379 53.8848 78.0006 53.8848C80.6246 53.8848 82.9961 54.966 84.6936 56.7074C88.1773 51.8877 90.2305 45.9658 90.2305 39.5645C90.2305 23.3844 77.1139 10.2676 60.9336 10.2676Z" fill="#C4DCF2"/>
<path fill-rule="evenodd" clip-rule="evenodd" d="M31.6367 39.5645C31.6367 23.3844 44.7533 10.2676 60.9336 10.2676C77.1137 10.2676 90.2305 23.3844 90.2305 39.5645C90.2305 45.9658 88.1771 51.8877 84.6937 56.7072C85.199 57.2256 85.6447 57.8023 86.0195 58.4266C86.5318 58.2854 87.0711 58.2094 87.6283 58.2094C89.3049 58.2094 90.8217 58.893 91.9154 59.9965C95.7879 54.1365 98.043 47.1141 98.043 39.5645C98.043 19.0695 81.4285 2.45509 60.9336 2.45509C50.3924 2.45509 40.8777 6.8502 34.1223 13.9078C31.035 17.133 28.524 20.9145 26.7547 25.0863C24.8678 29.535 23.8242 34.4277 23.8242 39.5645C23.8242 47.7371 26.466 55.2928 30.9424 61.4238C33.2152 64.5365 35.9605 67.282 39.0732 69.5549C45.2045 74.0316 52.7603 76.6738 60.9336 76.6738C67.0439 76.6738 72.8092 75.1965 77.8922 72.5803H67.6143C65.3652 72.5803 63.4713 70.9203 63.0557 68.7855C62.3551 68.8355 61.6473 68.8613 60.9336 68.8613C44.7533 68.8613 31.6367 55.7447 31.6367 39.5645Z" fill="#CCCCCC"/>
<path fill-rule="evenodd" clip-rule="evenodd" d="M26.7551 25.0859C28.5244 20.9141 31.0355 17.1326 34.1227 13.9074C33.1059 12.0078 31.1025 10.7152 28.7971 10.7152C28.24 10.7152 27.7006 10.791 27.1885 10.9324C25.5543 8.21133 22.5744 6.39063 19.1693 6.39063C14.0066 6.39063 9.82168 10.5756 9.82168 15.7383H8.81367C6.24297 15.7383 4.13965 17.8414 4.13965 20.4121C4.13965 22.9525 6.2334 25.0859 8.78281 25.0859H26.7551Z" fill="#EAF4FF"/>
<path fill-rule="evenodd" clip-rule="evenodd" d="M78.0003 53.8849C72.8376 53.8849 68.6527 58.0699 68.6527 63.2325H67.6447C65.0738 63.2325 62.9706 65.3357 62.9706 67.9064C62.9706 68.206 62.9997 68.5001 63.0554 68.7857C63.471 70.9204 65.3652 72.5802 67.614 72.5802H77.8919H93.6482C96.0652 72.5802 98.0427 70.6027 98.0427 68.1857C98.0427 65.7687 96.0652 63.7911 93.6482 63.7911C93.538 62.315 92.897 60.9866 91.9156 59.9964C90.8216 58.8931 89.3046 58.2095 87.6281 58.2095C87.0708 58.2095 86.5316 58.2853 86.0195 58.4267C85.6447 57.8025 85.1988 57.2257 84.6935 56.7074C82.9958 54.9661 80.6244 53.8849 78.0003 53.8849Z" fill="#EAF4FF"/>
<path fill-rule="evenodd" clip-rule="evenodd" d="M31.4153 77.5451L22.9513 69.081L3.85811 87.3785C1.31162 89.9251 1.31162 94.0923 3.85811 96.6388C6.40478 99.1855 10.5718 99.1855 13.1185 96.6388L31.4153 77.5451Z" fill="#CCCCCC"/>
<path fill-rule="evenodd" clip-rule="evenodd" d="M22.9531 69.0807L31.4172 77.5448L39.0744 69.5542C35.9617 67.2815 33.2164 64.5358 30.9438 61.4231L22.9531 69.0807Z" fill="#001A41"/>
<path d="M91.9719 59.9111C95.8098 54.0684 98.043 47.0775 98.043 39.5645C98.043 19.0695 81.4285 2.45509 60.9336 2.45509C40.4387 2.45509 23.8242 19.0695 23.8242 39.5645C23.8242 60.0594 40.4387 76.6738 60.9336 76.6738C67.0408 76.6738 72.8029 75.198 77.884 72.5846" stroke="#CCCCCC" stroke-width="3.90625" stroke-miterlimit="22.926" stroke-linecap="round" stroke-linejoin="round"/>
<path d="M47.2916 13.6334C51.3662 11.4854 56.0074 10.2676 60.9336 10.2676C77.1137 10.2676 90.2305 23.3844 90.2305 39.5645C90.2305 45.8783 88.233 51.7256 84.8357 56.509M62.7254 68.8072C62.0246 68.8574 61.6473 68.8613 60.9336 68.8613C44.7533 68.8613 31.6367 55.7447 31.6367 39.5645C31.6367 34.6387 32.8541 29.9973 35.0021 25.9234" stroke="#EAF4FF" stroke-width="3.90625" stroke-miterlimit="22.926" stroke-linecap="round" stroke-linejoin="round"/>
<path d="M38.9534 69.6789L13.1187 96.6388C10.572 99.1855 6.40499 99.1855 3.85831 96.6388C1.31163 94.0923 1.31163 89.9251 3.85831 87.3785L30.6398 61.713" stroke="#CCCCCC" stroke-width="3.90625" stroke-miterlimit="22.926" stroke-linecap="round" stroke-linejoin="round"/>
<path d="M23.5107 69.6402L30.8568 76.9863" stroke="#CCCCCC" stroke-width="3.90625" stroke-miterlimit="22.926" stroke-linecap="round" stroke-linejoin="round"/>
<path d="M51.1659 39.5636H51.1674" stroke="#EAF4FF" stroke-width="3.90625" stroke-miterlimit="22.926" stroke-linecap="round" stroke-linejoin="round"/>
<path d="M60.9316 39.5635H60.9331" stroke="#EAF4FF" stroke-width="3.90625" stroke-miterlimit="22.926" stroke-linecap="round" stroke-linejoin="round"/>
<path d="M70.698 39.5645H70.6995" stroke="#EAF4FF" stroke-width="3.90625" stroke-miterlimit="22.926" stroke-linecap="round" stroke-linejoin="round"/>
<path d="M67.6138 72.5802H93.648C96.065 72.5802 98.0425 70.6027 98.0425 68.1857C98.0425 65.7687 96.065 63.7911 93.648 63.7911C93.4152 60.6697 90.8089 58.2095 87.6279 58.2095C87.0708 58.2095 86.5314 58.2853 86.0193 58.4267C84.3851 55.7056 81.4052 53.8849 78.0001 53.8849C72.8374 53.8849 68.6525 58.0699 68.6525 63.2325H67.6445C65.0738 63.2325 62.9706 65.3357 62.9706 67.9064C62.9706 70.4468 65.0642 72.5802 67.6138 72.5802Z" stroke="#C4DCF2" stroke-width="3.90625" stroke-miterlimit="22.926" stroke-linecap="round" stroke-linejoin="round"/>
<path d="M34.0127 13.7125C32.966 11.9199 31.0219 10.7152 28.7961 10.7152C28.2389 10.7152 27.6996 10.791 27.1875 10.9324C25.5531 8.21133 22.5734 6.39063 19.1684 6.39063C14.0057 6.39063 9.8207 10.5756 9.8207 15.7383H8.8127C6.2418 15.7383 4.13867 17.8414 4.13867 20.4121C4.13867 22.9525 6.23242 25.0859 8.78184 25.0859H26.425" stroke="#C4DCF2" stroke-width="3.90625" stroke-miterlimit="22.926" stroke-linecap="round" stroke-linejoin="round"/>
<path d="M40.2156 18.8486H40.2171" stroke="#EAF4FF" stroke-width="3.90625" stroke-miterlimit="2.613" stroke-linecap="round" stroke-linejoin="round"/>
</g>
</g>
<defs>
<clipPath id="clip0_6285_3345">
<rect width="100" height="100" fill="white" transform="translate(0 0.5)"/>
</clipPath>
</defs>
</svg>
