<svg width="24" height="24" viewBox="0 0 24 24" fill="none" xmlns="http://www.w3.org/2000/svg">
<path d="M17.4942 7.73275L12.0092 5.9479L6.52415 7.73275V14.9747C6.71503 15.431 6.95654 15.8654 7.24436 16.2702L7.2539 16.2889C7.65293 16.8484 8.13892 17.3437 8.69432 17.7568C9.66151 18.4701 10.8057 18.9189 12.0092 19.057C13.2127 18.9189 14.3569 18.4701 15.3241 17.7568C15.8795 17.3437 16.3655 16.8484 16.7645 16.2889C16.7681 16.2818 16.7729 16.2755 16.7788 16.2702C17.0635 15.8643 17.3033 15.43 17.4942 14.9747V7.73275ZM16.3734 10.3098L11.8041 14.7696C11.6442 14.9226 11.4547 15.043 11.2467 15.1238C11.0387 15.2046 10.8164 15.2442 10.5926 15.2403C9.98668 15.2306 9.40909 14.9878 8.98526 14.5646L7.73086 13.3483C7.53343 13.1607 7.42022 12.9043 7.41606 12.6353C7.41468 12.5319 7.43419 12.4293 7.47348 12.3334C7.51276 12.2374 7.57105 12.15 7.64501 12.076L7.85487 11.871C8.00712 11.7238 8.213 11.6416 8.42722 11.6426C8.70234 11.6477 8.96441 11.7582 9.15697 11.9502L10.1824 12.9568C10.2579 13.0448 10.3642 13.1022 10.4806 13.1177C10.5971 13.1332 10.7152 13.1058 10.812 13.0407L14.9902 8.95372C15.1807 8.81157 15.4175 8.74189 15.6567 8.75766C15.8958 8.77343 16.1209 8.87358 16.2901 9.03946C16.4593 9.20534 16.561 9.42564 16.5763 9.65934C16.5917 9.89305 16.5195 10.1242 16.3734 10.3098ZM6.04719 9.66207H2.46998C2.40673 9.66207 2.34607 9.63752 2.30135 9.59382C2.25663 9.55013 2.2315 9.49086 2.2315 9.42906C2.2315 9.36726 2.25663 9.308 2.30135 9.2643C2.34607 9.2206 2.40673 9.19605 2.46998 9.19605H6.04719V9.66207ZM2.46998 14.3129H6.04719V14.779H2.46998C2.40673 14.779 2.34607 14.7544 2.30135 14.7107C2.25663 14.667 2.2315 14.6077 2.2315 14.5459C2.2315 14.4841 2.25663 14.4249 2.30135 14.3812C2.34607 14.3375 2.40673 14.3129 2.46998 14.3129ZM6.04719 12.2205H3.753C3.68976 12.2205 3.6291 12.196 3.58437 12.1523C3.53965 12.1086 3.51452 12.0493 3.51452 11.9875C3.51452 11.9257 3.53965 11.8664 3.58437 11.8227C3.6291 11.779 3.68976 11.7545 3.753 11.7545H6.04719V12.2205ZM21.7869 9.42906C21.7869 9.49086 21.7618 9.55013 21.717 9.59382C21.6723 9.63752 21.6117 9.66207 21.5484 9.66207H17.9712V9.19605H21.5484C21.6117 9.19605 21.6723 9.2206 21.717 9.2643C21.7618 9.308 21.7869 9.36726 21.7869 9.42906ZM17.9712 14.3129H21.5484C21.6117 14.3129 21.6723 14.3375 21.717 14.3812C21.7618 14.4249 21.7869 14.4841 21.7869 14.5459C21.7869 14.6077 21.7618 14.667 21.717 14.7107C21.6723 14.7544 21.6117 14.779 21.5484 14.779H17.9712V14.3129ZM20.2654 12.2205H17.9712V11.7545H20.2654C20.3286 11.7545 20.3893 11.779 20.434 11.8227C20.4787 11.8664 20.5039 11.9257 20.5039 11.9875C20.5039 12.0493 20.4787 12.1086 20.434 12.1523C20.3893 12.196 20.3286 12.2205 20.2654 12.2205ZM4.08211 16.643L1.87855 18.7914C2.02787 18.9929 2.09616 19.241 2.07042 19.4885C2.04468 19.736 1.92672 19.9657 1.73897 20.1337C1.55122 20.3018 1.30679 20.3966 1.05218 20.4C0.797573 20.4034 0.55056 20.3153 0.358139 20.1523C0.165717 19.9894 0.0413154 19.763 0.00860305 19.5163C-0.0241093 19.2696 0.0371504 19.0197 0.180727 18.8143C0.324303 18.6088 0.540176 18.4621 0.787273 18.402C1.03437 18.3419 1.29545 18.3727 1.52083 18.4885L3.81501 16.2469C3.83629 16.2245 3.86214 16.2067 3.89089 16.1947C3.91964 16.1826 3.95066 16.1766 3.98195 16.177H6.61C6.70539 16.3308 6.81032 16.4846 6.92956 16.643H4.08211ZM24 4.60577C23.9986 4.87065 23.89 5.12423 23.6978 5.3111C23.5057 5.49797 23.2456 5.60293 22.9745 5.60305C22.8081 5.60318 22.6443 5.56316 22.4976 5.48654L20.2034 7.72809C20.1821 7.7505 20.1563 7.7683 20.1275 7.78034C20.0987 7.79238 20.0677 7.7984 20.0364 7.798H17.9712V7.33198H19.9363L22.1398 5.18363C22.0466 5.05513 21.9856 4.90693 21.962 4.75109C21.9384 4.59525 21.9528 4.43616 22.0039 4.28676C22.0551 4.13736 22.1417 4.00188 22.2566 3.89133C22.3714 3.78078 22.5114 3.69828 22.6651 3.65054C22.8187 3.60281 22.9817 3.59118 23.1409 3.61661C23.3 3.64204 23.4507 3.70381 23.5808 3.7969C23.7109 3.88998 23.8167 4.01175 23.8895 4.15231C23.9623 4.29286 24.0002 4.44822 24 4.60577ZM6.04719 7.33198V7.798H3.98195C3.95066 7.7984 3.91964 7.79238 3.89089 7.78034C3.86214 7.7683 3.83629 7.7505 3.81501 7.72809L1.52083 5.48654C1.37409 5.56316 1.21025 5.60318 1.04387 5.60305C0.814017 5.60292 0.590882 5.52731 0.410303 5.38837C0.229725 5.24942 0.102185 5.05521 0.0481695 4.83692C-0.00584553 4.61863 0.0167998 4.38894 0.112468 4.18474C0.208136 3.98054 0.371274 3.81368 0.575677 3.71097C0.78008 3.60826 1.01388 3.57566 1.23953 3.6184C1.46518 3.66115 1.66958 3.77675 1.81989 3.94665C1.9702 4.11655 2.05771 4.33089 2.06834 4.55522C2.07898 4.77956 2.01214 5.00088 1.87855 5.18363L4.08211 7.33198H6.04719ZM24 19.3692C24.0007 19.5272 23.9631 19.683 23.8904 19.8241C23.8177 19.9651 23.7119 20.0874 23.5816 20.1809C23.4514 20.2744 23.3003 20.3365 23.1408 20.3621C22.9813 20.3877 22.8179 20.3761 22.6638 20.3283C22.5098 20.2804 22.3695 20.1976 22.2544 20.0867C22.1393 19.9758 22.0527 19.8399 22.0016 19.6901C21.9505 19.5402 21.9364 19.3807 21.9605 19.2245C21.9845 19.0684 22.0459 18.9199 22.1398 18.7914L19.9363 16.643H17.0888C17.2081 16.4846 17.313 16.3308 17.4084 16.177H20.0364C20.0677 16.1766 20.0987 16.1826 20.1275 16.1947C20.1563 16.2067 20.1821 16.2245 20.2034 16.2469L22.4976 18.4885C22.6443 18.4118 22.8081 18.3718 22.9745 18.372C23.2456 18.3721 23.5057 18.477 23.6978 18.6639C23.89 18.8508 23.9986 19.1044 24 19.3692ZM15.9537 9.36848C16.0443 9.44096 16.1032 9.54452 16.1182 9.658C16.1333 9.77147 16.1034 9.88628 16.0347 9.97896L11.4655 14.4434C10.936 14.9607 9.97257 14.8675 9.31914 14.2337L8.0695 13.0174C8.01535 12.9685 7.97183 12.9095 7.94151 12.8439C7.91119 12.7782 7.8947 12.7073 7.89302 12.6353C7.89115 12.5932 7.89823 12.5511 7.91383 12.5118C7.92943 12.4725 7.9532 12.4368 7.98365 12.4069L8.19351 12.1972C8.25701 12.1397 8.34061 12.108 8.42722 12.1087C8.57561 12.1141 8.71595 12.176 8.81833 12.2811L9.84856 13.2877C10.0099 13.4662 10.2372 13.5748 10.4804 13.5897C10.7237 13.6045 10.9631 13.5244 11.1459 13.3669L15.3288 9.2846C15.4244 9.21845 15.5422 9.19031 15.6582 9.20588C15.7743 9.22146 15.8799 9.27959 15.9537 9.36848Z" fill="#99BBE2"/>
</svg>
