<svg width="25" height="24" viewBox="0 0 25 24" fill="none" xmlns="http://www.w3.org/2000/svg">
<g id="Silver" clip-path="url(#clip0_5982_433346)">
<g id="Group">
<path id="Vector" d="M12.4998 23.9388C5.91677 23.9388 0.561035 18.583 0.561035 12C0.561035 5.38316 5.91677 0 12.4998 0C19.0829 0 24.4386 5.38316 24.4386 12C24.4386 18.583 19.0829 23.9388 12.4998 23.9388Z" fill="url(#paint0_linear_5982_433346)"/>
<path id="Vector_2" d="M15.3111 17.2706L12.4997 15.7925L9.68826 17.2706C9.37865 17.4333 9.0039 17.4061 8.7211 17.2007C8.4383 16.9952 8.29663 16.647 8.35571 16.3025L8.89265 13.1719L6.61816 10.9548C6.36787 10.7108 6.27775 10.3458 6.38581 10.0134C6.49387 9.68092 6.7812 9.4386 7.12712 9.38833L10.2704 8.93159L11.6762 6.08325C11.8309 5.76978 12.1501 5.57129 12.4997 5.57129C12.8493 5.57129 13.1685 5.76978 13.3232 6.08319L14.7289 8.93153L17.8723 9.38827C18.2182 9.43853 18.5056 9.68086 18.6136 10.0133C18.7216 10.3458 18.6315 10.7107 18.3812 10.9547L16.1067 13.1718L16.6437 16.3024C16.7028 16.6469 16.5611 16.9952 16.2783 17.2006C15.9982 17.4043 15.6233 17.4347 15.3111 17.2706Z" fill="white"/>
</g>
</g>
<defs>
<linearGradient id="paint0_linear_5982_433346" x1="12.4998" y1="23.9388" x2="12.4998" y2="0" gradientUnits="userSpaceOnUse">
<stop stop-color="#6D6D6D"/>
<stop offset="1" stop-color="#D1D1D1"/>
</linearGradient>
<clipPath id="clip0_5982_433346">
<rect width="24" height="24" fill="white" transform="translate(0.5)"/>
</clipPath>
</defs>
</svg>
