<svg width="14" height="14" viewBox="0 0 14 14" fill="none" xmlns="http://www.w3.org/2000/svg">
<path fill-rule="evenodd" clip-rule="evenodd" d="M7.67903 0.556697C7.76565 0.171215 8.14334 -0.0699101 8.52261 0.0181295C10.0787 0.379331 11.4679 1.26678 12.463 2.53517C13.4581 3.80357 14 5.37775 14 7C14 8.62225 13.4581 10.1964 12.463 11.4648C11.4679 12.7332 10.0787 13.6207 8.52261 13.9819C8.14334 14.0699 7.76565 13.8288 7.67903 13.4433C7.59241 13.0578 7.82965 12.674 8.20892 12.5859C9.45386 12.2969 10.5654 11.5869 11.3615 10.5721C12.1576 9.55734 12.5912 8.2979 12.5912 7C12.5912 5.7021 12.1576 4.44266 11.3615 3.42787C10.5654 2.41308 9.45386 1.70307 8.20892 1.41408C7.82965 1.32605 7.59241 0.94218 7.67903 0.556697ZM6.235 0.557455C6.32121 0.943032 6.08356 1.32664 5.7042 1.41426C5.01107 1.57435 4.35425 1.86702 3.76876 2.27666C3.44831 2.50087 3.00971 2.4186 2.78911 2.0929C2.56851 1.7672 2.64946 1.32142 2.96991 1.09721C3.70261 0.584565 4.52459 0.2183 5.392 0.017957C5.77137 -0.0696643 6.14879 0.171877 6.235 0.557455ZM1.79896 3.1663C2.13925 3.35795 2.26226 3.79368 2.0737 4.13954L1.9588 4.3503C1.69035 4.87319 1.49888 5.4432 1.39916 6.04498C1.33455 6.4349 0.971173 6.69775 0.587537 6.63208C0.203902 6.56641 -0.054718 6.19708 0.00989435 5.80717C0.135126 5.05143 0.376267 4.33523 0.714464 3.67879L0.722351 3.66391L0.841398 3.44555C1.02995 3.09968 1.45867 2.97466 1.79896 3.1663ZM0.669503 8.1028C1.04324 7.99299 1.4338 8.2119 1.54184 8.59176C1.70906 9.17964 1.96833 9.73632 2.30971 10.2404C2.53028 10.5661 2.44931 11.0119 2.12884 11.2361C1.80838 11.4603 1.36978 11.378 1.1492 11.0523C0.722065 10.4215 0.397654 9.725 0.188429 8.98942C0.0803845 8.60957 0.295769 8.21262 0.669503 8.1028ZM3.19051 12.2332C3.38447 11.8904 3.81509 11.7724 4.15233 11.9695C4.63637 12.2524 5.15937 12.4601 5.70392 12.5857C6.08332 12.6731 6.32112 13.0567 6.23507 13.4423C6.14901 13.8279 5.77168 14.0696 5.39228 13.9821C4.71059 13.825 4.0559 13.565 3.44996 13.2108C3.11272 13.0136 2.99656 12.576 3.19051 12.2332Z" fill="#ADADAD"/>
<path fill-rule="evenodd" clip-rule="evenodd" d="M7 10C5.34315 10 4 8.65685 4 7C4 5.34315 5.34315 4 7 4C8.65685 4 10 5.34315 10 7C10 8.65685 8.65685 10 7 10Z" fill="#ADADAD"/>
</svg>
