<svg width="16" height="16" viewBox="0 0 16 16" fill="none" xmlns="http://www.w3.org/2000/svg">
<g clip-path="url(#clip0_5214_58468)">
<path d="M7.99967 15.1674C6.09896 15.1674 4.27609 14.4123 2.93208 13.0683C1.58807 11.7243 0.833008 9.90141 0.833008 8.00069C0.833008 6.09997 1.58807 4.2771 2.93208 2.93309C4.27609 1.58908 6.09896 0.834023 7.99967 0.834023C9.11652 0.830326 10.2181 1.09316 11.213 1.60069C11.2717 1.63046 11.3239 1.67148 11.3667 1.72143C11.4095 1.77138 11.442 1.82927 11.4625 1.89179C11.4829 1.95432 11.4908 2.02025 11.4857 2.08584C11.4807 2.15142 11.4628 2.21537 11.433 2.27402C11.4032 2.33268 11.3622 2.3849 11.3123 2.4277C11.2623 2.4705 11.2044 2.50305 11.1419 2.52347C11.0794 2.5439 11.0134 2.55182 10.9479 2.54676C10.8823 2.54171 10.8183 2.52379 10.7597 2.49402C9.90626 2.05418 8.95976 1.82556 7.99967 1.82736C6.78031 1.82736 5.58831 2.18886 4.57435 2.86617C3.56039 3.54347 2.76999 4.50618 2.30306 5.6326C1.83612 6.75903 1.71361 7.9986 1.95102 9.19463C2.18842 10.3907 2.77507 11.4895 3.63683 12.3522C4.49859 13.2148 5.59676 13.8027 6.79254 14.0414C7.98831 14.2801 9.22801 14.1589 10.3549 13.6932C11.4819 13.2275 12.4454 12.4381 13.1238 11.4249C13.8022 10.4117 14.165 9.22006 14.1663 8.00069C14.1698 7.94519 14.1698 7.88952 14.1663 7.83402C14.154 7.70141 14.1948 7.56932 14.2798 7.4668C14.3648 7.36428 14.4871 7.29973 14.6197 7.28736C14.7523 7.27498 14.8844 7.31579 14.9869 7.4008C15.0894 7.48582 15.154 7.60808 15.1663 7.74069V8.00069C15.1646 9.90087 14.409 11.7227 13.0653 13.0663C11.7217 14.41 9.89985 15.1656 7.99967 15.1674Z" fill="#01AB08"/>
<path d="M7.87989 10.2735C7.81509 10.2745 7.75079 10.2619 7.69111 10.2367C7.63142 10.2114 7.57765 10.174 7.53322 10.1269L4.31322 6.96685C4.21959 6.8731 4.16699 6.74602 4.16699 6.61352C4.16699 6.48102 4.21959 6.35394 4.31322 6.26019C4.40893 6.16772 4.53681 6.11604 4.66989 6.11604C4.80296 6.11604 4.93084 6.16772 5.02655 6.26019L7.88655 9.08019L14.3199 2.75352C14.4156 2.66106 14.5435 2.60938 14.6766 2.60938C14.8096 2.60938 14.9375 2.66106 15.0332 2.75352C15.1269 2.84727 15.1794 2.97435 15.1794 3.10685C15.1794 3.23935 15.1269 3.36644 15.0332 3.46019L8.24655 10.1269C8.19883 10.1752 8.14163 10.2132 8.07854 10.2385C8.01544 10.2637 7.94781 10.2756 7.87989 10.2735Z" fill="#01AB08"/>
</g>
<defs>
<clipPath id="clip0_5214_58468">
<rect width="16" height="16" fill="white"/>
</clipPath>
</defs>
</svg>
