<svg width="16" height="16" viewBox="0 0 16 16" fill="none" xmlns="http://www.w3.org/2000/svg">
<g clip-path="url(#clip0_5214_58482)">
<path d="M2.47018 3.82002C2.25503 3.60488 1.89863 3.62688 1.73131 3.88103C0.952932 5.06322 0.5 6.47872 0.5 8C0.5 12.1421 3.85787 15.5 8 15.5C12.1421 15.5 15.5 12.1421 15.5 8C15.5 3.85787 12.1421 0.5 8 0.5C6.31948 0.5 4.76805 1.05271 3.5176 1.98627C3.2836 2.16096 3.27215 2.50067 3.47865 2.70718C3.6635 2.89202 3.958 2.90258 4.1691 2.74833C5.24337 1.96335 6.56757 1.5 8 1.5C11.5898 1.5 14.5 4.41015 14.5 8C14.5 11.5898 11.5898 14.5 8 14.5C4.41015 14.5 1.5 11.5898 1.5 8C1.5 6.70568 1.87831 5.4997 2.5304 4.48663C2.66593 4.27608 2.64725 3.9971 2.47018 3.82002Z" fill="#FF0025"/>
<path d="M6.40922 5.70112C6.21397 5.50587 5.89737 5.50587 5.70212 5.70112C5.50685 5.8964 5.50685 6.21298 5.70212 6.40823L7.29312 7.99922L5.70212 9.59023C5.50687 9.78548 5.50687 10.1021 5.70212 10.2973C5.8974 10.4926 6.21397 10.4926 6.40925 10.2973L8.00022 8.70632L9.5912 10.2973C9.78647 10.4926 10.103 10.4926 10.2983 10.2973C10.4936 10.1021 10.4936 9.78548 10.2983 9.59023L8.70732 7.99922L10.2983 6.40823C10.4936 6.21298 10.4936 5.8964 10.2983 5.70112C10.1031 5.50587 9.78647 5.50587 9.59122 5.70112L8.00022 7.29213L6.40922 5.70112Z" fill="#FF0025"/>
</g>
<defs>
<clipPath id="clip0_5214_58482">
<rect width="16" height="16" fill="white"/>
</clipPath>
</defs>
</svg>
