<svg width="16" height="16" viewBox="0 0 16 16" fill="none" xmlns="http://www.w3.org/2000/svg">
<path fill-rule="evenodd" clip-rule="evenodd" d="M8.68352 2.0008C8.7655 1.64185 9.12294 1.41732 9.48189 1.4993C10.9545 1.83564 12.2694 2.662 13.2111 3.84308C14.1529 5.02416 14.6657 6.48999 14.6657 8.00057C14.6657 9.51115 14.1529 10.977 13.2111 12.1581C12.2694 13.3391 10.9545 14.1655 9.48189 14.5018C9.12294 14.5838 8.7655 14.3593 8.68352 14.0003C8.60154 13.6414 8.82607 13.2839 9.18502 13.202C10.3632 12.9329 11.4152 12.2717 12.1686 11.3268C12.9221 10.3819 13.3324 9.20912 13.3324 8.00057C13.3324 6.79202 12.9221 5.61927 12.1686 4.67433C11.4152 3.72939 10.3632 3.06826 9.18502 2.79917C8.82607 2.71719 8.60154 2.35975 8.68352 2.0008ZM7.31688 2.0015C7.39847 2.36054 7.17356 2.71774 6.81452 2.79933C6.15854 2.9484 5.53691 3.22092 4.98281 3.60237C4.67953 3.81114 4.26443 3.73453 4.05566 3.43125C3.84688 3.12798 3.92349 2.71288 4.22677 2.5041C4.9202 2.02675 5.69813 1.6857 6.51906 1.49914C6.87809 1.41755 7.23529 1.64247 7.31688 2.0015ZM3.11857 4.43077C3.44062 4.60922 3.55704 5.01496 3.37859 5.33701L3.26985 5.53326C3.01578 6.02016 2.83457 6.55094 2.7402 7.11129C2.67905 7.47437 2.33514 7.71913 1.97207 7.65798C1.60899 7.59683 1.36423 7.25292 1.42538 6.88985C1.5439 6.18613 1.77212 5.51923 2.09219 4.90798L2.09966 4.89412L2.21232 4.69079C2.39077 4.36873 2.79651 4.25232 3.11857 4.43077ZM2.04964 9.02746C2.40335 8.92521 2.77297 9.12905 2.87523 9.48275C3.03348 10.0302 3.27886 10.5485 3.60194 11.0179C3.8107 11.3212 3.73406 11.7363 3.43077 11.9451C3.12748 12.1538 2.71239 12.0772 2.50363 11.7739C2.09938 11.1866 1.79236 10.538 1.59435 9.85305C1.49209 9.49934 1.69593 9.12971 2.04964 9.02746ZM4.43555 12.8735C4.61911 12.5544 5.02665 12.4444 5.34582 12.628C5.80392 12.8915 6.29889 13.0849 6.81426 13.2018C7.17333 13.2832 7.39838 13.6403 7.31694 13.9994C7.23549 14.3584 6.87839 14.5835 6.51932 14.5021C5.87417 14.3557 5.25455 14.1136 4.68109 13.7838C4.36192 13.6003 4.25199 13.1927 4.43555 12.8735Z" fill="#0055B6"/>
<path fill-rule="evenodd" clip-rule="evenodd" d="M8 11C6.34315 11 5 9.65685 5 8C5 6.34315 6.34315 5 8 5C9.65685 5 11 6.34315 11 8C11 9.65685 9.65685 11 8 11Z" fill="#0055B6"/>
</svg>
