<svg width="48" height="48" viewBox="0 0 48 48" fill="none" xmlns="http://www.w3.org/2000/svg">
<path d="M24 4C20.0444 4 16.1776 5.17298 12.8886 7.37061C9.59962 9.56823 7.03617 12.6918 5.52242 16.3463C4.00867 20.0009 3.6126 24.0222 4.3843 27.9018C5.15601 31.7814 7.06082 35.3451 9.85787 38.1421C12.6549 40.9392 16.2186 42.844 20.0982 43.6157C23.9778 44.3874 27.9992 43.9913 31.6537 42.4776C35.3082 40.9638 38.4318 38.4004 40.6294 35.1114C42.827 31.8224 44 27.9556 44 24C44 21.3736 43.4827 18.7728 42.4776 16.3463C41.4725 13.9198 39.9993 11.715 38.1421 9.85786C36.285 8.00069 34.0802 6.5275 31.6537 5.52241C29.2272 4.51732 26.6264 4 24 4ZM33.42 21.42L23.42 31.42C23.2341 31.6075 23.0129 31.7562 22.7692 31.8578C22.5254 31.9593 22.264 32.0116 22 32.0116C21.736 32.0116 21.4746 31.9593 21.2309 31.8578C20.9871 31.7562 20.7659 31.6075 20.58 31.42L14.58 25.42C14.3935 25.2335 14.2456 25.0121 14.1447 24.7685C14.0438 24.5249 13.9918 24.2637 13.9918 24C13.9918 23.4674 14.2034 22.9566 14.58 22.58C14.9566 22.2034 15.4674 21.9918 16 21.9918C16.5326 21.9918 17.0434 22.2034 17.42 22.58L22 27.18L30.58 18.58C30.9566 18.2034 31.4674 17.9918 32 17.9918C32.5326 17.9918 33.0434 18.2034 33.42 18.58C33.7966 18.9566 34.0082 19.4674 34.0082 20C34.0082 20.5326 33.7966 21.0434 33.42 21.42Z" fill="#001A41"/>
</svg>
