<svg width="48" height="48" viewBox="0 0 48 48" fill="none" xmlns="http://www.w3.org/2000/svg">
<path d="M39 9H37.3334V5.66656C37.3334 4.74677 36.5867 4 35.6666 4H34C33.0799 4 32.3334 4.74677 32.3334 5.66656V9H15.6666V5.66656C15.6666 4.74677 14.9201 4 14 4H12.3334C11.4133 4 10.6666 4.74677 10.6666 5.66656V9H9C6.24335 9 4 11.2433 4 14V39C4 41.7567 6.24335 44 9 44H39C41.7567 44 44 41.7567 44 39V14C44 11.2433 41.7567 9 39 9ZM40.6666 39C40.6666 39.9183 39.9183 40.6666 39 40.6666H9C8.08173 40.6666 7.33344 39.9183 7.33344 39V20.7334H40.6666V39Z" fill="#001A41"/>
</svg>
