<svg width="20" height="20" viewBox="0 0 20 20" fill="none" xmlns="http://www.w3.org/2000/svg">
<g clip-path="url(#clip0_1347_981)">
<path fill-rule="evenodd" clip-rule="evenodd" d="M3 0C1.34315 0 0 1.34315 0 3V17C0 18.6569 1.34315 20 3 20H17C18.6569 20 20 18.6569 20 17V3C20 1.34315 18.6569 0 17 0H3ZM15.9858 5.54079C16.2844 5.07619 16.1498 4.45749 15.6852 4.15889C15.2206 3.86028 14.6019 3.99485 14.3033 4.45945L8.2652 13.8542L4.77015 9.63469C4.41785 9.20936 3.78746 9.15016 3.36213 9.50246C2.9368 9.85476 2.8776 10.4851 3.2299 10.9105L7.59709 16.1829C7.80057 16.4286 8.10904 16.5624 8.42744 16.5432C8.74585 16.524 9.03598 16.3541 9.20845 16.0857L15.9858 5.54079Z" fill="#9BA0A5"/>
</g>
<defs>
<clipPath id="clip0_1347_981">
<rect width="20" height="20" fill="white"/>
</clipPath>
</defs>
</svg>
