<svg width="48" height="48" viewBox="0 0 48 48" fill="none" xmlns="http://www.w3.org/2000/svg">
<g clip-path="url(#clip0_754_8637)">
<path fill-rule="evenodd" clip-rule="evenodd" d="M11.2719 11.2721C12.0529 10.491 13.3192 10.491 14.1003 11.2721L23.9998 21.1716L33.8993 11.2721C34.6803 10.491 35.9467 10.491 36.7277 11.2721C37.5088 12.0531 37.5088 13.3195 36.7277 14.1005L26.8282 24L36.7277 33.8995C37.5088 34.6805 37.5088 35.9469 36.7277 36.7279C35.9467 37.509 34.6803 37.509 33.8993 36.7279L23.9998 26.8284L14.1003 36.7279C13.3192 37.509 12.0529 37.509 11.2719 36.7279C10.4908 35.9469 10.4908 34.6805 11.2719 33.8995L21.1714 24L11.2719 14.1005C10.4908 13.3195 10.4908 12.0531 11.2719 11.2721Z" fill="#001A41"/>
</g>
<defs>
<clipPath id="clip0_754_8637">
<rect width="48" height="48" fill="white"/>
</clipPath>
</defs>
</svg>
