<svg width="48" height="48" viewBox="0 0 48 48" fill="none" xmlns="http://www.w3.org/2000/svg">
<path d="M23.9999 3C25.6466 2.99977 27.2339 3.61513 28.4502 4.72526C29.6665 5.8354 30.4238 7.3601 30.5735 9H40.7999C41.256 9.00014 41.695 9.17339 42.0282 9.48473C42.3614 9.79608 42.5641 10.2223 42.5952 10.6773C42.6262 11.1323 42.4835 11.5821 42.1957 11.9359C41.9079 12.2897 41.4965 12.521 41.0447 12.5832L40.7999 12.6H39.4007L36.3599 38.952C36.2245 40.1217 35.6638 41.2009 34.7845 41.9842C33.9052 42.7674 32.7687 43.2002 31.5911 43.2H16.4087C15.2311 43.2002 14.0946 42.7674 13.2153 41.9842C12.336 41.2009 11.7753 40.1217 11.6399 38.952L8.5967 12.6H7.1999C6.76493 12.6 6.34468 12.4425 6.01687 12.1566C5.68906 11.8707 5.47586 11.4757 5.4167 11.0448L5.3999 10.8C5.39992 10.365 5.55744 9.94478 5.84334 9.61697C6.12924 9.28915 6.52417 9.07596 6.9551 9.0168L7.1999 9H17.4263C17.576 7.3601 18.3333 5.8354 19.5496 4.72526C20.7659 3.61513 22.3532 2.99977 23.9999 3ZM20.3999 18C19.8119 18 19.3199 18.372 19.2191 18.8616L19.1999 19.0512V33.7512L19.2191 33.9384C19.3199 34.428 19.8119 34.8 20.3999 34.8C20.9879 34.8 21.4799 34.428 21.5807 33.9384L21.5999 33.7488V19.0536L21.5807 18.8616C21.4799 18.3744 20.9879 18 20.3999 18ZM27.5999 18C27.0119 18 26.5199 18.372 26.4191 18.8616L26.3999 19.0512V33.7512L26.4191 33.9384C26.5199 34.428 27.0119 34.8 27.5999 34.8C28.1879 34.8 28.6799 34.428 28.7807 33.9384L28.7999 33.7488V19.0536L28.7807 18.8616C28.6799 18.3744 28.1879 18.0024 27.5999 18.0024V18ZM23.9999 6.6C22.5479 6.6 21.3359 7.632 21.0599 9H26.9399C26.6615 7.632 25.4519 6.6 23.9999 6.6Z" fill="#001A41"/>
</svg>
