<svg width="48" height="48" viewBox="0 0 48 48" fill="none" xmlns="http://www.w3.org/2000/svg">
<path d="M36 14.82V18.52C33.66 16.8691 30.8637 15.9883 28 16C24.94 16.0024 21.9651 17.0073 19.5305 18.8609C17.0958 20.7145 15.3355 23.3147 14.5189 26.2637C13.7022 29.2127 13.8743 32.348 15.0086 35.1899C16.143 38.0319 18.1772 40.4239 20.8 42H8C6.93913 42 5.92172 41.5786 5.17157 40.8284C4.42143 40.0783 4 39.0609 4 38V8C4 6.93913 4.42143 5.92172 5.17157 5.17157C5.92172 4.42143 6.93913 4 8 4H25.18C26.2392 4.00447 27.2533 4.42882 28 5.18L34.82 12C35.5712 12.7467 35.9955 13.7608 36 14.82ZM43.52 43.3C43.3493 43.4996 43.1409 43.6637 42.9068 43.7828C42.6727 43.9018 42.4174 43.9737 42.1556 43.9941C41.8937 44.0145 41.6304 43.9832 41.3806 43.9018C41.1309 43.8205 40.8996 43.6907 40.7 43.52L34.1 37.86C32.3085 39.2391 30.1025 39.9703 27.842 39.9346C25.5815 39.8988 23.3998 39.0981 21.6528 37.6631C19.9058 36.228 18.6966 34.2434 18.2225 32.0328C17.7485 29.8223 18.0374 27.5163 19.0423 25.4911C20.0472 23.4658 21.7087 21.8409 23.7557 20.8813C25.8028 19.9217 28.1146 19.6841 30.3141 20.2072C32.5135 20.7303 34.4708 21.9833 35.8667 23.7618C37.2625 25.5403 38.0145 27.7392 38 30C37.99 31.6919 37.5422 33.3525 36.7 34.82L43.3 40.48C43.4996 40.6507 43.6637 40.8591 43.7828 41.0932C43.9018 41.3273 43.9737 41.5826 43.9941 41.8444C44.0145 42.1063 43.9832 42.3696 43.9018 42.6194C43.8205 42.8691 43.6907 43.1004 43.52 43.3ZM28 36C29.1867 36 30.3467 35.6481 31.3334 34.9888C32.3201 34.3295 33.0892 33.3925 33.5433 32.2961C33.9974 31.1997 34.1162 29.9933 33.8847 28.8295C33.6532 27.6656 33.0818 26.5965 32.2426 25.7574C31.4035 24.9182 30.3344 24.3468 29.1705 24.1153C28.0067 23.8838 26.8003 24.0026 25.7039 24.4567C24.6075 24.9108 23.6705 25.6799 23.0112 26.6666C22.3519 27.6533 22 28.8133 22 30C22 31.5913 22.6321 33.1174 23.7574 34.2426C24.8826 35.3679 26.4087 36 28 36Z" fill="#001A41"/>
</svg>
