<svg width="48" height="48" viewBox="0 0 48 48" fill="none" xmlns="http://www.w3.org/2000/svg">
<path fill-rule="evenodd" clip-rule="evenodd" d="M48 14.9576V10.0586L45.3768 9.64164C45.1624 8.86794 44.8632 8.11698 44.4838 7.40064L46.1024 5.31596L42.363 1.8762L40.1305 3.33552C39.3867 2.97281 38.6001 2.69299 37.7863 2.50166L37.3398 0H32.0935L31.6469 2.50166C30.8263 2.69678 30.0378 2.99485 29.3028 3.38769L27.0704 1.8762L23.331 5.26378L24.5588 6.77518H0.950082C0.336139 6.77518 0.00123156 7.45271 0.00123156 8.02601V12.925C-0.0109469 13.1843 0.0674652 13.4404 0.224503 13.6546L15.0706 27.7783V46.9574C15.0649 47.3134 15.2543 47.6476 15.5729 47.8434C15.7569 47.95 15.9703 48.0044 16.1868 47.9997L16.6334 47.8955L25.1168 43.9346C25.4742 43.7422 25.6888 43.3815 25.675 42.9965V27.7783L31.312 22.5146H31.591L32.0933 25.0162H37.3397L37.7862 22.5146C38.6101 22.3288 39.4 22.0302 40.1304 21.6285L42.3629 23.1399L46.1023 19.6481L44.4837 17.5634C44.8629 16.865 45.1622 16.1314 45.3767 15.3745L48 14.9576ZM23.8328 26.6329C23.6068 26.82 23.4669 27.0814 23.4422 27.3625V42.3201L17.3029 45.2908V27.3626C17.3124 27.0851 17.1897 26.8179 16.9679 26.633L3.23804 13.5516H21.2097V14.9587L23.9445 15.3757C24.1681 16.1374 24.4865 16.8721 24.8933 17.5646L23.3305 19.7014L27.07 23.1411L28.6885 22.0467L23.8328 26.6329ZM24.1683 8.85938H2.23403V11.4652H21.2102V10.058L23.945 9.53691C24.0435 9.31855 24.1183 9.09161 24.1683 8.85938ZM43.5351 13.547L43.4235 14.2246C43.2153 15.2286 42.7981 16.1848 42.1956 17.0389L41.8049 17.6121L43.2002 19.4363L42.1397 20.4265L40.2421 19.1757L39.6282 19.5405C38.6842 20.0866 37.6454 20.4745 36.5585 20.6871L35.8329 20.7913L35.4422 22.9281H33.9911L33.6004 20.7913L32.8748 20.6871C31.7965 20.5023 30.7706 20.1119 29.861 19.5405L29.1913 19.1757L27.2937 20.4264L26.2332 19.4362L27.5727 17.6642L27.1821 17.0909C26.6081 16.2231 26.193 15.272 25.9542 14.2766L25.7868 13.547L23.4426 13.1822V11.8271L25.7868 11.4623L25.9542 10.7848C26.1624 9.78076 26.5795 8.8245 27.1821 7.9705L27.5727 7.39721L26.2332 5.57308L27.2937 4.58281L29.1913 5.83364L29.8052 5.46884C30.7493 4.92278 31.7881 4.53483 32.8749 4.32225L33.6005 4.21801L33.9912 2.08125H35.4423L35.833 4.21801L36.5586 4.32225C37.6292 4.53104 38.6504 4.91959 39.5724 5.46884L40.2421 5.88582L42.1397 4.58291L43.2002 5.57318L41.8607 7.34514L42.2514 7.91843C42.8353 8.78151 43.251 9.73437 43.4793 10.7327V11.4623L45.7118 11.7751V13.1822L43.5351 13.547ZM35.077 6.85273C32.0182 6.85273 29.5386 9.15527 29.5386 11.9956C29.5386 14.8359 32.0182 17.1385 35.077 17.1385C38.1358 17.1385 40.6155 14.8359 40.6155 11.9956C40.6155 9.15527 38.1358 6.85273 35.077 6.85273ZM35.0774 15.0355C33.2671 15.0355 31.7996 13.6727 31.7996 11.9918C31.7996 10.3108 33.2671 8.94805 35.0774 8.94805C36.8877 8.94805 38.3553 10.3108 38.3553 11.9918C38.3553 13.6727 36.8877 15.0355 35.0774 15.0355Z" fill="#001A41"/>
</svg>
