<svg width="48" height="48" viewBox="0 0 48 48" fill="none" xmlns="http://www.w3.org/2000/svg">
<g clip-path="url(#clip0_674_3254)">
<path fill-rule="evenodd" clip-rule="evenodd" d="M24 14.6046C29.0182 14.6046 33.091 18.6774 33.091 23.6956C33.091 24.6229 32.9091 25.5138 32.6546 26.3502L38.2183 31.9138C40.7456 29.6775 42.7456 26.8775 44.0001 23.6774C40.8547 15.7137 33.091 10.0592 24 10.0592C21.6909 10.0592 19.4727 10.4228 17.3818 11.0955L21.3273 15.041C22.1818 14.7865 23.0727 14.6046 24 14.6046ZM7.10911 8.53182C6.40001 9.24092 6.40001 10.3864 7.10911 11.0955L10.691 14.6773C7.74548 17.0228 5.40001 20.1137 4 23.6956C7.14547 31.6774 14.9092 37.332 24.0001 37.332C26.7638 37.332 29.4002 36.7865 31.8365 35.8411L36.782 40.7866C37.4911 41.4957 38.6366 41.4957 39.3457 40.7866C40.0548 40.0775 40.0548 38.932 39.3457 38.2229L9.69094 8.53182C8.98185 7.82273 7.81821 7.82273 7.10911 8.53182ZM23.9997 32.7863C18.9815 32.7863 14.9087 28.7135 14.9087 23.6953C14.9087 22.2953 15.236 20.968 15.7997 19.8044L18.6542 22.659C18.5997 22.9862 18.5451 23.3317 18.5451 23.6953C18.5451 26.7135 20.9815 29.1499 23.9997 29.1499C24.3633 29.1499 24.6906 29.0954 25.0361 29.0226L27.8906 31.8772C26.7088 32.459 25.3997 32.7863 23.9997 32.7863ZM29.4 23.0959C29.1273 20.5504 27.1273 18.5686 24.6 18.2958L29.4 23.0959Z" fill="#001A41"/>
</g>
<defs>
<clipPath id="clip0_674_3254">
<rect width="40" height="40" fill="white" transform="translate(4 4)"/>
</clipPath>
</defs>
</svg>
