<svg width="48" height="48" viewBox="0 0 48 48" fill="none" xmlns="http://www.w3.org/2000/svg">
<path fill-rule="evenodd" clip-rule="evenodd" d="M9.6001 9.60005C9.6001 6.94908 11.7491 4.80005 14.4001 4.80005H25.406C26.679 4.80005 27.8999 5.30576 28.8001 6.20594L36.9942 14.4C37.8944 15.3002 38.4001 16.5211 38.4001 17.7942V38.4001C38.4001 41.051 36.2511 43.2001 33.6001 43.2001H14.4001C11.7491 43.2001 9.6001 41.051 9.6001 38.4001V9.60005ZM14.4001 24C14.4001 22.6746 15.4746 21.6 16.8001 21.6H31.2001C32.5256 21.6 33.6001 22.6746 33.6001 24C33.6001 25.3255 32.5256 26.4 31.2001 26.4H16.8001C15.4746 26.4 14.4001 25.3255 14.4001 24ZM16.8001 31.2001C15.4746 31.2001 14.4001 32.2746 14.4001 33.6C14.4001 34.9255 15.4746 36 16.8001 36H31.2001C32.5256 36 33.6001 34.9255 33.6001 33.6C33.6001 32.2746 32.5256 31.2001 31.2001 31.2001H16.8001Z" fill="#001A41"/>
</svg>
