<svg width="48" height="48" viewBox="0 0 48 48" fill="none" xmlns="http://www.w3.org/2000/svg">
<path d="M28.9998 25.6664C28.0782 25.6664 27.3332 26.4131 27.3332 27.3329V33.9997C27.3332 34.918 26.5865 35.6663 25.6664 35.6663H20.6664V10.6665C20.6664 9.24318 19.7597 7.97152 18.3965 7.4982L17.9031 7.3331H25.6664C26.5865 7.3331 27.3332 8.08139 27.3332 8.99996V13.9999C27.3332 14.9197 28.0782 15.6665 28.9998 15.6665C29.9214 15.6665 30.6663 14.9197 30.6663 13.9999V8.99996C30.6663 6.24333 28.423 4 25.6664 4H7.74997C7.68649 4 7.63339 4.02838 7.57175 4.03662C7.49149 4.02991 7.41489 4 7.33341 4C5.49504 4 4 5.49474 4 7.3331V37.3328C4 38.7562 4.90667 40.0278 6.26988 40.5011L16.3 43.8446C16.64 43.9496 16.9781 43.9996 17.3333 43.9996C19.1717 43.9996 20.6664 42.5046 20.6664 40.6662V38.9997H25.6664C28.423 38.9997 30.6663 36.7564 30.6663 33.9997V27.3329C30.6663 26.4131 29.9214 25.6664 28.9998 25.6664Z" fill="#001A41"/>
<path d="M43.5113 19.4882L36.8444 12.8217C36.3681 12.345 35.6512 12.2016 35.0281 12.4597C34.4064 12.7182 33.9996 13.3264 33.9996 13.9999V18.9999H27.3331C26.413 18.9999 25.6663 19.7464 25.6663 20.6664C25.6663 21.5865 26.413 22.333 27.3331 22.333H33.9996V27.333C33.9996 28.0065 34.4064 28.6147 35.0281 28.8732C35.6512 29.1313 36.3681 28.9879 36.8444 28.5115L43.5113 21.8447C44.1628 21.1932 44.1628 20.1397 43.5113 19.4882Z" fill="#001A41"/>
</svg>
