<svg width="48" height="48" viewBox="0 0 48 48" fill="none" xmlns="http://www.w3.org/2000/svg">
<path d="M24 4C12.9555 4 4 12.9537 4 23.9991C4 35.0445 12.9546 43.9982 24 43.9982C35.0463 43.9982 44 35.0445 44 23.9991C44 12.9537 35.0463 4 24 4ZM24 9.97997C27.6546 9.97997 30.616 12.9423 30.616 16.5951C30.616 20.2488 27.6546 23.2102 24 23.2102C20.3472 23.2102 17.3858 20.2488 17.3858 16.5951C17.3858 12.9423 20.3472 9.97997 24 9.97997ZM23.9956 38.7694C20.3507 38.7694 17.0124 37.442 14.4375 35.2448C13.8102 34.7098 13.4483 33.9253 13.4483 33.1022C13.4483 29.3975 16.4466 26.4326 20.1522 26.4326H27.8496C31.556 26.4326 34.5429 29.3975 34.5429 33.1022C34.5429 33.9262 34.1827 34.709 33.5546 35.244C30.9806 37.442 27.6414 38.7694 23.9956 38.7694Z" fill="#001A41"/>
</svg>
