<svg width="48" height="48" viewBox="0 0 48 48" fill="none" xmlns="http://www.w3.org/2000/svg">
<path fill-rule="evenodd" clip-rule="evenodd" d="M24 10C14.9091 10 7.14545 15.6545 4 23.6364C7.14545 31.6182 14.9091 37.2727 24 37.2727C33.0909 37.2727 40.8545 31.6182 44 23.6364C40.8545 15.6545 33.0909 10 24 10ZM23.9991 32.7276C18.981 32.7276 14.9082 28.6549 14.9082 23.6367C14.9082 18.6185 18.981 14.5458 23.9991 14.5458C29.0173 14.5458 33.0901 18.6185 33.0901 23.6367C33.0901 28.6549 29.0173 32.7276 23.9991 32.7276ZM23.9998 18.1824C20.9816 18.1824 18.5453 20.6187 18.5453 23.6369C18.5453 26.6551 20.9816 29.0915 23.9998 29.0915C27.018 29.0915 29.4544 26.6551 29.4544 23.6369C29.4544 20.6187 27.018 18.1824 23.9998 18.1824Z" fill="#001A41"/>
</svg>
