<svg width="16" height="16" viewBox="0 0 16 16" fill="none" xmlns="http://www.w3.org/2000/svg">
<path fill-rule="evenodd" clip-rule="evenodd" d="M3.59249 3.27567C3.85304 3.46516 3.91064 3.82999 3.72115 4.09054L1.72115 6.84054C1.53166 7.10108 1.16684 7.15869 0.90629 6.9692C0.645743 6.77971 0.588138 6.41488 0.777627 6.15434L2.77763 3.40434C2.96712 3.14379 3.33194 3.08619 3.59249 3.27567ZM12.4063 3.27567C12.6668 3.08619 13.0317 3.14379 13.2212 3.40434L15.2212 6.15434C15.4106 6.41488 15.353 6.77971 15.0925 6.9692C14.8319 7.15869 14.4671 7.10108 14.2776 6.84054L12.2776 4.09054C12.0881 3.82999 12.1457 3.46516 12.4063 3.27567Z" fill="#001A41"/>
<path fill-rule="evenodd" clip-rule="evenodd" d="M2.7168 1.2474C2.7168 0.92523 2.97796 0.664062 3.30013 0.664062H12.7001C13.0223 0.664062 13.2835 0.92523 13.2835 1.2474V7.4974C13.2835 7.81956 13.0223 8.08073 12.7001 8.08073C12.378 8.08073 12.1168 7.81956 12.1168 7.4974V1.83073H3.88346V7.4974C3.88346 7.81956 3.6223 8.08073 3.30013 8.08073C2.97796 8.08073 2.7168 7.81956 2.7168 7.4974V1.2474Z" fill="#001A41"/>
<path fill-rule="evenodd" clip-rule="evenodd" d="M0.959163 6.09292C1.14048 5.98895 1.36357 5.98993 1.54397 6.09549L7.99935 9.87309L14.4547 6.09549C14.6351 5.98993 14.8582 5.98895 15.0395 6.09292C15.2209 6.1969 15.3327 6.38994 15.3327 6.59896V13.749C15.3327 14.6211 14.6215 15.3323 13.7493 15.3323H2.24935C1.37718 15.3323 0.666016 14.6211 0.666016 13.749V6.59896C0.666016 6.38994 0.777845 6.1969 0.959163 6.09292ZM1.83268 7.61619V13.749C1.83268 13.9768 2.02151 14.1656 2.24935 14.1656H13.7493C13.9772 14.1656 14.166 13.9768 14.166 13.749V7.61619L8.29397 11.0524C8.11199 11.1589 7.88671 11.1589 7.70473 11.0524L1.83268 7.61619Z" fill="#001A41"/>
<path fill-rule="evenodd" clip-rule="evenodd" d="M6.2168 4.29427C6.2168 3.9721 6.47796 3.71094 6.80013 3.71094H9.20013C9.5223 3.71094 9.78346 3.9721 9.78346 4.29427C9.78346 4.61644 9.5223 4.8776 9.20013 4.8776H6.80013C6.47796 4.8776 6.2168 4.61644 6.2168 4.29427Z" fill="#001A41"/>
<path fill-rule="evenodd" clip-rule="evenodd" d="M5.4668 6.45052C5.4668 6.12835 5.72796 5.86719 6.05013 5.86719H9.95013C10.2723 5.86719 10.5335 6.12835 10.5335 6.45052C10.5335 6.77269 10.2723 7.03385 9.95013 7.03385H6.05013C5.72796 7.03385 5.4668 6.77269 5.4668 6.45052Z" fill="#001A41"/>
<path fill-rule="evenodd" clip-rule="evenodd" d="M6.22596 8.90349C6.47199 9.11147 6.50283 9.47953 6.29484 9.72556L2.19484 14.5756C1.98686 14.8216 1.6188 14.8524 1.37277 14.6445C1.12673 14.4365 1.09589 14.0684 1.30388 13.8224L5.40388 8.97238C5.61187 8.72634 5.97992 8.6955 6.22596 8.90349Z" fill="#001A41"/>
<path fill-rule="evenodd" clip-rule="evenodd" d="M9.77316 8.90349C10.0192 8.6955 10.3872 8.72634 10.5952 8.97238L14.6952 13.8224C14.9032 14.0684 14.8724 14.4365 14.6263 14.6445C14.3803 14.8524 14.0123 14.8216 13.8043 14.5756L9.70427 9.72556C9.49628 9.47953 9.52712 9.11148 9.77316 8.90349Z" fill="#001A41"/>
</svg>
