<svg width="16" height="16" viewBox="0 0 16 16" fill="none" xmlns="http://www.w3.org/2000/svg">
<mask id="mask0_1069_54958" style="mask-type:alpha" maskUnits="userSpaceOnUse" x="0" y="0" width="16" height="16">
<path d="M16 0H0V16H16V0Z" fill="white"/>
</mask>
<g mask="url(#mask0_1069_54958)">
<path fill-rule="evenodd" clip-rule="evenodd" d="M7.90951 1.84635C7.38167 1.84635 6.99284 2.23519 6.99284 2.76302V4.31302C6.99284 4.63519 6.73167 4.89635 6.40951 4.89635C6.08734 4.89635 5.82617 4.63519 5.82617 4.31302V2.76302C5.82617 1.59085 6.73734 0.679688 7.90951 0.679688H14.1595C14.4421 0.679688 14.7229 0.776421 14.9345 0.988042C15.1461 1.19966 15.2428 1.48046 15.2428 1.76302V12.113C15.2428 13.8352 13.8817 15.1964 12.1595 15.1964H10.4595C10.1373 15.1964 9.87617 14.9352 9.87617 14.613C9.87617 14.2909 10.1373 14.0297 10.4595 14.0297H12.1595C13.2373 14.0297 14.0762 13.1909 14.0762 12.113V1.84635H7.90951Z" fill="#001A41"/>
<path fill-rule="evenodd" clip-rule="evenodd" d="M1.97656 4.94792C1.93054 4.94792 1.89323 4.98523 1.89323 5.03125V13.1146C1.89323 13.6424 2.28206 14.0312 2.8099 14.0312H9.70677C9.43508 13.621 9.27656 13.1322 9.27656 12.6146V5.03125C9.27656 4.98523 9.23925 4.94792 9.19323 4.94792H1.97656ZM0.726562 5.03125C0.726562 4.34089 1.28621 3.78125 1.97656 3.78125H9.19323C9.88359 3.78125 10.4432 4.34089 10.4432 5.03125V12.6146C10.4432 13.3562 11.0516 13.9969 11.7876 14.0319C12.104 14.047 12.3506 14.3118 12.3431 14.6285C12.3355 14.9451 12.0767 15.1979 11.7599 15.1979H2.8099C1.63773 15.1979 0.726562 14.2867 0.726562 13.1146V5.03125Z" fill="#001A41"/>
<path fill-rule="evenodd" clip-rule="evenodd" d="M8.01697 9.94599C8.24815 10.1704 8.25367 10.5397 8.02929 10.7709L6.37929 12.4709L6.37318 12.4771C5.7498 13.1004 4.80101 13.1 4.17657 12.5536C4.16683 12.5451 4.15737 12.5362 4.14822 12.5271L4.04822 12.4271C3.93592 12.3148 3.72043 12.2784 3.51758 12.4262L1.97689 13.6687C1.72611 13.8709 1.35886 13.8316 1.15662 13.5808C0.954382 13.33 0.99373 12.9628 1.24451 12.7605L2.79451 11.5105C2.79983 11.5062 2.80523 11.502 2.8107 11.4979C3.40585 11.0516 4.28675 11.0157 4.87318 11.6021L4.95678 11.6857C5.13079 11.8284 5.37319 11.8248 5.5457 11.6546L7.19211 9.95831C7.41649 9.72713 7.78579 9.72161 8.01697 9.94599Z" fill="#001A41"/>
<path fill-rule="evenodd" clip-rule="evenodd" d="M2.67578 6.51302C2.67578 6.19085 2.93695 5.92969 3.25911 5.92969V6.51302V7.09635C2.93695 7.09635 2.67578 6.83519 2.67578 6.51302ZM3.25911 6.51302V7.09635H4.05911C4.38128 7.09635 4.64245 6.83519 4.64245 6.51302C4.64245 6.19085 4.38128 5.92969 4.05911 5.92969H3.25911V6.51302Z" fill="#001A41"/>
<path fill-rule="evenodd" clip-rule="evenodd" d="M2.67578 8.51302C2.67578 8.19085 2.93695 7.92969 3.25911 7.92969V8.51302V9.09635C2.93695 9.09635 2.67578 8.83519 2.67578 8.51302ZM3.25911 8.51302V9.09635H5.45911C5.78128 9.09635 6.04245 8.83519 6.04245 8.51302C6.04245 8.19085 5.78128 7.92969 5.45911 7.92969H3.25911V8.51302Z" fill="#001A41"/>
</g>
</svg>
