<svg width="20" height="20" viewBox="0 0 20 20" fill="none" xmlns="http://www.w3.org/2000/svg">
<path d="M8.84984 16.5833V3.41663C8.84984 2.78041 8.71505 2.30906 8.38673 2.00006C8.05994 1.69249 7.56316 1.56663 6.89045 1.56663H3.52589C2.85318 1.56663 2.3564 1.69249 2.02961 2.00006C1.70129 2.30906 1.5665 2.78041 1.5665 3.41663V16.5833C1.5665 17.2195 1.70129 17.6909 2.02961 17.9999C2.3564 18.3074 2.85318 18.4333 3.52589 18.4333H6.89045C7.56316 18.4333 8.05994 18.3074 8.38673 17.9999C8.71505 17.6909 8.84984 17.2195 8.84984 16.5833ZM16.4738 1.56663H13.1092C12.4365 1.56663 11.9397 1.69249 11.6129 2.00006C11.2846 2.30906 11.1498 2.78041 11.1498 3.41663V10.75C11.1498 11.3862 11.2846 11.8575 11.6129 12.1665C11.9397 12.4741 12.4365 12.6 13.1092 12.6H16.4738C17.1465 12.6 17.6433 12.4741 17.9701 12.1665C18.2984 11.8575 18.4332 11.3862 18.4332 10.75V3.41663C18.4332 2.78041 18.2984 2.30906 17.9701 2.00006C17.6433 1.69249 17.1465 1.56663 16.4738 1.56663Z" fill="#9BA0A5" stroke="#9BA0A5" stroke-width="0.2"/>
</svg>
