<svg width="20" height="20" viewBox="0 0 20 20" fill="none" xmlns="http://www.w3.org/2000/svg">
<g clip-path="url(#clip0_1222_304)">
<path fill-rule="evenodd" clip-rule="evenodd" d="M16.125 8.03333C15.5583 5.15833 13.0333 3 10 3C7.59167 3 5.5 4.36667 4.45833 6.36667C1.95 6.63333 0 8.75833 0 11.3333C0 14.0917 2.24167 16.3333 5 16.3333H15.8333C18.1333 16.3333 20 14.4667 20 12.1667C20 9.96667 18.2917 8.18333 16.125 8.03333ZM15.8335 14.6667H5.00017C3.1585 14.6667 1.66684 13.175 1.66684 11.3334C1.66684 9.49171 3.1585 8.00004 5.00017 8.00004H5.59184C6.14184 6.07504 7.90017 4.66671 10.0002 4.66671C12.5335 4.66671 14.5835 6.71671 14.5835 9.25004V9.66671H15.8335C17.2168 9.66671 18.3335 10.7834 18.3335 12.1667C18.3335 13.55 17.2168 14.6667 15.8335 14.6667Z" fill="#9BA0A5"/>
</g>
<defs>
<clipPath id="clip0_1222_304">
<rect width="20" height="20" fill="white"/>
</clipPath>
</defs>
</svg>
