<svg width="20" height="20" viewBox="0 0 20 20" fill="none" xmlns="http://www.w3.org/2000/svg">
<g clip-path="url(#clip0_1244_999)">
<path fill-rule="evenodd" clip-rule="evenodd" d="M16.1244 8.03393C18.2913 8.18395 19.9998 9.96749 19.9998 12.1677C19.9998 13.4512 19.4081 14.5764 18.4997 15.3431L17.3245 14.168C17.9329 13.7096 18.333 12.9928 18.333 12.1677C18.333 10.7843 17.2162 9.66745 15.8327 9.66745H14.5825V9.25074C14.5825 6.71711 12.5323 4.66686 9.99867 4.66686C9.35693 4.66686 8.75685 4.80855 8.19845 5.05024L6.95664 3.80843C7.85675 3.30004 8.8902 3 9.99867 3C13.0324 3 15.5577 5.15859 16.1244 8.03393ZM3.08978 4.64175C2.76474 4.31671 2.76474 3.79165 3.08978 3.46661C3.41482 3.14157 3.93988 3.14157 4.26492 3.46661L17.0248 16.2348C17.3498 16.5598 17.3498 17.0849 17.0248 17.4099C16.6997 17.735 16.1747 17.735 15.8496 17.4099L14.7745 16.3348H5.18169C2.65639 16.3348 0.381127 14.5346 0.0477541 12.0176C-0.343959 9.14228 1.72295 6.65032 4.45661 6.35862H4.80665L3.08978 4.64175Z" fill="#9BA0A5"/>
</g>
<defs>
<clipPath id="clip0_1244_999">
<rect width="20" height="20" fill="white"/>
</clipPath>
</defs>
</svg>
