<svg width="16" height="16" viewBox="0 0 16 16" fill="none" xmlns="http://www.w3.org/2000/svg">
<mask id="mask0_1069_54898" style="mask-type:alpha" maskUnits="userSpaceOnUse" x="0" y="0" width="16" height="16">
<path d="M16 0H0V16H16V0Z" fill="white"/>
</mask>
<g mask="url(#mask0_1069_54898)">
<path fill-rule="evenodd" clip-rule="evenodd" d="M6.0332 6.22917C6.0332 5.19905 6.91975 4.3125 7.94987 4.3125C8.97091 4.3125 9.86654 5.14007 9.86654 6.22917C9.86654 6.45929 9.67999 6.64583 9.44987 6.64583C9.21975 6.64583 9.0332 6.45929 9.0332 6.22917C9.0332 5.61826 8.52883 5.14583 7.94987 5.14583C7.37999 5.14583 6.86654 5.65929 6.86654 6.22917C6.86654 6.45929 6.67999 6.64583 6.44987 6.64583C6.21975 6.64583 6.0332 6.45929 6.0332 6.22917Z" fill="#001A41"/>
<path fill-rule="evenodd" clip-rule="evenodd" d="M7.95065 1.7474C6.6896 1.7474 5.66732 2.76968 5.66732 4.03073C5.66732 5.29178 6.6896 6.31406 7.95065 6.31406C9.2117 6.31406 10.234 5.29178 10.234 4.03073C10.234 2.76968 9.2117 1.7474 7.95065 1.7474ZM4.83398 4.03073C4.83398 2.30944 6.22936 0.914062 7.95065 0.914062C9.67194 0.914062 11.0673 2.30944 11.0673 4.03073C11.0673 5.75202 9.67194 7.1474 7.95065 7.1474C6.22936 7.1474 4.83398 5.75202 4.83398 4.03073Z" fill="#001A41"/>
<path fill-rule="evenodd" clip-rule="evenodd" d="M7.95026 3.39583C7.71094 3.39583 7.51693 3.58984 7.51693 3.82917C7.51693 4.06849 7.71094 4.2625 7.95026 4.2625C8.18958 4.2625 8.38359 4.06849 8.38359 3.82917C8.38359 3.58984 8.18958 3.39583 7.95026 3.39583ZM6.68359 3.82917C6.68359 3.12961 7.2507 2.5625 7.95026 2.5625C8.64982 2.5625 9.21693 3.12961 9.21693 3.82917C9.21693 4.52873 8.64982 5.09583 7.95026 5.09583C7.2507 5.09583 6.68359 4.52873 6.68359 3.82917Z" fill="#001A41"/>
<path fill-rule="evenodd" clip-rule="evenodd" d="M10.1211 14.2292C10.1211 13.199 11.0076 12.3125 12.0378 12.3125C13.0588 12.3125 13.9544 13.1401 13.9544 14.2292C13.9544 14.4593 13.7679 14.6458 13.5378 14.6458C13.3076 14.6458 13.1211 14.4593 13.1211 14.2292C13.1211 13.6183 12.6167 13.1458 12.0378 13.1458C11.4679 13.1458 10.9544 13.6593 10.9544 14.2292C10.9544 14.4593 10.7679 14.6458 10.5378 14.6458C10.3076 14.6458 10.1211 14.4593 10.1211 14.2292Z" fill="#001A41"/>
<path fill-rule="evenodd" clip-rule="evenodd" d="M12.0385 9.7474C10.7775 9.7474 9.75521 10.7697 9.75521 12.0307C9.75521 13.2918 10.7775 14.3141 12.0385 14.3141C13.2996 14.3141 14.3219 13.2918 14.3219 12.0307C14.3219 10.7697 13.2996 9.7474 12.0385 9.7474ZM8.92188 12.0307C8.92188 10.3094 10.3173 8.91406 12.0385 8.91406C13.7598 8.91406 15.1552 10.3094 15.1552 12.0307C15.1552 13.752 13.7598 15.1474 12.0385 15.1474C10.3173 15.1474 8.92188 13.752 8.92188 12.0307Z" fill="#001A41"/>
<path fill-rule="evenodd" clip-rule="evenodd" d="M12.0382 11.3958C11.7988 11.3958 11.6048 11.5898 11.6048 11.8292C11.6048 12.0685 11.7988 12.2625 12.0382 12.2625C12.2775 12.2625 12.4715 12.0685 12.4715 11.8292C12.4715 11.5898 12.2775 11.3958 12.0382 11.3958ZM10.7715 11.8292C10.7715 11.1296 11.3386 10.5625 12.0382 10.5625C12.7377 10.5625 13.3048 11.1296 13.3048 11.8292C13.3048 12.5287 12.7377 13.0958 12.0382 13.0958C11.3386 13.0958 10.7715 12.5287 10.7715 11.8292Z" fill="#001A41"/>
<path fill-rule="evenodd" clip-rule="evenodd" d="M2.05273 14.2292C2.05273 13.199 2.93928 12.3125 3.9694 12.3125C4.99044 12.3125 5.88607 13.1401 5.88607 14.2292C5.88607 14.4593 5.69952 14.6458 5.4694 14.6458C5.23928 14.6458 5.05273 14.4593 5.05273 14.2292C5.05273 13.6183 4.54836 13.1458 3.9694 13.1458C3.39952 13.1458 2.88607 13.6593 2.88607 14.2292C2.88607 14.4593 2.69952 14.6458 2.4694 14.6458C2.23928 14.6458 2.05273 14.4593 2.05273 14.2292Z" fill="#001A41"/>
<path fill-rule="evenodd" clip-rule="evenodd" d="M3.97018 9.7474C2.70913 9.7474 1.68685 10.7697 1.68685 12.0307C1.68685 13.2918 2.70913 14.3141 3.97018 14.3141C5.23123 14.3141 6.25352 13.2918 6.25352 12.0307C6.25352 10.7697 5.23123 9.7474 3.97018 9.7474ZM0.853516 12.0307C0.853516 10.3094 2.24889 8.91406 3.97018 8.91406C5.69147 8.91406 7.08685 10.3094 7.08685 12.0307C7.08685 13.752 5.69147 15.1474 3.97018 15.1474C2.24889 15.1474 0.853516 13.752 0.853516 12.0307Z" fill="#001A41"/>
<path fill-rule="evenodd" clip-rule="evenodd" d="M3.96979 11.3958C3.73047 11.3958 3.53646 11.5898 3.53646 11.8292C3.53646 12.0685 3.73047 12.2625 3.96979 12.2625C4.20911 12.2625 4.40312 12.0685 4.40312 11.8292C4.40312 11.5898 4.20911 11.3958 3.96979 11.3958ZM2.70312 11.8292C2.70312 11.1296 3.27023 10.5625 3.96979 10.5625C4.66935 10.5625 5.23646 11.1296 5.23646 11.8292C5.23646 12.5287 4.66935 13.0958 3.96979 13.0958C3.27023 13.0958 2.70312 12.5287 2.70312 11.8292Z" fill="#001A41"/>
</g>
<mask id="mask1_1069_54898" style="mask-type:alpha" maskUnits="userSpaceOnUse" x="0" y="0" width="16" height="16">
<path d="M16 0H0V16H16V0Z" fill="white"/>
</mask>
<g mask="url(#mask1_1069_54898)">
<path fill-rule="evenodd" clip-rule="evenodd" d="M8.00065 6.73438C8.23077 6.73438 8.41732 6.92092 8.41732 7.15104V8.50104C8.41732 8.73116 8.23077 8.91771 8.00065 8.91771C7.77053 8.91771 7.58398 8.73116 7.58398 8.50104V7.15104C7.58398 6.92092 7.77053 6.73438 8.00065 6.73438Z" fill="#001A41"/>
<path fill-rule="evenodd" clip-rule="evenodd" d="M8.00194 7.93751C8.11344 7.93827 8.21997 7.98369 8.29772 8.0636L10.0977 9.9136C10.2582 10.0785 10.2546 10.3423 10.0897 10.5028C9.92472 10.6633 9.66093 10.6597 9.50045 10.4947L7.99502 8.94749L6.44372 10.4988C6.281 10.6615 6.01718 10.6615 5.85446 10.4988C5.69174 10.3361 5.69174 10.0723 5.85446 9.90954L7.70446 8.05954C7.7833 7.9807 7.89045 7.93675 8.00194 7.93751Z" fill="#001A41"/>
</g>
</svg>
