<svg width="16" height="16" viewBox="0 0 16 16" fill="none" xmlns="http://www.w3.org/2000/svg">
<path fill-rule="evenodd" clip-rule="evenodd" d="M1 8C1 4.13417 4.13417 1 8 1C11.8658 1 15 4.13417 15 8C15 11.8658 11.8658 15 8 15C4.13417 15 1 11.8658 1 8ZM10.483 13.4637C10.9766 13.239 11.4345 12.9493 11.8456 12.6057C11.6342 12.4669 11.4131 12.3393 11.1834 12.2236C11.0882 12.4388 10.9862 12.6442 10.8781 12.8389C10.7565 13.0579 10.6245 13.2673 10.483 13.4637ZM11.5361 11.2825C11.8991 11.4589 12.2447 11.6617 12.5696 11.8883C13.3604 10.9599 13.8732 9.78757 13.9795 8.5H12.0103C11.9679 9.49736 11.7999 10.4405 11.5361 11.2825ZM11.0093 8.5C10.969 9.36812 10.8251 10.181 10.6069 10.9022C9.94273 10.6786 9.2353 10.538 8.5 10.494V8.5H11.0093ZM12.0103 7.5H13.9795C13.8732 6.21243 13.3604 5.0401 12.5696 4.11172C12.2447 4.33826 11.8991 4.54109 11.5361 4.71752C11.7999 5.55954 11.9679 6.50264 12.0103 7.5ZM10.6069 5.09777C10.8251 5.81902 10.969 6.63188 11.0093 7.5H8.5V5.50601C9.2353 5.46196 9.94273 5.32144 10.6069 5.09777ZM11.1834 3.77636C11.4131 3.66074 11.6342 3.53306 11.8456 3.39433C11.4345 3.05067 10.9766 2.76104 10.483 2.53633C10.6245 2.7327 10.7565 2.94213 10.8781 3.16107C10.9862 3.35577 11.0882 3.56122 11.1834 3.77636ZM5.517 2.53633C5.02338 2.76104 4.56554 3.05067 4.15442 3.39433C4.36582 3.53306 4.58688 3.66074 4.81657 3.77636C4.91177 3.56122 5.01378 3.35577 5.12193 3.16107C5.24355 2.94213 5.37553 2.7327 5.517 2.53633ZM4.46386 4.71752C4.10087 4.54109 3.75534 4.33826 3.43035 4.11172C2.63962 5.0401 2.12678 6.21243 2.02054 7.5H3.98967C4.0321 6.50264 4.20009 5.55954 4.46386 4.71752ZM4.99065 7.5C5.03101 6.63188 5.17491 5.81902 5.39311 5.09777C6.05727 5.32144 6.7647 5.46196 7.5 5.50601V7.5H4.99065ZM3.98967 8.5H2.02054C2.12678 9.78757 2.63962 10.9599 3.43035 11.8883C3.75534 11.6617 4.10087 11.4589 4.46386 11.2825C4.20009 10.4405 4.0321 9.49737 3.98967 8.5ZM5.39311 10.9022C5.17491 10.181 5.03101 9.36812 4.99065 8.5H7.5V10.494C6.7647 10.538 6.05727 10.6786 5.39311 10.9022ZM4.81657 12.2236C4.91177 12.4388 5.01378 12.6442 5.12193 12.8389C5.24355 13.0579 5.37553 13.2673 5.517 13.4637C5.02338 13.239 4.56554 12.9493 4.15442 12.6057C4.36582 12.4669 4.58688 12.3393 4.81657 12.2236ZM5.7406 11.8405C6.29506 11.6564 6.88532 11.5379 7.5 11.496V13.8973C6.99592 13.6949 6.46093 13.1901 5.99612 12.3533C5.90641 12.1919 5.82101 12.0206 5.7406 11.8405ZM8.5 11.496C9.11468 11.5379 9.70494 11.6564 10.2594 11.8405C10.179 12.0206 10.0936 12.1919 10.0039 12.3533C9.53907 13.1901 9.00408 13.6949 8.5 13.8973V11.496ZM7.5 4.50397C6.88532 4.46208 6.29506 4.34362 5.7406 4.15954C5.82101 3.9794 5.90641 3.80815 5.99612 3.64666C6.46093 2.80987 6.99592 2.30513 7.5 2.10275V4.50397ZM8.5 4.50397C9.11468 4.46208 9.70494 4.34362 10.2594 4.15954C10.179 3.9794 10.0936 3.80815 10.0039 3.64666C9.53907 2.80987 9.00408 2.30513 8.5 2.10275V4.50397Z" fill="black"/>
</svg>
