<svg width="20" height="20" viewBox="0 0 20 20" fill="none" xmlns="http://www.w3.org/2000/svg">
<path fill-rule="evenodd" clip-rule="evenodd" d="M9.99996 0C10.502 5.4186e-08 10.909 0.407014 10.909 0.909091L10.909 11.111L13.4894 8.53073C13.8444 8.17571 14.42 8.17571 14.775 8.53073C15.13 8.88575 15.13 9.46136 14.775 9.81638L10.6428 13.9486C10.4723 14.1191 10.2411 14.2149 9.99996 14.2149C9.75885 14.2149 9.52762 14.1191 9.35713 13.9486L5.2249 9.81638C4.86988 9.46136 4.86988 8.88575 5.2249 8.53073C5.57993 8.17571 6.15553 8.17571 6.51055 8.53073L9.09087 11.111L9.09087 0.909091C9.09087 0.407014 9.49788 0 9.99996 0ZM0.909091 13.2231C1.41117 13.2231 1.81818 13.6302 1.81818 14.1322L1.81818 17.438C1.81818 17.8488 2.15119 18.1818 2.56198 18.1818L17.438 18.1818C17.8488 18.1818 18.1818 17.8488 18.1818 17.438V14.1322C18.1818 13.6302 18.5888 13.2231 19.0909 13.2231C19.593 13.2231 20 13.6302 20 14.1322V17.438C20 18.853 18.853 20 17.438 20L2.56198 20C1.14704 20 -1.08372e-07 18.853 0 17.438L1.62558e-07 14.1322C1.62558e-07 13.6302 0.407014 13.2231 0.909091 13.2231Z" fill="#001A41"/>
</svg>
