<svg width="20" height="20" viewBox="0 0 20 20" fill="none" xmlns="http://www.w3.org/2000/svg">
<path d="M18.7428 15.1271L11.7159 2.97764C11.5403 2.67999 11.2897 2.43318 10.9887 2.2617C10.6878 2.09021 10.3471 2 10.0004 2C9.65368 2 9.31297 2.09021 9.01205 2.2617C8.71114 2.43318 8.46046 2.67999 8.28486 2.97764L1.25799 15.1271C1.08904 15.415 1 15.7425 1 16.0759C1 16.4094 1.08904 16.7368 1.25799 17.0247C1.43134 17.3242 1.68159 17.5723 1.98307 17.7437C2.28454 17.9151 2.62639 18.0035 2.97353 17.9999H17.0273C17.3741 18.0032 17.7157 17.9146 18.0168 17.7433C18.318 17.5719 18.568 17.3239 18.7412 17.0247C18.9104 16.7369 18.9997 16.4096 19 16.0761C19.0003 15.7427 18.9115 15.4152 18.7428 15.1271ZM17.6283 16.3839C17.5671 16.4879 17.4791 16.5739 17.3735 16.6329C17.2679 16.692 17.1484 16.722 17.0273 16.7199H2.97353C2.85242 16.722 2.73293 16.692 2.62731 16.6329C2.52169 16.5739 2.43375 16.4879 2.37249 16.3839C2.317 16.2904 2.28773 16.1837 2.28773 16.0751C2.28773 15.9665 2.317 15.8598 2.37249 15.7663L9.39936 3.61684C9.46186 3.5133 9.5502 3.42762 9.6558 3.36814C9.76141 3.30866 9.88068 3.2774 10.002 3.2774C10.1233 3.2774 10.2426 3.30866 10.3482 3.36814C10.4538 3.42762 10.5422 3.5133 10.6047 3.61684L17.6315 15.7663C17.6865 15.8601 17.7152 15.9669 17.7147 16.0756C17.7141 16.1842 17.6843 16.2907 17.6283 16.3839ZM9.35758 11.6V8.39999C9.35758 8.23025 9.4253 8.06747 9.54586 7.94745C9.66641 7.82742 9.82991 7.76 10.0004 7.76C10.1709 7.76 10.3344 7.82742 10.4549 7.94745C10.5755 8.06747 10.6432 8.23025 10.6432 8.39999V11.6C10.6432 11.7697 10.5755 11.9325 10.4549 12.0525C10.3344 12.1725 10.1709 12.24 10.0004 12.24C9.82991 12.24 9.66641 12.1725 9.54586 12.0525C9.4253 11.9325 9.35758 11.7697 9.35758 11.6ZM10.9646 14.4799C10.9646 14.6698 10.9081 14.8554 10.8021 15.0133C10.6962 15.1711 10.5456 15.2942 10.3694 15.3668C10.1932 15.4395 9.99933 15.4585 9.81229 15.4215C9.62524 15.3844 9.45343 15.293 9.31858 15.1587C9.18373 15.0245 9.0919 14.8534 9.05469 14.6672C9.01749 14.481 9.03658 14.288 9.10956 14.1126C9.18254 13.9371 9.30613 13.7872 9.4647 13.6817C9.62327 13.5762 9.80969 13.5199 10.0004 13.5199C10.2561 13.5199 10.5014 13.6211 10.6822 13.8011C10.863 13.9811 10.9646 14.2253 10.9646 14.4799Z" fill="#001A41"/>
</svg>
