<svg width="20" height="20" viewBox="0 0 20 20" fill="none" xmlns="http://www.w3.org/2000/svg">
  <path d="M15.3859 15.4776C15.3388 15.4776 15.2925 15.4691 15.247 15.4519L5.21615 11.5534C5.06723 11.4957 4.96924 11.3506 4.96924 11.1892V6.511C4.96924 6.3496 5.06723 6.20457 5.21615 6.14687L15.247 2.24834C15.3666 2.20156 15.4986 2.21871 15.6043 2.29122C15.7092 2.36374 15.7717 2.48381 15.7717 2.61246V15.0878C15.7717 15.2164 15.7092 15.3365 15.6043 15.409C15.5387 15.4542 15.4631 15.4776 15.3859 15.4776ZM5.74084 10.921L15.0001 14.5201V3.18009L5.74084 6.77922V10.921Z" fill="#000000"/>
  <path d="M5.35516 11.5791H2.65454C1.80346 11.5791 1.11133 10.8797 1.11133 10.0197V7.68057C1.11133 6.82055 1.80346 6.12115 2.65454 6.12115H5.35516C5.56812 6.12115 5.74096 6.29581 5.74096 6.51101V11.1893C5.74096 11.4045 5.56812 11.5791 5.35516 11.5791ZM2.65454 6.90086C2.22861 6.90086 1.88293 7.25017 1.88293 7.68057V10.0197C1.88293 10.4501 2.22861 10.7994 2.65454 10.7994H4.96935V6.90086H2.65454Z" fill="#000000"/>
  <path d="M6.89855 17.037H4.58373C4.3916 17.037 4.2288 16.8943 4.20179 16.7017L3.43019 11.2438C3.40009 11.0309 3.5467 10.8337 3.75812 10.8032C3.96491 10.7767 4.16398 10.921 4.19407 11.1346L4.91861 16.2573H6.46645L5.95102 11.6149C5.92787 11.4013 6.07988 11.2087 6.2913 11.1837C6.49577 11.1611 6.6933 11.314 6.71799 11.5276L7.28127 16.6035C7.29361 16.7142 7.25889 16.8241 7.18559 16.9068C7.11306 16.9894 7.00889 17.037 6.89855 17.037Z" fill="#000000"/>
  <path d="M16.9292 6.90086C16.805 6.90086 16.683 6.84004 16.6082 6.72699C16.4901 6.54843 16.538 6.30594 16.7155 6.18665L19.0303 4.62724C19.2062 4.50872 19.4462 4.5555 19.565 4.73562C19.683 4.91417 19.6352 5.15666 19.4577 5.27595L17.1429 6.83537C17.0773 6.87981 17.0033 6.90086 16.9292 6.90086Z" fill="#000000"/>
  <path d="M19.2443 13.9182C19.1702 13.9182 19.0961 13.8972 19.0306 13.8527L16.7157 12.2933C16.539 12.174 16.4904 11.9315 16.6085 11.753C16.7273 11.5737 16.9681 11.5261 17.1432 11.6446L19.458 13.204C19.6347 13.3233 19.6833 13.5658 19.5653 13.7444C19.4904 13.8574 19.3685 13.9182 19.2443 13.9182Z" fill="#000000"/>
  <path d="M19.2441 9.6298H16.9293C16.7163 9.6298 16.5435 9.45515 16.5435 9.23995C16.5435 9.02475 16.7163 8.8501 16.9293 8.8501H19.2441C19.457 8.8501 19.6299 9.02475 19.6299 9.23995C19.6299 9.45515 19.457 9.6298 19.2441 9.6298Z" fill="#000000"/>
</svg>
