<svg width="16" height="16" viewBox="0 0 16 16" fill="none" xmlns="http://www.w3.org/2000/svg">
<path d="M7.96732 12.0026C8.20065 12.0026 8.39798 11.9219 8.55932 11.7606C8.72065 11.5993 8.8011 11.4022 8.80065 11.1693C8.80065 10.9359 8.72021 10.7386 8.55932 10.5773C8.39843 10.4159 8.2011 10.3355 7.96732 10.3359C7.73398 10.3359 7.53687 10.4166 7.37598 10.5779C7.2151 10.7393 7.13443 10.9364 7.13398 11.1693C7.13398 11.4026 7.21465 11.5999 7.37598 11.7613C7.53732 11.9226 7.73443 12.003 7.96732 12.0026ZM7.36732 9.43594H8.60065C8.60065 9.06927 8.64243 8.78038 8.72598 8.56927C8.80954 8.35816 9.04554 8.06927 9.43398 7.7026C9.72287 7.41372 9.95065 7.1386 10.1173 6.87727C10.284 6.61594 10.3673 6.30216 10.3673 5.93594C10.3673 5.31372 10.1395 4.83594 9.68398 4.5026C9.22843 4.16927 8.68954 4.0026 8.06732 4.0026C7.43398 4.0026 6.91998 4.16927 6.52532 4.5026C6.13065 4.83594 5.85576 5.23594 5.70065 5.7026L6.80065 6.13594C6.85621 5.93594 6.98132 5.71927 7.17598 5.48594C7.37065 5.2526 7.66776 5.13594 8.06732 5.13594C8.42287 5.13594 8.68954 5.23327 8.86732 5.42794C9.0451 5.6226 9.13398 5.83638 9.13398 6.06927C9.13398 6.29149 9.06732 6.49994 8.93398 6.6946C8.80065 6.88927 8.63398 7.06972 8.43398 7.23594C7.9451 7.66927 7.6451 7.99705 7.53398 8.21927C7.42287 8.44149 7.36732 8.84705 7.36732 9.43594ZM8.00065 14.6693C7.07843 14.6693 6.21176 14.4942 5.40065 14.1439C4.58954 13.7937 3.88398 13.3188 3.28398 12.7193C2.68398 12.1193 2.2091 11.4137 1.85932 10.6026C1.50954 9.79149 1.33443 8.92483 1.33398 8.0026C1.33398 7.08038 1.5091 6.21372 1.85932 5.4026C2.20954 4.59149 2.68443 3.88594 3.28398 3.28594C3.88398 2.68594 4.58954 2.21105 5.40065 1.86127C6.21176 1.51149 7.07843 1.33638 8.00065 1.33594C8.92287 1.33594 9.78954 1.51105 10.6007 1.86127C11.4118 2.21149 12.1173 2.68638 12.7173 3.28594C13.3173 3.88594 13.7924 4.59149 14.1427 5.4026C14.4929 6.21372 14.6678 7.08038 14.6673 8.0026C14.6673 8.92483 14.4922 9.79149 14.142 10.6026C13.7918 11.4137 13.3169 12.1193 12.7173 12.7193C12.1173 13.3193 11.4118 13.7944 10.6007 14.1446C9.78954 14.4948 8.92287 14.6697 8.00065 14.6693ZM8.00065 13.3359C9.48954 13.3359 10.7507 12.8193 11.784 11.7859C12.8173 10.7526 13.334 9.49149 13.334 8.0026C13.334 6.51372 12.8173 5.2526 11.784 4.21927C10.7507 3.18594 9.48954 2.66927 8.00065 2.66927C6.51176 2.66927 5.25065 3.18594 4.21732 4.21927C3.18398 5.2526 2.66732 6.51372 2.66732 8.0026C2.66732 9.49149 3.18398 10.7526 4.21732 11.7859C5.25065 12.8193 6.51176 13.3359 8.00065 13.3359Z" fill="#001A41"/>
</svg>
