<svg width="16" height="16" viewBox="0 0 16 16" fill="none" xmlns="http://www.w3.org/2000/svg">
<path fill-rule="evenodd" clip-rule="evenodd" d="M2 2.66667C2 2.29848 2.29848 2 2.66667 2H6.66667C7.03486 2 7.33333 2.29848 7.33333 2.66667V8C7.33333 8.36819 7.03486 8.66667 6.66667 8.66667H2.66667C2.29848 8.66667 2 8.36819 2 8V2.66667ZM3.33333 3.33333V7.33333H6V3.33333H3.33333ZM8.66667 2.66667C8.66667 2.29848 8.96514 2 9.33333 2H13.3333C13.7015 2 14 2.29848 14 2.66667V5.33333C14 5.70152 13.7015 6 13.3333 6H9.33333C8.96514 6 8.66667 5.70152 8.66667 5.33333V2.66667ZM10 3.33333V4.66667H12.6667V3.33333H10ZM8.66667 8C8.66667 7.63181 8.96514 7.33333 9.33333 7.33333H13.3333C13.7015 7.33333 14 7.63181 14 8V13.3333C14 13.7015 13.7015 14 13.3333 14H9.33333C8.96514 14 8.66667 13.7015 8.66667 13.3333V8ZM10 8.66667V12.6667H12.6667V8.66667H10ZM2 10.6667C2 10.2985 2.29848 10 2.66667 10H6.66667C7.03486 10 7.33333 10.2985 7.33333 10.6667V13.3333C7.33333 13.7015 7.03486 14 6.66667 14H2.66667C2.29848 14 2 13.7015 2 13.3333V10.6667ZM3.33333 11.3333V12.6667H6V11.3333H3.33333Z" fill="#001A41"/>
</svg>
