<svg width="16" height="16" viewBox="0 0 16 16" fill="none" xmlns="http://www.w3.org/2000/svg">
<path d="M11.1437 7.42188C9.09642 7.42188 7.42969 9.08907 7.42969 11.1369C7.42969 13.1847 9.09642 14.8519 11.1437 14.8519C13.1909 14.8519 14.8576 13.1847 14.8576 11.1369C14.8576 9.08907 13.1909 7.42188 11.1437 7.42188ZM11.1437 13.7154C10.9078 13.7154 10.7149 13.5224 10.7149 13.2866C10.7149 13.0507 10.9078 12.8577 11.1437 12.8577C11.3795 12.8577 11.5724 13.0507 11.5724 13.2866C11.5724 13.5224 11.3795 13.7154 11.1437 13.7154ZM11.9958 11.2334C11.6206 11.5229 11.5724 11.7855 11.5724 12.1447C11.5724 12.3806 11.3795 12.5736 11.1437 12.5736C10.9078 12.5736 10.7149 12.3806 10.7149 12.1447C10.7149 11.5175 10.9025 10.9921 11.4759 10.5526C11.626 10.4346 11.7171 10.247 11.7171 10.0487C11.7171 9.70556 11.4598 9.4268 11.1437 9.4268C10.8275 9.4268 10.5702 9.70556 10.5702 10.0487C10.5702 10.2845 10.3773 10.4775 10.1415 10.4775C9.90566 10.4775 9.71273 10.2845 9.71273 10.0487C9.71273 9.23381 10.3558 8.56908 11.1437 8.56908C11.9315 8.56908 12.5746 9.23381 12.5746 10.0487C12.5692 10.5097 12.3548 10.9546 11.9958 11.2334Z" fill="#001A41"/>
<path d="M11.417 1.20117C9.93784 0.986739 8.63018 1.34055 7.4297 2.28405C6.22923 1.34055 4.92157 0.986739 3.44242 1.20117C2.94401 1.27086 2.57422 1.69972 2.57422 2.18755V8.45965C2.57422 8.73841 2.69212 9.00645 2.90649 9.19944C3.12086 9.39243 3.41026 9.48356 3.6943 9.4514C4.60538 9.34954 5.48429 9.53717 6.29354 9.99819C6.33642 10.0143 6.36857 10.0411 6.40609 10.0625C6.41145 10.0411 6.41681 10.0196 6.42217 9.99819C6.48648 9.73552 6.57222 9.4782 6.67941 9.2316C5.89696 8.79202 5.05019 8.56151 4.17664 8.56151C3.9837 8.56151 3.79077 8.57223 3.59248 8.59367C3.52817 8.59903 3.49065 8.57223 3.47457 8.55079C3.44778 8.52934 3.4317 8.49182 3.4317 8.45429V2.18219C3.4317 2.1125 3.49065 2.05353 3.56032 2.03745C4.8519 1.84982 5.95055 2.16611 7.00096 3.03455C7.05456 3.06672 7.09743 3.11497 7.15102 3.15249C7.3118 3.29723 7.55297 3.29723 7.70839 3.15249C7.76198 3.1096 7.80485 3.06672 7.85845 3.03455C8.90886 2.17147 10.0075 1.85518 11.2991 2.03745C11.3741 2.04817 11.4331 2.1125 11.4331 2.18219V6.28318C11.7225 6.29926 12.0119 6.34751 12.2906 6.41184V2.18219C12.2852 1.69972 11.9154 1.27086 11.417 1.20117Z" fill="#001A41"/>
<path d="M6.42145 10.0007C6.41609 10.0222 6.41073 10.0436 6.40537 10.0651C6.34642 10.3224 6.3089 10.5904 6.29283 10.8585H2.14476C1.59812 10.8585 1.14258 10.4082 1.14258 9.85601V3.28371C1.14258 2.73691 1.5874 2.28661 2.1394 2.28125H2.85218C3.08799 2.28125 3.28092 2.46888 3.28092 2.71011C3.28092 2.94598 3.09335 3.13897 2.85218 3.13897H2.1394C2.05901 3.13897 1.9947 3.20866 1.9947 3.28371V9.86137C1.9947 9.94178 2.05901 10.0061 2.1394 10.0061H6.42145V10.0007Z" fill="#001A41"/>
<path d="M13.716 3.28371V7.02553C13.448 6.85935 13.1586 6.71461 12.8585 6.60203V3.28371C12.8585 3.2033 12.7942 3.13897 12.7138 3.13897H12.001C11.7652 3.13897 11.5723 2.94599 11.5723 2.71011C11.5723 2.47424 11.7652 2.28125 12.001 2.28125H12.7138C13.2604 2.28125 13.716 2.73692 13.716 3.28371Z" fill="#001A41"/>
<path d="M7.85162 2.85074V7.56821C7.51935 7.86841 7.22995 8.22222 6.99414 8.6082V2.85074C6.99414 2.61486 7.18707 2.42188 7.42288 2.42188C7.65869 2.42188 7.85162 2.61486 7.85162 2.85074Z" fill="#001A41"/>
</svg>
