<svg width="20" height="20" viewBox="0 0 20 20" fill="none" xmlns="http://www.w3.org/2000/svg">
<g clip-path="url(#clip0_1218_1082)">
<path fill-rule="evenodd" clip-rule="evenodd" d="M14.2939 12.5786H13.3905L13.0703 12.2699C14.191 10.9663 14.8656 9.27387 14.8656 7.43282C14.8656 3.32762 11.538 0 7.43282 0C3.32762 0 0 3.32762 0 7.43282C0 11.538 3.32762 14.8656 7.43282 14.8656C9.27387 14.8656 10.9663 14.191 12.2699 13.0703L12.5786 13.3905V14.2939L18.2962 20L20 18.2962L14.2939 12.5786ZM7.4325 12.5786C4.58515 12.5786 2.2867 10.2801 2.2867 7.43275C2.2867 4.58541 4.58515 2.28696 7.4325 2.28696C10.2798 2.28696 12.5783 4.58541 12.5783 7.43275C12.5783 10.2801 10.2798 12.5786 7.4325 12.5786Z" fill="#9BA0A5"/>
</g>
<defs>
<clipPath id="clip0_1218_1082">
<rect width="20" height="20" fill="white"/>
</clipPath>
</defs>
</svg>
