<svg width="20" height="20" viewBox="0 0 20 20" fill="none" xmlns="http://www.w3.org/2000/svg">
<g clip-path="url(#clip0_2576_240)">
<path d="M4.1665 5C2.78817 5 1.6665 3.87833 1.6665 2.5C1.6665 1.12167 2.78817 0 4.1665 0C5.54484 0 6.6665 1.12167 6.6665 2.5C6.6665 3.87833 5.54484 5 4.1665 5Z" fill="#9BA0A5"/>
<path d="M5.20833 19.9999H3.125C2.32083 19.9999 1.66667 19.3458 1.66667 18.5416V14.0566C1.66667 13.9774 1.6225 13.9058 1.55167 13.8699L0.805833 13.4974C0.309167 13.2491 0 12.7491 0 12.1933V8.95825C0 7.23492 1.40167 5.83325 3.125 5.83325H5.20833C6.93167 5.83325 8.33333 7.23492 8.33333 8.95825V12.1933C8.33333 12.7491 8.02417 13.2491 7.5275 13.4974L6.78167 13.8699C6.71083 13.9058 6.66667 13.9774 6.66667 14.0566V18.5416C6.66667 19.3458 6.0125 19.9999 5.20833 19.9999Z" fill="#9BA0A5"/>
<path d="M18.3333 0H7.5C7.86667 0.483333 8.125 1.05 8.25 1.66667H18.3333V10.8333H10C10 11.0892 10.0142 12.2667 9.975 12.5H9.99833L8.5 14.5C8.225 14.8667 8.3 15.3917 8.66667 15.6667C9.03333 15.9417 9.55833 15.8667 9.83333 15.5L11.6667 13.0583L13.5 15.5C13.7908 15.8783 14.3192 15.9367 14.6667 15.6667C15.0333 15.3917 15.1083 14.8667 14.8333 14.5L13.335 12.5H18.3333C19.25 12.5 20 11.75 20 10.8333V1.66667C20 0.75 19.25 0 18.3333 0Z" fill="#9BA0A5"/>
<path d="M16.6666 8.33333V3.125C16.6666 2.78 16.3866 2.5 16.0416 2.5H13.9583C13.6133 2.5 13.3333 2.78 13.3333 3.125V8.33333H11.6666V5.625C11.6666 5.28333 11.3833 5 11.0416 5H8.9583C8.69997 5 8.47497 5.15833 8.3833 5.38333V5.39167C9.99247 6.79333 9.99997 8.385 9.99997 10H16.6666C17.125 10 17.5 9.625 17.5 9.16667C17.5 8.70833 17.125 8.33333 16.6666 8.33333Z" fill="#9BA0A5"/>
</g>
<defs>
<clipPath id="clip0_2576_240">
<rect width="20" height="20" fill="white"/>
</clipPath>
</defs>
</svg>
