<svg width="16" height="16" viewBox="0 0 16 16" fill="none" xmlns="http://www.w3.org/2000/svg">
<path fill-rule="evenodd" clip-rule="evenodd" d="M2.79948 1.96615C2.33203 1.96615 1.96615 2.35314 1.96615 2.79948V9.74948C1.96615 10.2313 2.31767 10.5828 2.79948 10.5828H13.1995C13.6813 10.5828 14.0328 10.2313 14.0328 9.74948V2.79948C14.0328 2.31767 13.6813 1.96615 13.1995 1.96615H2.79948ZM0.632812 2.79948C0.632812 1.64582 1.56692 0.632812 2.79948 0.632812H13.1995C14.4177 0.632812 15.3661 1.58129 15.3661 2.79948V9.74948C15.3661 10.9677 14.4177 11.9161 13.1995 11.9161H2.79948C1.58129 11.9161 0.632812 10.9677 0.632812 9.74948V2.79948Z" fill="#001A41"/>
<path fill-rule="evenodd" clip-rule="evenodd" d="M11.8727 4.34368C12.1288 4.60826 12.1219 5.03031 11.8573 5.28636L8.75727 8.28636C8.54191 8.49477 8.21395 8.53386 7.95564 8.38192L6.64229 7.60935L4.44862 9.28686C4.15615 9.51052 3.73774 9.45473 3.51408 9.16226C3.29043 8.86978 3.34621 8.45138 3.63869 8.22772L6.18869 6.27772C6.40413 6.11297 6.6979 6.09516 6.93167 6.23267L8.19451 6.97552L10.93 4.32822C11.1946 4.07218 11.6167 4.0791 11.8727 4.34368Z" fill="#001A41"/>
<path fill-rule="evenodd" clip-rule="evenodd" d="M8.02734 4.26042C8.02734 3.89223 8.32582 3.59375 8.69401 3.59375H11.844C12.2122 3.59375 12.5107 3.89223 12.5107 4.26042V7.36042C12.5107 7.72861 12.2122 8.02708 11.844 8.02708C11.4758 8.02708 11.1773 7.72861 11.1773 7.36042V4.92708H8.69401C8.32582 4.92708 8.02734 4.62861 8.02734 4.26042Z" fill="#001A41"/>
<path fill-rule="evenodd" clip-rule="evenodd" d="M7.52807 10.8281C7.78842 10.5677 8.21053 10.5677 8.47088 10.8281L11.9209 14.2781C12.1812 14.5384 12.1812 14.9605 11.9209 15.2209C11.6605 15.4812 11.2384 15.4812 10.9781 15.2209L7.99948 12.2423L5.02088 15.2209C4.76053 15.4812 4.33842 15.4812 4.07807 15.2209C3.81773 14.9605 3.81773 14.5384 4.07807 14.2781L7.52807 10.8281Z" fill="#001A41"/>
<path fill-rule="evenodd" clip-rule="evenodd" d="M5.13281 13.5964C5.13281 13.2282 5.43129 12.9297 5.79948 12.9297H10.1495C10.5177 12.9297 10.8161 13.2282 10.8161 13.5964C10.8161 13.9645 10.5177 14.263 10.1495 14.263H5.79948C5.43129 14.263 5.13281 13.9645 5.13281 13.5964Z" fill="#001A41"/>
</svg>
