<svg width="20" height="20" viewBox="0 0 20 20" fill="none" xmlns="http://www.w3.org/2000/svg">
<g clip-path="url(#clip0_1222_373)">
<path fill-rule="evenodd" clip-rule="evenodd" d="M10.5002 8.00001C10.5002 6.35001 9.15023 5.00001 7.50023 5.00001C5.85023 5.00001 4.50023 6.35001 4.50023 8.00001C4.50023 9.65001 5.85023 11 7.50023 11C9.15023 11 10.5002 9.65001 10.5002 8.00001ZM7.50023 9.00001C6.95023 9.00001 6.50023 8.55001 6.50023 8.00001C6.50023 7.45001 6.95023 7.00001 7.50023 7.00001C8.05023 7.00001 8.50023 7.45001 8.50023 8.00001C8.50023 8.55001 8.05023 9.00001 7.50023 9.00001ZM14.0002 11C15.1102 11 16.0002 10.11 16.0002 9.00001C16.0002 7.89001 15.1102 7.00001 14.0002 7.00001C12.8902 7.00001 11.9902 7.89001 12.0002 9.00001C12.0002 10.11 12.8902 11 14.0002 11ZM9.99023 0.0100098C4.47023 0.0100098 -0.00976562 4.49001 -0.00976562 10.01C-0.00976562 15.53 4.47023 20.01 9.99023 20.01C15.5102 20.01 19.9902 15.53 19.9902 10.01C19.9902 4.49001 15.5102 0.0100098 9.99023 0.0100098ZM3.84023 15.12C4.52023 14.58 6.11023 14.01 7.50023 14.01C7.57023 14.01 7.65023 14.02 7.73023 14.02C7.97023 13.38 8.40023 12.73 9.03023 12.16C8.47023 12.06 7.94023 12 7.50023 12C6.20023 12 4.11023 12.45 2.77023 13.43C2.27023 12.39 1.99023 11.23 1.99023 10C1.99023 5.59001 5.58023 2.00001 9.99023 2.00001C14.4002 2.00001 17.9902 5.59001 17.9902 10C17.9902 11.2 17.7202 12.34 17.2402 13.37C16.2402 12.78 14.8802 12.5 14.0002 12.5C12.4802 12.5 9.50023 13.31 9.50023 15.2V17.98C7.23023 17.85 5.21023 16.77 3.84023 15.12Z" fill="#9BA0A5"/>
</g>
<defs>
<clipPath id="clip0_1222_373">
<rect width="20" height="20" fill="white"/>
</clipPath>
</defs>
</svg>
