<svg width="20" height="20" viewBox="0 0 20 20" fill="none" xmlns="http://www.w3.org/2000/svg">
  <path d="M15.7133 2.62038H13.9039V1.81093C13.9039 1.54904 13.6182 1.43001 13.3563 1.43001H11.9517C11.6184 0.477697 10.7851 0.00154151 9.83281 0.00154151C8.89098 -0.033866 8.03432 0.543637 7.71392 1.43001H6.33307C6.07118 1.43001 5.80929 1.54904 5.80929 1.81093V2.62038H3.99986C2.92761 2.63181 2.0504 3.47768 2 4.54879V18.1906C2 19.2382 2.95231 20 3.99986 20H15.7133C16.7608 20 17.7131 19.2382 17.7131 18.1906V4.54883C17.6627 3.47768 16.7855 2.63181 15.7133 2.62038ZM6.76156 2.38232H8.071C8.29958 2.35443 8.48318 2.18054 8.52337 1.95379C8.66436 1.33978 9.20304 0.899033 9.83281 0.882446C10.4567 0.901357 10.9873 1.34347 11.1184 1.95379C11.1611 2.18838 11.3568 2.3645 11.5946 2.38232H12.9516V4.28694H6.76156V2.38232ZM16.7608 18.1907C16.7608 18.7144 16.2371 19.0477 15.7133 19.0477H3.99986C3.47609 19.0477 2.95231 18.7144 2.95231 18.1907V4.54883C3.00089 4.00364 3.45257 3.58271 3.99986 3.57273H5.80925V4.78693C5.8344 5.0537 6.06544 5.25325 6.33302 5.2393H13.3563C13.6288 5.2542 13.8671 5.05739 13.9039 4.78693V3.57269H15.7132C16.2605 3.58271 16.7122 4.00359 16.7608 4.54879V18.1907H16.7608Z" fill="#001A41"/>
  <path d="M8.02335 10.6436C7.84477 10.4553 7.54829 10.4447 7.35672 10.6198L5.83301 12.072L5.19021 11.4054C5.01162 11.2171 4.71514 11.2066 4.52357 11.3816C4.33915 11.5748 4.33915 11.8788 4.52357 12.072L5.49967 13.072C5.58415 13.1666 5.70619 13.2189 5.83296 13.2148C5.95855 13.213 6.07836 13.1617 6.16626 13.072L8.02326 11.3102C8.20736 11.1413 8.21967 10.8551 8.05074 10.6711C8.04208 10.6615 8.03292 10.6523 8.02335 10.6436Z" fill="#001A41"/>
  <path d="M14.8562 11.6672H9.38045C9.11747 11.6672 8.9043 11.8804 8.9043 12.1434C8.9043 12.4064 9.11747 12.6195 9.38045 12.6195H14.8562C15.1192 12.6195 15.3324 12.4064 15.3324 12.1434C15.3324 11.8804 15.1192 11.6672 14.8562 11.6672Z" fill="#001A41"/>
  <path d="M8.02335 6.83448C7.84477 6.64623 7.54829 6.63562 7.35672 6.81069L5.83301 8.26295L5.19021 7.59631C5.01162 7.40807 4.71514 7.39745 4.52357 7.57253C4.33915 7.76574 4.33915 8.06973 4.52357 8.26295L5.49967 9.26288C5.58415 9.35748 5.70619 9.4098 5.83296 9.40574C5.95855 9.40396 6.07836 9.35261 6.16626 9.26288L8.02326 7.50112C8.20736 7.33224 8.21967 7.04606 8.05074 6.862C8.04208 6.85239 8.03292 6.84323 8.02335 6.83448Z" fill="#001A41"/>
  <path d="M14.8562 7.85815H9.38045C9.11747 7.85815 8.9043 8.07133 8.9043 8.33431C8.9043 8.59729 9.11747 8.81047 9.38045 8.81047H14.8562C15.1192 8.81047 15.3324 8.59729 15.3324 8.33431C15.3324 8.07133 15.1192 7.85815 14.8562 7.85815Z" fill="#001A41"/>
  <path d="M8.02335 14.4529C7.84477 14.2646 7.54829 14.2541 7.35672 14.4291L5.83301 15.8813L5.19021 15.2147C5.01162 15.0265 4.71514 15.0159 4.52357 15.1909C4.33915 15.3841 4.33915 15.6881 4.52357 15.8813L5.49967 16.8813C5.58415 16.9759 5.70619 17.0282 5.83296 17.0241C5.95855 17.0224 6.07836 16.971 6.16626 16.8813L8.02326 15.1195C8.20736 14.9506 8.21967 14.6645 8.05074 14.4804C8.04208 14.4708 8.03292 14.4617 8.02335 14.4529Z" fill="#001A41"/>
  <path d="M14.8562 15.4766H9.38045C9.11747 15.4766 8.9043 15.6897 8.9043 15.9527C8.9043 16.2157 9.11747 16.4289 9.38045 16.4289H14.8562C15.1192 16.4289 15.3324 16.2157 15.3324 15.9527C15.3324 15.6897 15.1192 15.4766 14.8562 15.4766Z" fill="#001A41"/>
</svg>
