<svg width="20" height="20" viewBox="0 0 20 20" fill="none" xmlns="http://www.w3.org/2000/svg">
<g clip-path="url(#clip0_1246_275)">
<path fill-rule="evenodd" clip-rule="evenodd" d="M18.6939 8.43333C18.7384 8.08889 18.4828 7.77778 18.1384 7.77778H15.405V6.51111C17.1161 6.06667 18.4273 4.64444 18.6939 2.87778C18.7384 2.53333 18.4828 2.22222 18.1384 2.22222H15.405V1.11111C15.405 0.5 14.905 0 14.2939 0H5.40503C4.79392 0 4.29392 0.5 4.29392 1.11111V2.22222H1.56058C1.21614 2.22222 0.960583 2.53333 1.00503 2.87778C1.27169 4.64444 2.58281 6.06667 4.29392 6.51111V7.77778H1.56058C1.21614 7.77778 0.960583 8.08889 1.00503 8.43333C1.27169 10.2 2.58281 11.6222 4.29392 12.0667V13.3333H1.56058C1.21614 13.3333 0.960583 13.6444 1.00503 13.9889C1.27169 15.7556 2.58281 17.1778 4.29392 17.6222V18.8889C4.29392 19.5 4.79392 20 5.40503 20H14.2939C14.905 20 15.405 19.5 15.405 18.8889V17.6222C17.1161 17.1778 18.4273 15.7556 18.6939 13.9889C18.7384 13.6444 18.4828 13.3333 18.1384 13.3333H15.405V12.0667C17.1161 11.6222 18.4273 10.2 18.6939 8.43333ZM9.84903 17.7777C8.6157 17.7777 7.62681 16.7777 7.62681 15.5555C7.62681 14.3333 8.6157 13.3333 9.84903 13.3333C11.0713 13.3333 12.0713 14.3333 12.0713 15.5555C12.0713 16.7777 11.0824 17.7777 9.84903 17.7777ZM9.84903 12.2222C8.6157 12.2222 7.62681 11.2222 7.62681 10C7.62681 8.7778 8.6157 7.7778 9.84903 7.7778C11.0713 7.7778 12.0713 8.7778 12.0713 10C12.0713 11.2222 11.0824 12.2222 9.84903 12.2222ZM9.84903 6.66665C8.6157 6.66665 7.62681 5.66665 7.62681 4.44443C7.62681 3.2111 8.6157 2.22221 9.84903 2.22221C11.0713 2.22221 12.0713 3.2111 12.0713 4.44443C12.0713 5.66665 11.0824 6.66665 9.84903 6.66665Z" fill="#9BA0A5"/>
</g>
<defs>
<clipPath id="clip0_1246_275">
<rect width="20" height="20" fill="white"/>
</clipPath>
</defs>
</svg>
