<svg width="48" height="48" viewBox="0 0 48 48" fill="none" xmlns="http://www.w3.org/2000/svg">
<path fill-rule="evenodd" clip-rule="evenodd" d="M41.8947 15.0105C43.1368 15.7474 44 17.0737 44 18.6316V31.2632C44 32.8211 43.1368 34.1474 41.8947 34.8842V39.6842C41.8947 42 40 43.8947 37.6842 43.8947H8.21053C5.87368 43.8947 4 42 4 39.6842V10.2105C4 7.89474 5.87368 6 8.21053 6H37.6842C40 6 41.8947 7.89474 41.8947 10.2105V15.0105ZM39.7895 18.6316H25.0526V31.2632H39.7895V18.6316ZM8.21053 39.6842H37.6842V35.4737H25.0526C22.7368 35.4737 20.8421 33.5789 20.8421 31.2632V18.6316C20.8421 16.3158 22.7368 14.4211 25.0526 14.4211H37.6842V10.2105H8.21053V39.6842ZM31.3684 28.1053C29.6244 28.1053 28.2105 26.6914 28.2105 24.9474C28.2105 23.2033 29.6244 21.7895 31.3684 21.7895C33.1125 21.7895 34.5263 23.2033 34.5263 24.9474C34.5263 26.6914 33.1125 28.1053 31.3684 28.1053Z" fill="#001A41"/>
</svg>
