<svg width="20" height="20" viewBox="0 0 20 20" fill="none" xmlns="http://www.w3.org/2000/svg">
<g id="Vector">
<path id="Vector_2" fill-rule="evenodd" clip-rule="evenodd" d="M8.06867 9.06861C10.2976 9.06861 12.103 7.26326 12.103 5.03431C12.103 2.80535 10.2976 1 8.06867 1C5.83972 1 4.03436 2.80535 4.03436 5.03431C4.03436 7.26326 5.83972 9.06861 8.06867 9.06861ZM8.06867 3.01715C9.1781 3.01715 10.0858 3.92487 10.0858 5.03431C10.0858 6.14374 9.1781 7.05146 8.06867 7.05146C6.95924 7.05146 6.05152 6.14374 6.05152 5.03431C6.05152 3.92487 6.95924 3.01715 8.06867 3.01715ZM2.01715 15.1201V14.4645C2.01715 14.1216 2.17853 13.7988 2.43067 13.6476C4.13517 12.6289 6.08172 12.0944 8.06861 12.0944C8.09887 12.0944 8.11904 12.0944 8.1493 12.1044C8.25016 11.3984 8.45187 10.7227 8.74436 10.1075C8.52247 10.0873 8.30059 10.0772 8.06861 10.0772C5.62786 10.0772 3.34848 10.7529 1.40192 11.9128C0.514374 12.4373 0 13.4257 0 14.4645V17.1372H9.33942C8.91582 16.5321 8.58299 15.8463 8.3611 15.1201H2.01715ZM18.8539 12.494C18.8829 12.6962 18.9107 12.8903 18.9107 13.1029C18.9107 13.3155 18.8829 13.5096 18.8539 13.7118L18.8501 13.7383L19.9999 14.757L18.9913 16.5018L17.5289 16.0076C17.2062 16.2799 16.8431 16.4917 16.4396 16.643L16.1371 18.1458H14.1199L13.8173 16.643C13.4139 16.4917 13.0508 16.2799 12.7281 16.0076L11.2656 16.5018L10.2571 14.757L11.4068 13.7383C11.4056 13.7295 11.4043 13.7206 11.4031 13.7118C11.3741 13.5096 11.3463 13.3155 11.3463 13.1029C11.3463 12.8903 11.3741 12.6962 11.4031 12.494C11.4043 12.4852 11.4056 12.4763 11.4068 12.4675L10.2571 11.4488L11.2656 9.704L12.7281 10.1982C13.0508 9.92588 13.4139 9.71408 13.8173 9.5628L14.1199 8.06002H16.1371L16.4396 9.5628C16.8431 9.71408 17.2062 9.92588 17.5289 10.1982L18.9913 9.704L19.9999 11.4488L18.8501 12.4675L18.8539 12.494ZM13.1113 13.1029C13.1113 14.2123 14.0191 15.1201 15.1285 15.1201C16.2379 15.1201 17.1456 14.2123 17.1456 13.1029C17.1456 11.9935 16.2379 11.0857 15.1285 11.0857C14.0191 11.0857 13.1113 11.9935 13.1113 13.1029Z" fill="#ADADAD"/>
</g>
</svg>
