<svg width="20" height="20" viewBox="0 0 20 20" fill="none" xmlns="http://www.w3.org/2000/svg">
<g id="Vector">
<path id="Vector_2" fill-rule="evenodd" clip-rule="evenodd" d="M10 0C13.87 0 17 3.13 17 7C17 12.25 10 20 10 20C10 20 3 12.25 3 7C3 3.13 6.13 0 10 0ZM5 7C5 9.85 7.92 14.21 10 16.88C12.12 14.19 15 9.88 15 7C15 4.24 12.76 2 10 2C7.24 2 5 4.24 5 7ZM10 9.5C8.61929 9.5 7.5 8.38071 7.5 7C7.5 5.61929 8.61929 4.5 10 4.5C11.3807 4.5 12.5 5.61929 12.5 7C12.5 8.38071 11.3807 9.5 10 9.5Z" fill="#ADADAD"/>
</g>
</svg>
