<svg width="20" height="20" viewBox="0 0 20 20" fill="none" xmlns="http://www.w3.org/2000/svg">
<path id="Vector (Stroke)" fill-rule="evenodd" clip-rule="evenodd" d="M4.61409 1.91827C4.6141 0.858856 5.47626 0 6.53973 0H15.3831C15.5879 0 15.7843 0.0810511 15.9291 0.225321L19.7739 4.05563C19.9187 4.19989 20 4.39554 20 4.59954V18.0817C20 19.1411 19.1378 20 18.0744 20L5.38603 20C2.41141 20 0 17.5978 0 14.6345C0 11.9324 2.00506 9.69688 4.61387 9.32378L4.61409 1.91827C4.61409 1.91827 4.61409 1.91826 4.61409 1.91827ZM6.15823 9.32379C7.11565 9.46072 7.99175 9.8485 8.71727 10.4181H16.5364C16.9629 10.4181 17.3086 10.7625 17.3086 11.1874C17.3086 11.6122 16.9629 11.9566 16.5364 11.9566H10.0543C10.3886 12.5336 10.6181 13.1785 10.7171 13.8653L16.5364 13.8653C16.9629 13.8653 17.3086 14.2097 17.3086 14.6345C17.3086 15.0594 16.9629 15.4038 16.5364 15.4038L10.7171 15.4038C10.5456 16.5938 9.98207 17.6577 9.16105 18.4615L18.0744 18.4615C18.2849 18.4615 18.4556 18.2915 18.4556 18.0817V5.36875L15.3829 5.36866C15.1781 5.36865 14.9817 5.2876 14.8369 5.14333C14.6921 4.99907 14.6108 4.80341 14.6108 4.59939L14.6109 1.53846H6.53973C6.32918 1.53846 6.15845 1.70854 6.15845 1.91829L6.15823 9.32379ZM16.1552 2.62634L17.3637 3.83025L16.1552 3.83022L16.1552 2.62634ZM5.38603 18.4615C7.50772 18.4615 9.2277 16.7481 9.2277 14.6345C9.2277 13.4966 8.72913 12.4746 7.93772 11.7736C7.93046 11.7675 7.92331 11.7612 7.91629 11.7548C7.24043 11.165 6.35513 10.8075 5.38603 10.8075C3.26434 10.8075 1.54436 12.5209 1.54436 14.6345C1.54436 16.7481 3.26434 18.4615 5.38603 18.4615ZM7.3055 7.74018C7.3055 7.31535 7.65122 6.97095 8.07768 6.97095H16.5364C16.9629 6.97095 17.3086 7.31535 17.3086 7.74018C17.3086 8.16502 16.9629 8.50942 16.5364 8.50942H8.07768C7.65122 8.50942 7.3055 8.16502 7.3055 7.74018ZM7.81627 13.0565C8.11783 13.3569 8.11783 13.8439 7.81627 14.1443L5.12486 16.8254C4.82331 17.1259 4.33439 17.1259 4.03283 16.8254L2.87937 15.6764C2.57782 15.376 2.57782 14.8889 2.87937 14.5885C3.18093 14.2881 3.66984 14.2881 3.9714 14.5885L4.57885 15.1937L6.72425 13.0565C7.0258 12.7561 7.51472 12.7561 7.81627 13.0565Z" fill="#9BA0A5"/>
</svg>
