<svg width="48" height="48" viewBox="0 0 48 48" fill="none" xmlns="http://www.w3.org/2000/svg">
<path d="M31.2727 13.0909V34C31.2727 38.0182 28.0182 41.2727 24 41.2727C19.9818 41.2727 16.7273 38.0182 16.7273 34V11.2727C16.7273 8.76364 18.7636 6.72727 21.2727 6.72727C23.7818 6.72727 25.8182 8.76364 25.8182 11.2727V30.3636C25.8182 31.3636 25 32.1818 24 32.1818C23 32.1818 22.1818 31.3636 22.1818 30.3636V13.0909H19.4545V30.3636C19.4545 32.8727 21.4909 34.9091 24 34.9091C26.5091 34.9091 28.5455 32.8727 28.5455 30.3636V11.2727C28.5455 7.25455 25.2909 4 21.2727 4C17.2545 4 14 7.25455 14 11.2727V34C14 39.5273 18.4727 44 24 44C29.5273 44 34 39.5273 34 34V13.0909H31.2727Z" fill="#001A41"/>
</svg>
