<svg width="48" height="48" viewBox="0 0 48 48" fill="none" xmlns="http://www.w3.org/2000/svg">
<path d="M24 13.0909V18.5455L31 11.2727L24 4V9.45455C16.265 9.45455 10 15.9636 10 24C10 26.8545 10.805 29.5091 12.17 31.7455L14.725 29.0909C13.9375 27.5818 13.5 25.8364 13.5 24C13.5 17.9818 18.2075 13.0909 24 13.0909ZM35.83 16.2545L33.275 18.9091C34.045 20.4364 34.5 22.1636 34.5 24C34.5 30.0182 29.7925 34.9091 24 34.9091V29.4545L17 36.7273L24 44V38.5455C31.735 38.5455 38 32.0364 38 24C38 21.1455 37.195 18.4909 35.83 16.2545Z" fill="#001A41"/>
</svg>
