<svg width="24" height="24" viewBox="0 0 24 24" fill="none" xmlns="http://www.w3.org/2000/svg">
<path fill-rule="evenodd" clip-rule="evenodd" d="M6.68156 8.3952H3.37109V3.65527C3.37157 3.21645 3.54609 2.79573 3.85637 2.48541C4.16665 2.1751 4.58735 2.00053 5.02617 2C5.07195 2 5.11871 2.00219 5.16551 2.0059L5.17934 2.00711C5.18266 2.0075 5.18602 2.00789 5.18938 2.00848C5.59725 2.05102 5.97507 2.2426 6.25042 2.54649C6.52578 2.85038 6.6793 3.2452 6.68156 3.65527V8.3952ZM20.6257 20.9772L20.6289 4.83238C20.6281 4.08149 20.3295 3.36157 19.7986 2.83058C19.2676 2.29958 18.5478 2.00088 17.7969 2L6.65984 2.00848C6.87793 2.22384 7.05125 2.48022 7.16983 2.76285C7.28841 3.04548 7.34991 3.34878 7.35078 3.65527C7.35078 9.4309 7.35026 15.2061 7.34922 20.981L8.0875 21.5089L8.76344 22L10.3086 20.8776C10.3658 20.8361 10.4346 20.8137 10.5053 20.8137C10.5759 20.8137 10.6448 20.8361 10.702 20.8776L12.2473 22L13.7925 20.8776C13.8497 20.8361 13.9185 20.8137 13.9891 20.8137C14.0597 20.8137 14.1285 20.8361 14.1857 20.8776L15.7309 22L17.2762 20.8776C17.3334 20.8361 17.4022 20.8137 17.4729 20.8137C17.5435 20.8137 17.6124 20.8361 17.6695 20.8776L19.2146 22L20.6257 20.9772ZM13.9899 10.9239C13.2927 10.924 12.6111 10.7172 12.0314 10.3299C11.4517 9.94256 10.9998 9.39201 10.733 8.74787C10.4662 8.10372 10.3963 7.39492 10.5323 6.71109C10.6683 6.02726 11.0041 5.39912 11.4971 4.9061C11.9901 4.41308 12.6182 4.07733 13.302 3.9413C13.9859 3.80527 14.6947 3.87507 15.3388 4.14188C15.983 4.40869 16.5335 4.86053 16.9209 5.44024C17.3082 6.01996 17.515 6.70153 17.515 7.39875C17.514 8.33336 17.1423 9.22942 16.4814 9.8903C15.8206 10.5512 14.9245 10.9229 13.9899 10.9239ZM13.9899 4.54293C14.5548 4.54294 15.1069 4.71044 15.5765 5.02425C16.0462 5.33806 16.4122 5.78409 16.6284 6.30594C16.8445 6.82778 16.9011 7.402 16.7909 7.95598C16.6807 8.50996 16.4087 9.01882 16.0093 9.41821C15.6098 9.81761 15.101 10.0896 14.547 10.1998C13.993 10.31 13.4188 10.2534 12.897 10.0372C12.3751 9.82108 11.9291 9.45504 11.6153 8.98539C11.3015 8.51574 11.134 7.96359 11.134 7.39875C11.135 6.64162 11.4362 5.91578 11.9716 5.38042C12.5069 4.84506 13.2328 4.54385 13.9899 4.54293ZM13.4938 8.18059C13.4938 8.24941 13.5082 8.31748 13.536 8.38043C13.5638 8.44339 13.6044 8.49985 13.6553 8.54621V7.63508C13.4152 7.5631 13.2047 7.41562 13.055 7.21453C12.9054 7.01345 12.8246 6.76947 12.8246 6.51881C12.8246 6.26815 12.9054 6.02417 13.055 5.82308C13.2047 5.622 13.4152 5.47452 13.6553 5.40254V5.27039C13.6562 5.18225 13.6919 5.09804 13.7546 5.03604C13.8172 4.97405 13.9018 4.93928 13.99 4.93928C14.0781 4.93928 14.1627 4.97405 14.2254 5.03604C14.2881 5.09804 14.3237 5.18225 14.3247 5.27039V5.40254C14.5647 5.4748 14.775 5.62239 14.9246 5.82347C15.0742 6.02455 15.1551 6.26844 15.1554 6.51906C15.1554 6.60781 15.1201 6.69292 15.0573 6.75567C14.9946 6.81842 14.9095 6.85367 14.8207 6.85367C14.732 6.85367 14.6469 6.81842 14.5841 6.75567C14.5214 6.69292 14.4861 6.60781 14.4861 6.51906C14.4861 6.45023 14.4718 6.38216 14.444 6.3192C14.4162 6.25624 14.3756 6.19977 14.3247 6.1534V7.06453C14.5648 7.13651 14.7753 7.28399 14.9249 7.48508C15.0746 7.68616 15.1554 7.93014 15.1554 8.1808C15.1554 8.43146 15.0746 8.67544 14.9249 8.87653C14.7753 9.07761 14.5648 9.22509 14.3247 9.29707V9.52711C14.3237 9.61525 14.2881 9.69946 14.2254 9.76146C14.1627 9.82345 14.0781 9.85822 13.99 9.85822C13.9018 9.85822 13.8172 9.82345 13.7546 9.76146C13.6919 9.69946 13.6562 9.61525 13.6553 9.52711V9.29707C13.4153 9.22482 13.2049 9.07724 13.0553 8.87617C12.9057 8.67509 12.8248 8.43121 12.8246 8.18059C12.8246 8.09184 12.8599 8.00673 12.9226 7.94398C12.9854 7.88123 13.0705 7.84598 13.1592 7.84598C13.248 7.84598 13.3331 7.88123 13.3958 7.94398C13.4586 8.00673 13.4938 8.09184 13.4938 8.18059ZM14.486 8.18059C14.486 8.24941 14.4717 8.31748 14.4439 8.38043C14.4161 8.44339 14.3754 8.49985 14.3246 8.54621V7.81539C14.3754 7.86166 14.4161 7.91805 14.4439 7.98094C14.4717 8.04383 14.486 8.11183 14.486 8.18059ZM13.4938 6.51906C13.4938 6.45023 13.5082 6.38216 13.536 6.3192C13.5638 6.25624 13.6044 6.19977 13.6553 6.1534V6.88422C13.6044 6.83793 13.5638 6.78154 13.536 6.71867C13.5082 6.65579 13.4939 6.58781 13.4938 6.51906ZM19.244 12.5547C19.244 12.5986 19.2353 12.6422 19.2185 12.6828C19.2017 12.7234 19.1771 12.7603 19.146 12.7914C19.1149 12.8224 19.078 12.8471 19.0374 12.8639C18.9968 12.8807 18.9532 12.8894 18.9093 12.8893H9.07051C9.02625 12.8898 8.98235 12.8815 8.94132 12.8649C8.9003 12.8483 8.86298 12.8237 8.83151 12.7926C8.80005 12.7615 8.77507 12.7244 8.75803 12.6836C8.74098 12.6427 8.7322 12.5989 8.7322 12.5547C8.7322 12.5104 8.74098 12.4666 8.75803 12.4258C8.77507 12.3849 8.80005 12.3479 8.83151 12.3167C8.86298 12.2856 8.9003 12.261 8.94132 12.2444C8.98235 12.2278 9.02625 12.2195 9.07051 12.22H18.9093C18.9533 12.22 18.9968 12.2286 19.0374 12.2455C19.078 12.2623 19.1149 12.2869 19.146 12.318C19.1771 12.3491 19.2017 12.386 19.2185 12.4266C19.2353 12.4672 19.244 12.5107 19.244 12.5547ZM19.244 15.3156C19.244 15.3595 19.2353 15.4031 19.2185 15.4437C19.2017 15.4843 19.177 15.5212 19.146 15.5522C19.1149 15.5833 19.078 15.608 19.0374 15.6248C18.9968 15.6416 18.9532 15.6502 18.9093 15.6502H9.07051C8.98175 15.6502 8.89664 15.615 8.83388 15.5522C8.77112 15.4895 8.73586 15.4043 8.73586 15.3156C8.73586 15.2268 8.77112 15.1417 8.83388 15.079C8.89664 15.0162 8.98175 14.9809 9.07051 14.9809H18.9093C18.9532 14.9809 18.9968 14.9896 19.0374 15.0064C19.078 15.0232 19.1149 15.0478 19.146 15.0789C19.1771 15.11 19.2017 15.1469 19.2185 15.1875C19.2353 15.2281 19.244 15.2716 19.244 15.3156ZM19.244 18.0764C19.244 18.1204 19.2353 18.1639 19.2185 18.2045C19.2017 18.2451 19.177 18.282 19.146 18.3131C19.1149 18.3442 19.078 18.3688 19.0374 18.3856C18.9968 18.4025 18.9532 18.4111 18.9093 18.4111H9.07051C8.98175 18.4111 8.89664 18.3758 8.83388 18.3131C8.77112 18.2503 8.73586 18.1652 8.73586 18.0764C8.73586 17.9877 8.77112 17.9026 8.83388 17.8398C8.89664 17.7771 8.98175 17.7418 9.07051 17.7418H18.9093C18.9532 17.7418 18.9967 17.7504 19.0373 17.7672C19.0779 17.784 19.1148 17.8087 19.1459 17.8397C19.177 17.8708 19.2016 17.9076 19.2185 17.9482C19.2353 17.9888 19.244 18.0323 19.244 18.0763V18.0764Z" fill="#9BA0A5"/>
</svg>
