<svg width="48" height="48" viewBox="0 0 48 48" fill="none" xmlns="http://www.w3.org/2000/svg">
<g clip-path="url(#clip0_166_21282)">
<path fill-rule="evenodd" clip-rule="evenodd" d="M33.3009 14.2418C34.0078 14.6961 34.2126 15.6375 33.7582 16.3444L23.4463 32.3888C23.1839 32.797 22.7425 33.0556 22.258 33.0849C21.7735 33.1141 21.3042 32.9105 20.9946 32.5367L14.3498 24.5145C13.8138 23.8673 13.9038 22.9082 14.551 22.3721C15.1981 21.8361 16.1573 21.9262 16.6933 22.5733L22.0111 28.9935L31.1983 14.6991C31.6527 13.9922 32.594 13.7874 33.3009 14.2418Z" fill="#001A41"/>
<path fill-rule="evenodd" clip-rule="evenodd" d="M4 24C4 12.9424 12.9424 4 24 4C35.0576 4 44 12.9424 44 24C44 35.0576 35.0576 44 24 44C12.9424 44 4 35.0576 4 24ZM7.33333 24C7.33333 14.7833 14.7833 7.33333 24 7.33333C33.2167 7.33333 40.6667 14.7833 40.6667 24C40.6667 33.2167 33.2167 40.6667 24 40.6667C14.7833 40.6667 7.33333 33.2167 7.33333 24Z" fill="#001A41"/>
</g>
<defs>
<clipPath id="clip0_166_21282">
<rect width="40" height="40" fill="white" transform="translate(4 4)"/>
</clipPath>
</defs>
</svg>
