<svg width="18" height="19" viewBox="0 0 18 19" fill="none" xmlns="http://www.w3.org/2000/svg">
<g clip-path="url(#clip0_4755_28885)">
<path fill-rule="evenodd" clip-rule="evenodd" d="M1.5 4.72727C1.5 3.22104 2.72104 2 4.22727 2H13.7727C15.279 2 16.5 3.22104 16.5 4.72727V14.2727C16.5 15.779 15.279 17 13.7727 17H4.22727C2.72104 17 1.5 15.779 1.5 14.2727V4.72727ZM4.22727 3.36364C3.47416 3.36364 2.86364 3.97416 2.86364 4.72727V14.2727C2.86364 15.0258 3.47416 15.6364 4.22727 15.6364H13.7727C14.5258 15.6364 15.1364 15.0258 15.1364 14.2727V4.72727C15.1364 3.97416 14.5258 3.36364 13.7727 3.36364H4.22727Z" fill="#01AB08"/>
<path fill-rule="evenodd" clip-rule="evenodd" d="M13.2639 5.11917C13.6124 5.34312 13.7133 5.80714 13.4893 6.15559L8.40634 14.0643C8.27699 14.2655 8.05938 14.393 7.82058 14.4074C7.58178 14.4218 7.35043 14.3214 7.19782 14.1372L3.92243 10.1829C3.6582 9.86386 3.7026 9.39107 4.0216 9.12684C4.34059 8.86262 4.81339 8.90702 5.07761 9.22602L7.6989 12.3907L12.2275 5.34459C12.4514 4.99614 12.9155 4.89521 13.2639 5.11917Z" fill="#01AB08"/>
</g>
<defs>
<clipPath id="clip0_4755_28885">
<rect width="15" height="15" fill="white" transform="translate(1.5 2)"/>
</clipPath>
</defs>
</svg>
