<svg width="25" height="24" viewBox="0 0 25 24" fill="none" xmlns="http://www.w3.org/2000/svg">
<path d="M12.5 2C18.023 2 22.5 6.477 22.5 12C22.5 17.523 18.023 22 12.5 22C6.977 22 2.5 17.523 2.5 12C2.5 6.477 6.977 2 12.5 2ZM12.5 4C10.3783 4 8.34344 4.84285 6.84315 6.34315C5.34285 7.84344 4.5 9.87827 4.5 12C4.5 14.1217 5.34285 16.1566 6.84315 17.6569C8.34344 19.1571 10.3783 20 12.5 20C14.6217 20 16.6566 19.1571 18.1569 17.6569C19.6571 16.1566 20.5 14.1217 20.5 12C20.5 9.87827 19.6571 7.84344 18.1569 6.34315C16.6566 4.84285 14.6217 4 12.5 4ZM10.379 8.464L12.5 10.586L14.621 8.464C14.7139 8.37109 14.8242 8.29739 14.9456 8.24711C15.067 8.19682 15.1971 8.17094 15.3285 8.17094C15.4599 8.17094 15.59 8.19682 15.7114 8.24711C15.8328 8.29739 15.9431 8.37109 16.036 8.464C16.1289 8.55691 16.2026 8.66721 16.2529 8.7886C16.3032 8.91 16.3291 9.04011 16.3291 9.1715C16.3291 9.3029 16.3032 9.433 16.2529 9.5544C16.2026 9.67579 16.1289 9.78609 16.036 9.879L13.914 11.999L16.036 14.121C16.2236 14.3086 16.3291 14.5631 16.3291 14.8285C16.3291 15.0939 16.2236 15.3484 16.036 15.536C15.8484 15.7236 15.5939 15.8291 15.3285 15.8291C15.0631 15.8291 14.8086 15.7236 14.621 15.536L12.5 13.414L10.379 15.536C10.1914 15.7236 9.93686 15.8291 9.6715 15.8291C9.40614 15.8291 9.15164 15.7236 8.964 15.536C8.77636 15.3484 8.67094 15.0939 8.67094 14.8285C8.67094 14.5631 8.77636 14.3086 8.964 14.121L11.086 12L8.965 9.879C8.77736 9.69149 8.67189 9.43712 8.6718 9.17185C8.6717 8.90658 8.77699 8.65214 8.9645 8.4645C9.15201 8.27686 9.40638 8.17139 9.67165 8.1713C9.93692 8.1712 10.1914 8.27649 10.379 8.464Z" fill="#0055B6"/>
</svg>
