<svg width="18" height="19" viewBox="0 0 18 19" fill="none" xmlns="http://www.w3.org/2000/svg">
<path d="M4.8 2.5H13.2C13.9426 2.5 14.6548 2.795 15.1799 3.3201C15.705 3.8452 16 4.55739 16 5.3V13.7C16 14.4426 15.705 15.1548 15.1799 15.6799C14.6548 16.205 13.9426 16.5 13.2 16.5H4.8C4.05739 16.5 3.3452 16.205 2.8201 15.6799C2.295 15.1548 2 14.4426 2 13.7V5.3C2 4.55739 2.295 3.8452 2.8201 3.3201C3.3452 2.795 4.05739 2.5 4.8 2.5ZM4.8 3.9C4.4287 3.9 4.0726 4.0475 3.81005 4.31005C3.5475 4.5726 3.4 4.9287 3.4 5.3V13.7C3.4 14.0713 3.5475 14.4274 3.81005 14.6899C4.0726 14.9525 4.4287 15.1 4.8 15.1H13.2C13.5713 15.1 13.9274 14.9525 14.1899 14.6899C14.4525 14.4274 14.6 14.0713 14.6 13.7V5.3C14.6 4.9287 14.4525 4.5726 14.1899 4.31005C13.9274 4.0475 13.5713 3.9 13.2 3.9H4.8ZM9.9898 9.5L11.9701 11.4796C12.1014 11.6109 12.1752 11.7891 12.1752 11.9748C12.1752 12.1606 12.1014 12.3388 11.9701 12.4701C11.8388 12.6014 11.6606 12.6752 11.4748 12.6752C11.2891 12.6752 11.1109 12.6014 10.9796 12.4701L9 10.4898L7.0204 12.4701C6.88905 12.6014 6.7109 12.6752 6.52515 12.6752C6.3394 12.6752 6.16125 12.6014 6.0299 12.4701C5.89855 12.3388 5.82476 12.1606 5.82476 11.9748C5.82476 11.7891 5.89855 11.6109 6.0299 11.4796L8.0102 9.5L6.0299 7.5204C5.89855 7.38905 5.82476 7.2109 5.82476 7.02515C5.82476 6.8394 5.89855 6.66125 6.0299 6.5299C6.16125 6.39855 6.3394 6.32476 6.52515 6.32476C6.7109 6.32476 6.88905 6.39855 7.0204 6.5299L9 8.5102L10.9796 6.5299C11.1109 6.39855 11.2891 6.32476 11.4748 6.32476C11.6606 6.32476 11.8388 6.39855 11.9701 6.5299C12.1014 6.66125 12.1752 6.8394 12.1752 7.02515C12.1752 7.2109 12.1014 7.38905 11.9701 7.5204L9.9898 9.5Z" fill="#666666"/>
</svg>
