<svg width="32" height="33" viewBox="0 0 32 33" fill="none" xmlns="http://www.w3.org/2000/svg">
<g clip-path="url(#clip0_1592_12161)">
<path fill-rule="evenodd" clip-rule="evenodd" d="M29.3331 18.2111C29.3331 15.2778 27.0553 12.9 24.1665 12.7C23.4109 8.86673 20.0443 5.98898 15.9999 5.98898C14.5221 5.98898 13.1443 6.38897 11.9443 7.06675L13.5999 8.72229C14.3443 8.40007 15.1443 8.21118 15.9999 8.21118C19.3776 8.21118 22.1109 10.9445 22.1109 14.3222V14.8778H23.7776C25.622 14.8778 27.1109 16.3667 27.1109 18.2111C27.1109 19.3111 26.5776 20.2666 25.7665 20.8778L27.3331 22.4444C28.5442 21.4222 29.3331 19.9222 29.3331 18.2111ZM7.56663 5.83325L5.99998 7.39991L9.07773 10.4777H8.61107C5.26665 10.8332 2.66667 13.6665 2.66667 17.0998C2.66667 20.7776 5.65554 23.7664 9.33329 23.7664H22.3665L24.5887 25.9887L26.1554 24.422L7.56663 5.83325ZM9.33302 21.5441C6.87748 21.5441 4.88861 19.5553 4.88861 17.0997C4.88861 14.6442 6.87748 12.6553 9.33302 12.6553H11.2552L20.144 21.5441H9.33302Z" fill="#BA192A"/>
</g>
<defs>
<clipPath id="clip0_1592_12161">
<rect width="26.6667" height="26.6667" fill="white" transform="translate(2.66667 3.16663)"/>
</clipPath>
</defs>
</svg>
