<svg width="20" height="20" viewBox="0 0 20 20" fill="none" xmlns="http://www.w3.org/2000/svg">
<g id="Vector">
<g id="Group">
<g id="Group_2">
<path id="Vector_2" d="M19.4847 6.29447C18.7993 5.60903 17.684 5.60907 16.9984 6.29462C16.7875 6.50569 15.4411 7.85317 15.2354 8.05904V3.41532C15.2354 2.94575 15.0526 2.50432 14.7205 2.1723L13.0632 0.51488C12.7312 0.182825 12.2897 0 11.8201 0H1.75794C0.78861 0 0 0.78861 0 1.75794V18.2435C0 19.2128 0.78861 20.0014 1.75794 20.0014H13.4775C14.4468 20.0014 15.2354 19.2128 15.2354 18.2435V13.0334L19.4847 8.78058C20.1717 8.09358 20.1719 6.98155 19.4847 6.29447ZM11.7196 1.17196C11.8303 1.17196 12.0437 1.15278 12.2345 1.34357L13.8919 3.00099C14.0778 3.18698 14.0635 3.39079 14.0635 3.51587H11.7196V1.17196ZM14.0635 18.2435C14.0635 18.5666 13.8007 18.8295 13.4775 18.8295H1.75794C1.43483 18.8295 1.17196 18.5666 1.17196 18.2435V1.75794C1.17196 1.43483 1.43483 1.17196 1.75794 1.17196H10.5476V4.10185C10.5476 4.42547 10.81 4.68783 11.1336 4.68783H14.0635V9.23202C14.0635 9.23202 12.3347 10.9623 12.3346 10.9623L11.5063 11.7907C11.442 11.855 11.3935 11.9334 11.3647 12.0197L10.536 14.5058C10.4658 14.7164 10.5206 14.9486 10.6776 15.1055C10.8347 15.2626 11.067 15.3172 11.2772 15.2471L13.7634 14.4184C13.8496 14.3896 13.9281 14.3411 13.9924 14.2768L14.0635 14.2057V18.2435ZM12.7493 12.205L13.578 13.0337L13.2615 13.3503L12.0185 13.7646L12.4328 12.5215L12.7493 12.205ZM14.4066 12.2048L13.5779 11.3762C14.0192 10.9345 15.979 8.97298 16.3947 8.55697L17.2234 9.38566L14.4066 12.2048ZM18.6558 7.95205L18.0517 8.55662L17.2231 7.72793L17.8273 7.12316C18.0559 6.89467 18.4276 6.89471 18.656 7.12316C18.8845 7.35169 18.8857 7.72215 18.6558 7.95205Z" fill="#ADADAD"/>
</g>
</g>
<g id="Group_3">
<g id="Group_4">
<path id="Vector_3" d="M11.1337 5.85986H2.92997C2.60636 5.85986 2.34399 6.12223 2.34399 6.44584C2.34399 6.76946 2.60636 7.03182 2.92997 7.03182H11.1337C11.4573 7.03182 11.7197 6.76946 11.7197 6.44584C11.7197 6.12223 11.4573 5.85986 11.1337 5.85986Z" fill="#999999"/>
</g>
</g>
<g id="Group_5">
<g id="Group_6">
<path id="Vector_4" d="M8.78976 8.20361H2.92997C2.60636 8.20361 2.34399 8.46598 2.34399 8.78959C2.34399 9.11321 2.60636 9.37557 2.92997 9.37557H8.78976C9.11338 9.37557 9.37574 9.11321 9.37574 8.78959C9.37574 8.46598 9.11338 8.20361 8.78976 8.20361Z" fill="#999999"/>
</g>
</g>
<g id="Group_7">
<g id="Group_8">
<path id="Vector_5" d="M8.78976 10.5479H2.92997C2.60636 10.5479 2.34399 10.8102 2.34399 11.1338C2.34399 11.4574 2.60636 11.7198 2.92997 11.7198H8.78976C9.11338 11.7198 9.37574 11.4574 9.37574 11.1338C9.37574 10.8102 9.11338 10.5479 8.78976 10.5479Z" fill="#999999"/>
</g>
</g>
<g id="Group_9">
<g id="Group_10">
<path id="Vector_6" d="M8.78976 12.8916H2.92997C2.60636 12.8916 2.34399 13.154 2.34399 13.4776C2.34399 13.8012 2.60636 14.0636 2.92997 14.0636H8.78976C9.11338 14.0636 9.37574 13.8012 9.37574 13.4776C9.37574 13.154 9.11338 12.8916 8.78976 12.8916Z" fill="#999999"/>
</g>
</g>
<g id="Group_11">
<g id="Group_12">
<path id="Vector_7" d="M11.1336 16.4854H7.61772C7.2941 16.4854 7.03174 16.7477 7.03174 17.0713C7.03174 17.3949 7.2941 17.6573 7.61772 17.6573H11.1336C11.4572 17.6573 11.7196 17.3949 11.7196 17.0713C11.7196 16.7477 11.4572 16.4854 11.1336 16.4854Z" fill="#999999"/>
</g>
</g>
</g>
</svg>
