<svg width="24" height="24" viewBox="0 0 24 24" fill="none" xmlns="http://www.w3.org/2000/svg">
<g clip-path="url(#clip0_10099_16294)">
<path d="M21.3744 11.8664C20.7057 11.3152 19.6487 11.268 18.955 12.0125L17.2329 13.8612C17.0102 13.1456 16.3419 12.6245 15.5541 12.6245H12.4808C12.2476 12.6245 12.1695 12.5355 11.7645 12.2234C10.22 10.877 7.90023 10.8813 6.36047 12.2363L5.23086 13.2307C4.72309 12.962 4.13016 12.9553 3.61961 13.2104L2.32398 13.858C2.03453 14.003 1.91738 14.3549 2.06188 14.6443L5.57731 21.6751C5.72223 21.9646 6.07414 22.0817 6.36359 21.9373L7.65922 21.2892C8.29785 20.9701 8.65328 20.3186 8.63023 19.6554H15.554C16.8379 19.6554 18.0648 19.0421 18.8351 18.0149L21.6478 14.2643C22.1935 13.5374 22.1071 12.4714 21.3744 11.8664ZM7.135 20.2412L6.36355 20.6271L3.37195 14.6443L4.14379 14.2584C4.43324 14.1139 4.78477 14.2307 4.92969 14.5205L7.39711 19.4554C7.54164 19.7448 7.42445 20.0963 7.135 20.2412ZM20.7104 13.5612L17.8977 17.3117C17.3473 18.0457 16.4712 18.4835 15.5541 18.4835H8.22129L6.0257 14.092L7.13461 13.1159C8.23805 12.1453 9.90203 12.1453 11.0055 13.1159C11.6554 13.6882 12.0597 13.7964 12.4808 13.7964H15.554C15.8771 13.7964 16.1399 14.0592 16.1399 14.3823C16.1399 14.7053 15.877 14.9682 15.554 14.9682H12.5616C12.2382 14.9682 11.9757 15.2307 11.9757 15.5541C11.9757 15.8775 12.2382 16.14 12.5616 16.14H15.9466C16.4329 16.14 16.9016 15.936 17.2329 15.5802L19.8124 12.8112C20.0483 12.5581 20.41 12.5792 20.6319 12.7734C20.8639 12.9764 20.8889 13.3237 20.7104 13.5612Z" fill="#ADADAD"/>
<path d="M14.3197 5.99918C14.7208 5.57852 14.9681 5.0098 14.9681 4.38363C14.9681 3.09387 13.926 2.00098 12.6245 2.00098C11.3328 2.00098 10.2419 3.09191 10.2419 4.38363C10.2419 4.99063 10.4798 5.56363 10.9117 6.00387C9.84034 6.60461 9.07007 7.75766 9.07007 9.10992V9.69582C9.07007 10.0192 9.33257 10.2817 9.65597 10.2817H15.5541C15.8775 10.2817 16.14 10.0192 16.14 9.69582V9.10992C16.1399 7.78422 15.4107 6.6132 14.3197 5.99918ZM12.6245 3.17281C13.2596 3.17281 13.7963 3.72746 13.7963 4.38367C13.7963 5.02973 13.2706 5.55547 12.6245 5.55547C11.9683 5.55547 11.4137 5.01879 11.4137 4.38367C11.4137 3.73879 11.9796 3.17281 12.6245 3.17281ZM10.2419 9.10992C10.2419 7.8182 11.3328 6.72727 12.6245 6.72727C13.9166 6.72727 14.9681 7.79594 14.9681 9.10992H10.2419Z" fill="#ADADAD"/>
</g>
<defs>
<clipPath id="clip0_10099_16294">
<rect width="20" height="20" fill="white" transform="translate(2 2)"/>
</clipPath>
</defs>
</svg>
