<svg width="48" height="48" viewBox="0 0 48 48" fill="none" xmlns="http://www.w3.org/2000/svg">
<path fill-rule="evenodd" clip-rule="evenodd" d="M28.2668 20.5998L23.5557 25.311L18.8224 20.5998L15.689 23.7332L20.4224 28.4443L15.7112 33.1554L18.8446 36.2888L23.5557 31.5776L28.2668 36.2888L31.4002 33.1554L26.6891 28.4443L31.4002 23.7332L28.2668 20.5998ZM31.3334 6.22223L29.1112 4H18L15.7778 6.22223H8V10.6667H39.1112V6.22223H31.3334ZM10.2222 39.5554C10.2222 41.9999 12.2222 43.9999 14.6666 43.9999H32.4445C34.8889 43.9999 36.8889 41.9999 36.8889 39.5554V12.8887H10.2222V39.5554ZM14.6665 17.333H32.4443V39.5553H14.6665V17.333Z" fill="#001A41"/>
</svg>
