<svg width="25" height="24" viewBox="0 0 25 24" fill="none" xmlns="http://www.w3.org/2000/svg">
<path fill-rule="evenodd" clip-rule="evenodd" d="M7.11409 3.91827C7.1141 2.85886 7.97626 2 9.03973 2H17.8831C18.0879 2 18.2843 2.08105 18.4291 2.22532L22.2739 6.05563C22.4187 6.19989 22.5 6.39554 22.5 6.59954V20.0817C22.5 21.1411 21.6378 22 20.5744 22L7.88603 22C4.91141 22 2.5 19.5978 2.5 16.6345C2.5 13.9324 4.50506 11.6969 7.11387 11.3238L7.11409 3.91827C7.11409 3.91827 7.11409 3.91826 7.11409 3.91827ZM8.65823 11.3238C9.61565 11.4607 10.4918 11.8485 11.2173 12.4181H19.0364C19.4629 12.4181 19.8086 12.7625 19.8086 13.1874C19.8086 13.6122 19.4629 13.9566 19.0364 13.9566H12.5543C12.8886 14.5336 13.1181 15.1785 13.2171 15.8653L19.0364 15.8653C19.4629 15.8653 19.8086 16.2097 19.8086 16.6345C19.8086 17.0594 19.4629 17.4038 19.0364 17.4038L13.2171 17.4038C13.0456 18.5938 12.4821 19.6577 11.6611 20.4615L20.5744 20.4615C20.7849 20.4615 20.9556 20.2915 20.9556 20.0817V7.36875L17.8829 7.36866C17.6781 7.36865 17.4817 7.2876 17.3369 7.14333C17.1921 6.99907 17.1108 6.80341 17.1108 6.59939L17.1109 3.53846H9.03973C8.82918 3.53846 8.65845 3.70854 8.65845 3.91829L8.65823 11.3238ZM18.6552 4.62634L19.8637 5.83025L18.6552 5.83022L18.6552 4.62634ZM7.88603 20.4615C10.0077 20.4615 11.7277 18.7481 11.7277 16.6345C11.7277 15.4966 11.2291 14.4746 10.4377 13.7736C10.4305 13.7675 10.4233 13.7612 10.4163 13.7548C9.74043 13.165 8.85513 12.8075 7.88603 12.8075C5.76434 12.8075 4.04436 14.5209 4.04436 16.6345C4.04436 18.7481 5.76434 20.4615 7.88603 20.4615ZM9.8055 9.74018C9.8055 9.31535 10.1512 8.97095 10.5777 8.97095H19.0364C19.4629 8.97095 19.8086 9.31535 19.8086 9.74018C19.8086 10.165 19.4629 10.5094 19.0364 10.5094H10.5777C10.1512 10.5094 9.8055 10.165 9.8055 9.74018ZM10.3163 15.0565C10.6178 15.3569 10.6178 15.8439 10.3163 16.1443L7.62486 18.8254C7.32331 19.1259 6.83439 19.1259 6.53283 18.8254L5.37937 17.6764C5.07782 17.376 5.07782 16.8889 5.37937 16.5885C5.68093 16.2881 6.16984 16.2881 6.4714 16.5885L7.07885 17.1937L9.22425 15.0565C9.5258 14.7561 10.0147 14.7561 10.3163 15.0565Z" fill="#999999"/>
</svg>
