<svg width="20" height="20" viewBox="0 0 20 20" fill="none" xmlns="http://www.w3.org/2000/svg">
<g clip-path="url(#clip0_14093_19302)">
<path d="M8.68658 12.5727L8.68681 12.5727C8.91019 12.5421 9.12038 12.6979 9.15189 12.9246C9.1519 12.9247 9.1519 12.9247 9.15191 12.9247L8.68658 12.5727ZM8.68658 12.5727C8.46118 12.6041 8.30352 12.8119 8.3349 13.0376L8.68658 12.5727ZM7.79495 14.9236C8.14407 14.3885 8.33701 13.7725 8.33701 13.1253C8.33701 13.1169 8.33705 13.1092 8.33709 13.1021L7.79495 14.9236ZM7.79495 14.9236C7.42706 14.393 6.91509 13.9872 6.32724 13.7395C6.68462 13.3936 6.91195 12.913 6.91195 12.3751C6.91195 11.3208 6.05418 10.463 4.99951 10.463C3.94484 10.463 3.08707 11.3208 3.08707 12.3751C3.08707 12.913 3.3144 13.3936 3.67178 13.7395C3.08368 13.9873 2.57151 14.3933 2.20356 14.9243C1.85655 14.3935 1.66201 13.7754 1.66201 13.1253C1.66201 12.2295 2.00917 11.3927 2.64162 10.7659L2.64162 10.7659L2.64225 10.7652C3.21002 10.1924 3.93329 9.85864 4.73652 9.79908L4.73655 9.79908C4.96374 9.78216 5.13416 9.58436 5.11724 9.35715L5.11724 9.35714C5.10044 9.13192 4.90994 8.95851 4.67533 8.97646C3.68586 9.04995 2.7558 9.47895 2.05861 10.1826C1.27099 10.9635 0.837012 12.0088 0.837012 13.1253C0.837012 14.1867 1.23399 15.1926 1.95307 15.9559C2.73583 16.802 3.84598 17.2878 4.99951 17.2878C6.11599 17.2878 7.16145 16.8537 7.94147 16.0669C7.97739 16.031 8.01652 15.9911 8.0458 15.9557L7.79495 14.9236ZM3.91207 12.3751C3.91207 11.7761 4.39983 11.288 4.99951 11.288C5.59919 11.288 6.08695 11.7761 6.08695 12.3751C6.08695 12.9749 5.59916 13.4629 4.99951 13.4629C4.39987 13.4629 3.91207 12.9749 3.91207 12.3751ZM2.76426 15.593C3.21524 14.7942 4.06156 14.2879 4.99951 14.2879C5.93721 14.2879 6.78327 14.7939 7.23438 15.5923C6.62385 16.1514 5.83925 16.4628 4.99951 16.4628C4.17202 16.4628 3.37429 16.1475 2.76426 15.593Z" fill="#ADADAD" stroke="#9BA0A5" stroke-width="0.2"/>
<path d="M15.3233 8.97621L15.3237 8.97624C16.3132 9.04973 17.2433 9.47876 17.9425 10.1842C18.728 10.9633 19.162 12.0087 19.162 13.125C19.162 14.1855 18.7657 15.1906 18.0457 15.9556C18.0169 15.9902 17.9777 16.0305 17.9415 16.0667C17.1615 16.8535 16.116 17.2875 14.9995 17.2875C13.8457 17.2875 12.7358 16.8018 11.9534 15.9551C11.234 15.1923 10.837 14.1864 10.837 13.125C10.837 13.0597 10.8381 12.9889 10.8471 12.9246M15.3233 8.97621L11.5651 13.0237M15.3233 8.97621C15.0992 8.96055 14.8985 9.12844 14.8815 9.35693L15.3233 8.97621ZM10.8471 12.9246C10.8783 12.6948 11.102 12.545 11.3113 12.5724L11.3121 12.5725C11.5382 12.6039 11.6955 12.8118 11.6641 13.0375M10.8471 12.9246C10.8471 12.9246 10.8471 12.9245 10.8471 12.9244L10.9462 12.9383L10.8471 12.9249C10.8471 12.9248 10.8471 12.9247 10.8471 12.9246ZM11.6641 13.0375L11.5651 13.0237M11.6641 13.0375C11.6641 13.0374 11.6641 13.0374 11.6641 13.0373L11.5651 13.0237M11.6641 13.0375C11.6617 13.0552 11.6618 13.0742 11.6619 13.1019C11.662 13.109 11.662 13.1167 11.662 13.125C11.662 13.7747 11.8566 14.3927 12.2039 14.9237M11.5651 13.0237C11.5616 13.0492 11.5617 13.077 11.5619 13.1057C11.562 13.1121 11.562 13.1186 11.562 13.125C11.562 13.8095 11.7715 14.4594 12.1436 15.0138C12.1632 14.9834 12.1833 14.9533 12.2039 14.9237M12.2039 14.9237C12.5717 14.393 13.0836 13.9871 13.6716 13.7393M12.2039 14.9237C12.2235 14.9537 12.2435 14.9834 12.2641 15.0128C12.6309 14.4696 13.1522 14.0575 13.753 13.8139M13.6716 13.7393C13.7054 13.7251 13.7394 13.7114 13.7736 13.6982C13.8015 13.7239 13.8301 13.7488 13.8595 13.7728C13.8237 13.7859 13.7882 13.7996 13.753 13.8139M13.6716 13.7393C13.698 13.7649 13.7252 13.7898 13.753 13.8139M13.6716 13.7393L13.753 13.8139M16.3274 13.7393C16.2937 13.7251 16.2596 13.7114 16.2254 13.6982C16.1975 13.7239 16.1689 13.7488 16.1395 13.7728C16.1753 13.7859 16.2108 13.7996 16.246 13.8139C16.2738 13.7898 16.301 13.7649 16.3274 13.7393ZM17.855 15.0132C17.8349 15.0432 17.8144 15.073 17.7933 15.1025C17.7742 15.072 17.7546 15.0419 17.7346 15.0123C17.7551 14.9828 17.7751 14.9531 17.7947 14.9231C17.8153 14.9527 17.8354 14.9828 17.855 15.0132ZM13.9118 12.3749C13.9118 11.7759 14.3998 11.2878 14.9995 11.2878C15.5992 11.2878 16.0873 11.7759 16.0873 12.3749C16.0873 12.9746 15.5992 13.4627 14.9995 13.4627C14.3998 13.4627 13.9118 12.9746 13.9118 12.3749ZM12.7647 15.5927C13.2151 14.794 14.0615 14.2877 14.9995 14.2877C15.9373 14.2877 16.7836 14.7938 17.2341 15.5922C16.6241 16.1512 15.8395 16.4625 14.9995 16.4625C14.172 16.4625 13.3745 16.1472 12.7647 15.5927Z" fill="#ADADAD" stroke="#9BA0A5" stroke-width="0.2"/>
<path d="M14.2067 5.20388L14.2068 5.20395C14.5918 5.9171 14.787 6.68996 14.787 7.5C14.787 8.77866 14.2888 9.98115 13.3851 10.8855L13.385 10.8856C12.4807 11.7893 11.2779 12.2875 9.99951 12.2875C7.35944 12.2875 5.21201 10.1401 5.21201 7.5C5.21201 6.22135 5.70991 5.01886 6.61397 4.11448C7.51776 3.21038 8.72057 2.7125 9.99951 2.7125C10.8096 2.7125 11.5821 2.90799 12.2956 3.29336C12.4961 3.40165 12.571 3.65173 12.4631 3.85232L12.4627 3.85294C12.3536 4.05233 12.1029 4.12756 11.9037 4.01917C11.3117 3.69935 10.6713 3.5375 9.99951 3.5375C8.94051 3.5375 7.94575 3.94934 7.19731 4.69777C7.19731 4.69778 7.1973 4.69778 7.1973 4.69779M14.2067 5.20388L6.61974 9.7466C6.18984 9.10248 5.93701 8.33079 5.93701 7.5C5.93701 6.41479 6.35938 5.39459 7.12659 4.62708L7.1973 4.69779M14.2067 5.20388C14.0982 5.00322 13.8458 4.92856 13.6473 5.03733M14.2067 5.20388L13.6473 5.03733M7.1973 4.69779C6.44884 5.44654 6.03701 6.44131 6.03701 7.5C6.03701 8.3032 6.27928 9.04978 6.69219 9.67493M7.1973 4.69779L6.69219 9.67493M6.69219 9.67493C7.20617 9.17736 7.82138 8.80832 8.49348 8.58606C8.01731 8.16793 7.71201 7.55867 7.71201 6.875C7.71201 5.61372 8.73823 4.5875 9.99951 4.5875C11.2608 4.5875 12.287 5.61372 12.287 6.875C12.287 7.55867 11.9817 8.16793 11.5055 8.58606C12.1784 8.80855 12.794 9.17818 13.3082 9.67655M6.69219 9.67493L13.3082 9.67655M13.3082 9.67655C13.732 9.03549 13.962 8.28617 13.962 7.5C13.962 6.82818 13.8002 6.18782 13.4809 5.59637L13.3082 9.67655ZM13.6473 5.03733C13.4471 5.1457 13.3722 5.39563 13.4808 5.59621L13.6473 5.03733ZM14.687 7.5C14.687 6.70654 14.496 5.95001 14.1188 5.25146L13.3143 10.8148C14.1993 9.9292 14.687 8.75214 14.687 7.5ZM8.53701 6.875C8.53701 6.06872 9.19323 5.4125 9.99951 5.4125C10.8061 5.4125 11.462 6.0687 11.462 6.875C11.462 7.6813 10.8061 8.3375 9.99951 8.3375C9.19323 8.3375 8.53701 7.68128 8.53701 6.875ZM9.99951 11.4625C8.91602 11.4625 7.93446 11.0235 7.21816 10.3156C7.95027 9.58123 8.94314 9.1625 9.99951 9.1625C11.0577 9.1625 12.0519 9.58272 12.7844 10.3194C12.0373 11.057 11.05 11.4625 9.99951 11.4625Z" fill="#ADADAD" stroke="#9BA0A5" stroke-width="0.2"/>
<path fill-rule="evenodd" clip-rule="evenodd" d="M3.34546 4.59595L3.43701 4.50439V7.5C3.43701 7.67273 3.57678 7.8125 3.74951 7.8125C3.92224 7.8125 4.06201 7.67273 4.06201 7.5V4.50439L4.15356 4.59595C4.2146 4.65698 4.29456 4.6875 4.37451 4.6875C4.45447 4.6875 4.53442 4.65698 4.59546 4.59595C4.71753 4.47388 4.71753 4.27612 4.59546 4.15405L3.97046 3.52905C3.84839 3.40698 3.65063 3.40698 3.52856 3.52905L2.90356 4.15405C2.78149 4.27612 2.78149 4.47388 2.90356 4.59595C3.02563 4.71802 3.22339 4.71802 3.34546 4.59595Z" fill="#9BA0A5"/>
<path fill-rule="evenodd" clip-rule="evenodd" d="M15.8455 4.59595L15.937 4.50439V7.5C15.937 7.67273 16.0768 7.8125 16.2495 7.8125C16.4222 7.8125 16.562 7.67273 16.562 7.5V4.50439L16.6536 4.59595C16.7146 4.65698 16.7946 4.6875 16.8745 4.6875C16.9545 4.6875 17.0344 4.65698 17.0955 4.59595C17.2175 4.47388 17.2175 4.27612 17.0955 4.15405L16.4705 3.52905C16.3484 3.40698 16.1506 3.40698 16.0286 3.52905L15.4036 4.15405C15.2815 4.27612 15.2815 4.47388 15.4036 4.59595C15.5256 4.71802 15.7234 4.71802 15.8455 4.59595Z" fill="#9BA0A5"/>
<path d="M13.3849 4.69796L13.3849 4.69794C13.546 4.53682 13.546 4.27569 13.3849 4.11457L13.3849 4.11456C13.2238 3.95348 12.9627 3.95348 12.8016 4.11456L12.8016 4.11457C12.6405 4.27569 12.6405 4.53682 12.8016 4.69794L12.8016 4.69796C12.9627 4.85904 13.2238 4.85904 13.3849 4.69796Z" fill="#9BA0A5" stroke="#9BA0A5" stroke-width="0.2"/>
</g>
<defs>
<clipPath id="clip0_14093_19302">
<rect width="20" height="20" fill="white" transform="translate(-0.000488281)"/>
</clipPath>
</defs>
</svg>
