<svg width="20" height="21" viewBox="0 0 20 21" fill="none" xmlns="http://www.w3.org/2000/svg">
<path d="M9.93413 15.0853C9.60993 15.0853 9.58792 15.0811 9.54956 15.0742C9.4345 15.0536 9.33048 14.9943 9.25559 14.9065C9.1807 14.8188 9.13967 14.7083 9.13965 14.5941V11.6133C9.13965 11.4838 9.19236 11.3596 9.28618 11.268C9.38001 11.1764 9.50726 11.125 9.63995 11.125C9.77264 11.125 9.89989 11.1764 9.99371 11.268C10.0875 11.3596 10.1402 11.4838 10.1402 11.6133V14.1081L10.6305 14.1058H10.6335C10.7662 14.1054 10.8936 14.1565 10.9877 14.2478C11.0819 14.3391 11.1349 14.4631 11.1353 14.5926C11.1357 14.7221 11.0834 14.8465 10.9899 14.9383C10.8963 15.0302 10.7692 15.082 10.6365 15.0824C10.311 15.0843 10.0886 15.0853 9.93413 15.0853Z" fill="#333333"/>
<path d="M13.2266 15.0849C12.67 15.0849 12.1466 14.8652 11.7908 14.4824C11.7466 14.4349 11.7125 14.3794 11.6904 14.319C11.6683 14.2586 11.6585 14.1946 11.6617 14.1305C11.665 14.0664 11.6811 14.0036 11.7092 13.9457C11.7373 13.8877 11.7768 13.8357 11.8255 13.7926C11.8741 13.7496 11.931 13.7163 11.9929 13.6947C12.0548 13.6731 12.1204 13.6635 12.186 13.6667C12.2516 13.6698 12.316 13.6856 12.3754 13.713C12.4348 13.7404 12.4881 13.779 12.5322 13.8265C12.6963 14.0029 12.9558 14.1084 13.2266 14.1084C13.4811 14.1084 13.6269 13.9625 13.6442 13.8642C13.6646 13.7529 13.4818 13.6452 13.319 13.5866C12.8414 13.4147 12.4168 13.2301 12.3991 13.2223C12.375 13.2119 12.3518 13.1996 12.3298 13.1855C12.1536 13.0745 12.014 12.9162 11.9278 12.7296C11.8416 12.543 11.8124 12.3361 11.8438 12.1338C11.9105 11.6904 12.2394 11.3297 12.706 11.1927C13.4211 10.9824 14.0868 11.3161 14.3673 11.5462L13.7236 12.2949L13.7276 12.2982C13.7239 12.2956 13.3667 12.0195 12.9938 12.1289C12.9018 12.1562 12.8431 12.209 12.8337 12.2741C12.8307 12.2881 12.8312 12.3027 12.8352 12.3165C12.8391 12.3303 12.8464 12.343 12.8564 12.3535C12.9795 12.4059 13.3103 12.5443 13.6646 12.6715C14.5044 12.9739 14.7132 13.5752 14.6288 14.0371C14.5181 14.6435 13.9284 15.0849 13.2266 15.0849Z" fill="#333333"/>
<path d="M8.1501 15.0853C8.06979 15.0853 7.99065 15.0665 7.91936 15.0304C7.84807 14.9943 7.78673 14.942 7.74052 14.8779L5.59023 11.8945C5.55084 11.8422 5.52254 11.7827 5.507 11.7195C5.49145 11.6563 5.48898 11.5908 5.49972 11.5267C5.51046 11.4626 5.5342 11.4012 5.56955 11.3462C5.60489 11.2911 5.65113 11.2435 5.70557 11.2061C5.76 11.1688 5.82152 11.1424 5.88654 11.1285C5.95156 11.1146 6.01876 11.1135 6.08421 11.1253C6.14967 11.1371 6.21205 11.1615 6.26772 11.1971C6.32338 11.2327 6.37121 11.2788 6.40839 11.3327L8.55868 14.3161C8.61136 14.3891 8.64248 14.4749 8.64864 14.5641C8.65481 14.6533 8.63578 14.7424 8.59364 14.8217C8.5515 14.901 8.48786 14.9676 8.40965 15.014C8.33144 15.0605 8.24167 15.0851 8.1501 15.0853Z" fill="#333333"/>
<path d="M5.84433 15.085C5.75265 15.0851 5.66273 15.0606 5.58437 15.0141C5.50601 14.9677 5.44223 14.9011 5.4 14.8217C5.35777 14.7423 5.3387 14.6531 5.34489 14.5638C5.35108 14.4745 5.38228 14.3887 5.43508 14.3155L7.58837 11.3321C7.62622 11.2797 7.67427 11.235 7.72979 11.2007C7.78531 11.1664 7.84721 11.1431 7.91196 11.1322C7.9767 11.1212 8.04303 11.1228 8.10714 11.1369C8.17125 11.1509 8.2319 11.1772 8.28562 11.2141C8.33934 11.2511 8.38509 11.298 8.42024 11.3521C8.45538 11.4063 8.47925 11.4667 8.49048 11.5299C8.50171 11.5931 8.50007 11.6578 8.48567 11.7204C8.47126 11.783 8.44437 11.8422 8.40653 11.8946L6.25324 14.878C6.20706 14.942 6.14581 14.9942 6.07465 15.0302C6.00349 15.0662 5.92449 15.085 5.84433 15.085Z" fill="#333333"/>
<path d="M14.9561 18.8337H5.0341C4.72605 18.8334 4.43069 18.7139 4.21283 18.5013C3.99498 18.2888 3.87242 18.0005 3.87207 17.6999V16.3613C3.87207 16.2318 3.92478 16.1076 4.0186 16.0161C4.11243 15.9245 4.23968 15.873 4.37237 15.873C4.50506 15.873 4.63231 15.9245 4.72614 16.0161C4.81996 16.1076 4.87267 16.2318 4.87267 16.3613V17.6999C4.87276 17.7416 4.88981 17.7816 4.92007 17.8111C4.95033 17.8405 4.99134 17.8571 5.0341 17.8571H14.9567C14.9995 17.8571 15.0405 17.8405 15.0708 17.8111C15.101 17.7816 15.1181 17.7416 15.1182 17.6999V16.3613C15.1182 16.2318 15.1709 16.1076 15.2647 16.0161C15.3585 15.9245 15.4858 15.873 15.6185 15.873C15.7511 15.873 15.8784 15.9245 15.9722 16.0161C16.066 16.1076 16.1188 16.2318 16.1188 16.3613V17.6999C16.1184 18.0006 15.9958 18.289 15.7778 18.5015C15.5598 18.7141 15.2642 18.8336 14.9561 18.8337Z" fill="#333333"/>
<path d="M15.6178 10.5303C15.4851 10.5303 15.3578 10.4788 15.264 10.3873C15.1702 10.2957 15.1175 10.1715 15.1175 10.042V6.03809C15.1173 5.9962 15.1001 5.95608 15.0698 5.92644L12.2758 3.18913C12.2609 3.17461 12.2432 3.1631 12.2237 3.15528C12.2043 3.14746 12.1834 3.14347 12.1624 3.14356H5.0341C4.99134 3.14356 4.95033 3.16011 4.92007 3.18959C4.88981 3.21907 4.87276 3.25906 4.87267 3.30079V10.042C4.87267 10.1715 4.81996 10.2957 4.72614 10.3873C4.63231 10.4788 4.50506 10.5303 4.37237 10.5303C4.23968 10.5303 4.11243 10.4788 4.0186 10.3873C3.92478 10.2957 3.87207 10.1715 3.87207 10.042V3.30079C3.87242 3.00014 3.99498 2.7119 4.21283 2.49934C4.43069 2.28678 4.72605 2.16725 5.0341 2.167H12.1624C12.315 2.16659 12.4662 2.19573 12.6072 2.25272C12.7482 2.30971 12.8762 2.39343 12.9839 2.49903L15.7785 5.23633C15.8864 5.34144 15.972 5.46632 16.0303 5.60381C16.0885 5.74129 16.1184 5.88866 16.1181 6.03744V10.0413C16.1182 10.1055 16.1053 10.1691 16.0802 10.2284C16.0551 10.2877 16.0183 10.3416 15.9718 10.387C15.9253 10.4324 15.8701 10.4685 15.8094 10.493C15.7487 10.5176 15.6835 10.5303 15.6178 10.5303Z" fill="#333333"/>
<path d="M15.9991 16.8496H4.0009C3.60284 16.8496 3.22108 16.6953 2.9396 16.4206C2.65813 16.1459 2.5 15.7733 2.5 15.3848V11.0186C2.50044 10.6302 2.65871 10.2578 2.94009 9.98323C3.22147 9.70861 3.60297 9.55414 4.0009 9.55371H15.9991C16.3972 9.55371 16.7789 9.70804 17.0604 9.98275C17.3419 10.2575 17.5 10.6301 17.5 11.0186V15.3848C17.5 15.7733 17.3419 16.1459 17.0604 16.4206C16.7789 16.6953 16.3972 16.8496 15.9991 16.8496ZM4.0009 10.5303C3.86821 10.5303 3.74096 10.5817 3.64713 10.6733C3.55331 10.7649 3.5006 10.8891 3.5006 11.0186V15.3848C3.5006 15.5143 3.55331 15.6385 3.64713 15.73C3.74096 15.8216 3.86821 15.873 4.0009 15.873H15.9991C16.1318 15.873 16.259 15.8216 16.3529 15.73C16.4467 15.6385 16.4994 15.5143 16.4994 15.3848V11.0186C16.4994 10.8891 16.4467 10.7649 16.3529 10.6733C16.259 10.5817 16.1318 10.5303 15.9991 10.5303H4.0009Z" fill="#333333"/>
</svg>
