<svg width="14" height="12" viewBox="0 0 14 12" fill="none" xmlns="http://www.w3.org/2000/svg">
<path d="M13.2561 4.56507C12.3947 3.16226 10.4355 0.808685 6.99674 0.808685C3.55802 0.808685 1.59874 3.16226 0.737397 4.56507C0.471122 4.99575 0.330078 5.49208 0.330078 5.99843C0.330078 6.50477 0.471122 7.00111 0.737397 7.43179C1.59874 8.8346 3.55802 11.1882 6.99674 11.1882C10.4355 11.1882 12.3947 8.8346 13.2561 7.43179C13.5224 7.00111 13.6634 6.50477 13.6634 5.99843C13.6634 5.49208 13.5224 4.99575 13.2561 4.56507ZM12.3092 6.85034C11.5695 8.05322 9.89511 10.0775 6.99674 10.0775C4.09837 10.0775 2.42399 8.05322 1.68427 6.85034C1.52607 6.59434 1.44228 6.29936 1.44228 5.99843C1.44228 5.6975 1.52607 5.40251 1.68427 5.14652C2.42399 3.94363 4.09837 1.91938 6.99674 1.91938C9.89511 1.91938 11.5695 3.94141 12.3092 5.14652C12.4674 5.40251 12.5512 5.6975 12.5512 5.99843C12.5512 6.29936 12.4674 6.59434 12.3092 6.85034Z" fill="#001A41"/>
<path d="M6.99665 3.22166C6.44746 3.22166 5.9106 3.38452 5.45397 3.68963C4.99734 3.99474 4.64143 4.42841 4.43127 4.9358C4.2211 5.44318 4.16611 6.00149 4.27326 6.54013C4.3804 7.07877 4.64486 7.57353 5.03319 7.96187C5.42153 8.35021 5.9163 8.61467 6.45493 8.72181C6.99357 8.82895 7.55188 8.77396 8.05927 8.56379C8.56665 8.35363 9.00032 7.99773 9.30543 7.54109C9.61055 7.08446 9.7734 6.5476 9.7734 5.99841C9.77252 5.26224 9.47968 4.55648 8.95913 4.03593C8.43858 3.51538 7.73282 3.22255 6.99665 3.22166ZM6.99665 7.66446C6.66714 7.66446 6.34502 7.56675 6.07104 7.38368C5.79706 7.20061 5.58352 6.94041 5.45742 6.63598C5.33132 6.33155 5.29833 5.99656 5.36261 5.67338C5.4269 5.3502 5.58557 5.05334 5.81857 4.82034C6.05158 4.58734 6.34844 4.42866 6.67162 4.36438C6.9948 4.30009 7.32979 4.33308 7.63422 4.45918C7.93865 4.58528 8.19885 4.79882 8.38192 5.07281C8.56499 5.34679 8.6627 5.6689 8.6627 5.99841C8.6627 6.44028 8.48717 6.86404 8.17472 7.17649C7.86228 7.48893 7.43851 7.66446 6.99665 7.66446Z" fill="#001A41"/>
</svg>
