<svg width="20" height="20" viewBox="0 0 20 20" fill="none" xmlns="http://www.w3.org/2000/svg">
<g id="Vector" clip-path="url(#clip0_8026_65846)">
<g id="Organization-1">
<path id="Vector (Stroke)" fill-rule="evenodd" clip-rule="evenodd" d="M3.2703 14.8511C2.23273 14.8511 1.39162 15.6922 1.39162 16.7298C1.39162 17.7673 2.23273 18.6085 3.2703 18.6085C4.30787 18.6085 5.14899 17.7673 5.14899 16.7298C5.14899 15.6922 4.30787 14.8511 3.2703 14.8511ZM0 16.7298C0 14.9236 1.46416 13.4595 3.2703 13.4595C5.07644 13.4595 6.54061 14.9236 6.54061 16.7298C6.54061 18.5359 5.07644 20.0001 3.2703 20.0001C1.46417 20.0001 0 18.5359 0 16.7298Z" fill="#9BA0A5"/>
<path id="Vector (Stroke)_2" fill-rule="evenodd" clip-rule="evenodd" d="M16.7 14.8511C15.6624 14.8511 14.8213 15.6922 14.8213 16.7298C14.8213 17.7673 15.6624 18.6085 16.7 18.6085C17.7376 18.6085 18.5787 17.7673 18.5787 16.7298C18.5787 15.6922 17.7376 14.8511 16.7 14.8511ZM13.4297 16.7298C13.4297 14.9236 14.8939 13.4595 16.7 13.4595C18.5061 13.4595 19.9703 14.9236 19.9703 16.7298C19.9703 18.5359 18.5061 20.0001 16.7 20.0001C14.8939 20.0001 13.4297 18.5359 13.4297 16.7298Z" fill="#9BA0A5"/>
<path id="Vector (Stroke)_3" fill-rule="evenodd" clip-rule="evenodd" d="M7.02832 8.10184C7.02832 6.4651 8.38356 5.10986 10.0203 5.10986C11.657 5.10986 13.0123 6.4651 13.0123 8.10184C13.0123 8.48613 12.7008 8.79765 12.3165 8.79765C11.9322 8.79765 11.6207 8.48613 11.6207 8.10184C11.6207 7.23367 10.8885 6.50148 10.0203 6.50148C9.15213 6.50148 8.41994 7.23367 8.41994 8.10184C8.41994 8.48613 8.10841 8.79765 7.72413 8.79765C7.33984 8.79765 7.02832 8.48613 7.02832 8.10184Z" fill="#9BA0A5"/>
<g id="Group">
<g id="Group_2">
<path id="Vector (Stroke)_4" fill-rule="evenodd" clip-rule="evenodd" d="M9.9942 1.39162C8.14963 1.39162 6.65431 2.88694 6.65431 4.7315C6.65431 6.57607 8.14963 8.07139 9.9942 8.07139C11.8388 8.07139 13.3341 6.57607 13.3341 4.7315C13.3341 2.88694 11.8388 1.39162 9.9942 1.39162ZM5.2627 4.7315C5.2627 2.11837 7.38106 0 9.9942 0C12.6073 0 14.7257 2.11837 14.7257 4.7315C14.7257 7.34464 12.6073 9.46301 9.9942 9.46301C7.38106 9.46301 5.2627 7.34464 5.2627 4.7315Z" fill="#9BA0A5"/>
<path id="Vector (Stroke)_5" fill-rule="evenodd" clip-rule="evenodd" d="M9.99441 3.82717C9.64855 3.82717 9.36818 4.10754 9.36818 4.45339C9.36818 4.79925 9.64855 5.07962 9.99441 5.07962C10.3403 5.07962 10.6206 4.79925 10.6206 4.45339C10.6206 4.10754 10.3403 3.82717 9.99441 3.82717ZM7.97656 4.45339C7.97656 3.33897 8.87998 2.43555 9.99441 2.43555C11.1088 2.43555 12.0123 3.33897 12.0123 4.45339C12.0123 5.56782 11.1088 6.47124 9.99441 6.47124C8.87998 6.47124 7.97656 5.56782 7.97656 4.45339Z" fill="#9BA0A5"/>
</g>
</g>
<path id="Vector (Stroke)_6" fill-rule="evenodd" clip-rule="evenodd" d="M10.02 8.10156C10.4043 8.10156 10.7158 8.41309 10.7158 8.79737V11.3719C10.7158 11.7562 10.4043 12.0677 10.02 12.0677C9.63574 12.0677 9.32422 11.7562 9.32422 11.3719V8.79737C9.32422 8.41309 9.63574 8.10156 10.02 8.10156Z" fill="#9BA0A5"/>
<path id="Vector (Stroke)_7" fill-rule="evenodd" clip-rule="evenodd" d="M4.73196 12.0679C4.35085 12.0679 4.03615 12.3826 4.03615 12.7637V14.0162C4.03615 14.4004 3.72463 14.712 3.34034 14.712C2.95606 14.712 2.64453 14.4004 2.64453 14.0162V12.7637C2.64453 11.614 3.58228 10.6763 4.73196 10.6763H15.4474C16.5971 10.6763 17.5349 11.614 17.5349 12.7637V14.0857C17.5349 14.47 17.2233 14.7815 16.839 14.7815C16.4548 14.7815 16.1432 14.47 16.1432 14.0857V12.7637C16.1432 12.3826 15.8285 12.0679 15.4474 12.0679H4.73196Z" fill="#9BA0A5"/>
</g>
</g>
<defs>
<clipPath id="clip0_8026_65846">
<rect width="20" height="20" fill="white"/>
</clipPath>
</defs>
</svg>
