<svg width="16" height="17" viewBox="0 0 16 17" fill="none" xmlns="http://www.w3.org/2000/svg">
<g clip-path="url(#clip0_6865_58723)">
<path d="M6.34006 3.58737H4.54579C4.08179 3.58737 3.71099 3.6949 3.45673 3.9379C3.2013 4.18202 3.08737 4.53985 3.08737 4.9872V12.0098C3.08737 12.4571 3.2013 12.815 3.45674 13.0591C3.71099 13.3021 4.08179 13.4096 4.54579 13.4096H6.34006C6.80406 13.4096 7.17486 13.3021 7.42912 13.0591C7.68455 12.8149 7.79848 12.4571 7.79848 12.0098V4.9872C7.79848 4.53985 7.68455 4.18202 7.42912 3.9379C7.17486 3.6949 6.80406 3.58737 6.34006 3.58737ZM6.86515 12.0098C6.86515 12.2382 6.83722 12.3334 6.78643 12.3839C6.73443 12.4356 6.6221 12.4763 6.34006 12.4763H4.54579C4.26375 12.4763 4.15142 12.4356 4.09942 12.3839C4.04863 12.3334 4.0207 12.2382 4.0207 12.0098V4.9872C4.0207 4.75875 4.04863 4.66355 4.09942 4.61304C4.15142 4.56132 4.26375 4.5207 4.54579 4.5207H6.34006C6.6221 4.5207 6.73443 4.56132 6.78643 4.61304C6.83722 4.66355 6.86515 4.75875 6.86515 4.9872V12.0098ZM11.4512 3.58737H9.6569C9.1929 3.58737 8.8221 3.6949 8.56785 3.9379C8.31241 4.18202 8.19848 4.53985 8.19848 4.9872V8.89865C8.19848 9.34601 8.31241 9.70384 8.56785 9.94796C8.8221 10.1909 9.1929 10.2985 9.6569 10.2985H11.4512C11.9152 10.2985 12.286 10.1909 12.5402 9.94795C12.7957 9.70383 12.9096 9.346 12.9096 8.89865V4.9872C12.9096 4.53985 12.7957 4.18202 12.5402 3.9379C12.286 3.6949 11.9152 3.58737 11.4512 3.58737ZM11.9763 8.89865C11.9763 9.12711 11.9483 9.2223 11.8975 9.27281C11.8455 9.32453 11.7332 9.36515 11.4512 9.36515H9.6569C9.37486 9.36515 9.26253 9.32453 9.21053 9.27281C9.15974 9.2223 9.13181 9.12711 9.13181 8.89865V4.9872C9.13181 4.75875 9.15974 4.66355 9.21053 4.61304C9.26253 4.56132 9.37486 4.5207 9.6569 4.5207H11.4512C11.7332 4.5207 11.8455 4.56132 11.8975 4.61304C11.9483 4.66355 11.9763 4.75875 11.9763 4.9872V8.89865Z" fill="#666666" stroke="#666666" stroke-width="0.266667"/>
</g>
<defs>
<clipPath id="clip0_6865_58723">
<rect width="10.6667" height="10.6667" fill="white" transform="translate(2.66602 3.16602)"/>
</clipPath>
</defs>
</svg>
