<svg width="48" height="48" viewBox="0 0 48 48" fill="none" xmlns="http://www.w3.org/2000/svg">
<g clip-path="url(#clip0_166_15670)">
<path d="M23.861 11.2637L35.2612 20.1108L31.5074 23.0203L34.3476 25.8308L41.7358 20.1108L23.861 6.25631L18.717 10.2543L21.5372 13.0648L23.861 11.2637ZM41.7358 30.1455L38.4985 27.6319L37.1678 28.6611L40.0079 31.4913L41.7358 30.1455ZM6.8004 4L4 6.7907L12.3813 15.143L5.9861 20.1108L23.861 33.9654L28.0318 30.7392L30.852 33.5497L23.8411 38.9926L9.20357 27.6517L5.9861 30.1455L23.861 44L33.6922 36.38L41.1996 43.8615L44 41.0708L6.8004 4ZM23.861 28.9579L12.4608 20.1108L15.2214 17.9733L25.1917 27.909L23.861 28.9579Z" fill="#001A41"/>
</g>
<defs>
<clipPath id="clip0_166_15670">
<rect width="40" height="40" fill="white" transform="translate(4 4)"/>
</clipPath>
</defs>
</svg>
