<svg xmlns="http://www.w3.org/2000/svg" width="20" height="20" viewBox="0 0 20 20" fill="none">
  <path d="M17.9242 17.8239L16.2992 16.1939C16.6817 15.3944 16.7692 14.4854 16.5462 13.6277C16.3233 12.7699 15.8042 12.0186 15.0807 11.5066C14.3573 10.9946 13.4762 10.7549 12.5931 10.8299C11.71 10.9048 10.8818 11.2897 10.255 11.9163C9.62827 12.5429 9.24326 13.371 9.16808 14.254C9.09291 15.1371 9.3324 16.0183 9.84423 16.7419C10.3561 17.4654 11.1072 17.9847 11.965 18.2079C12.8227 18.431 13.7317 18.3437 14.5312 17.9614L16.1608 19.5864C16.2766 19.7023 16.4141 19.7942 16.5655 19.857C16.7168 19.9197 16.879 19.9521 17.0429 19.9521C17.2067 19.9522 17.369 19.92 17.5204 19.8573C17.6717 19.7947 17.8093 19.7028 17.9252 19.587C18.0411 19.4712 18.133 19.3337 18.1958 19.1824C18.2585 19.031 18.2909 18.8688 18.2909 18.705C18.291 18.5411 18.2588 18.3789 18.1961 18.2275C18.1335 18.0761 18.0416 17.9385 17.9258 17.8227L17.9242 17.8239ZM10.8542 16.6431C10.4463 16.2352 10.1685 15.7155 10.056 15.1497C9.9435 14.5839 10.0013 13.9975 10.222 13.4646C10.4428 12.9316 10.8166 12.4761 11.2963 12.1556C11.7759 11.8352 12.3398 11.6641 12.9167 11.6641C13.4935 11.6641 14.0574 11.8352 14.537 12.1556C15.0167 12.4761 15.3905 12.9316 15.6113 13.4646C15.832 13.9975 15.8898 14.5839 15.7773 15.1497C15.6648 15.7155 15.387 16.2352 14.9792 16.6431C14.4318 17.1894 13.69 17.4962 12.9167 17.4962C12.1433 17.4962 11.4015 17.1894 10.8542 16.6431ZM17.3333 18.9972C17.2553 19.0743 17.1501 19.1176 17.0404 19.1176C16.9307 19.1176 16.8255 19.0743 16.7475 18.9972L15.2554 17.5085C15.4743 17.3361 15.6721 17.1385 15.8446 16.9197L17.3333 18.4139C17.3719 18.4523 17.4026 18.4979 17.4235 18.5482C17.4444 18.5985 17.4552 18.6524 17.4552 18.7068C17.4552 18.7613 17.4444 18.8152 17.4235 18.8655C17.4026 18.9157 17.3719 18.9614 17.3333 18.9997V18.9972Z" fill="#999999"/>
  <path d="M10.4167 18.332H4.99999C4.66847 18.332 4.35053 18.2003 4.11611 17.9659C3.88169 17.7315 3.74999 17.4136 3.74999 17.082V2.91537C3.74999 2.58385 3.88169 2.26591 4.11611 2.03149C4.35053 1.79707 4.66847 1.66537 4.99999 1.66537H12.2417C12.3285 1.6656 12.4151 1.67495 12.5 1.69329V4.16537C12.5 4.49689 12.6317 4.81484 12.8661 5.04926C13.1005 5.28368 13.4185 5.41537 13.75 5.41537H16.2179C16.2385 5.50435 16.2492 5.59531 16.25 5.68662V11.2487C16.25 11.3592 16.2939 11.4652 16.372 11.5433C16.4502 11.6215 16.5562 11.6654 16.6667 11.6654C16.7772 11.6654 16.8831 11.6215 16.9613 11.5433C17.0394 11.4652 17.0833 11.3592 17.0833 11.2487V5.68662C17.0839 5.4138 17.0306 5.14354 16.9265 4.89136C16.8224 4.63917 16.6695 4.41002 16.4767 4.21704L13.7183 1.44579C13.5252 1.25062 13.2952 1.09584 13.0417 0.990465C12.7882 0.885092 12.5162 0.831238 12.2417 0.83204H4.99999C4.44766 0.832702 3.91814 1.05241 3.52758 1.44297C3.13702 1.83352 2.91732 2.36304 2.91666 2.91537V17.082C2.91732 17.6344 3.13702 18.1639 3.52758 18.5544C3.91814 18.945 4.44766 19.1647 4.99999 19.1654H10.4167C10.5272 19.1654 10.6331 19.1215 10.7113 19.0433C10.7894 18.9652 10.8333 18.8592 10.8333 18.7487C10.8333 18.6382 10.7894 18.5322 10.7113 18.4541C10.6331 18.3759 10.5272 18.332 10.4167 18.332ZM15.6642 4.58204H13.75C13.6395 4.58204 13.5335 4.53814 13.4554 4.46C13.3772 4.38186 13.3333 4.27588 13.3333 4.16537V2.24037L15.6642 4.58204Z" fill="#999999"/>
  <path d="M5.83332 5.41536H10.4167C10.5272 5.41536 10.6331 5.37147 10.7113 5.29333C10.7894 5.21519 10.8333 5.1092 10.8333 4.9987C10.8333 4.88819 10.7894 4.78221 10.7113 4.70407C10.6331 4.62593 10.5272 4.58203 10.4167 4.58203H5.83332C5.72282 4.58203 5.61684 4.62593 5.5387 4.70407C5.46056 4.78221 5.41666 4.88819 5.41666 4.9987C5.41666 5.1092 5.46056 5.21519 5.5387 5.29333C5.61684 5.37147 5.72282 5.41536 5.83332 5.41536Z" fill="#999999"/>
  <path d="M14.1667 7.08203H7.08332C6.97282 7.08203 6.86684 7.12593 6.7887 7.20407C6.71055 7.28221 6.66666 7.38819 6.66666 7.4987C6.66666 7.6092 6.71055 7.71519 6.7887 7.79333C6.86684 7.87147 6.97282 7.91536 7.08332 7.91536H14.1667C14.2772 7.91536 14.3831 7.87147 14.4613 7.79333C14.5394 7.71519 14.5833 7.6092 14.5833 7.4987C14.5833 7.38819 14.5394 7.28221 14.4613 7.20407C14.3831 7.12593 14.2772 7.08203 14.1667 7.08203Z" fill="#9BA0A5"/>
  <path d="M14.5833 9.58073C14.5833 9.47022 14.5394 9.36424 14.4613 9.2861C14.3831 9.20796 14.2772 9.16406 14.1667 9.16406H5.83332C5.72282 9.16406 5.61684 9.20796 5.5387 9.2861C5.46056 9.36424 5.41666 9.47022 5.41666 9.58073C5.41666 9.69124 5.46056 9.79722 5.5387 9.87536C5.61684 9.9535 5.72282 9.9974 5.83332 9.9974H14.1667C14.2772 9.9974 14.3831 9.9535 14.4613 9.87536C14.5394 9.79722 14.5833 9.69124 14.5833 9.58073Z" fill="#9BA0A5"/>
  <path d="M8.74999 11.6667C8.74999 11.5562 8.70609 11.4502 8.62795 11.372C8.54981 11.2939 8.44383 11.25 8.33332 11.25H5.83332C5.72282 11.25 5.61684 11.2939 5.5387 11.372C5.46056 11.4502 5.41666 11.5562 5.41666 11.6667C5.41666 11.7772 5.46056 11.8832 5.5387 11.9613C5.61684 12.0394 5.72282 12.0833 5.83332 12.0833H8.33332C8.44383 12.0833 8.54981 12.0394 8.62795 11.9613C8.70609 11.8832 8.74999 11.7772 8.74999 11.6667Z" fill="#9BA0A5"/>
  <path d="M5.83332 14.1654H7.49999C7.6105 14.1654 7.71648 14.1215 7.79462 14.0433C7.87276 13.9652 7.91666 13.8592 7.91666 13.7487C7.91666 13.6382 7.87276 13.5322 7.79462 13.4541C7.71648 13.3759 7.6105 13.332 7.49999 13.332H5.83332C5.72282 13.332 5.61684 13.3759 5.5387 13.4541C5.46056 13.5322 5.41666 13.6382 5.41666 13.7487C5.41666 13.8592 5.46056 13.9652 5.5387 14.0433C5.61684 14.1215 5.72282 14.1654 5.83332 14.1654Z" fill="#9BA0A5"/>
  <path d="M5.83332 16.2474H7.91666C8.02716 16.2474 8.13314 16.2035 8.21128 16.1254C8.28943 16.0472 8.33332 15.9412 8.33332 15.8307C8.33332 15.7202 8.28943 15.6142 8.21128 15.5361C8.13314 15.458 8.02716 15.4141 7.91666 15.4141H5.83332C5.72282 15.4141 5.61684 15.458 5.5387 15.5361C5.46056 15.6142 5.41666 15.7202 5.41666 15.8307C5.41666 15.9412 5.46056 16.0472 5.5387 16.1254C5.61684 16.2035 5.72282 16.2474 5.83332 16.2474Z" fill="#9BA0A5"/>
  <path d="M12.9166 15.8307C12.5851 15.8307 12.2672 15.699 12.0328 15.4646C11.7983 15.2302 11.6666 14.9122 11.6666 14.5807C11.6666 14.4702 11.6227 14.3642 11.5446 14.2861C11.4665 14.208 11.3605 14.1641 11.25 14.1641C11.1395 14.1641 11.0335 14.208 10.9554 14.2861C10.8772 14.3642 10.8333 14.4702 10.8333 14.5807C10.834 15.1331 11.0537 15.6626 11.4442 16.0531C11.8348 16.4437 12.3643 16.6634 12.9166 16.6641C13.0272 16.6641 13.1331 16.6202 13.2113 16.542C13.2894 16.4639 13.3333 16.3579 13.3333 16.2474C13.3333 16.1369 13.2894 16.0309 13.2113 15.9528C13.1331 15.8746 13.0272 15.8307 12.9166 15.8307Z" fill="#9BA0A5"/>
</svg>