<svg width="13" height="16" viewBox="0 0 13 16" fill="none" xmlns="http://www.w3.org/2000/svg">
<path d="M3.66667 10H8.33333M3.66667 12H6M11 1.33334H1.66667C1.48986 1.33334 1.32029 1.40358 1.19526 1.52861C1.07024 1.65363 1 1.8232 1 2.00001V14C1 14.1768 1.07024 14.3464 1.19526 14.4714C1.32029 14.5964 1.48986 14.6667 1.66667 14.6667H11C11.1768 14.6667 11.3464 14.5964 11.4714 14.4714C11.5964 14.3464 11.6667 14.1768 11.6667 14V2.00001C11.6667 1.8232 11.5964 1.65363 11.4714 1.52861C11.3464 1.40358 11.1768 1.33334 11 1.33334Z" stroke="#001A41" stroke-linecap="round" stroke-linejoin="round"/>
<path d="M3.66699 4H8.33366V7.33333H3.66699V4Z" fill="#001A41" stroke="#001A41" stroke-linecap="round" stroke-linejoin="round"/>
</svg>