<svg width="24" height="24" viewBox="0 0 24 24" fill="none" xmlns="http://www.w3.org/2000/svg">
<g clip-path="url(#clip0_16131_12652)">
<path d="M21.923 10.1513L20.0518 7.19938C19.9999 7.11763 19.9231 7.0496 19.8351 7.009L12.224 3.41626C12.0827 3.3496 11.9187 3.35092 11.7786 3.41981L4.15493 7.16819C4.07493 7.2075 4.00451 7.26926 3.95493 7.34332L2.08369 10.1408C1.9222 10.3822 2.00245 10.7264 2.25532 10.871L3.86835 11.7939V16.1002C3.86835 16.2904 3.97365 16.465 4.1419 16.5537L11.7605 20.5737C11.911 20.653 12.0975 20.6515 12.2467 20.5697L19.8653 16.3894C20.1137 16.2531 20.2045 15.9414 20.0682 15.6931C19.9319 15.4448 19.6201 15.354 19.3717 15.4902L12.5129 19.2536V13.1141L13.9029 14.8569C14.0568 15.0499 14.345 15.1045 14.5587 14.9822L21.7446 10.871C21.9925 10.7291 22.0763 10.3933 21.923 10.1513ZM12.0095 4.4493L18.4891 7.50789L11.9953 11.066L5.51087 7.64451L12.0095 4.4493ZM4.55074 8.29767L11.2127 11.8128L9.56904 13.8737L3.24224 10.2539L4.55074 8.29767ZM4.89429 15.791V12.3808L9.44117 14.9822C9.65476 15.1045 9.94331 15.0496 10.097 14.8569L11.487 13.1141V19.2696L4.89429 15.791ZM14.4308 13.8737L12.781 11.8051L19.4429 8.1549L20.7692 10.2472L14.4308 13.8737Z" fill="#999999"/>
<path d="M19.6185 14.5553C19.949 14.5553 20.2169 14.2874 20.2169 13.9569C20.2169 13.6263 19.949 13.3584 19.6185 13.3584C19.288 13.3584 19.02 13.6263 19.02 13.9569C19.02 14.2874 19.288 14.5553 19.6185 14.5553Z" fill="#999999"/>
</g>
<defs>
<clipPath id="clip0_16131_12652">
<rect width="20" height="20" fill="white" transform="translate(2 2)"/>
</clipPath>
</defs>
</svg>
