<svg width="48" height="48" viewBox="0 0 48 48" fill="none" xmlns="http://www.w3.org/2000/svg">
<path fill-rule="evenodd" clip-rule="evenodd" d="M24.41 44C26.6664 44 28.5126 42.1538 28.5126 39.8974H20.3074C20.3074 42.1538 22.1536 44 24.41 44ZM36.7177 31.6923V21.4359C36.7177 15.1385 33.3741 9.86667 27.4869 8.47179V7.07692C27.4869 5.37436 26.1126 4 24.41 4C22.7074 4 21.3331 5.37436 21.3331 7.07692V8.47179C15.4664 9.86667 12.1023 15.1179 12.1023 21.4359V31.6923L7.99976 35.7949V37.8462H40.8203V35.7949L36.7177 31.6923ZM32.6151 33.7436H16.2049V21.4359C16.2049 16.3487 19.3023 12.2051 24.41 12.2051C29.5177 12.2051 32.6151 16.3487 32.6151 21.4359V33.7436Z" fill="#001A41"/>
</svg>
