<svg width="48" height="48" viewBox="0 0 48 48" fill="none" xmlns="http://www.w3.org/2000/svg">
<g clip-path="url(#clip0_166_15679)">
<path fill-rule="evenodd" clip-rule="evenodd" d="M22.41 44C24.6664 44 26.5126 42.1539 26.5126 39.8974H18.3074C18.3074 42.1539 20.1536 44 22.41 44ZM22.4101 12.2051C27.5178 12.2051 30.6153 16.3487 30.6153 21.4359V21.641L34.7178 25.7436V21.4359C34.7178 15.1385 31.3742 9.86667 25.4871 8.4718V7.07692C25.4871 5.37436 24.1127 4 22.4101 4C20.7076 4 19.3332 5.37436 19.3332 7.07692V8.4718C18.8409 8.59487 18.3691 8.77949 17.9178 8.94359L21.2819 12.3077C21.6512 12.2667 22.0204 12.2051 22.4101 12.2051ZM8.89206 5.74379L5.99976 8.6361L11.7639 14.4002C10.6972 16.4515 10.1023 18.8515 10.1023 21.4361V31.6925L5.99976 35.7951V37.8464H35.21L38.7792 41.4156L41.6716 38.5233L8.89206 5.74379ZM30.6151 33.7438H14.2049V21.4361C14.2049 20.0412 14.451 18.7284 14.9023 17.5387L30.6151 33.2515V33.7438Z" fill="#001A41"/>
</g>
<defs>
<clipPath id="clip0_166_15679">
<rect width="40" height="40" fill="white" transform="translate(4 4)"/>
</clipPath>
</defs>
</svg>
