<svg width="48" height="48" viewBox="0 0 48 48" fill="none" xmlns="http://www.w3.org/2000/svg">
<g clip-path="url(#clip0_166_15678)">
<path fill-rule="evenodd" clip-rule="evenodd" d="M24.0932 43.2969C26.3099 43.2969 28.1236 41.4832 28.1236 39.2664H20.0627C20.0627 41.4832 21.8764 43.2969 24.0932 43.2969ZM36.1834 31.2056V21.1294C36.1834 14.9427 32.8986 9.76355 27.1149 8.3932V7.02284C27.1149 5.3502 25.7647 4 24.0921 4C22.4194 4 21.0692 5.3502 21.0692 7.02284V8.3932C15.3057 9.76355 12.0007 14.9225 12.0007 21.1294V31.2056L7.97024 35.236V37.2513H40.2139V35.236L36.1834 31.2056ZM32.1534 33.2207H16.0316V21.1294C16.0316 16.1316 19.0745 12.0608 24.0925 12.0608C29.1104 12.0608 32.1534 16.1316 32.1534 21.1294V33.2207ZM15.1845 7.18389L12.3027 4.30212C7.46619 7.98998 4.28213 13.6729 4 20.1217H8.03046C8.33274 14.7813 11.0735 10.106 15.1845 7.18389ZM40.0733 19.18C40.1324 19.707 40.5674 20.1217 41.0977 20.1217H43.1352C43.7058 20.1217 44.1631 19.6441 44.1084 19.0761C43.5592 13.368 40.7446 8.33026 36.5673 4.85082C36.181 4.52904 35.6152 4.5692 35.2609 4.92596L33.8456 6.3512C33.4119 6.788 33.4736 7.508 33.9481 7.90015C37.2772 10.6515 39.5648 14.6443 40.0733 19.18Z" fill="#001A41"/>
</g>
<defs>
<clipPath id="clip0_166_15678">
<rect width="40" height="40" fill="white" transform="translate(4 4)"/>
</clipPath>
</defs>
</svg>
