<svg width="20" height="20" viewBox="0 0 20 20" fill="none" xmlns="http://www.w3.org/2000/svg">
<path d="M14.5776 14.0548C14.2856 13.9766 13.9813 14.0163 13.721 14.1666L11.3752 15.521C11.3712 15.4304 11.3576 15.3389 11.3332 15.2478C11.1513 14.5692 10.4515 14.1651 9.77275 14.3468L8.77088 14.6153C8.40463 14.7134 8.06697 14.669 7.73861 14.4794L6.40299 13.7083C5.84404 13.3856 5.2958 13.5914 4.66104 13.8296C4.32521 13.9557 3.9515 14.0957 3.5158 14.1841L3.50361 14.1386C3.47076 14.016 3.39197 13.9135 3.28178 13.8498C3.1715 13.7861 3.0433 13.7691 2.92064 13.802L2.18385 13.9995C2.06119 14.0323 1.95861 14.1111 1.89498 14.2214C1.83135 14.3316 1.81443 14.4598 1.84725 14.5825L3.16771 19.5105C3.20057 19.633 3.27936 19.7356 3.38955 19.7993C3.46307 19.8418 3.54455 19.8634 3.62709 19.8634C3.66834 19.8634 3.70982 19.858 3.75068 19.8471L4.48748 19.6496C4.6101 19.6168 4.71271 19.538 4.77635 19.4277C4.8301 19.3346 4.8501 19.2287 4.83537 19.1241C5.87252 18.906 6.53725 19.0951 7.4292 19.3495C7.59506 19.3968 7.76654 19.4457 7.94998 19.4948C8.11322 19.5386 8.27432 19.5604 8.43279 19.5604C8.74029 19.5604 9.03791 19.4782 9.3219 19.3142L14.8501 16.1223C15.1105 15.9721 15.297 15.7285 15.3752 15.4365C15.4534 15.1445 15.4137 14.8403 15.2634 14.5799C15.1132 14.3196 14.8696 14.133 14.5776 14.0548ZM3.70533 19.2527L2.44178 14.537L2.96615 14.3965L4.22971 19.1121L3.70533 19.2527ZM14.8094 15.2849C14.7717 15.4257 14.6822 15.5429 14.5573 15.615L9.02904 18.8068C8.73404 18.9771 8.4308 19.0171 8.10174 18.9289C7.92283 18.881 7.75361 18.8327 7.58998 18.7861C6.64275 18.5159 5.8801 18.2988 4.68744 18.5565L3.66775 14.7511C4.13588 14.6525 4.53467 14.503 4.86693 14.3782C5.47404 14.1504 5.80502 14.0397 6.11002 14.2158L7.44564 14.9869C7.90889 15.2543 8.40576 15.3197 8.92252 15.1813L9.92439 14.9129C10.2909 14.8146 10.669 15.033 10.7672 15.3995C10.821 15.6 10.7794 15.8038 10.6711 15.9636C10.6687 15.9672 10.6662 15.9709 10.664 15.9746C10.5745 16.1014 10.442 16.199 10.2806 16.2422L8.81557 16.6348C8.57627 16.6989 8.34291 16.7012 8.12209 16.6416C7.96588 16.5995 7.80506 16.692 7.76291 16.8482C7.72076 17.0044 7.81322 17.1652 7.96947 17.2073C8.12639 17.2496 8.28658 17.2708 8.44904 17.2708C8.61975 17.2708 8.79287 17.2475 8.96725 17.2007L10.4324 16.8082C10.7166 16.732 10.9524 16.5648 11.1174 16.3464L14.014 14.674C14.1388 14.6019 14.2851 14.583 14.426 14.6207C14.5668 14.6585 14.684 14.748 14.7561 14.8729C14.8281 14.9978 14.8471 15.1441 14.8094 15.2849ZM7.27787 8.90414C6.82252 9.4393 6.57174 10.1191 6.57174 10.8183V12.3207C6.57174 12.4825 6.70291 12.6137 6.86471 12.6137H13.1352C13.297 12.6137 13.4282 12.4825 13.4282 12.3207V10.8183C13.4282 10.1191 13.1774 9.4393 12.7221 8.90414C12.4061 8.53277 12.0055 8.24707 11.5605 8.06875C11.9441 7.67965 12.1811 7.14844 12.1811 6.56324C12.1811 5.37336 11.2026 4.40527 9.99998 4.40527C8.79732 4.40527 7.81889 5.37332 7.81889 6.56324C7.81889 7.14844 8.05588 7.67965 8.43947 8.06875C7.99439 8.24703 7.59389 8.53277 7.27787 8.90414ZM12.8423 10.8183V12.0278H7.15771V10.8183C7.15771 9.69289 7.94107 8.73156 9.03357 8.49707C9.32506 8.64023 9.65311 8.72117 10 8.72117C10.3469 8.72117 10.6749 8.64023 10.9665 8.49707C12.0589 8.73156 12.8423 9.69289 12.8423 10.8183ZM9.99998 4.99121C10.8796 4.99121 11.5951 5.69641 11.5951 6.56324C11.5951 7.43004 10.8796 8.13523 9.99998 8.13523C9.12041 8.13523 8.40482 7.43004 8.40482 6.56324C8.40482 5.69641 9.12041 4.99121 9.99998 4.99121ZM8.97396 1.4557C8.85955 1.34129 8.85955 1.15578 8.97396 1.04141L9.79283 0.222539C9.84779 0.167578 9.92229 0.136719 9.99998 0.136719C10.0777 0.136719 10.1522 0.167578 10.2071 0.222539L11.026 1.04141C11.1404 1.15582 11.1404 1.34133 11.026 1.4557C10.9115 1.57012 10.726 1.57016 10.6117 1.4557L10.2919 1.13594L10.2885 3.40059C10.2883 3.56223 10.1572 3.69313 9.99557 3.69313C9.99541 3.69313 9.99525 3.69313 9.9951 3.69313C9.8333 3.69289 9.70232 3.56152 9.70256 3.39973L9.70592 1.13801L9.38822 1.4557C9.33104 1.51293 9.25604 1.54152 9.18107 1.54152C9.10611 1.54152 9.03119 1.51293 8.97396 1.4557ZM5.41803 2.54406L5.71775 1.42547C5.75967 1.26914 5.92041 1.17641 6.07658 1.21828L7.19518 1.51797C7.35147 1.55984 7.4442 1.72051 7.40236 1.8768C7.36049 2.03309 7.19982 2.1259 7.04354 2.08398L6.6067 1.96695L7.73615 3.92988C7.81682 4.07012 7.76857 4.24922 7.6283 4.32992C7.58228 4.35641 7.53201 4.36898 7.48248 4.36898C7.38107 4.36898 7.28248 4.31629 7.22826 4.22207L6.10029 2.26172L5.984 2.69566C5.94893 2.82656 5.83053 2.91289 5.70119 2.91289C5.67607 2.91289 5.65057 2.90965 5.62518 2.90285C5.46889 2.86098 5.37615 2.70035 5.41803 2.54406ZM2.7901 4.50473C2.74822 4.34844 2.84096 4.18781 2.99729 4.1459L4.11588 3.84617C4.27209 3.80441 4.43279 3.89703 4.47471 4.05336C4.51658 4.20965 4.42385 4.37027 4.26752 4.41219L3.83072 4.52922L5.79029 5.66445C5.93029 5.74559 5.97803 5.9248 5.89693 6.06484C5.8426 6.15859 5.74424 6.21102 5.64314 6.21102C5.5933 6.21102 5.54279 6.19828 5.49654 6.17148L3.53955 5.03773L3.65584 5.47172C3.69771 5.62801 3.60498 5.78863 3.44865 5.83055C3.42326 5.83734 3.39775 5.84059 3.37264 5.84059C3.24326 5.84059 3.1249 5.75426 3.08982 5.62336L2.7901 4.50473ZM2.61318 9.45418L1.79432 8.63535C1.73936 8.58043 1.7085 8.5059 1.7085 8.4282C1.7085 8.35051 1.73936 8.27598 1.79432 8.22106L2.61318 7.40219C2.7276 7.28773 2.91311 7.28773 3.02748 7.40219C3.14189 7.5166 3.14189 7.70211 3.02748 7.81648L2.70771 8.13625L4.97236 8.13961C5.13416 8.13984 5.26514 8.27121 5.2649 8.43301C5.26467 8.59465 5.13354 8.72555 4.97193 8.72555C4.97182 8.72555 4.97166 8.72555 4.9715 8.72555L2.70979 8.72219L3.02748 9.03988C3.14189 9.1543 3.14189 9.3398 3.02748 9.45418C2.97029 9.51137 2.89529 9.54 2.82033 9.54C2.74537 9.54 2.67041 9.51141 2.61318 9.45418ZM5.79389 11.1999L3.83354 12.3279L4.26748 12.4441C4.42377 12.486 4.5165 12.6467 4.47467 12.803C4.43959 12.9339 4.32119 13.0202 4.19186 13.0202C4.16674 13.0202 4.14123 13.017 4.11584 13.0102L2.99725 12.7104C2.92221 12.6903 2.85818 12.6412 2.81936 12.5739C2.78053 12.5066 2.76998 12.4266 2.79006 12.3516L3.08979 11.233C3.13166 11.0768 3.29236 10.984 3.44861 11.0259C3.6049 11.0677 3.69764 11.2284 3.65576 11.3847L3.53869 11.8215L5.50162 10.6921C5.64182 10.6114 5.821 10.6596 5.90166 10.7999C5.9824 10.9401 5.93416 11.1192 5.79389 11.1999ZM12.2567 3.92473L13.3904 1.96773L12.9565 2.08402C12.8002 2.12598 12.6396 2.03316 12.5976 1.87684C12.5558 1.72055 12.6485 1.55992 12.8048 1.51801L13.9234 1.21828C14.0797 1.17656 14.2403 1.26914 14.2822 1.42547L14.582 2.54406C14.6238 2.70035 14.5311 2.86098 14.3748 2.90289C14.3494 2.90969 14.3239 2.91293 14.2988 2.91293C14.1694 2.91293 14.051 2.8266 14.016 2.6957L13.8989 2.25891L12.7637 4.21848C12.7094 4.31223 12.611 4.36465 12.5099 4.36465C12.4601 4.36465 12.4096 4.35191 12.3633 4.32512C12.2233 4.24398 12.1756 4.06477 12.2567 3.92473ZM15.5253 4.0534C15.5672 3.89707 15.728 3.80441 15.8841 3.84621L17.0027 4.14594C17.159 4.18781 17.2517 4.34848 17.2099 4.50477L16.9102 5.62336C16.8751 5.75426 16.7567 5.84059 16.6274 5.84059C16.6022 5.84059 16.5767 5.83734 16.5513 5.83055C16.3951 5.78867 16.3023 5.62801 16.3442 5.47172L16.4612 5.03492L14.4983 6.16434C14.4522 6.19082 14.402 6.2034 14.3524 6.2034C14.251 6.2034 14.1524 6.1507 14.0982 6.05648C14.0176 5.91625 14.0658 5.73715 14.2061 5.65645L16.1664 4.52852L15.7325 4.41223C15.5762 4.37031 15.4834 4.20969 15.5253 4.0534ZM18.2914 8.4282C18.2914 8.5059 18.2606 8.58043 18.2056 8.63535L17.3867 9.45418C17.3296 9.51137 17.2546 9.54 17.1796 9.54C17.1046 9.54 17.0296 9.51141 16.9724 9.45418C16.858 9.33977 16.858 9.15426 16.9724 9.03988L17.2922 8.72012L15.0275 8.71676C14.8657 8.71652 14.7347 8.58516 14.735 8.42336C14.7352 8.26172 14.8663 8.13082 15.0279 8.13082H15.0284L17.2901 8.13418L16.9724 7.81648C16.858 7.70207 16.858 7.51656 16.9724 7.40219C17.0868 7.28773 17.2723 7.28773 17.3867 7.40219L18.2056 8.22106C18.2606 8.27598 18.2914 8.35047 18.2914 8.4282ZM17.2099 12.3516C17.2517 12.5079 17.159 12.6685 17.0027 12.7104L15.8841 13.0102C15.8587 13.017 15.8332 13.0202 15.8081 13.0202C15.6787 13.0202 15.5603 12.9339 15.5253 12.803C15.4834 12.6467 15.5761 12.4861 15.7324 12.4441L16.1692 12.3271L14.2097 11.1919C14.0697 11.1107 14.0219 10.9315 14.103 10.7915C14.1842 10.6515 14.3635 10.6038 14.5034 10.6848L16.4604 11.8186L16.3441 11.3846C16.3022 11.2283 16.395 11.0677 16.5513 11.0258C16.7075 10.9839 16.8682 11.0766 16.9101 11.233L17.2099 12.3516Z" fill="#ADADAD"/>
</svg>
