<svg width="20" height="21" viewBox="0 0 20 21" fill="none" xmlns="http://www.w3.org/2000/svg">
<path d="M6.10579 8.9707H5.14199C5.02096 8.9707 4.90488 9.02236 4.8194 9.11426C4.73392 9.20615 4.68613 9.33076 4.68653 9.46055L4.69324 13.1697C4.69324 13.4394 4.89716 13.658 5.1487 13.658C5.40024 13.658 5.60417 13.4394 5.60417 13.1697V12.0435C5.79039 12.0425 5.98934 12.0416 6.10579 12.0416C6.90607 12.0416 7.55717 11.3528 7.55717 10.5062C7.55717 9.65951 6.90607 8.9707 6.10579 8.9707ZM6.10579 11.065C5.98831 11.065 5.78863 11.0659 5.60168 11.067C5.60071 10.8591 5.59986 10.6352 5.59986 10.5062C5.59986 10.3957 5.59934 10.1646 5.59879 9.94727H6.10576C6.39871 9.94727 6.64621 10.2032 6.64621 10.5062C6.64621 10.8091 6.39874 11.065 6.10579 11.065Z" fill="#333333"/>
<path d="M9.98002 8.9707H9.02871C8.90777 8.9707 8.79178 9.02227 8.70633 9.11403C8.62088 9.20579 8.573 9.33024 8.57324 9.4599C8.57324 9.45993 8.58001 13.0486 8.58004 13.0617C8.5805 13.1912 8.6289 13.3152 8.71465 13.4064C8.8 13.4973 8.91533 13.5482 9.03551 13.5482H9.03724C9.066 13.548 9.74455 13.5453 10.0158 13.5402C11.045 13.5209 11.792 12.5617 11.792 11.2594C11.7919 9.89049 11.0638 8.9707 9.98002 8.9707ZM9.99991 12.5638C9.88195 12.566 9.67899 12.5678 9.48946 12.5691C9.48818 12.145 9.48569 10.388 9.48499 9.94727H9.98002C10.816 9.94727 10.881 10.9516 10.881 11.2595C10.881 11.9005 10.6086 12.5524 9.99991 12.5638Z" fill="#333333"/>
<path d="M14.7934 9.90918C15.0449 9.90918 15.2488 9.69056 15.2488 9.4209C15.2488 9.15124 15.0449 8.93262 14.7934 8.93262H13.4008C13.1492 8.93262 12.9453 9.15124 12.9453 9.4209V13.1044C12.9453 13.3741 13.1492 13.5927 13.4008 13.5927C13.6523 13.5927 13.8562 13.3741 13.8562 13.1044V11.7161H14.6828C14.9343 11.7161 15.1382 11.4975 15.1382 11.2278C15.1382 10.9581 14.9343 10.7395 14.6828 10.7395H13.8562V9.90918H14.7934Z" fill="#333333"/>
<path d="M16.1336 6.88704H15.7996V6.74775C15.7996 6.12008 15.5778 5.52357 15.1749 5.06803L13.2831 2.92868C12.855 2.44463 12.2526 2.16699 11.6304 2.16699H5.5668C4.81337 2.16699 4.2004 2.82412 4.2004 3.63184V6.88704H3.8664C3.11297 6.88704 2.5 7.54417 2.5 8.35189V14.2113C2.5 15.019 3.11297 15.6761 3.8664 15.6761H4.2004V17.3688C4.2004 18.1765 4.81337 18.8337 5.5668 18.8337H14.4332C15.1866 18.8337 15.7996 18.1765 15.7996 17.3688V15.6761H16.1336C16.887 15.6761 17.5 15.019 17.5 14.2113V8.35189C17.5 7.54417 16.887 6.88704 16.1336 6.88704ZM5.11134 3.63184C5.11134 3.3626 5.31566 3.14355 5.5668 3.14355H11.6304C12.0037 3.14355 12.3652 3.31012 12.622 3.60059L14.5139 5.73994C14.7556 6.01325 14.8887 6.37116 14.8887 6.74775V6.88704H5.11134V3.63184ZM14.8887 17.3688C14.8887 17.6381 14.6843 17.8571 14.4332 17.8571H5.5668C5.31566 17.8571 5.11134 17.6381 5.11134 17.3688V15.6761H14.8887V17.3688ZM16.5891 14.2113C16.5891 14.4805 16.3847 14.6995 16.1336 14.6995H3.8664C3.61525 14.6995 3.41093 14.4805 3.41093 14.2113V8.35189C3.41093 8.08265 3.61525 7.86361 3.8664 7.86361H16.1336C16.3847 7.86361 16.5891 8.08265 16.5891 8.35189V14.2113Z" fill="#333333"/>
</svg>
