<svg width="20" height="21" viewBox="0 0 20 21" fill="none" xmlns="http://www.w3.org/2000/svg">
<path d="M5.04442 13.2456C6.69452 15.2106 8.68089 16.7578 10.948 17.8526C11.8112 18.2601 12.9656 18.7436 14.2517 18.8264C14.3315 18.8299 14.4077 18.8334 14.4875 18.8334C15.3506 18.8334 16.044 18.5364 16.609 17.9251C16.6125 17.9216 16.6194 17.9147 16.6229 17.9078C16.8239 17.6661 17.0527 17.4485 17.2919 17.2171C17.4549 17.0617 17.6213 16.8994 17.7807 16.7336C18.5191 15.9669 18.5191 14.993 17.7738 14.2505L15.6904 12.175C15.3368 11.8089 14.9138 11.6155 14.4701 11.6155C14.0264 11.6155 13.6 11.8089 13.236 12.1715L11.995 13.4079C11.8806 13.3423 11.7627 13.2836 11.6518 13.2283C11.5131 13.1592 11.3848 13.0936 11.2704 13.0211C10.1403 12.3062 9.11421 11.3738 8.13316 10.1754C7.63744 9.5503 7.30465 9.02537 7.07238 8.49008C7.39824 8.19653 7.7033 7.88916 7.99797 7.58871C8.10196 7.48165 8.20943 7.37459 8.31689 7.26753C8.69129 6.89455 8.89235 6.46286 8.89235 6.02426C8.89235 5.58567 8.69475 5.15398 8.31689 4.781L7.28385 3.75185C7.16251 3.63098 7.04812 3.51356 6.93025 3.39269C6.70146 3.15785 6.46226 2.9161 6.22653 2.69853C5.86947 2.34972 5.45001 2.16669 5.00628 2.16669C4.56603 2.16669 4.1431 2.34972 3.77217 2.70198L2.47566 3.9936C2.0042 4.46328 1.73727 5.03311 1.68181 5.69273C1.61594 6.51812 1.76847 7.39531 2.16367 8.45554C2.77032 10.096 3.68551 11.619 5.04442 13.2456ZM2.52766 5.76525C2.56926 5.30593 2.74606 4.92259 3.07885 4.59106L4.36843 3.30635C4.56949 3.11295 4.79135 3.0128 5.00628 3.0128C5.21775 3.0128 5.43268 3.11295 5.63027 3.31325C5.86254 3.52737 6.08093 3.75185 6.31666 3.99014C6.43453 4.11102 6.55586 4.23189 6.67719 4.35622L7.71024 5.38536C7.92517 5.59948 8.0361 5.81705 8.0361 6.03117C8.0361 6.24529 7.92517 6.46286 7.71024 6.67698C7.60277 6.78404 7.49531 6.89455 7.38784 7.00161C7.06545 7.32624 6.76385 7.6336 6.43106 7.92715C6.42413 7.93406 6.42066 7.93751 6.41373 7.94442C6.126 8.23106 6.17106 8.50389 6.2404 8.7111C6.24386 8.72146 6.24733 8.72837 6.2508 8.73873C6.51773 9.37763 6.88865 9.98545 7.46758 10.7107C8.50756 11.9885 9.60301 12.9796 10.8094 13.7429C10.9584 13.8396 11.1179 13.9155 11.267 13.9915C11.4056 14.0606 11.5339 14.1262 11.6483 14.1987C11.6622 14.2056 11.6726 14.2126 11.6864 14.2195C11.8008 14.2782 11.9118 14.3058 12.0227 14.3058C12.3 14.3058 12.4803 14.1297 12.5392 14.071L13.8357 12.7793C14.0368 12.579 14.2552 12.472 14.4701 12.472C14.7336 12.472 14.9485 12.6343 15.0837 12.7793L17.1741 14.8584C17.5901 15.2728 17.5866 15.7217 17.1637 16.1603C17.0181 16.3157 16.8655 16.4642 16.7026 16.6197C16.46 16.8545 16.2069 17.0962 15.9781 17.3691C15.5794 17.7973 15.1045 17.9976 14.4909 17.9976C14.432 17.9976 14.3696 17.9942 14.3107 17.9907C13.1736 17.9182 12.1163 17.4761 11.3224 17.0997C9.16621 16.0602 7.27345 14.5855 5.70307 12.7137C4.41003 11.1631 3.53991 9.71953 2.96445 8.17235C2.60739 7.22263 2.47219 6.45941 2.52766 5.76525Z" fill="#001A41"/>
</svg>
