<svg width="24" height="24" viewBox="0 0 24 24" fill="none" xmlns="http://www.w3.org/2000/svg">
<path d="M8.33341 22H15.6667C16.4031 22 17 21.403 17 20.6667V16.311L19.936 15.5077C20.3673 15.3871 20.6658 14.9945 20.6667 14.5467V8.81171L20.8467 8.76136C21.6862 8.52605 22.176 7.65472 21.9407 6.8152C21.9028 6.67988 21.8469 6.55024 21.7747 6.42969L20.6193 4.49638L20.6163 4.49837C20.5741 4.42513 20.5054 4.37087 20.4243 4.34669L12.3604 2.04975C12.1244 1.98342 11.8747 1.98342 11.6387 2.04975L3.57542 4.34673C3.49452 4.37103 3.42597 4.42524 3.38374 4.49841L3.38073 4.49642L2.22574 6.42973C1.77668 7.17707 2.01847 8.14691 2.76581 8.59597C2.88695 8.66874 3.0173 8.72495 3.15339 8.76304L3.33339 8.81339V14.5467C3.33448 14.9954 3.63429 15.3884 4.06671 15.508L7.00002 16.311V20.6667C7.00005 21.403 7.597 22 8.33341 22ZM16.3334 20.6667C16.3334 21.0349 16.0349 21.3333 15.6667 21.3333H8.33341C7.96521 21.3333 7.66673 21.0349 7.66673 20.6667V12.3334C7.66673 11.9652 7.96521 11.6667 8.33341 11.6667H15.6667C16.0349 11.6667 16.3334 11.9652 16.3334 12.3334V20.6667ZM20 14.5467C19.9991 14.6946 19.9008 14.8242 19.7587 14.865L17 15.6197V12.3333C17 11.597 16.4031 11 15.6667 11H12.3334V8.20437L13.2247 9.69038C13.5106 10.166 14.0248 10.4569 14.5797 10.4571C14.723 10.4572 14.8655 10.4376 15.0034 10.3987L20 9.00007V14.5467H20ZM21.2667 7.58004C21.1624 7.84402 20.9402 8.04371 20.6667 8.11937L14.8234 9.75636C14.4279 9.86659 14.0075 9.69925 13.796 9.34737L12.5104 7.20371L20.177 5.05704L21.2017 6.77203C21.3489 7.01562 21.373 7.31433 21.2667 7.57836V7.58004ZM11.8204 2.69174C11.9375 2.65873 12.0616 2.65873 12.1787 2.69174L19.1067 4.66474L12 6.65438L4.89342 4.66474L11.8204 2.69174ZM2.73343 7.5784C2.62745 7.3139 2.65218 7.01492 2.80011 6.77141L3.8221 5.05704L11.4887 7.20371L10.2031 9.34737C9.99184 9.69952 9.57122 9.86698 9.17575 9.75636L3.33343 8.11937C3.05956 8.04328 2.83738 7.84293 2.73343 7.5784ZM4.24276 14.8667C4.09948 14.8262 4.00042 14.6956 4.0001 14.5467V9.00003L8.99676 10.4C9.68133 10.5909 10.4091 10.3014 10.7754 9.69237L11.6668 8.20437V11H8.33341C7.59704 11 7.00009 11.597 7.00009 12.3333V15.6197L4.24276 14.8667Z" fill="#ADADAD"/>
<path d="M10.0978 12.7645L9.33346 13.5288L9.2358 13.4312C9.10338 13.3033 8.89236 13.3069 8.76447 13.4393C8.63971 13.5685 8.63971 13.7733 8.76447 13.9025L9.09779 14.2358C9.22795 14.3659 9.43896 14.3659 9.56912 14.2358L10.5691 13.2358C10.697 13.1034 10.6933 12.8924 10.561 12.7645C10.4317 12.6397 10.2269 12.6397 10.0978 12.7645Z" fill="#ADADAD"/>
<path d="M15.0001 13.3333H11.6668C11.4827 13.3333 11.3335 13.4825 11.3335 13.6666C11.3335 13.8506 11.4828 13.9999 11.6668 13.9999H15.0001C15.1842 13.9999 15.3335 13.8507 15.3335 13.6666C15.3335 13.4825 15.1842 13.3333 15.0001 13.3333Z" fill="#9BA0A5"/>
<path d="M10.0978 14.7642L9.33346 15.5286L9.2358 15.4309C9.10338 15.303 8.89236 15.3067 8.76447 15.4391C8.63971 15.5683 8.63971 15.7731 8.76447 15.9022L9.09779 16.2356C9.22795 16.3657 9.43896 16.3657 9.56912 16.2356L10.5691 15.2356C10.697 15.1031 10.6933 14.8921 10.561 14.7642C10.4317 14.6395 10.2269 14.6395 10.0978 14.7642Z" fill="#9BA0A5"/>
<path d="M15.0001 15.3333H11.6668C11.4827 15.3333 11.3335 15.4825 11.3335 15.6666C11.3335 15.8507 11.4828 15.9999 11.6668 15.9999H15.0001C15.1842 15.9999 15.3335 15.8506 15.3335 15.6666C15.3335 15.4825 15.1842 15.3333 15.0001 15.3333Z" fill="#9BA0A5"/>
<path d="M10.0978 16.7642L9.33346 17.5286L9.2358 17.4309C9.10338 17.303 8.89236 17.3067 8.76447 17.4391C8.63971 17.5683 8.63971 17.7731 8.76447 17.9022L9.09779 18.2356C9.22795 18.3657 9.43896 18.3657 9.56912 18.2356L10.5691 17.2356C10.697 17.1031 10.6933 16.8921 10.561 16.7642C10.4317 16.6395 10.2269 16.6395 10.0978 16.7642Z" fill="#9BA0A5"/>
<path d="M15.0001 17.3333H11.6668C11.4827 17.3333 11.3335 17.4825 11.3335 17.6666C11.3335 17.8507 11.4828 17.9999 11.6668 17.9999H15.0001C15.1842 17.9999 15.3335 17.8507 15.3335 17.6666C15.3335 17.4825 15.1842 17.3333 15.0001 17.3333Z" fill="#9BA0A5"/>
<path d="M10.0978 18.7642L9.33346 19.5286L9.2358 19.4309C9.10338 19.303 8.89236 19.3067 8.76447 19.4391C8.63971 19.5683 8.63971 19.7731 8.76447 19.9022L9.09779 20.2356C9.22795 20.3657 9.43896 20.3657 9.56912 20.2356L10.5691 19.2356C10.697 19.1031 10.6933 18.8921 10.561 18.7642C10.4317 18.6395 10.2269 18.6395 10.0978 18.7642Z" fill="#9BA0A5"/>
<path d="M15.0001 19.3333H11.6668C11.4827 19.3333 11.3335 19.4825 11.3335 19.6666C11.3335 19.8506 11.4828 19.9999 11.6668 19.9999H15.0001C15.1842 19.9999 15.3335 19.8507 15.3335 19.6666C15.3335 19.4825 15.1842 19.3333 15.0001 19.3333Z" fill="#9BA0A5"/>
</svg>
