<svg width="24" height="24" viewBox="0 0 24 24" fill="none" xmlns="http://www.w3.org/2000/svg">
<path d="M9.08333 14.4998H14.9167M9.08333 16.9998H12M18.25 3.6665H6.58333C6.36232 3.6665 6.15036 3.7543 5.99408 3.91058C5.8378 4.06686 5.75 4.27882 5.75 4.49984V19.4998C5.75 19.7209 5.8378 19.9328 5.99408 20.0891C6.15036 20.2454 6.36232 20.3332 6.58333 20.3332H18.25C18.471 20.3332 18.683 20.2454 18.8393 20.0891C18.9955 19.9328 19.0833 19.7209 19.0833 19.4998V4.49984C19.0833 4.27882 18.9955 4.06686 18.8393 3.91058C18.683 3.7543 18.471 3.6665 18.25 3.6665Z" stroke="#ADADAD" stroke-width="1.66667" stroke-linecap="round" stroke-linejoin="round"/>
<path d="M9.08325 7H14.9166V11.1667H9.08325V7Z" stroke="#ADADAD" stroke-width="1.66667" stroke-linecap="round" stroke-linejoin="round"/>
</svg>
