<svg width="40" height="40" viewBox="0 0 40 40" fill="none" xmlns="http://www.w3.org/2000/svg">
<g clip-path="url(#clip0_166_15677)">
<path fill-rule="evenodd" clip-rule="evenodd" d="M31.7677 8.22909C28.745 5.20825 24.5965 3.33325 19.9895 3.33325C10.7754 3.33325 3.33325 10.7916 3.33325 19.9999C3.33325 29.2083 10.7754 36.6666 19.9895 36.6666C27.7652 36.6666 34.2484 31.3541 36.1037 24.1666H31.7677C30.0583 29.0208 25.4304 32.4999 19.9895 32.4999C13.0893 32.4999 7.48168 26.8958 7.48168 19.9999C7.48168 13.1041 13.0893 7.49992 19.9895 7.49992C23.45 7.49992 26.5353 8.93742 28.7867 11.2083L22.0741 17.9166H36.6666V3.33325L31.7677 8.22909Z" fill="#001A41"/>
</g>
<defs>
<clipPath id="clip0_166_15677">
<rect width="33.3333" height="33.3333" fill="white" transform="translate(3.33325 3.33325)"/>
</clipPath>
</defs>
</svg>
