<svg width="20" height="20" viewBox="0 0 20 20" fill="none" xmlns="http://www.w3.org/2000/svg">
<path fill-rule="evenodd" clip-rule="evenodd" d="M9.88737 2.30843C9.22758 2.30843 8.74154 2.79447 8.74154 3.45426V5.39176C8.74154 5.79447 8.41508 6.12093 8.01237 6.12093C7.60966 6.12093 7.2832 5.79447 7.2832 5.39176V3.45426C7.2832 1.98906 8.42216 0.850098 9.88737 0.850098H17.6999C18.0531 0.850098 18.4041 0.971014 18.6686 1.23554C18.9331 1.50007 19.054 1.85106 19.054 2.20426V15.1418C19.054 17.2945 17.3526 18.9959 15.1999 18.9959H13.0749C12.6722 18.9959 12.3457 18.6695 12.3457 18.2668C12.3457 17.8641 12.6722 17.5376 13.0749 17.5376H15.1999C16.5472 17.5376 17.5957 16.4891 17.5957 15.1418V2.30843H9.88737Z" fill="#666666"/>
<path fill-rule="evenodd" clip-rule="evenodd" d="M2.4707 6.18343C2.41317 6.18343 2.36654 6.23007 2.36654 6.2876V16.3918C2.36654 17.0516 2.85258 17.5376 3.51237 17.5376H12.1335C11.7938 17.0247 11.5957 16.4138 11.5957 15.7668V6.2876C11.5957 6.23007 11.5491 6.18343 11.4915 6.18343H2.4707ZM0.908203 6.2876C0.908203 5.42465 1.60776 4.7251 2.4707 4.7251H11.4915C12.3545 4.7251 13.054 5.42465 13.054 6.2876V15.7668C13.054 16.6937 13.8145 17.4946 14.7346 17.5384C15.1301 17.5573 15.4382 17.8883 15.4288 18.2841C15.4194 18.6799 15.0958 18.9959 14.6999 18.9959H3.51237C2.04716 18.9959 0.908203 17.857 0.908203 16.3918V6.2876Z" fill="#666666"/>
<path fill-rule="evenodd" clip-rule="evenodd" d="M10.0202 12.431C10.3092 12.7115 10.3161 13.1731 10.0356 13.4621L7.97313 15.5871L7.96549 15.5949C7.18628 16.3741 6.00029 16.3735 5.21973 15.6905C5.20756 15.6799 5.19574 15.6688 5.1843 15.6574L5.0593 15.5324C4.91892 15.392 4.64956 15.3466 4.39599 15.5312L2.47013 17.0844C2.15666 17.3372 1.6976 17.288 1.4448 16.9745C1.192 16.661 1.24119 16.202 1.55466 15.9492L3.49216 14.3867C3.49881 14.3813 3.50556 14.3761 3.51239 14.3709C4.25633 13.813 5.35746 13.7681 6.09049 14.5012L6.195 14.6057C6.41251 14.784 6.71551 14.7795 6.93114 14.5668L8.98916 12.4464C9.26963 12.1574 9.73127 12.1506 10.0202 12.431Z" fill="#666666"/>
<path fill-rule="evenodd" clip-rule="evenodd" d="M3.3457 8.14176C3.3457 7.73906 3.67216 7.4126 4.07487 7.4126V8.14176V8.87093C3.67216 8.87093 3.3457 8.54447 3.3457 8.14176ZM4.07487 8.14176V8.87093H5.07487C5.47758 8.87093 5.80404 8.54447 5.80404 8.14176C5.80404 7.73906 5.47758 7.4126 5.07487 7.4126H4.07487V8.14176Z" fill="#666666"/>
<path fill-rule="evenodd" clip-rule="evenodd" d="M3.3457 10.6418C3.3457 10.2391 3.67216 9.9126 4.07487 9.9126V10.6418V11.3709C3.67216 11.3709 3.3457 11.0445 3.3457 10.6418ZM4.07487 10.6418V11.3709H6.82487C7.22758 11.3709 7.55404 11.0445 7.55404 10.6418C7.55404 10.2391 7.22758 9.9126 6.82487 9.9126H4.07487V10.6418Z" fill="#666666"/>
</svg>
