<svg width="48" height="48" viewBox="0 0 48 48" fill="none" xmlns="http://www.w3.org/2000/svg">
<path d="M26.8571 6C17.3905 6 9.71429 13.6122 9.71429 23H4L11.619 30.5367L19.2381 23H13.5238C13.5238 15.69 19.4857 9.77778 26.8571 9.77778C34.2286 9.77778 40.1905 15.69 40.1905 23C40.1905 30.31 34.2286 36.2222 26.8571 36.2222C23.181 36.2222 19.8476 34.73 17.4476 32.3311L14.7429 35.0133C17.8476 38.0922 22.1143 40 26.8571 40C36.3238 40 44 32.3878 44 23C44 13.6122 36.3238 6 26.8571 6ZM24.9524 15.4444V24.8889L33.0476 29.6489L34.5143 27.2311L27.8095 23.2833V15.4444H24.9524Z" fill="#001A41"/>
</svg>
