<svg width="48" height="48" viewBox="0 0 48 48" fill="none" xmlns="http://www.w3.org/2000/svg">
<g clip-path="url(#clip0_166_15682)">
<path fill-rule="evenodd" clip-rule="evenodd" d="M32.5878 29.1572H30.781L30.1407 28.5397C32.3819 25.9325 33.7313 22.5477 33.7313 18.8656C33.7313 10.6552 27.076 4 18.8656 4C10.6552 4 4 10.6552 4 18.8656C4 27.076 10.6552 33.7313 18.8656 33.7313C22.5477 33.7313 25.9325 32.3819 28.5397 30.1407L29.1572 30.781V32.5878L40.5923 44L44 40.5923L32.5878 29.1572ZM18.865 29.1571C13.1703 29.1571 8.5734 24.5602 8.5734 18.8655C8.5734 13.1708 13.1703 8.57391 18.865 8.57391C24.5597 8.57391 29.1566 13.1708 29.1566 18.8655C29.1566 24.5602 24.5597 29.1571 18.865 29.1571Z" fill="#001A41"/>
</g>
<defs>
<clipPath id="clip0_166_15682">
<rect width="40" height="40" fill="white" transform="translate(4 4)"/>
</clipPath>
</defs>
</svg>
