<svg width="20" height="20" viewBox="0 0 20 20" fill="none" xmlns="http://www.w3.org/2000/svg">
<g clip-path="url(#clip0_16824_102498)">
<path d="M17.4995 9.89318C16.9645 9.45228 16.119 9.41447 15.564 10.0101L14.1863 11.489C14.0082 10.9166 13.4735 10.4997 12.8433 10.4997H10.3847C10.1981 10.4997 10.1356 10.4285 9.81156 10.1788C8.576 9.10168 6.72019 9.10512 5.48838 10.1891L4.58469 10.9847C4.17847 10.7697 3.70413 10.7644 3.29569 10.9684L2.25919 11.4865C2.02763 11.6025 1.93391 11.884 2.0495 12.1156L4.86184 17.7402C4.97778 17.9718 5.25931 18.0655 5.49088 17.9499L6.52738 17.4315C7.03828 17.1762 7.32262 16.655 7.30419 16.1244H12.8432C13.8703 16.1244 14.8518 15.6338 15.4681 14.812L17.7183 11.8116C18.1548 11.23 18.0857 10.3772 17.4995 9.89318ZM6.108 16.5931L5.49084 16.9018L3.09756 12.1156L3.71503 11.8068C3.94659 11.6912 4.22781 11.7847 4.34375 12.0165L6.31769 15.9644C6.43331 16.1959 6.33956 16.4772 6.108 16.5931ZM16.9683 11.2491L14.7181 14.2495C14.2778 14.8367 13.5769 15.1869 12.8433 15.1869H6.97703L5.22056 11.6737L6.10769 10.8928C6.99044 10.1163 8.32162 10.1163 9.20437 10.8928C9.72434 11.3506 10.0478 11.4372 10.3846 11.4372H12.8432C13.1017 11.4372 13.3119 11.6475 13.3119 11.9059C13.3119 12.1643 13.1016 12.3746 12.8432 12.3746H10.4493C10.1906 12.3746 9.98059 12.5846 9.98059 12.8433C9.98059 13.1021 10.1906 13.3121 10.4493 13.3121H13.1573C13.5463 13.3121 13.9213 13.1489 14.1863 12.8643L16.2499 10.6491C16.4387 10.4466 16.728 10.4635 16.9055 10.6188C17.0911 10.7812 17.1111 11.0591 16.9683 11.2491Z" fill="#666666"/>
<path d="M11.856 5.19905C12.1769 4.86252 12.3747 4.40755 12.3747 3.90661C12.3747 2.8748 11.541 2.00049 10.4998 2.00049C9.46644 2.00049 8.59369 2.87324 8.59369 3.90661C8.59369 4.39221 8.784 4.85061 9.12959 5.2028C8.27247 5.68339 7.65625 6.60583 7.65625 7.68764V8.15636C7.65625 8.41508 7.86625 8.62508 8.12497 8.62508H12.8434C13.1022 8.62508 13.3122 8.41508 13.3122 8.15636V7.68764C13.3121 6.62708 12.7288 5.69027 11.856 5.19905ZM10.4998 2.93796C11.0079 2.93796 11.4372 3.38168 11.4372 3.90664C11.4372 4.42349 11.0167 4.84408 10.4998 4.84408C9.97484 4.84408 9.53113 4.41474 9.53113 3.90664C9.53113 3.39074 9.98391 2.93796 10.4998 2.93796ZM8.59369 7.68764C8.59369 6.65427 9.46644 5.78152 10.4998 5.78152C11.5335 5.78152 12.3747 6.63646 12.3747 7.68764H8.59369Z" fill="#666666"/>
</g>
<defs>
<clipPath id="clip0_16824_102498">
<rect width="16" height="16" fill="white" transform="translate(2 2)"/>
</clipPath>
</defs>
</svg>
