<svg width="48" height="48" viewBox="0 0 48 48" fill="none" xmlns="http://www.w3.org/2000/svg">
<path fill-rule="evenodd" clip-rule="evenodd" d="M38.3187 25.96C38.3987 25.32 38.4587 24.68 38.4587 24C38.4587 23.32 38.3987 22.68 38.3187 22.04L42.5387 18.74C42.9187 18.44 43.0187 17.9 42.7787 17.46L38.7787 10.54C38.5987 10.22 38.2587 10.04 37.8987 10.04C37.7787 10.04 37.6587 10.06 37.5587 10.1L32.5787 12.1C31.5387 11.3 30.4187 10.64 29.1987 10.14L28.4387 4.84C28.3787 4.36 27.9587 4 27.4587 4H19.4587C18.9587 4 18.5387 4.36 18.4787 4.84L17.7187 10.14C16.4987 10.64 15.3787 11.32 14.3387 12.1L9.35866 10.1C9.23866 10.06 9.11866 10.04 8.99866 10.04C8.65866 10.04 8.31866 10.22 8.13866 10.54L4.13866 17.46C3.87866 17.9 3.99866 18.44 4.37866 18.74L8.59866 22.04C8.51866 22.68 8.45866 23.34 8.45866 24C8.45866 24.66 8.51866 25.32 8.59866 25.96L4.37866 29.26C3.99866 29.56 3.89866 30.1 4.13866 30.54L8.13866 37.46C8.31866 37.78 8.65866 37.96 9.01866 37.96C9.13866 37.96 9.25866 37.94 9.35866 37.9L14.3387 35.9C15.3787 36.7 16.4987 37.36 17.7187 37.86L18.4787 43.16C18.5387 43.64 18.9587 44 19.4587 44H27.4587C27.9587 44 28.3787 43.64 28.4387 43.16L29.1987 37.86C30.4187 37.36 31.5387 36.68 32.5787 35.9L37.5587 37.9C37.6787 37.94 37.7987 37.96 37.9187 37.96C38.2587 37.96 38.5987 37.78 38.7787 37.46L42.7787 30.54C43.0187 30.1 42.9187 29.56 42.5387 29.26L38.3187 25.96ZM34.3587 22.54C34.4387 23.16 34.4587 23.58 34.4587 24C34.4587 24.42 34.4187 24.86 34.3587 25.46L34.0787 27.72L35.8587 29.12L38.0187 30.8L36.6187 33.22L34.0787 32.2L31.9987 31.36L30.1987 32.72C29.3387 33.36 28.5187 33.84 27.6987 34.18L25.5787 35.04L25.2587 37.3L24.8587 40H22.0587L21.6787 37.3L21.3587 35.04L19.2387 34.18C18.3787 33.82 17.5787 33.36 16.7787 32.76L14.9587 31.36L12.8387 32.22L10.2987 33.24L8.89866 30.82L11.0587 29.14L12.8387 27.74L12.5587 25.48C12.4987 24.86 12.4587 24.4 12.4587 24C12.4587 23.6 12.4987 23.14 12.5587 22.54L12.8387 20.28L11.0587 18.88L8.89866 17.2L10.2987 14.78L12.8387 15.8L14.9187 16.64L16.7187 15.28C17.5787 14.64 18.3987 14.16 19.2187 13.82L21.3387 12.96L21.6587 10.7L22.0587 8H24.8387L25.2187 10.7L25.5387 12.96L27.6587 13.82C28.5187 14.18 29.3187 14.64 30.1187 15.24L31.9387 16.64L34.0587 15.78L36.5987 14.76L37.9987 17.18L35.8587 18.88L34.0787 20.28L34.3587 22.54ZM23.4587 16C19.0387 16 15.4587 19.58 15.4587 24C15.4587 28.42 19.0387 32 23.4587 32C27.8787 32 31.4587 28.42 31.4587 24C31.4587 19.58 27.8787 16 23.4587 16ZM23.4587 28C21.2587 28 19.4587 26.2 19.4587 24C19.4587 21.8 21.2587 20 23.4587 20C25.6587 20 27.4587 21.8 27.4587 24C27.4587 26.2 25.6587 28 23.4587 28Z" fill="#001A41"/>
</svg>
