<svg width="48" height="48" viewBox="0 0 48 48" fill="none" xmlns="http://www.w3.org/2000/svg">
<path fill-rule="evenodd" clip-rule="evenodd" d="M36.1205 32.2731C34.5944 32.2731 33.2289 32.8755 32.1847 33.8193L17.8675 25.4859C17.9679 25.0241 18.0482 24.5622 18.0482 24.0803C18.0482 23.5984 17.9679 23.1365 17.8675 22.6747L32.0241 14.4217C33.1084 15.4257 34.5341 16.0482 36.1205 16.0482C39.4538 16.0482 42.1446 13.3574 42.1446 10.0241C42.1446 6.69076 39.4538 4 36.1205 4C32.7871 4 30.0964 6.69076 30.0964 10.0241C30.0964 10.506 30.1767 10.9679 30.2771 11.4297L16.1205 19.6827C15.0361 18.6787 13.6104 18.0562 12.0241 18.0562C8.69076 18.0562 6 20.747 6 24.0803C6 27.4137 8.69076 30.1044 12.0241 30.1044C13.6104 30.1044 15.0361 29.4819 16.1205 28.4779L30.4177 36.8313C30.3173 37.253 30.257 37.6948 30.257 38.1365C30.257 41.3695 32.8876 44 36.1205 44C39.3534 44 41.9839 41.3695 41.9839 38.1365C41.9839 34.9036 39.3534 32.2731 36.1205 32.2731ZM36.1205 8.01606C37.2249 8.01606 38.1285 8.91968 38.1285 10.0241C38.1285 11.1285 37.2249 12.0321 36.1205 12.0321C35.0161 12.0321 34.1124 11.1285 34.1124 10.0241C34.1124 8.91968 35.0161 8.01606 36.1205 8.01606ZM12.0241 26.0884C10.9197 26.0884 10.0161 25.1847 10.0161 24.0803C10.0161 22.9759 10.9197 22.0723 12.0241 22.0723C13.1285 22.0723 14.0321 22.9759 14.0321 24.0803C14.0321 25.1847 13.1285 26.0884 12.0241 26.0884ZM36.1205 40.1848C35.0161 40.1848 34.1124 39.2812 34.1124 38.1767C34.1124 37.0723 35.0161 36.1687 36.1205 36.1687C37.2249 36.1687 38.1285 37.0723 38.1285 38.1767C38.1285 39.2812 37.2249 40.1848 36.1205 40.1848Z" fill="#001A41"/>
</svg>
