<svg width="20" height="20" viewBox="0 0 20 20" fill="none" xmlns="http://www.w3.org/2000/svg">
<g clip-path="url(#clip0_10490_26170)">
<path fill-rule="evenodd" clip-rule="evenodd" d="M13.7872 10.8366C14.412 10.8366 14.9617 10.4951 15.245 9.97863L18.2271 4.57244C18.5353 4.02265 18.1355 3.33959 17.5024 3.33959H5.17394L4.39091 1.67358H1.66699V3.33959H3.333L6.33181 9.66209L5.20726 11.6946C4.59917 12.8108 5.39885 14.1686 6.66501 14.1686H16.6611V12.5026H6.66501L7.58132 10.8366H13.7872ZM5.96551 5.00558H16.0865L13.7874 9.1706H7.93973L5.96551 5.00558ZM6.66458 15.0013C5.74828 15.0013 5.00691 15.751 5.00691 16.6673C5.00691 17.5837 5.74828 18.3334 6.66458 18.3334C7.58089 18.3334 8.33059 17.5837 8.33059 16.6673C8.33059 15.751 7.58089 15.0013 6.66458 15.0013ZM14.9945 15.0013C14.0782 15.0013 13.3368 15.751 13.3368 16.6673C13.3368 17.5837 14.0782 18.3334 14.9945 18.3334C15.9108 18.3334 16.6605 17.5837 16.6605 16.6673C16.6605 15.751 15.9108 15.0013 14.9945 15.0013Z" fill="white"/>
</g>
<defs>
<clipPath id="clip0_10490_26170">
<rect width="16.6667" height="16.6667" fill="white" transform="translate(1.66699 1.66666)"/>
</clipPath>
</defs>
</svg>
