<svg width="24" height="24" viewBox="0 0 24 24" fill="none" xmlns="http://www.w3.org/2000/svg">
<path d="M21.7502 15.75H5.98709C6.23646 15.2587 6.48677 14.7534 6.73708 14.2397C8.13677 14.3944 9.79521 13.4147 11.6815 11.3128C11.7377 11.4684 11.8005 11.6287 11.869 11.7909C12.4793 13.2206 13.2668 14.0353 14.2127 14.2144C15.1821 14.4019 16.1421 13.9116 17.1265 12.7313C17.7658 13.4878 19.0783 14.25 21.7502 14.25C21.9491 14.25 22.1399 14.171 22.2805 14.0303C22.4212 13.8897 22.5002 13.6989 22.5002 13.5C22.5002 13.3011 22.4212 13.1103 22.2805 12.9697C22.1399 12.829 21.9491 12.75 21.7502 12.75C18.8786 12.75 18.0424 11.7572 18.0002 11.2294C17.9956 11.0549 17.9304 10.8875 17.8156 10.756C17.7009 10.6245 17.5439 10.5371 17.3717 10.5089C17.1994 10.4807 17.0228 10.5134 16.8721 10.6014C16.7214 10.6895 16.6061 10.8274 16.5461 10.9913C15.4052 12.7022 14.7293 12.7856 14.4836 12.7406C13.7027 12.5934 12.9761 10.7784 12.7315 9.59906C12.6994 9.45011 12.6228 9.31445 12.5118 9.21012C12.4008 9.1058 12.2606 9.03775 12.11 9.01506C11.9593 8.99236 11.8053 9.01607 11.6685 9.08305C11.5316 9.15003 11.4184 9.2571 11.344 9.39C9.48771 11.6981 8.24271 12.4838 7.46177 12.6844C8.25771 10.9144 8.85209 9.36094 9.23271 8.05313C9.87209 5.85563 9.91896 4.31906 9.37427 3.35625C9.09302 2.85375 8.50333 2.25469 7.32021 2.25H7.29677C5.79677 2.26031 4.61552 3.68437 4.05115 6.15937C3.71459 7.63219 3.65927 9.27094 3.89834 10.6594C4.1374 12.0478 4.63521 13.0509 5.35615 13.6491C5.0074 14.3737 4.65021 15.0816 4.30334 15.7519H2.25021C2.0513 15.7519 1.86053 15.8309 1.71988 15.9715C1.57923 16.1122 1.50021 16.303 1.50021 16.5019C1.50021 16.7008 1.57923 16.8916 1.71988 17.0322C1.86053 17.1729 2.0513 17.2519 2.25021 17.2519H3.5074C2.44615 19.2206 1.62115 20.5931 1.60802 20.6156C1.55455 20.7001 1.5185 20.7944 1.502 20.893C1.48549 20.9915 1.48886 21.0924 1.5119 21.1897C1.53494 21.287 1.57719 21.3786 1.63617 21.4594C1.69515 21.5401 1.76967 21.6082 1.85534 21.6596C1.94102 21.7111 2.03612 21.745 2.13507 21.7592C2.23401 21.7734 2.3348 21.7677 2.4315 21.7424C2.52821 21.7171 2.61888 21.6727 2.69819 21.6119C2.7775 21.5511 2.84385 21.475 2.89334 21.3881C2.9074 21.3638 3.9499 19.6266 5.20896 17.2519H21.7502C21.9491 17.2519 22.1399 17.1729 22.2805 17.0322C22.4212 16.8916 22.5002 16.7008 22.5002 16.5019C22.5002 16.303 22.4212 16.1122 22.2805 15.9715C22.1399 15.8309 21.9491 15.7519 21.7502 15.7519V15.75ZM18.0002 11.25V11.2303C18.0008 11.2369 18.0008 11.2435 18.0002 11.25ZM5.51177 6.49312C5.88584 4.85438 6.60771 3.75 7.31271 3.75C7.8049 3.75 7.96896 3.92437 8.06271 4.09406C8.34396 4.59375 8.67396 6.36187 6.03302 12.1912C5.26521 11.1328 5.00365 8.71875 5.51177 6.49312Z" fill="#9BA0A5"/>
</svg>
