<svg width="18" height="12" viewBox="0 0 18 12" fill="none" xmlns="http://www.w3.org/2000/svg">
<path d="M1.59292 11.8327H5.29662C5.80588 11.8327 6.22255 11.3952 6.22255 10.8605C6.22255 10.3257 5.80588 9.88824 5.29662 9.88824H1.59292C1.08366 9.88824 0.666992 10.3257 0.666992 10.8605C0.666992 11.3952 1.08366 11.8327 1.59292 11.8327ZM0.666992 1.13824C0.666992 1.67296 1.08366 2.11046 1.59292 2.11046H16.4077C16.917 2.11046 17.3337 1.67296 17.3337 1.13824C17.3337 0.603516 16.917 0.166016 16.4077 0.166016H1.59292C1.08366 0.166016 0.666992 0.603516 0.666992 1.13824ZM1.59292 6.97157H10.8522C11.3614 6.97157 11.7781 6.53407 11.7781 5.99935C11.7781 5.46463 11.3614 5.02713 10.8522 5.02713H1.59292C1.08366 5.02713 0.666992 5.46463 0.666992 5.99935C0.666992 6.53407 1.08366 6.97157 1.59292 6.97157Z" fill="#001A41"/>
</svg>
