<svg width="24" height="24" viewBox="0 0 24 24" fill="none" xmlns="http://www.w3.org/2000/svg">
<path d="M7.19199 4.0033V4.0034H16.6285H16.7285C16.7285 4.00338 16.7285 4.00335 16.7285 4.00332C16.7284 3.81909 16.5792 3.66953 16.3947 3.66953L7.52585 3.66954C7.3414 3.66954 7.19218 3.81911 7.19199 4.0033Z" fill="#999999" stroke="#999999" stroke-width="0.2"/>
<path d="M7.19199 6.73377V6.73387H16.6285H16.7285C16.7285 6.73385 16.7285 6.73382 16.7285 6.73379C16.7284 6.54957 16.5792 6.4 16.3947 6.4L7.52585 6.40001C7.34139 6.40001 7.19218 6.54961 7.19199 6.73377Z" fill="#999999" stroke="#999999" stroke-width="0.2"/>
<path d="M16.3947 9.70209H7.52598C7.39681 9.70209 7.29199 9.59737 7.29199 9.46826L7.52585 9.1344C7.34151 9.1344 7.19218 9.28346 7.19199 9.46816V9.46826C7.19199 9.65267 7.34165 9.80209 7.52598 9.80209H16.3947L16.3947 9.70209ZM16.3947 9.70209V9.80209L7.52585 9.1344L16.3947 9.13437C16.5791 9.13437 16.7284 9.28345 16.7285 9.46818C16.7285 9.46821 16.7285 9.46823 16.7285 9.46826H16.6285C16.6286 9.59737 16.5237 9.70212 16.3947 9.70209Z" fill="#999999" stroke="#999999" stroke-width="0.2"/>
<path d="M6.01186 11.2891H6.01188C6.19621 11.2891 6.34583 11.1396 6.34583 10.9552V2.96772C6.34583 2.7468 6.52492 2.56772 6.74583 2.56772H17.1749C17.3958 2.56772 17.5749 2.74681 17.5749 2.96772L17.5748 11.2378C17.5748 11.4222 17.7245 11.5717 17.9088 11.5717C18.093 11.5717 18.2427 11.4222 18.2427 11.2378L18.2425 2.23386C18.2425 2.04959 18.0931 1.9 17.9088 1.9H6.01188C5.82753 1.9 5.67812 2.04957 5.67812 2.23386L5.67808 10.9553C5.67808 11.1396 5.8278 11.2891 6.01186 11.2891Z" fill="#999999" stroke="#999999" stroke-width="0.2"/>
<path d="M5.68688 10.8795L5.68688 10.8795L17.9088 11.7557C18.0146 11.7558 18.1108 11.6831 18.136 11.5759L18.2333 11.5991C18.2333 11.599 18.2333 11.5989 18.2334 11.5988C18.276 11.4192 18.1653 11.2397 17.9859 11.1968L17.9858 11.1968L15.6066 10.6317L15.6066 10.6317L15.6056 10.6315C15.5553 10.62 15.5033 10.62 15.453 10.6315L15.4521 10.6317L13.2424 11.1568C13.1816 11.1712 13.1183 11.1712 13.0575 11.1568L10.8478 10.6317L10.8478 10.6317L10.8468 10.6315C10.7966 10.62 10.7446 10.62 10.6944 10.6315L10.6944 10.6315L10.6936 10.6317L8.48358 11.1568C8.42277 11.1712 8.35943 11.1712 8.29863 11.1568L6.08902 10.6317L6.0889 10.6317C5.90978 10.5893 5.72982 10.7 5.68688 10.8795ZM17.8312 11.8465C17.8575 11.8529 17.8833 11.8557 17.9088 11.8557L13.204 11.7492L13.2271 11.8465L13.2273 11.8465C13.2273 11.8465 13.2273 11.8465 13.2274 11.8465L15.4367 11.3218C15.4974 11.3074 15.5607 11.3074 15.6215 11.3218L17.8309 11.8464C17.831 11.8464 17.8311 11.8464 17.8312 11.8465ZM5.93513 11.2814L8.31384 11.8465L5.95805 11.1841L5.93494 11.2814L5.93504 11.2814C5.93507 11.2814 5.9351 11.2814 5.93513 11.2814Z" fill="#999999" stroke="#999999" stroke-width="0.2"/>
<path d="M10.6561 18.2144V18.2143C10.6562 18.0301 10.8055 17.8806 10.99 17.8806L10.6561 18.2144ZM10.6561 18.2144C10.6561 18.9335 11.2415 19.5182 11.9604 19.5182M10.6561 18.2144L11.9604 19.5182M12.5964 16.2741V16.2741C12.5965 15.9233 12.3111 15.638 11.9603 15.638H11.9603C11.6096 15.638 11.3238 15.9234 11.3238 16.2741L12.5964 16.2741ZM12.5964 16.2741C12.5964 16.4585 12.746 16.608 12.9303 16.608C13.1145 16.608 13.2642 16.4585 13.2641 16.274M12.5964 16.2741L13.2641 16.274M12.0375 16.9194L12.0375 16.9194L12.0461 16.9215C12.2839 16.9781 12.5879 17.0506 12.831 17.2323C13.0854 17.4224 13.2641 17.7238 13.2641 18.2144L12.0375 16.9194ZM12.0375 16.9194C11.7723 16.8562 11.5982 16.8068 11.486 16.7189M12.0375 16.9194L11.486 16.7189M11.9604 19.5182C12.6793 19.5182 13.2642 18.9335 13.2641 18.2144L11.9604 19.5182ZM13.2641 16.274C13.2641 15.555 12.6794 14.9703 11.9603 14.9703L13.2641 16.274ZM11.486 16.7189C11.3857 16.6404 11.3239 16.5205 11.3238 16.2741L11.486 16.7189ZM13.1641 18.2144C13.1642 18.8782 12.6241 19.4182 11.9604 19.4182C11.2967 19.4182 10.7561 18.8782 10.7561 18.2144C10.7562 18.0853 10.8608 17.9806 10.99 17.9806L13.1641 18.2144ZM11.9603 18.8505C11.6095 18.8505 11.3239 18.5651 11.3238 18.2144L11.9603 14.9703C11.2413 14.9703 10.6562 15.555 10.6561 16.2741V16.2741C10.6561 16.7645 10.8349 17.066 11.0893 17.256C11.3326 17.4379 11.6367 17.5104 11.8745 17.5671L11.8827 17.5691L11.8828 17.5691C12.1481 17.6321 12.3222 17.6815 12.4344 17.7694C12.5346 17.848 12.5964 17.968 12.5964 18.2144V18.2144C12.5964 18.5652 12.3111 18.8505 11.9603 18.8505ZM11.3238 18.2144C11.3238 18.0302 11.175 17.8805 10.99 17.8806L11.3238 18.2144Z" fill="#999999" stroke="#999999" stroke-width="0.2"/>
<path d="M11.6263 15.3029V15.3029L11.6264 14.9448C11.6264 14.9448 11.6264 14.9448 11.6264 14.9448C11.6264 14.7605 11.7758 14.6109 11.9602 14.6109L11.6263 15.3029ZM11.6263 15.3029C11.6263 15.4873 11.7759 15.6367 11.9603 15.6367L11.6263 15.3029ZM12.2941 15.3029V15.3029C12.2941 15.4872 12.1445 15.6368 11.9603 15.6367L12.2941 15.3029ZM12.2941 15.3029L12.294 14.9448C12.294 14.9448 12.294 14.9448 12.294 14.9448M12.2941 15.3029L12.294 14.9448M12.294 14.9448C12.294 14.7605 12.1447 14.6109 11.9602 14.6109L12.294 14.9448Z" fill="#999999" stroke="#999999" stroke-width="0.2"/>
<path d="M11.6263 19.5412V19.5411L11.6264 19.1831C11.6264 19.1831 11.6264 19.183 11.6264 19.183C11.6264 18.9988 11.7758 18.8492 11.9602 18.8492L11.6263 19.5412ZM11.6263 19.5412C11.6263 19.7255 11.7759 19.875 11.9603 19.875C12.1445 19.875 12.2941 19.7255 12.2941 19.5412V19.5411M11.6263 19.5412L12.2941 19.5411M12.2941 19.5411L12.294 19.1831C12.294 19.1831 12.294 19.1831 12.294 19.1831M12.2941 19.5411L12.294 19.1831M12.294 19.1831C12.294 18.9988 12.1447 18.8492 11.9602 18.8492L12.294 19.1831Z" fill="#999999" stroke="#999999" stroke-width="0.2"/>
<path d="M8.40879 17.2444V17.2444C8.40879 19.203 10.0017 20.7958 11.9603 20.7958C13.9184 20.7959 15.5118 19.203 15.5117 17.2444C15.5117 15.2862 13.9184 13.693 11.9602 13.693C10.0016 13.693 8.40891 15.2862 8.40879 17.2444ZM11.9602 20.1281C10.3703 20.1281 9.07662 18.8347 9.07651 17.2444V17.2444C9.07651 15.6545 10.3705 14.3607 11.9603 14.3607C13.5502 14.3607 14.844 15.6545 14.844 17.2444C14.844 18.8347 13.5502 20.1281 11.9602 20.1281Z" fill="#999999" stroke="#999999" stroke-width="0.2"/>
<path d="M17.9088 22.0795H6.01197C5.82781 22.0795 5.67808 21.93 5.67808 21.7456L5.67812 12.7417C5.67812 12.5574 5.82753 12.4078 6.01187 12.4078L17.9088 22.0795ZM17.9088 22.0795C18.093 22.0795 18.2427 21.93 18.2427 21.7456L18.2425 13.0242C18.2425 12.8399 18.093 12.6904 17.9087 12.6904C17.7242 12.6904 17.5749 12.84 17.5749 13.0242V21.0118C17.5749 21.2327 17.3959 21.4118 17.1749 21.4118H6.74583C6.52492 21.4118 6.34583 21.2327 6.34583 21.0118L6.34579 12.7417C6.34579 12.5574 6.19637 12.4078 6.01188 12.4078L17.9088 22.0795Z" fill="#999999" stroke="#999999" stroke-width="0.2"/>
<path d="M17.8315 13.3505L17.8315 13.3505L15.6216 12.8254C15.5608 12.811 15.4974 12.811 15.4366 12.8254L13.2271 13.3505L13.2263 13.3507C13.1762 13.3622 13.1236 13.3622 13.0734 13.3507L13.0727 13.3505L10.8633 12.8254C10.8025 12.811 10.7391 12.811 10.6783 12.8254L8.46828 13.3505L8.46758 13.3507L8.46758 13.3507C8.4175 13.3622 8.36513 13.3622 8.31489 13.3507L8.31397 13.3505L8.31397 13.3505L5.93494 12.7854L5.93484 12.7853C5.75542 12.7425 5.64451 12.563 5.6868 12.3834L5.6869 12.383L5.6869 12.383C5.72988 12.2039 5.90939 12.0934 6.08882 12.1356L6.089 12.1357L8.29868 12.6604C8.35945 12.6748 8.42275 12.6748 8.48352 12.6604L10.6932 12.1357C10.6932 12.1357 10.6932 12.1357 10.6932 12.1357L17.8315 13.3505ZM17.8315 13.3505L17.8329 13.3509C17.858 13.3564 17.8833 13.3593 17.9088 13.3593C18.0596 13.3593 18.1971 13.2566 18.2333 13.1026L17.8315 13.3505ZM10.8479 12.1357C10.8479 12.1357 10.8479 12.1357 10.8479 12.1357L15.4752 12.2329L15.4521 12.1357L15.4519 12.1357L13.2424 12.6604C13.1816 12.6748 13.1183 12.6748 13.0575 12.6604L10.8479 12.1357ZM15.6067 12.1357C15.6067 12.1357 15.6067 12.1357 15.6067 12.1357L17.9627 12.7981L17.9858 12.7008L17.9858 12.7008C17.9857 12.7008 17.9856 12.7008 17.9856 12.7008L15.6067 12.1357Z" fill="#999999" stroke="#999999" stroke-width="0.2"/>
</svg>

