<svg width="32" height="32" viewBox="0 0 32 32" fill="none" xmlns="http://www.w3.org/2000/svg">
<rect x="0.5" y="0.5" width="31" height="31" rx="15.5" stroke="#001A41" stroke-dasharray="4 4"/>
<path d="M11.3042 19.964H14.7202V21H10.0302V11.242H11.3042V19.964ZM15.7092 19.978C16.8945 19.026 17.8232 18.2467 18.4952 17.64C19.1672 17.024 19.7319 16.3847 20.1892 15.722C20.6559 15.05 20.8892 14.392 20.8892 13.748C20.8892 13.1413 20.7399 12.6653 20.4412 12.32C20.1519 11.9653 19.6805 11.788 19.0272 11.788C18.3925 11.788 17.8979 11.9887 17.5432 12.39C17.1979 12.782 17.0112 13.3093 16.9832 13.972H15.7512C15.7885 12.9267 16.1059 12.1193 16.7032 11.55C17.3005 10.9807 18.0705 10.696 19.0132 10.696C19.9745 10.696 20.7352 10.962 21.2952 11.494C21.8645 12.026 22.1492 12.7587 22.1492 13.692C22.1492 14.4667 21.9159 15.2227 21.4492 15.96C20.9919 16.688 20.4692 17.332 19.8812 17.892C19.2932 18.4427 18.5419 19.0867 17.6272 19.824H22.4432V20.888H15.7092V19.978Z" fill="#0055B6"/>
</svg>
