<svg width="48" height="48" viewBox="0 0 48 48" fill="none" xmlns="http://www.w3.org/2000/svg">
<path d="M24 9.45455V4L17 11.2727L24 18.5455V13.0909C29.7925 13.0909 34.5 17.9818 34.5 24C34.5 25.8364 34.0625 27.5818 33.275 29.0909L35.83 31.7455C37.195 29.5091 38 26.8545 38 24C38 15.9636 31.735 9.45455 24 9.45455ZM24 34.9091C18.2075 34.9091 13.5 30.0182 13.5 24C13.5 22.1636 13.9375 20.4182 14.725 18.9091L12.17 16.2545C10.805 18.4909 10 21.1455 10 24C10 32.0364 16.265 38.5455 24 38.5455V44L31 36.7273L24 29.4545V34.9091Z" fill="#001A41"/>
</svg>
