<svg width="20" height="20" viewBox="0 0 20 20" fill="none" xmlns="http://www.w3.org/2000/svg">
<g clip-path="url(#clip0_2585_620)">
<path d="M16.5658 0.909058H3.43437C2.04027 0.910306 0.910428 2.04015 0.90918 3.43425V16.5657C0.910428 17.9598 2.04027 19.0896 3.43437 19.0909H16.5658C17.9599 19.0896 19.0897 17.9598 19.091 16.5657V3.43425C19.0897 2.04015 17.9599 0.910306 16.5658 0.909058ZM7.60113 13.7879V10.2524H12.399V13.7879H7.60113ZM12.399 14.7979V18.0807H7.60113V14.7979H12.399ZM12.399 5.95958V9.24244H7.60113V5.95958H12.399ZM18.0809 5.95958V9.24244H13.4092V5.95958H18.0809ZM6.591 9.24244H1.91931V5.95958H6.591V9.24244ZM1.91931 10.2524H6.591V13.7879H1.91931V10.2524ZM13.4092 10.2524H18.0809V13.7879H13.4092V10.2524ZM3.43437 1.91919H16.5658C17.4021 1.92002 18.08 2.59793 18.0809 3.43425V4.94945H1.91931V3.43425C1.92014 2.59793 2.59805 1.92002 3.43437 1.91919ZM1.91931 16.5657V14.7979H6.591V18.0807H3.43437C2.59805 18.0799 1.92014 17.402 1.91931 16.5657ZM16.5658 18.0807H13.4092V14.7979H18.0809V16.5657C18.08 17.402 17.4021 18.0799 16.5658 18.0807Z" fill="#9BA0A5"/>
</g>
<defs>
<clipPath id="clip0_2585_620">
<rect width="20" height="20" fill="white"/>
</clipPath>
</defs>
</svg>
