<svg width="16" height="17" viewBox="0 0 16 17" fill="none" xmlns="http://www.w3.org/2000/svg">
<path d="M4.23359 10.5865C5.48767 12.0799 6.99731 13.2557 8.72035 14.0878C9.37637 14.3975 10.2537 14.7649 11.2311 14.8279C11.2917 14.8305 11.3497 14.8332 11.4103 14.8332C12.0663 14.8332 12.5932 14.6074 13.0227 14.1429C13.0253 14.1403 13.0306 14.135 13.0332 14.1298C13.186 13.946 13.3599 13.7807 13.5417 13.6048C13.6655 13.4867 13.792 13.3634 13.9132 13.2374C14.4744 12.6547 14.4744 11.9145 13.9079 11.3502L12.3245 9.7728C12.0558 9.49459 11.7344 9.34761 11.3971 9.34761C11.0599 9.34761 10.7358 9.49459 10.4592 9.77018L9.51601 10.7098C9.42906 10.6599 9.33949 10.6153 9.25518 10.5733C9.14979 10.5208 9.05231 10.471 8.96537 10.4158C8.10648 9.87254 7.32664 9.16388 6.58104 8.25312C6.20429 7.77805 5.95136 7.3791 5.77484 6.97228C6.0225 6.74918 6.25435 6.51558 6.47829 6.28724C6.55733 6.20587 6.639 6.12451 6.72067 6.04314C7.00521 5.75968 7.15802 5.4316 7.15802 5.09826C7.15802 4.76493 7.00785 4.43684 6.72067 4.15338L5.93556 3.37123C5.84334 3.27936 5.7564 3.19013 5.66682 3.09826C5.49294 2.91978 5.31115 2.73606 5.132 2.5707C4.86063 2.30561 4.54184 2.1665 4.20461 2.1665C3.87001 2.1665 3.54859 2.30561 3.26668 2.57333L2.28134 3.55496C1.92303 3.91191 1.72016 4.34498 1.67801 4.84629C1.62795 5.47359 1.74387 6.14026 2.04422 6.94603C2.50528 8.19275 3.20082 9.35023 4.23359 10.5865ZM2.32086 4.90141C2.35247 4.55233 2.48684 4.26099 2.73976 4.00902L3.71984 3.03265C3.87265 2.88566 4.04126 2.80955 4.20461 2.80955C4.36532 2.80955 4.52867 2.88566 4.67884 3.03789C4.85536 3.20062 5.02134 3.37123 5.2005 3.55233C5.29007 3.64419 5.38229 3.73606 5.4745 3.83055L6.25961 4.6127C6.42296 4.77543 6.50727 4.94078 6.50727 5.10351C6.50727 5.26624 6.42296 5.4316 6.25961 5.59433C6.17794 5.67569 6.09627 5.75968 6.01459 5.84104C5.76958 6.08776 5.54036 6.32136 5.28744 6.54446C5.28217 6.54971 5.27954 6.55233 5.27427 6.55758C5.05559 6.77543 5.08984 6.98278 5.14254 7.14026C5.14517 7.14813 5.1478 7.15338 5.15044 7.16125C5.35331 7.64682 5.63521 8.10876 6.07519 8.65994C6.86558 9.63107 7.69812 10.3844 8.61497 10.9644C8.72825 11.0379 8.84945 11.0956 8.96274 11.1534C9.06812 11.2059 9.1656 11.2557 9.25254 11.3109C9.26308 11.3161 9.27099 11.3214 9.28152 11.3266C9.36847 11.3712 9.45278 11.3922 9.53708 11.3922C9.74785 11.3922 9.88485 11.2584 9.92964 11.2137L10.915 10.2321C11.0678 10.0799 11.2338 9.99852 11.3971 9.99852C11.5974 9.99852 11.7607 10.1219 11.8635 10.2321L13.4521 11.8122C13.7683 12.1271 13.7656 12.4683 13.4442 12.8017C13.3336 12.9198 13.2176 13.0326 13.0938 13.1508C12.9094 13.3292 12.7171 13.513 12.5432 13.7203C12.2402 14.0458 11.8793 14.198 11.4129 14.198C11.3681 14.198 11.3207 14.1954 11.2759 14.1927C10.4118 14.1376 9.60822 13.8017 9.00489 13.5156C7.36616 12.7256 5.92765 11.6048 4.73417 10.1823C3.75146 9.00377 3.09017 7.90666 2.65282 6.73081C2.38145 6.00902 2.2787 5.42897 2.32086 4.90141Z" fill="#001A41" stroke="#001A41" stroke-width="1.25"/>
</svg>
