<svg width="48" height="48" viewBox="0 0 48 48" fill="none" xmlns="http://www.w3.org/2000/svg">
<path fill-rule="evenodd" clip-rule="evenodd" d="M34.6672 17.3333H32.7624V13.5238C32.7624 8.26667 28.4957 4 23.2386 4C17.9814 4 13.7148 8.26667 13.7148 13.5238H17.5243C17.5243 10.3619 20.0767 7.80952 23.2386 7.80952C26.4005 7.80952 28.9529 10.3619 28.9529 13.5238V17.3333H11.81C9.71477 17.3333 8.00049 19.0476 8.00049 21.1429V40.1905C8.00049 42.2857 9.71477 44 11.81 44H34.6672C36.7624 44 38.4767 42.2857 38.4767 40.1905V21.1429C38.4767 19.0476 36.7624 17.3333 34.6672 17.3333ZM34.6672 40.1905H11.81V21.1429H34.6672V40.1905ZM23.2386 34.4762C25.3338 34.4762 27.0481 32.7619 27.0481 30.6667C27.0481 28.5714 25.3338 26.8571 23.2386 26.8571C21.1433 26.8571 19.4291 28.5714 19.4291 30.6667C19.4291 32.7619 21.1433 34.4762 23.2386 34.4762Z" fill="#001A41"/>
</svg>
