<svg width="40" height="40" viewBox="0 0 40 40" fill="none" xmlns="http://www.w3.org/2000/svg">
<g clip-path="url(#clip0_166_21274)">
<path fill-rule="evenodd" clip-rule="evenodd" d="M18.1479 12.5926V21.8519L26.0182 26.5185L27.4442 24.1482L20.9257 20.2778V12.5926H18.1479ZM36.6666 16.2962V3.33325L31.7777 8.22214C28.7777 5.20362 24.611 3.33325 19.9999 3.33325C10.7962 3.33325 3.33325 10.7962 3.33325 19.9999C3.33325 29.2036 10.7962 36.6666 19.9999 36.6666C29.2036 36.6666 36.6666 29.2036 36.6666 19.9999H32.9629C32.9629 27.1481 27.1481 32.9629 19.9999 32.9629C12.8518 32.9629 7.03696 27.1481 7.03696 19.9999C7.03696 12.8518 12.8518 7.03696 19.9999 7.03696C23.574 7.03696 26.8147 8.49992 29.1666 10.8333L23.7036 16.2962H36.6666Z" fill="#001A41"/>
</g>
<defs>
<clipPath id="clip0_166_21274">
<rect width="33.3333" height="33.3333" fill="white" transform="translate(3.33325 3.33325)"/>
</clipPath>
</defs>
</svg>
