<svg width="33" height="33" viewBox="0 0 33 33" fill="none" xmlns="http://www.w3.org/2000/svg">
<path fill-rule="evenodd" clip-rule="evenodd" d="M4.5 6.44872C4.5 5.40145 4.94862 4.39708 5.74716 3.65655C6.5457 2.91602 7.62876 2.5 8.75806 2.5H21.125C21.5552 2.50023 21.9791 2.59542 22.3617 2.77769C22.7443 2.95996 23.0746 3.22408 23.3253 3.54821L27.9921 9.57467C28.3219 10.0026 28.5 10.5152 28.5 11.0393V26.5513C28.5 27.5985 28.0514 28.6029 27.2528 29.3434C26.4543 30.084 25.3712 30.5 24.2419 30.5H8.75806C7.62876 30.5 6.5457 30.084 5.74716 29.3434C4.94862 28.6029 4.5 27.5985 4.5 26.5513V6.44872ZM8.75806 4.65385C7.68968 4.65385 6.82258 5.45795 6.82258 6.44872V26.5513C6.82258 27.5421 7.68968 28.3462 8.75806 28.3462H24.2419C25.3103 28.3462 26.1774 27.5421 26.1774 26.5513V12.0444H21.1452C20.8372 12.0444 20.5418 11.9309 20.324 11.729C20.1062 11.527 19.9839 11.2531 19.9839 10.9675V4.65385H8.75806Z" fill="#0055B6"/>
<path d="M18.8732 18.4714C18.8259 18.5425 18.7673 18.6017 18.7009 18.6456C18.6345 18.6895 18.5615 18.7173 18.4862 18.7273C18.4108 18.7373 18.3345 18.7294 18.2617 18.704C18.1889 18.6787 18.1209 18.6363 18.0618 18.5794L17.0772 17.6323V20.8077C17.0772 20.9913 17.0165 21.1674 16.9083 21.2972C16.8001 21.4271 16.6534 21.5 16.5004 21.5C16.3474 21.5 16.2006 21.4271 16.0925 21.2972C15.9843 21.1674 15.9235 20.9913 15.9235 20.8077V17.6323L14.9374 18.5794C14.8179 18.6941 14.6653 18.7471 14.5132 18.7267C14.3611 18.7064 14.2219 18.6144 14.1263 18.4709C14.0308 18.3275 13.9866 18.1443 14.0036 17.9618C14.0205 17.7792 14.0972 17.6122 14.2167 17.4975L16.1373 15.6532C16.2386 15.555 16.3647 15.5009 16.495 15.5H16.5011C16.6396 15.5 16.7657 15.5591 16.865 15.6569L18.7832 17.4975C18.8425 17.5543 18.8918 17.6246 18.9284 17.7043C18.965 17.784 18.9881 17.8716 18.9965 17.9621C19.0048 18.0525 18.9983 18.1441 18.9771 18.2315C18.956 18.3188 18.9207 18.4004 18.8732 18.4714Z" fill="#0055B6"/>
</svg>
