<svg width="48" height="48" viewBox="0 0 48 48" fill="none" xmlns="http://www.w3.org/2000/svg">
<path fill-rule="evenodd" clip-rule="evenodd" d="M24.0002 13.4667C30.8911 13.4667 37.0366 17.1587 40.0366 23.0001C37.0366 28.8414 30.8911 32.5334 24.0002 32.5334C17.1093 32.5334 10.9639 28.8414 7.96387 23.0001C10.9639 17.1587 17.1093 13.4667 24.0002 13.4667ZM24 10C14.9091 10 7.14545 15.3907 4 23C7.14545 30.6093 14.9091 36 24 36C33.0909 36 40.8545 30.6093 44 23C40.8545 15.3907 33.0909 10 24 10ZM24.0005 18.6668C26.5096 18.6668 28.546 20.6082 28.546 23.0002C28.546 25.3922 26.5096 27.3335 24.0005 27.3335C21.4914 27.3335 19.4551 25.3922 19.4551 23.0002C19.4551 20.6082 21.4914 18.6668 24.0005 18.6668ZM24.0002 15.2001C19.4911 15.2001 15.8184 18.7014 15.8184 23.0001C15.8184 27.2988 19.4911 30.8001 24.0002 30.8001C28.5093 30.8001 32.182 27.2988 32.182 23.0001C32.182 18.7014 28.5093 15.2001 24.0002 15.2001Z" fill="#001A41"/>
</svg>
