<svg width="48" height="48" viewBox="0 0 48 48" fill="none" xmlns="http://www.w3.org/2000/svg">
<path fill-rule="evenodd" clip-rule="evenodd" d="M23.9998 12.4544C30.8907 12.4544 37.0362 16.3271 40.0362 22.4544C38.9634 24.6726 37.4543 26.5816 35.6543 28.1271L38.218 30.6907C40.7453 28.4544 42.7453 25.6544 43.9998 22.4544C40.8544 14.4725 33.0907 8.81799 23.9998 8.81799C21.6907 8.81799 19.4725 9.18163 17.3816 9.85436L20.3816 12.8544C21.5634 12.618 22.7634 12.4544 23.9998 12.4544ZM22.0553 14.5273L25.819 18.2909C26.8553 18.7455 27.6917 19.5819 28.1462 20.6182L31.9099 24.3819C32.0553 23.7637 32.1644 23.1091 32.1644 22.4364C32.1826 17.9273 28.5099 14.2728 24.0008 14.2728C23.3281 14.2728 22.6917 14.3637 22.0553 14.5273ZM5.83637 8.58158L10.7091 13.4543C7.74546 15.7816 5.4 18.8725 4 22.4543C7.14546 30.4361 14.9091 36.0907 24 36.0907C26.7637 36.0907 29.4182 35.5634 31.8546 34.5998L38.0728 40.818L40.6364 38.2543L8.4 5.99976L5.83637 8.58158ZM19.4729 22.2178L24.2184 26.9633C24.1457 26.9815 24.073 26.9996 24.0002 26.9996C21.4911 26.9996 19.4548 24.9633 19.4548 22.4542C19.4548 22.3633 19.4729 22.3087 19.4729 22.2178ZM13.2914 16.0367L16.4732 19.2185C16.0551 20.2185 15.8187 21.3094 15.8187 22.4549C15.8187 26.964 19.4914 30.6367 24.0005 30.6367C25.146 30.6367 26.2369 30.4003 27.2187 29.9821L29.0005 31.764C27.4005 32.2003 25.7278 32.4549 24.0005 32.4549C17.1096 32.4549 10.9641 28.5821 7.96414 22.4549C9.23687 19.8549 11.0914 17.7094 13.2914 16.0367Z" fill="#001A41"/>
</svg>
