<svg width="48" height="48" viewBox="0 0 48 48" fill="none" xmlns="http://www.w3.org/2000/svg">
<g clip-path="url(#clip0_166_15689)">
<path fill-rule="evenodd" clip-rule="evenodd" d="M24 4C13 4 4 13 4 24C4 35 13 44 24 44C35 44 44 35 44 24C44 13 35 4 24 4ZM24 40C15.18 40 8 32.82 8 24C8 15.18 15.18 8 24 8C32.82 8 40 15.18 40 24C40 32.82 32.82 40 24 40ZM25 14H22V26L32.4 32.4L34 29.8L25 24.4V14Z" fill="#001A41"/>
</g>
<defs>
<clipPath id="clip0_166_15689">
<rect width="40" height="40" fill="white" transform="translate(4 4)"/>
</clipPath>
</defs>
</svg>
