<svg width="40" height="40" viewBox="0 0 40 40" fill="none" xmlns="http://www.w3.org/2000/svg">
<g clip-path="url(#clip0_166_15668)">
<path d="M26.9012 8.21846L31.7839 13.1037L26.9012 17.9889L22.0186 13.1037L26.9012 8.21846ZM13.6852 9.04704V15.9519H6.78391V9.04704H13.6852ZM30.9385 26.3093V33.2141H24.0372V26.3093H30.9385ZM13.6852 26.3093V33.2141H6.78391V26.3093H13.6852ZM26.9012 3.33325L17.1359 13.0864L26.9012 22.8568L36.6666 13.0864L26.9012 3.33325ZM17.1359 5.5946H3.33325V19.4044H17.1359V5.5946ZM34.3892 22.8568H20.5865V36.6666H34.3892V22.8568ZM17.1359 22.8568H3.33325V36.6666H17.1359V22.8568Z" fill="#001A41"/>
</g>
<defs>
<clipPath id="clip0_166_15668">
<rect width="33.3333" height="33.3333" fill="white" transform="translate(3.33325 3.33325)"/>
</clipPath>
</defs>
</svg>
