<svg width="48" height="48" viewBox="0 0 48 48" fill="none" xmlns="http://www.w3.org/2000/svg">
<g clip-path="url(#clip0_166_15690)">
<path fill-rule="evenodd" clip-rule="evenodd" d="M32.5878 29.1572H30.781L30.1407 28.5397C32.3819 25.9325 33.7313 22.5477 33.7313 18.8656C33.7313 10.6552 27.076 4 18.8656 4C10.6552 4 4 10.6552 4 18.8656C4 27.076 10.6552 33.7313 18.8656 33.7313C22.5477 33.7313 25.9325 32.3819 28.5397 30.1407L29.1572 30.781V32.5878L40.5923 44L44 40.5923L32.5878 29.1572ZM18.8654 29.157C13.1708 29.157 8.57384 24.5601 8.57384 18.8654C8.57384 13.1708 13.1708 8.57384 18.8654 8.57384C24.5601 8.57384 29.157 13.1708 29.157 18.8654C29.157 24.5601 24.5601 29.157 18.8654 29.157ZM20.0087 13.1482H17.7217V17.7223H13.1477V20.0093H17.7217V24.5833H20.0087V20.0093H24.5828V17.7223H20.0087V13.1482Z" fill="#001A41"/>
</g>
<defs>
<clipPath id="clip0_166_15690">
<rect width="40" height="40" fill="white" transform="translate(4 4)"/>
</clipPath>
</defs>
</svg>
