<svg width="48" height="48" viewBox="0 0 48 48" fill="none" xmlns="http://www.w3.org/2000/svg">
<path fill-rule="evenodd" clip-rule="evenodd" d="M10.7794 9.83459C11.5611 10.4031 11.7339 11.4975 11.1654 12.2792L5.16541 20.5292C4.59694 21.3108 3.50247 21.4836 2.72082 20.9152C1.93918 20.3467 1.76637 19.2522 2.33484 18.4706L8.33484 10.2206C8.9033 9.43894 9.99778 9.26612 10.7794 9.83459ZM37.2208 9.83459C38.0025 9.26612 39.0969 9.43894 39.6654 10.2206L45.6654 18.4706C46.2339 19.2522 46.0611 20.3467 45.2794 20.9152C44.4978 21.4836 43.4033 21.3108 42.8348 20.5292L36.8348 12.2792C36.2664 11.4975 36.4392 10.4031 37.2208 9.83459Z" fill="#001A41"/>
<path fill-rule="evenodd" clip-rule="evenodd" d="M8.1499 3.75C8.1499 2.7835 8.9334 2 9.8999 2H38.0999C39.0664 2 39.8499 2.7835 39.8499 3.75V22.5C39.8499 23.4665 39.0664 24.25 38.0999 24.25C37.1334 24.25 36.3499 23.4665 36.3499 22.5V5.5H11.6499V22.5C11.6499 23.4665 10.8664 24.25 9.8999 24.25C8.9334 24.25 8.1499 23.4665 8.1499 22.5V3.75Z" fill="#001A41"/>
<path fill-rule="evenodd" clip-rule="evenodd" d="M2.87944 18.2819C3.42339 17.97 4.09267 17.973 4.63386 18.2897L24 29.6224L43.3661 18.2897C43.9073 17.973 44.5766 17.97 45.1206 18.2819C45.6645 18.5939 46 19.173 46 19.8V41.25C46 43.8665 43.8665 46 41.25 46H6.75C4.1335 46 2 43.8665 2 41.25V19.8C2 19.173 2.33549 18.5939 2.87944 18.2819ZM5.5 22.8517V41.25C5.5 41.9335 6.0665 42.5 6.75 42.5H41.25C41.9335 42.5 42.5 41.9335 42.5 41.25V22.8517L24.8839 33.1604C24.3379 33.4799 23.6621 33.4799 23.1161 33.1604L5.5 22.8517Z" fill="#001A41"/>
<path fill-rule="evenodd" clip-rule="evenodd" d="M18.6499 12.8999C18.6499 11.9334 19.4334 11.1499 20.3999 11.1499H27.5999C28.5664 11.1499 29.3499 11.9334 29.3499 12.8999C29.3499 13.8664 28.5664 14.6499 27.5999 14.6499H20.3999C19.4334 14.6499 18.6499 13.8664 18.6499 12.8999Z" fill="#001A41"/>
<path fill-rule="evenodd" clip-rule="evenodd" d="M16.3999 19.3501C16.3999 18.3836 17.1834 17.6001 18.1499 17.6001H29.8499C30.8164 17.6001 31.5999 18.3836 31.5999 19.3501C31.5999 20.3166 30.8164 21.1001 29.8499 21.1001H18.1499C17.1834 21.1001 16.3999 20.3166 16.3999 19.3501Z" fill="#001A41"/>
<path fill-rule="evenodd" clip-rule="evenodd" d="M18.6798 26.7136C19.4179 27.3376 19.5104 28.4418 18.8865 29.1799L6.58649 43.7299C5.96252 44.468 4.85836 44.5605 4.12026 43.9365C3.38216 43.3126 3.28963 42.2084 3.91359 41.4703L16.2136 26.9203C16.8375 26.1822 17.9417 26.0897 18.6798 26.7136Z" fill="#001A41"/>
<path fill-rule="evenodd" clip-rule="evenodd" d="M29.3205 26.7136C30.0586 26.0897 31.1627 26.1822 31.7867 26.9203L44.0867 41.4703C44.7106 42.2084 44.6181 43.3126 43.88 43.9365C43.1419 44.5605 42.0377 44.468 41.4138 43.7299L29.1138 29.1799C28.4898 28.4418 28.5824 27.3376 29.3205 26.7136Z" fill="#001A41"/>
</svg>
