<svg width="48" height="48" viewBox="0 0 48 48" fill="none" xmlns="http://www.w3.org/2000/svg">
<path fill-rule="evenodd" clip-rule="evenodd" d="M5 3.14844C6.10457 3.14844 7 4.04387 7 5.14844V33.6484C7 37.4939 10.1546 40.6484 14 40.6484H42.8C43.9046 40.6484 44.8 41.5439 44.8 42.6484C44.8 43.753 43.9046 44.6484 42.8 44.6484H14C7.94543 44.6484 3 39.703 3 33.6484V5.14844C3 4.04387 3.89543 3.14844 5 3.14844Z" fill="#001A41"/>
<path fill-rule="evenodd" clip-rule="evenodd" d="M15.0503 20.5C14.5049 20.5 14.0503 20.9546 14.0503 21.5V32.15C14.0503 32.6954 14.5049 33.15 15.0503 33.15H21.0503C21.5957 33.15 22.0503 32.6954 22.0503 32.15V21.5C22.0503 20.9546 21.5957 20.5 21.0503 20.5H15.0503ZM10.0503 21.5C10.0503 18.7454 12.2957 16.5 15.0503 16.5H21.0503C23.8049 16.5 26.0503 18.7454 26.0503 21.5V32.15C26.0503 34.9046 23.8049 37.15 21.0503 37.15H15.0503C12.2957 37.15 10.0503 34.9046 10.0503 32.15V21.5Z" fill="#001A41"/>
<path fill-rule="evenodd" clip-rule="evenodd" d="M33.5 7C32.9546 7 32.5 7.45457 32.5 8V32.15C32.5 32.6954 32.9546 33.15 33.5 33.15H39.5C40.0454 33.15 40.5 32.6954 40.5 32.15V8C40.5 7.45457 40.0454 7 39.5 7H33.5ZM28.5 8C28.5 5.24543 30.7454 3 33.5 3H39.5C42.2546 3 44.5 5.24543 44.5 8V32.15C44.5 34.9046 42.2546 37.15 39.5 37.15H33.5C30.7454 37.15 28.5 34.9046 28.5 32.15V8Z" fill="#001A41"/>
</svg>
