<svg width="48" height="48" viewBox="0 0 48 48" fill="none" xmlns="http://www.w3.org/2000/svg">
<path d="M23.9 36C24.6 36 25.192 35.758 25.676 35.274C26.16 34.79 26.4013 34.1987 26.4 33.5C26.4 32.8 26.1587 32.208 25.676 31.724C25.1933 31.24 24.6013 30.9987 23.9 31C23.2 31 22.6087 31.242 22.126 31.726C21.6433 32.21 21.4013 32.8013 21.4 33.5C21.4 34.2 21.642 34.792 22.126 35.276C22.61 35.76 23.2013 36.0013 23.9 36ZM22.1 28.3H25.8C25.8 27.2 25.9253 26.3333 26.176 25.7C26.4267 25.0667 27.1347 24.2 28.3 23.1C29.1667 22.2333 29.85 21.408 30.35 20.624C30.85 19.84 31.1 18.8987 31.1 17.8C31.1 15.9333 30.4167 14.5 29.05 13.5C27.6833 12.5 26.0667 12 24.2 12C22.3 12 20.758 12.5 19.574 13.5C18.39 14.5 17.5653 15.7 17.1 17.1L20.4 18.4C20.5667 17.8 20.942 17.15 21.526 16.45C22.11 15.75 23.0013 15.4 24.2 15.4C25.2667 15.4 26.0667 15.692 26.6 16.276C27.1333 16.86 27.4 17.5013 27.4 18.2C27.4 18.8667 27.2 19.492 26.8 20.076C26.4 20.66 25.9 21.2013 25.3 21.7C23.8333 23 22.9333 23.9833 22.6 24.65C22.2667 25.3167 22.1 26.5333 22.1 28.3ZM24 44C21.2333 44 18.6333 43.4747 16.2 42.424C13.7667 41.3733 11.65 39.9487 9.85 38.15C8.05 36.35 6.62533 34.2333 5.576 31.8C4.52667 29.3667 4.00133 26.7667 4 24C4 21.2333 4.52533 18.6333 5.576 16.2C6.62667 13.7667 8.05133 11.65 9.85 9.85C11.65 8.05 13.7667 6.62533 16.2 5.576C18.6333 4.52667 21.2333 4.00133 24 4C26.7667 4 29.3667 4.52533 31.8 5.576C34.2333 6.62667 36.35 8.05133 38.15 9.85C39.95 11.65 41.3753 13.7667 42.426 16.2C43.4767 18.6333 44.0013 21.2333 44 24C44 26.7667 43.4747 29.3667 42.424 31.8C41.3733 34.2333 39.9487 36.35 38.15 38.15C36.35 39.95 34.2333 41.3753 31.8 42.426C29.3667 43.4767 26.7667 44.0013 24 44ZM24 40C28.4667 40 32.25 38.45 35.35 35.35C38.45 32.25 40 28.4667 40 24C40 19.5333 38.45 15.75 35.35 12.65C32.25 9.55 28.4667 8 24 8C19.5333 8 15.75 9.55 12.65 12.65C9.55 15.75 8 19.5333 8 24C8 28.4667 9.55 32.25 12.65 35.35C15.75 38.45 19.5333 40 24 40Z" fill="#001A41"/>
</svg>
