<svg width="48" height="48" viewBox="0 0 48 48" fill="none" xmlns="http://www.w3.org/2000/svg">
<path d="M28 18C27.4333 18 26.958 17.808 26.574 17.424C26.19 17.04 25.9987 16.5653 26 16V8.00001C26 7.43334 26.192 6.95801 26.576 6.57401C26.96 6.19001 27.4347 5.99867 28 6.00001H40C40.5667 6.00001 41.042 6.19201 41.426 6.57601C41.81 6.96001 42.0013 7.43467 42 8.00001V16C42 16.5667 41.808 17.042 41.424 17.426C41.04 17.81 40.5653 18.0013 40 18H28ZM8.00001 26C7.43334 26 6.95801 25.808 6.57401 25.424C6.19001 25.04 5.99867 24.5653 6.00001 24V8.00001C6.00001 7.43334 6.19201 6.95801 6.57601 6.57401C6.96001 6.19001 7.43467 5.99867 8.00001 6.00001H20C20.5667 6.00001 21.042 6.19201 21.426 6.57601C21.81 6.96001 22.0013 7.43467 22 8.00001V24C22 24.5667 21.808 25.042 21.424 25.426C21.04 25.81 20.5653 26.0013 20 26H8.00001ZM28 42C27.4333 42 26.958 41.808 26.574 41.424C26.19 41.04 25.9987 40.5653 26 40V24C26 23.4333 26.192 22.958 26.576 22.574C26.96 22.19 27.4347 21.9987 28 22H40C40.5667 22 41.042 22.192 41.426 22.576C41.81 22.96 42.0013 23.4347 42 24V40C42 40.5667 41.808 41.042 41.424 41.426C41.04 41.81 40.5653 42.0013 40 42H28ZM8.00001 42C7.43334 42 6.95801 41.808 6.57401 41.424C6.19001 41.04 5.99867 40.5653 6.00001 40V32C6.00001 31.4333 6.19201 30.958 6.57601 30.574C6.96001 30.19 7.43467 29.9987 8.00001 30H20C20.5667 30 21.042 30.192 21.426 30.576C21.81 30.96 22.0013 31.4347 22 32V40C22 40.5667 21.808 41.042 21.424 41.426C21.04 41.81 20.5653 42.0013 20 42H8.00001Z" fill="#001A41"/>
</svg>
