<svg width="48" height="48" viewBox="0 0 48 48" fill="none" xmlns="http://www.w3.org/2000/svg">
<path fill-rule="evenodd" clip-rule="evenodd" d="M6 8C6 6.89543 6.89543 6 8 6H20C21.1046 6 22 6.89543 22 8V24C22 25.1046 21.1046 26 20 26H8C6.89543 26 6 25.1046 6 24V8ZM10 10V22H18V10H10ZM26 8C26 6.89543 26.8954 6 28 6H40C41.1046 6 42 6.89543 42 8V16C42 17.1046 41.1046 18 40 18H28C26.8954 18 26 17.1046 26 16V8ZM30 10V14H38V10H30ZM26 24C26 22.8954 26.8954 22 28 22H40C41.1046 22 42 22.8954 42 24V40C42 41.1046 41.1046 42 40 42H28C26.8954 42 26 41.1046 26 40V24ZM30 26V38H38V26H30ZM6 32C6 30.8954 6.89543 30 8 30H20C21.1046 30 22 30.8954 22 32V40C22 41.1046 21.1046 42 20 42H8C6.89543 42 6 41.1046 6 40V32ZM10 34V38H18V34H10Z" fill="#001A41"/>
</svg>
