<svg width="48" height="48" viewBox="0 0 48 48" fill="none" xmlns="http://www.w3.org/2000/svg">
<path fill-rule="evenodd" clip-rule="evenodd" d="M2.04004 4.04901C2.04004 3.18745 2.73847 2.48901 3.60004 2.48901H8.85004C9.59224 2.48901 10.2317 3.01192 10.379 3.73935L15.1777 27.4331C15.6299 29.5689 17.4004 30.989 19.5 30.989H41.55C42.4116 30.989 43.11 31.6875 43.11 32.549C43.11 33.4106 42.4116 34.109 41.55 34.109H19.5C15.9014 34.109 12.8732 31.6315 12.1235 28.0704L12.121 28.0587L12.1211 28.0587L7.57432 5.60901H3.60004C2.73847 5.60901 2.04004 4.91058 2.04004 4.04901Z" fill="#001A41"/>
<path fill-rule="evenodd" clip-rule="evenodd" d="M8.93994 11.0991C8.93994 10.2375 9.63838 9.53906 10.4999 9.53906H42.5999C43.4044 9.53906 44.1961 9.81404 44.7905 10.4085C45.385 11.0029 45.6599 11.7946 45.6599 12.5991V12.7491C45.6599 12.8276 45.654 12.9061 45.6422 12.9838L43.5422 26.7838C43.4262 27.5459 42.7709 28.1091 41.9999 28.1091H13.7999C12.9384 28.1091 12.2399 27.4106 12.2399 26.5491C12.2399 25.6875 12.9384 24.9891 13.7999 24.9891H40.6594L42.5357 12.6591H10.4999C9.63838 12.6591 8.93994 11.9606 8.93994 11.0991Z" fill="#001A41"/>
<path fill-rule="evenodd" clip-rule="evenodd" d="M20.4001 38.7592C19.3563 38.7592 18.5101 39.6053 18.5101 40.6492C18.5101 41.693 19.3563 42.5392 20.4001 42.5392C21.444 42.5392 22.2901 41.693 22.2901 40.6492C22.2901 39.6053 21.444 38.7592 20.4001 38.7592ZM15.3901 40.6492C15.3901 37.8822 17.6332 35.6392 20.4001 35.6392C23.1671 35.6392 25.4101 37.8822 25.4101 40.6492C25.4101 43.4161 23.1671 45.6592 20.4001 45.6592C17.6332 45.6592 15.3901 43.4161 15.3901 40.6492Z" fill="#001A41"/>
<path fill-rule="evenodd" clip-rule="evenodd" d="M36.9001 38.7592C35.8563 38.7592 35.0101 39.6053 35.0101 40.6492C35.0101 41.693 35.8563 42.5392 36.9001 42.5392C37.944 42.5392 38.7901 41.693 38.7901 40.6492C38.7901 39.6053 37.944 38.7592 36.9001 38.7592ZM31.8901 40.6492C31.8901 37.8822 34.1332 35.6392 36.9001 35.6392C39.6671 35.6392 41.9101 37.8822 41.9101 40.6492C41.9101 43.4161 39.6671 45.6592 36.9001 45.6592C34.1332 45.6592 31.8901 43.4161 31.8901 40.6492Z" fill="#001A41"/>
<path d="M19.6553 16.3653H21.0206L22.4627 19.8835H22.524L23.9661 16.3653H25.3314V21.6017H24.2575V18.1934H24.2141L22.859 21.5761H22.1277L20.7726 18.1806H20.7291V21.6017H19.6553V16.3653Z" fill="#001A41"/>
<path d="M26.0996 21.6017V16.3653H29.628V17.2781H27.2067V18.5258H29.4464V19.4386H27.2067V20.6889H29.6382V21.6017H26.0996Z" fill="#001A41"/>
<path d="M34.9843 18.1985H33.8644C33.844 18.0536 33.8022 17.925 33.7391 17.8125C33.6761 17.6982 33.5951 17.6011 33.4963 17.521C33.3974 17.4409 33.2832 17.3795 33.1536 17.3369C33.0258 17.2943 32.8869 17.273 32.7369 17.273C32.4659 17.273 32.2298 17.3403 32.0286 17.475C31.8275 17.6079 31.6715 17.8022 31.5607 18.0579C31.4499 18.3119 31.3945 18.6204 31.3945 18.9835C31.3945 19.3568 31.4499 19.6704 31.5607 19.9244C31.6732 20.1784 31.8301 20.3701 32.0312 20.4997C32.2323 20.6292 32.465 20.694 32.7292 20.694C32.8775 20.694 33.0147 20.6744 33.1409 20.6352C33.2687 20.596 33.382 20.5389 33.4809 20.4639C33.5798 20.3872 33.6616 20.2943 33.7264 20.1852C33.7928 20.0761 33.8389 19.9517 33.8644 19.8119L34.9843 19.817C34.9553 20.0573 34.8829 20.2892 34.767 20.5125C34.6528 20.734 34.4985 20.9326 34.3042 21.1082C34.1116 21.2821 33.8815 21.4201 33.6139 21.5224C33.348 21.623 33.0471 21.6732 32.7113 21.6732C32.2443 21.6732 31.8266 21.5676 31.4585 21.3562C31.092 21.1448 30.8022 20.8389 30.5891 20.4383C30.3778 20.0377 30.2721 19.5528 30.2721 18.9835C30.2721 18.4125 30.3795 17.9267 30.5943 17.5261C30.809 17.1255 31.1005 16.8204 31.4687 16.6107C31.8369 16.3994 32.2511 16.2937 32.7113 16.2937C33.0147 16.2937 33.296 16.3363 33.5551 16.4215C33.8159 16.5068 34.0468 16.6312 34.248 16.7948C34.4491 16.9568 34.6127 17.1553 34.7389 17.3906C34.8667 17.6258 34.9485 17.8951 34.9843 18.1985Z" fill="#001A41"/>
</svg>
