<svg width="48" height="48" viewBox="0 0 48 48" fill="none" xmlns="http://www.w3.org/2000/svg">
<mask id="mask0_674_3334" style="mask-type:alpha" maskUnits="userSpaceOnUse" x="0" y="0" width="48" height="48">
<path d="M48 0H0V48H48V0Z" fill="white"/>
</mask>
<g mask="url(#mask0_674_3334)">
<path fill-rule="evenodd" clip-rule="evenodd" d="M18.1001 18.6843C18.1001 15.594 20.7597 12.9343 23.8501 12.9343C26.9132 12.9343 29.6001 15.417 29.6001 18.6843C29.6001 19.3747 29.0405 19.9343 28.3501 19.9343C27.6597 19.9343 27.1001 19.3747 27.1001 18.6843C27.1001 16.8516 25.587 15.4343 23.8501 15.4343C22.1405 15.4343 20.6001 16.9747 20.6001 18.6843C20.6001 19.3747 20.0405 19.9343 19.3501 19.9343C18.6597 19.9343 18.1001 19.3747 18.1001 18.6843Z" fill="#001A41"/>
<path fill-rule="evenodd" clip-rule="evenodd" d="M23.85 5.23438C20.0668 5.23438 17 8.30122 17 12.0844C17 15.8675 20.0668 18.9344 23.85 18.9344C27.6332 18.9344 30.7 15.8675 30.7 12.0844C30.7 8.30122 27.6332 5.23438 23.85 5.23438ZM14.5 12.0844C14.5 6.92051 18.6861 2.73438 23.85 2.73438C29.0139 2.73438 33.2 6.92051 33.2 12.0844C33.2 17.2482 29.0139 21.4344 23.85 21.4344C18.6861 21.4344 14.5 17.2482 14.5 12.0844Z" fill="#001A41"/>
<path fill-rule="evenodd" clip-rule="evenodd" d="M23.8498 10.1843C23.1318 10.1843 22.5498 10.7664 22.5498 11.4843C22.5498 12.2023 23.1318 12.7843 23.8498 12.7843C24.5678 12.7843 25.1498 12.2023 25.1498 11.4843C25.1498 10.7664 24.5678 10.1843 23.8498 10.1843ZM20.0498 11.4843C20.0498 9.38564 21.7511 7.68433 23.8498 7.68433C25.9485 7.68433 27.6498 9.38564 27.6498 11.4843C27.6498 13.583 25.9485 15.2843 23.8498 15.2843C21.7511 15.2843 20.0498 13.583 20.0498 11.4843Z" fill="#001A41"/>
<path fill-rule="evenodd" clip-rule="evenodd" d="M30.3667 42.7C30.3667 39.6096 33.0263 36.95 36.1167 36.95C39.1798 36.95 41.8667 39.4327 41.8667 42.7C41.8667 43.3903 41.3071 43.95 40.6167 43.95C39.9263 43.95 39.3667 43.3903 39.3667 42.7C39.3667 40.8672 37.8536 39.45 36.1167 39.45C34.4071 39.45 32.8667 40.9903 32.8667 42.7C32.8667 43.3903 32.3071 43.95 31.6167 43.95C30.9263 43.95 30.3667 43.3903 30.3667 42.7Z" fill="#001A41"/>
<path fill-rule="evenodd" clip-rule="evenodd" d="M36.1166 29.25C32.3335 29.25 29.2666 32.3168 29.2666 36.1C29.2666 39.8832 32.3335 42.95 36.1166 42.95C39.8998 42.95 42.9666 39.8832 42.9666 36.1C42.9666 32.3168 39.8998 29.25 36.1166 29.25ZM26.7666 36.1C26.7666 30.9361 30.9527 26.75 36.1166 26.75C41.2805 26.75 45.4666 30.9361 45.4666 36.1C45.4666 41.2639 41.2805 45.45 36.1166 45.45C30.9527 45.45 26.7666 41.2639 26.7666 36.1Z" fill="#001A41"/>
<path fill-rule="evenodd" clip-rule="evenodd" d="M36.1164 34.2C35.3984 34.2 34.8164 34.782 34.8164 35.5C34.8164 36.2179 35.3984 36.8 36.1164 36.8C36.8344 36.8 37.4164 36.2179 37.4164 35.5C37.4164 34.782 36.8344 34.2 36.1164 34.2ZM32.3164 35.5C32.3164 33.4013 34.0177 31.7 36.1164 31.7C38.2151 31.7 39.9164 33.4013 39.9164 35.5C39.9164 37.5986 38.2151 39.3 36.1164 39.3C34.0177 39.3 32.3164 37.5986 32.3164 35.5Z" fill="#001A41"/>
<path fill-rule="evenodd" clip-rule="evenodd" d="M6.16113 42.7C6.16113 39.6096 8.82078 36.95 11.9111 36.95C14.9742 36.95 17.6611 39.4327 17.6611 42.7C17.6611 43.3903 17.1015 43.95 16.4111 43.95C15.7208 43.95 15.1611 43.3903 15.1611 42.7C15.1611 40.8672 13.648 39.45 11.9111 39.45C10.2015 39.45 8.66113 40.9903 8.66113 42.7C8.66113 43.3903 8.10149 43.95 7.41113 43.95C6.72078 43.95 6.16113 43.3903 6.16113 42.7Z" fill="#001A41"/>
<path fill-rule="evenodd" clip-rule="evenodd" d="M11.911 29.25C8.12788 29.25 5.06104 32.3168 5.06104 36.1C5.06104 39.8832 8.12788 42.95 11.911 42.95C15.6942 42.95 18.761 39.8832 18.761 36.1C18.761 32.3168 15.6942 29.25 11.911 29.25ZM2.56104 36.1C2.56104 30.9361 6.74717 26.75 11.911 26.75C17.0749 26.75 21.261 30.9361 21.261 36.1C21.261 41.2639 17.0749 45.45 11.911 45.45C6.74717 45.45 2.56104 41.2639 2.56104 36.1Z" fill="#001A41"/>
<path fill-rule="evenodd" clip-rule="evenodd" d="M11.9108 34.2C11.1929 34.2 10.6108 34.782 10.6108 35.5C10.6108 36.2179 11.1929 36.8 11.9108 36.8C12.6288 36.8 13.2108 36.2179 13.2108 35.5C13.2108 34.782 12.6288 34.2 11.9108 34.2ZM8.11084 35.5C8.11084 33.4013 9.81216 31.7 11.9108 31.7C14.0095 31.7 15.7108 33.4013 15.7108 35.5C15.7108 37.5986 14.0095 39.3 11.9108 39.3C9.81216 39.3 8.11084 37.5986 8.11084 35.5Z" fill="#001A41"/>
</g>
<mask id="mask1_674_3334" style="mask-type:alpha" maskUnits="userSpaceOnUse" x="0" y="0" width="48" height="48">
<path d="M48 0H0V48H48V0Z" fill="white"/>
</mask>
<g mask="url(#mask1_674_3334)">
<path fill-rule="evenodd" clip-rule="evenodd" d="M24 20.1992C24.6904 20.1992 25.25 20.7589 25.25 21.4492V25.4992C25.25 26.1896 24.6904 26.7492 24 26.7492C23.3096 26.7492 22.75 26.1896 22.75 25.4992V21.4492C22.75 20.7589 23.3096 20.1992 24 20.1992Z" fill="#001A41"/>
<path fill-rule="evenodd" clip-rule="evenodd" d="M24.0088 23.8008C24.3432 23.8031 24.6628 23.9394 24.8961 24.1791L30.2961 29.7291C30.7775 30.2239 30.7667 31.0153 30.2719 31.4967C29.7771 31.9781 28.9857 31.9673 28.5043 31.4725L23.988 26.8307L19.3341 31.4847C18.8459 31.9728 18.0545 31.9728 17.5663 31.4847C17.0782 30.9965 17.0782 30.2051 17.5663 29.7169L23.1163 24.1669C23.3528 23.9304 23.6743 23.7985 24.0088 23.8008Z" fill="#001A41"/>
</g>
</svg>
