<svg width="48" height="48" viewBox="0 0 48 48" fill="none" xmlns="http://www.w3.org/2000/svg">
<path fill-rule="evenodd" clip-rule="evenodd" d="M33.4565 5.83594C33.4565 5.5598 33.2327 5.33594 32.9565 5.33594L30.6696 5.33594C30.5709 5.33594 30.4129 5.37334 30.184 5.56943C29.9479 5.77173 29.7101 6.08491 29.5105 6.4604C28.5601 8.24829 26.6585 9.52724 24.4783 9.52724C22.2981 9.52724 20.3965 8.24829 19.4461 6.4604C19.2465 6.08491 19.0086 5.77173 18.7725 5.56943C18.5437 5.37334 18.3857 5.33594 18.287 5.33594H16C15.7239 5.33594 15.5 5.55979 15.5 5.83593L15.5 42.0026C15.5 42.2788 15.7239 42.5026 16 42.5026L32.9565 42.5026C33.2327 42.5026 33.4565 42.2788 33.4565 42.0026L33.4565 5.83594ZM32.9565 2.33594C34.8895 2.33594 36.4565 3.90294 36.4565 5.83594L36.4565 42.0026C36.4565 43.9356 34.8895 45.5026 32.9565 45.5026L16 45.5026C14.067 45.5026 12.5 43.9356 12.5 42.0026L12.5 5.83593C12.5 3.90293 14.067 2.33594 16 2.33594H18.287C20.2807 2.33594 21.5241 3.97824 22.095 5.05225C22.5651 5.93655 23.491 6.52724 24.4783 6.52724C25.4655 6.52724 26.3914 5.93655 26.8615 5.05225C27.4324 3.97824 28.6759 2.33594 30.6696 2.33594L32.9565 2.33594Z" fill="#001A41"/>
<path fill-rule="evenodd" clip-rule="evenodd" d="M34.7104 16.061C34.7104 16.8895 34.0389 17.561 33.2104 17.561L17.3184 17.561C16.49 17.561 15.8184 16.8895 15.8184 16.061C15.8184 15.2326 16.49 14.561 17.3184 14.561L33.2104 14.561C34.0389 14.561 34.7104 15.2326 34.7104 16.061Z" fill="#001A41"/>
<path fill-rule="evenodd" clip-rule="evenodd" d="M28.2173 30.0328C28.2173 27.9678 26.5432 26.2937 24.4782 26.2937C22.4131 26.2937 20.739 27.9678 20.739 30.0328C20.739 32.0979 22.4131 33.772 24.4782 33.772C26.5432 33.772 28.2173 32.0979 28.2173 30.0328ZM24.4782 23.2937C28.2001 23.2937 31.2173 26.3109 31.2173 30.0328C31.2173 33.7548 28.2001 36.772 24.4782 36.772C20.7562 36.772 17.739 33.7548 17.739 30.0328C17.739 26.3109 20.7562 23.2937 24.4782 23.2937Z" fill="#001A41"/>
</svg>
