<svg width="48" height="48" viewBox="0 0 48 48" fill="none" xmlns="http://www.w3.org/2000/svg">
<path fill-rule="evenodd" clip-rule="evenodd" d="M1.8501 4.05005C1.8501 3.08355 2.6336 2.30005 3.6001 2.30005H8.8501C9.68269 2.30005 10.4 2.88665 10.5653 3.70267L15.3638 27.3955C15.7979 29.4444 17.4918 30.8 19.5001 30.8H41.5501C42.5166 30.8 43.3001 31.5836 43.3001 32.55C43.3001 33.5165 42.5166 34.3 41.5501 34.3H19.5001C15.8103 34.3 12.7056 31.7583 11.9376 28.1106L11.9349 28.0974L11.9349 28.0974L7.419 5.80005H3.6001C2.6336 5.80005 1.8501 5.01655 1.8501 4.05005Z" fill="#001A41"/>
<path fill-rule="evenodd" clip-rule="evenodd" d="M8.75 11.1001C8.75 10.1336 9.5335 9.3501 10.5 9.3501H42.6C43.4477 9.3501 44.2901 9.6403 44.9249 10.2752C45.5598 10.91 45.85 11.7524 45.85 12.6001V12.7501C45.85 12.8382 45.8433 12.9262 45.8301 13.0134L43.7301 26.8134C43.6 27.6684 42.8648 28.3001 42 28.3001H13.8C12.8335 28.3001 12.05 27.5166 12.05 26.5501C12.05 25.5836 12.8335 24.8001 13.8 24.8001H40.4962L42.3146 12.8501H10.5C9.5335 12.8501 8.75 12.0666 8.75 11.1001Z" fill="#001A41"/>
<path fill-rule="evenodd" clip-rule="evenodd" d="M20.4002 38.95C19.4613 38.95 18.7002 39.7111 18.7002 40.65C18.7002 41.5888 19.4613 42.35 20.4002 42.35C21.3391 42.35 22.1002 41.5888 22.1002 40.65C22.1002 39.7111 21.3391 38.95 20.4002 38.95ZM15.2002 40.65C15.2002 37.7781 17.5283 35.45 20.4002 35.45C23.2721 35.45 25.6002 37.7781 25.6002 40.65C25.6002 43.5218 23.2721 45.85 20.4002 45.85C17.5283 45.85 15.2002 43.5218 15.2002 40.65ZM36.9002 38.95C35.9613 38.95 35.2002 39.7111 35.2002 40.65C35.2002 41.5888 35.9613 42.35 36.9002 42.35C37.8391 42.35 38.6002 41.5888 38.6002 40.65C38.6002 39.7111 37.8391 38.95 36.9002 38.95ZM31.7002 40.65C31.7002 37.7781 34.0283 35.45 36.9002 35.45C39.7721 35.45 42.1002 37.7781 42.1002 40.65C42.1002 43.5218 39.7721 45.85 36.9002 45.85C34.0283 45.85 31.7002 43.5218 31.7002 40.65Z" fill="#001A41"/>
<path fill-rule="evenodd" clip-rule="evenodd" d="M22.5 9.3501C23.4665 9.3501 24.25 10.1336 24.25 11.1001V17.1501H31.25V11.1001C31.25 10.1336 32.0335 9.3501 33 9.3501C33.9665 9.3501 34.75 10.1336 34.75 11.1001V17.1501H43.1998C44.1663 17.1501 44.9498 17.9336 44.9498 18.9001C44.9498 19.8666 44.1663 20.6501 43.1998 20.6501H34.75V26.5501C34.75 27.5166 33.9665 28.3001 33 28.3001C32.0335 28.3001 31.25 27.5166 31.25 26.5501V20.6501H24.25V26.5501C24.25 27.5166 23.4665 28.3001 22.5 28.3001C21.5335 28.3001 20.75 27.5166 20.75 26.5501V20.6501H12.2998C11.3333 20.6501 10.5498 19.8666 10.5498 18.9001C10.5498 17.9336 11.3333 17.1501 12.2998 17.1501H20.75V11.1001C20.75 10.1336 21.5335 9.3501 22.5 9.3501Z" fill="#001A41"/>
</svg>
