<svg width="48" height="48" viewBox="0 0 48 48" fill="none" xmlns="http://www.w3.org/2000/svg">
<path fill-rule="evenodd" clip-rule="evenodd" d="M9.75 5.20093C7.4165 5.20093 5.5 7.11743 5.5 9.45093V37.9509C5.5 40.2844 7.4165 42.2009 9.75 42.2009C10.7165 42.2009 11.5 42.9844 11.5 43.9509C11.5 44.9174 10.7165 45.7009 9.75 45.7009C5.4835 45.7009 2 42.2174 2 37.9509V9.45093C2 5.18443 5.4835 1.70093 9.75 1.70093H38.25C42.5165 1.70093 46 5.18443 46 9.45093V37.9509C46 42.2174 42.5165 45.7009 38.25 45.7009C37.2835 45.7009 36.5 44.9174 36.5 43.9509C36.5 42.9844 37.2835 42.2009 38.25 42.2009C40.5835 42.2009 42.5 40.2844 42.5 37.9509V9.45093C42.5 7.11743 40.5835 5.20093 38.25 5.20093H9.75Z" fill="#001A41"/>
<path fill-rule="evenodd" clip-rule="evenodd" d="M24.8627 25.0884C24.3461 24.5718 23.3541 24.5718 22.8375 25.0884C21.749 26.1769 20.2494 26.8009 18.6001 26.8009C17.8621 26.8009 17.2001 27.4211 17.2001 28.2009C17.2001 29.753 16.5404 31.1862 15.5945 32.3212C15.5606 32.3619 15.5249 32.401 15.4875 32.4384C14.971 32.9549 14.971 33.9469 15.4875 34.4635C16.576 35.552 17.2001 37.0516 17.2001 38.7009C17.2001 39.439 17.8202 40.1009 18.6001 40.1009C20.0668 40.1009 21.7273 40.7032 22.8375 41.8135C23.3541 42.3301 24.3461 42.3301 24.8627 41.8135C25.9512 40.725 27.4508 40.1009 29.1001 40.1009C29.8381 40.1009 30.5001 39.4808 30.5001 38.7009C30.5001 37.2342 31.1024 35.5737 32.2127 34.4635C32.7292 33.9469 32.7292 32.9549 32.2127 32.4384C31.1241 31.3498 30.5001 29.8502 30.5001 28.2009C30.5001 27.4629 29.88 26.8009 29.1001 26.8009C27.6334 26.8009 25.9729 26.1986 24.8627 25.0884ZM20.3627 22.6135C22.2461 20.7301 25.4541 20.7301 27.3375 22.6135C27.7273 23.0032 28.4668 23.3009 29.1001 23.3009C31.9202 23.3009 34.0001 25.639 34.0001 28.2009C34.0001 28.9516 34.2761 29.552 34.6875 29.9635C36.571 31.8469 36.571 35.0549 34.6875 36.9384C34.2978 37.3281 34.0001 38.0676 34.0001 38.7009C34.0001 41.5211 31.6621 43.6009 29.1001 43.6009C28.3494 43.6009 27.749 43.8769 27.3375 44.2884C25.4541 46.1718 22.2461 46.1718 20.3627 44.2884C19.9729 43.8986 19.2334 43.6009 18.6001 43.6009C15.78 43.6009 13.7001 41.2629 13.7001 38.7009C13.7001 37.9502 13.4241 37.3498 13.0127 36.9384C11.1516 35.0773 11.1295 31.923 12.9463 30.0312C13.4715 29.3828 13.7001 28.7353 13.7001 28.2009C13.7001 25.3808 16.0381 23.3009 18.6001 23.3009C19.3508 23.3009 19.9512 23.025 20.3627 22.6135Z" fill="#001A41"/>
<path fill-rule="evenodd" clip-rule="evenodd" d="M24.0002 31.8997C23.1442 31.8997 22.4502 32.5936 22.4502 33.4497C22.4502 34.3057 23.1442 34.9997 24.0002 34.9997C24.8562 34.9997 25.5502 34.3057 25.5502 33.4497C25.5502 32.5936 24.8562 31.8997 24.0002 31.8997ZM18.9502 33.4497C18.9502 30.6606 21.2112 28.3997 24.0002 28.3997C26.7892 28.3997 29.0502 30.6606 29.0502 33.4497C29.0502 36.2387 26.7892 38.4997 24.0002 38.4997C21.2112 38.4997 18.9502 36.2387 18.9502 33.4497Z" fill="#001A41"/>
<path fill-rule="evenodd" clip-rule="evenodd" d="M2 13.7991C2 12.8326 2.7835 12.0491 3.75 12.0491H44.25C45.2165 12.0491 46 12.8326 46 13.7991C46 14.7656 45.2165 15.5491 44.25 15.5491H3.75C2.7835 15.5491 2 14.7656 2 13.7991Z" fill="#001A41"/>
<path fill-rule="evenodd" clip-rule="evenodd" d="M8 9C8 8.0335 8.7835 7.25 9.75 7.25H13.65C14.6165 7.25 15.4 8.0335 15.4 9C15.4 9.9665 14.6165 10.75 13.65 10.75H9.75C8.7835 10.75 8 9.9665 8 9Z" fill="#001A41"/>
<path fill-rule="evenodd" clip-rule="evenodd" d="M16.25 9C16.25 8.0335 17.0335 7.25 18 7.25H19.5C20.4665 7.25 21.25 8.0335 21.25 9C21.25 9.9665 20.4665 10.75 19.5 10.75H18C17.0335 10.75 16.25 9.9665 16.25 9Z" fill="#001A41"/>
</svg>
