<svg width="48" height="48" viewBox="0 0 48 48" fill="none" xmlns="http://www.w3.org/2000/svg">
<path fill-rule="evenodd" clip-rule="evenodd" d="M8.3999 5.8999C6.99757 5.8999 5.8999 7.06088 5.8999 8.3999V29.2499C5.8999 30.6953 6.95447 31.7499 8.3999 31.7499H39.5999C41.0453 31.7499 42.0999 30.6953 42.0999 29.2499V8.3999C42.0999 6.95447 41.0453 5.8999 39.5999 5.8999H8.3999ZM1.8999 8.3999C1.8999 4.93893 4.70224 1.8999 8.3999 1.8999H39.5999C43.2545 1.8999 46.0999 4.74533 46.0999 8.3999V29.2499C46.0999 32.9045 43.2545 35.7499 39.5999 35.7499H8.3999C4.74533 35.7499 1.8999 32.9045 1.8999 29.2499V8.3999Z" fill="#001A41"/>
<path fill-rule="evenodd" clip-rule="evenodd" d="M35.6172 13.0325C36.3853 13.8262 36.3646 15.0924 35.5708 15.8605L26.2708 24.8605C25.6248 25.4858 24.6409 25.6031 23.8659 25.1472L19.9259 22.8295L13.3449 27.8621C12.4675 28.533 11.2122 28.3657 10.5413 27.4882C9.8703 26.6108 10.0377 25.3556 10.9151 24.6846L18.5651 18.8346C19.2114 18.3404 20.0927 18.2869 20.794 18.6995L24.5825 20.928L32.7891 12.9861C33.5829 12.218 34.849 12.2388 35.6172 13.0325Z" fill="#001A41"/>
<path fill-rule="evenodd" clip-rule="evenodd" d="M24.0801 12.7734C24.0801 11.6689 24.9755 10.7734 26.0801 10.7734H35.5301C36.6346 10.7734 37.5301 11.6689 37.5301 12.7734V22.0734C37.5301 23.178 36.6346 24.0734 35.5301 24.0734C34.4255 24.0734 33.5301 23.178 33.5301 22.0734V14.7734H26.0801C24.9755 14.7734 24.0801 13.878 24.0801 12.7734Z" fill="#001A41"/>
<path fill-rule="evenodd" clip-rule="evenodd" d="M22.5857 32.4857C23.3667 31.7046 24.6331 31.7046 25.4141 32.4857L35.7641 42.8357C36.5452 43.6167 36.5452 44.8831 35.7641 45.6641C34.9831 46.4452 33.7167 46.4452 32.9357 45.6641L23.9999 36.7283L15.0641 45.6641C14.2831 46.4452 13.0167 46.4452 12.2357 45.6641C11.4546 44.8831 11.4546 43.6167 12.2357 42.8357L22.5857 32.4857Z" fill="#001A41"/>
<path fill-rule="evenodd" clip-rule="evenodd" d="M15.3999 40.8C15.3999 39.6955 16.2953 38.8 17.3999 38.8H30.4499C31.5545 38.8 32.4499 39.6955 32.4499 40.8C32.4499 41.9046 31.5545 42.8 30.4499 42.8H17.3999C16.2953 42.8 15.3999 41.9046 15.3999 40.8Z" fill="#001A41"/>
</svg>
