<svg width="24" height="24" viewBox="0 0 24 24" fill="none" xmlns="http://www.w3.org/2000/svg">
<path d="M6.98131 2.00044C6.7215 2.00815 6.47492 2.11641 6.2938 2.3022L2.29377 6.29079C2.20065 6.38338 2.12677 6.49331 2.07636 6.6144C2.02595 6.73549 2 6.86531 2 6.99641C2 7.1275 2.02595 7.25732 2.07636 7.37841C2.12677 7.4995 2.20065 7.60943 2.29377 7.70202L6.2938 11.6907C6.38621 11.7861 6.49679 11.8622 6.61907 11.9144C6.74134 11.9667 6.87285 11.9942 7.00589 11.9951C7.13894 11.9961 7.27084 11.9706 7.39387 11.9202C7.51691 11.8697 7.62861 11.7952 7.72243 11.7012C7.81624 11.6072 7.8903 11.4955 7.94024 11.3726C7.99019 11.2497 8.01504 11.118 8.01332 10.9855C8.0116 10.8529 7.98335 10.7219 7.93023 10.6003C7.87711 10.4788 7.80019 10.369 7.70396 10.2774L5.41293 7.99022H20.999C21.2645 7.99022 21.5191 7.88509 21.7068 7.698C21.8945 7.5109 22 7.25709 22 6.9925C22 6.7279 21.8945 6.47421 21.7068 6.28711C21.5191 6.10002 21.2645 5.99489 20.999 5.99489H5.4227L7.70396 3.71538C7.84959 3.57586 7.94942 3.39558 7.9903 3.19842C8.03118 3.00125 8.01119 2.79638 7.93297 2.61075C7.85475 2.42512 7.72196 2.26745 7.55209 2.1585C7.38222 2.04955 7.18322 1.99448 6.98131 2.00044ZM16.9911 11.969C16.7934 11.9706 16.6005 12.0306 16.4369 12.1415C16.2733 12.2523 16.1464 12.409 16.0722 12.5918C15.998 12.7745 15.9798 12.9751 16.02 13.1682C16.0601 13.3612 16.1568 13.538 16.2978 13.6763L18.5927 15.9654H3.00275C2.74133 15.9712 2.49254 16.0787 2.30967 16.265C2.12681 16.4513 2.02441 16.7015 2.02441 16.9621C2.02441 17.2228 2.12681 17.4731 2.30967 17.6594C2.49254 17.8456 2.74133 17.9531 3.00275 17.9588H18.5869L16.2978 20.2461C16.1931 20.3355 16.1081 20.4454 16.0481 20.5691C15.988 20.6927 15.9543 20.8275 15.949 20.9647C15.9437 21.102 15.9669 21.2388 16.0172 21.3668C16.0674 21.4947 16.1437 21.6109 16.2412 21.7081C16.3386 21.8052 16.4552 21.8812 16.5835 21.9313C16.7119 21.9814 16.8492 22.0046 16.9869 21.9993C17.1247 21.994 17.2598 21.9603 17.3839 21.9005C17.508 21.8407 17.6183 21.756 17.708 21.6516L21.708 17.6649C21.8943 17.4781 21.9988 17.2255 21.9988 16.9621C21.9988 16.6988 21.8943 16.4462 21.708 16.2594L17.708 12.2708C17.6148 12.1753 17.5033 12.0994 17.3802 12.0476C17.2571 11.9957 17.1248 11.969 16.9911 11.969Z" fill="#9BA0A5"/>
</svg>
