<svg width="48" height="48" viewBox="0 0 48 48" fill="none" xmlns="http://www.w3.org/2000/svg">
<path fill-rule="evenodd" clip-rule="evenodd" d="M31.76 34.5811L24 42.3411L16.24 34.5811C15.46 33.8011 14.2 33.8011 13.42 34.5811C12.64 35.3611 12.64 36.6211 13.42 37.4011L22.6 46.5811C23.38 47.3611 24.64 47.3611 25.42 46.5811L34.6 37.4011C35.38 36.6211 35.38 35.3611 34.6 34.5811C33.82 33.8211 32.54 33.8011 31.76 34.5811Z" fill="#001A41"/>
<path fill-rule="evenodd" clip-rule="evenodd" d="M16.24 13.4189L24 5.65891L31.76 13.4189C32.54 14.1989 33.8 14.1989 34.58 13.4189C35.36 12.6389 35.36 11.3789 34.58 10.5989L25.4 1.41891C24.62 0.638906 23.36 0.638905 22.58 1.41891L13.4 10.5989C12.62 11.3789 12.62 12.6389 13.4 13.4189C14.18 14.1789 15.46 14.1989 16.24 13.4189Z" fill="#001A41"/>
</svg>
