<svg width="48" height="49" viewBox="0 0 48 49" fill="none" xmlns="http://www.w3.org/2000/svg">
<g clip-path="url(#clip0_166_15982)">
<path fill-rule="evenodd" clip-rule="evenodd" d="M18.7368 33.4885V16.6464C18.7368 14.3306 20.6105 12.4359 22.9474 12.4359H41.8947V10.3306C41.8947 8.01485 40 6.12012 37.6842 6.12012H8.21053C5.87368 6.12012 4 8.01485 4 10.3306V39.8043C4 42.1201 5.87368 44.0149 8.21053 44.0149H37.6842C40 44.0149 41.8947 42.1201 41.8947 39.8043V37.6991H22.9474C20.6105 37.6991 18.7368 35.8043 18.7368 33.4885ZM25.0525 16.6465C23.8946 16.6465 22.9473 17.5939 22.9473 18.7517V31.3833C22.9473 32.5412 23.8946 33.4886 25.0525 33.4886H43.9999V16.6465H25.0525ZM31.3679 28.2255C29.6205 28.2255 28.21 26.8149 28.21 25.0676C28.21 23.3202 29.6205 21.9097 31.3679 21.9097C33.1152 21.9097 34.5258 23.3202 34.5258 25.0676C34.5258 26.8149 33.1152 28.2255 31.3679 28.2255Z" fill="#001A41"/>
</g>
<defs>
<clipPath id="clip0_166_15982">
<rect width="40" height="40" fill="white" transform="translate(4 4.12012)"/>
</clipPath>
</defs>
</svg>
