<svg width="24" height="24" viewBox="0 0 24 24" fill="none" xmlns="http://www.w3.org/2000/svg">
<path d="M2.6892 11.5297C2.68644 10.3809 2.91155 9.24303 3.35151 8.18184C3.79147 7.12064 4.43753 6.15724 5.25231 5.34738C5.31697 5.28272 5.3533 5.19502 5.3533 5.10358C5.3533 5.01213 5.31697 4.92444 5.25231 4.85978C5.18764 4.79511 5.09994 4.75879 5.00849 4.75879C4.91704 4.75879 4.82934 4.79512 4.76467 4.85978C3.88808 5.73532 3.19266 6.77506 2.7182 7.91953C2.24373 9.06401 1.99951 10.2908 1.99951 11.5297C1.99951 12.7686 2.24373 13.9954 2.7182 15.1399C3.19266 16.2843 3.88808 17.3241 4.76467 18.1996C4.79669 18.2316 4.8347 18.257 4.87654 18.2744C4.91837 18.2917 4.96321 18.3006 5.00849 18.3006C5.05377 18.3006 5.09861 18.2917 5.14044 18.2744C5.18228 18.257 5.22029 18.2316 5.25231 18.1996C5.28433 18.1676 5.30973 18.1296 5.32705 18.0878C5.34438 18.0459 5.3533 18.0011 5.3533 17.9558C5.3533 17.9105 5.34438 17.8657 5.32706 17.8239C5.30973 17.782 5.28433 17.744 5.25231 17.712C4.43756 16.9021 3.79151 15.9387 3.35155 14.8775C2.9116 13.8164 2.68647 12.6785 2.6892 11.5297Z" fill="#9BA0A5"/>
<path d="M4.78686 11.5298C4.78462 10.6565 4.95565 9.79138 5.29006 8.98462C5.62447 8.17786 6.11561 7.44545 6.73503 6.8298C6.76705 6.79779 6.79245 6.75978 6.80978 6.71795C6.82711 6.67611 6.83603 6.63128 6.83603 6.586C6.83603 6.54072 6.82711 6.49589 6.80978 6.45406C6.79245 6.41222 6.76705 6.37421 6.73503 6.3422C6.70302 6.31018 6.665 6.28478 6.62317 6.26746C6.58134 6.25013 6.5365 6.24121 6.49122 6.24121C6.44594 6.24121 6.4011 6.25013 6.35927 6.26746C6.31743 6.28478 6.27942 6.31018 6.2474 6.3422C5.56573 7.02322 5.02497 7.8319 4.65602 8.72201C4.28707 9.61213 4.09717 10.5662 4.09717 11.5298C4.09717 12.4933 4.28707 13.4474 4.65602 14.3375C5.02497 15.2276 5.56573 16.0363 6.2474 16.7173C6.31207 16.782 6.39977 16.8183 6.49122 16.8183C6.58267 16.8183 6.67037 16.782 6.73504 16.7173C6.7997 16.6527 6.83603 16.565 6.83603 16.4735C6.83603 16.3821 6.7997 16.2944 6.73503 16.2297C6.11561 15.6141 5.62447 14.8817 5.29006 14.0749C4.95565 13.2682 4.78462 12.4031 4.78686 11.5298Z" fill="#9BA0A5"/>
<path d="M6.88501 11.5297C6.88333 10.9319 7.00025 10.3397 7.22898 9.78746C7.45772 9.23519 7.79374 8.73377 8.21758 8.31223C8.2496 8.28021 8.27499 8.2422 8.29232 8.20037C8.30965 8.15854 8.31857 8.1137 8.31857 8.06842C8.31857 8.02314 8.30965 7.97831 8.29232 7.93648C8.27499 7.89465 8.2496 7.85664 8.21758 7.82462C8.18556 7.7926 8.14755 7.76721 8.10571 7.74988C8.06388 7.73255 8.01904 7.72363 7.97376 7.72363C7.92848 7.72363 7.88364 7.73255 7.84181 7.74988C7.79997 7.76721 7.76196 7.7926 7.72994 7.82462C6.74733 8.8073 6.19531 10.14 6.19531 11.5297C6.19531 12.9193 6.74733 14.252 7.72994 15.2347C7.76196 15.2667 7.79997 15.2921 7.84181 15.3094C7.88364 15.3268 7.92848 15.3357 7.97376 15.3357C8.01904 15.3357 8.06388 15.3268 8.10571 15.3094C8.14755 15.2921 8.18556 15.2667 8.21758 15.2347C8.2496 15.2027 8.27499 15.1647 8.29232 15.1229C8.30965 15.081 8.31857 15.0362 8.31857 14.9909C8.31857 14.9456 8.30965 14.9008 8.29232 14.859C8.27499 14.8171 8.2496 14.7791 8.21758 14.7471C7.79373 14.3256 7.45772 13.8241 7.22898 13.2719C7.00025 12.7196 6.88333 12.1274 6.88501 11.5297Z" fill="#9BA0A5"/>
<path d="M9.69828 9.3054C9.66605 9.2736 9.62786 9.24845 9.58591 9.23141C9.54396 9.21436 9.49905 9.20575 9.45377 9.20606C9.40848 9.20638 9.3637 9.21561 9.32199 9.23323C9.28027 9.25085 9.24244 9.27652 9.21065 9.30877C8.62295 9.89855 8.29297 10.6972 8.29297 11.5298C8.29297 12.3624 8.62295 13.161 9.21065 13.7508C9.2749 13.8157 9.3623 13.8525 9.45366 13.8531C9.54502 13.8536 9.63286 13.8179 9.69791 13.7538C9.76295 13.6896 9.79988 13.6023 9.80058 13.5109C9.80128 13.4196 9.7657 13.3317 9.70165 13.2665C9.24127 12.8058 8.98266 12.1811 8.98266 11.5298C8.98266 10.8784 9.24127 10.2538 9.70165 9.79301C9.73346 9.76078 9.7586 9.7226 9.77565 9.68064C9.7927 9.63869 9.80131 9.59379 9.801 9.54851C9.80068 9.50323 9.79145 9.45845 9.77383 9.41674C9.7562 9.37503 9.73053 9.33719 9.69828 9.3054Z" fill="#9BA0A5"/>
<path d="M19.2356 4.85978C19.1709 4.79512 19.0832 4.75879 18.9918 4.75879C18.9003 4.75879 18.8126 4.79511 18.748 4.85978C18.6833 4.92444 18.647 5.01213 18.647 5.10358C18.647 5.19502 18.6833 5.28272 18.748 5.34738C19.5605 6.15891 20.2051 7.12263 20.6449 8.18344C21.0847 9.24425 21.3111 10.3813 21.3111 11.5297C21.3111 12.6781 21.0847 13.8151 20.6449 14.876C20.2051 15.9368 19.5605 16.9005 18.748 17.712C18.7159 17.744 18.6905 17.782 18.6732 17.8239C18.6559 17.8657 18.647 17.9105 18.647 17.9558C18.647 18.0011 18.6559 18.0459 18.6732 18.0878C18.6905 18.1296 18.7159 18.1676 18.748 18.1996C18.78 18.2316 18.818 18.257 18.8598 18.2744C18.9017 18.2917 18.9465 18.3006 18.9918 18.3006C19.0371 18.3006 19.0819 18.2917 19.1237 18.2744C19.1656 18.257 19.2036 18.2316 19.2356 18.1996C20.1122 17.3241 20.8076 16.2843 21.2821 15.1399C21.7565 13.9954 22.0008 12.7686 22.0008 11.5297C22.0008 10.2908 21.7565 9.06401 21.2821 7.91953C20.8076 6.77506 20.1122 5.73532 19.2356 4.85978Z" fill="#9BA0A5"/>
<path d="M17.7527 6.3422C17.7207 6.31018 17.6827 6.28478 17.6408 6.26746C17.599 6.25013 17.5542 6.24121 17.5089 6.24121C17.4636 6.24121 17.4188 6.25013 17.3769 6.26746C17.3351 6.28478 17.2971 6.31018 17.2651 6.3422C17.233 6.37421 17.2076 6.41222 17.1903 6.45406C17.173 6.49589 17.1641 6.54072 17.1641 6.586C17.1641 6.63128 17.173 6.67611 17.1903 6.71795C17.2076 6.75978 17.233 6.79779 17.2651 6.8298C17.8827 7.4468 18.3726 8.17947 18.7069 8.98592C19.0412 9.79237 19.2132 10.6568 19.2132 11.5298C19.2132 12.4027 19.0412 13.2672 18.7069 14.0736C18.3726 14.8801 17.8827 15.6127 17.2651 16.2297C17.233 16.2617 17.2076 16.2997 17.1903 16.3416C17.173 16.3834 17.1641 16.4282 17.1641 16.4735C17.1641 16.5188 17.173 16.5636 17.1903 16.6055C17.2076 16.6473 17.233 16.6853 17.2651 16.7173C17.2971 16.7493 17.3351 16.7747 17.3769 16.7921C17.4188 16.8094 17.4636 16.8183 17.5089 16.8183C17.5542 16.8183 17.599 16.8094 17.6408 16.7921C17.6827 16.7747 17.7207 16.7493 17.7527 16.7173C18.4344 16.0363 18.9751 15.2276 19.3441 14.3375C19.713 13.4474 19.9029 12.4933 19.9029 11.5298C19.9029 10.5662 19.713 9.61213 19.3441 8.72201C18.9751 7.8319 18.4344 7.02322 17.7527 6.3422Z" fill="#9BA0A5"/>
<path d="M16.2703 7.82462C16.2056 7.75996 16.1179 7.72363 16.0264 7.72363C15.935 7.72363 15.8473 7.75996 15.7826 7.82462C15.718 7.88928 15.6816 7.97698 15.6816 8.06843C15.6816 8.15987 15.718 8.24757 15.7826 8.31223C16.6359 9.16561 17.1152 10.3229 17.1152 11.5297C17.1152 12.7364 16.6359 13.8937 15.7826 14.7471C15.7506 14.7791 15.7252 14.8171 15.7079 14.859C15.6906 14.9008 15.6816 14.9456 15.6816 14.9909C15.6816 15.0362 15.6906 15.081 15.7079 15.1229C15.7252 15.1647 15.7506 15.2027 15.7826 15.2347C15.8147 15.2667 15.8527 15.2921 15.8945 15.3095C15.9363 15.3268 15.9812 15.3357 16.0265 15.3357C16.0717 15.3357 16.1166 15.3268 16.1584 15.3095C16.2002 15.2921 16.2382 15.2667 16.2703 15.2347C17.2529 14.252 17.8049 12.9193 17.8049 11.5297C17.8049 10.14 17.2529 8.8073 16.2703 7.82462Z" fill="#9BA0A5"/>
<path d="M14.7894 9.3086C14.7252 9.24366 14.6378 9.20687 14.5464 9.20631C14.4551 9.20575 14.3672 9.24146 14.3022 9.30561C14.2371 9.36976 14.2002 9.4571 14.1995 9.54845C14.1988 9.6398 14.2344 9.7277 14.2984 9.79284C14.7588 10.2536 15.0174 10.8783 15.0174 11.5296C15.0174 12.1809 14.7588 12.8056 14.2984 13.2664C14.2665 13.2986 14.2413 13.3368 14.2242 13.3788C14.2071 13.4207 14.1985 13.4657 14.1987 13.511C14.199 13.5563 14.2082 13.6011 14.2258 13.6429C14.2435 13.6847 14.2691 13.7225 14.3014 13.7544C14.3337 13.7862 14.3719 13.8113 14.4139 13.8284C14.4559 13.8454 14.5009 13.854 14.5462 13.8537C14.5915 13.8533 14.6363 13.844 14.6781 13.8264C14.7198 13.8087 14.7576 13.7829 14.7894 13.7506C15.3771 13.1608 15.7071 12.3622 15.7071 11.5296C15.7071 10.697 15.3771 9.89838 14.7894 9.3086Z" fill="#9BA0A5"/>
<path d="M12 10.3672C11.6957 10.3664 11.4014 10.4758 11.1716 10.6752C10.9418 10.8746 10.792 11.1505 10.7499 11.4518C10.7078 11.7532 10.7763 12.0596 10.9428 12.3143C11.1092 12.569 11.3623 12.7548 11.6551 12.8373V18.8769C11.6551 18.9684 11.6915 19.0561 11.7561 19.1207C11.8208 19.1854 11.9085 19.2217 12 19.2217C12.0914 19.2217 12.1792 19.1854 12.2438 19.1207C12.3085 19.0561 12.3448 18.9684 12.3448 18.8769V12.8373C12.6377 12.7548 12.8908 12.569 13.0572 12.3143C13.2236 12.0596 13.2921 11.7532 13.25 11.4518C13.208 11.1505 13.0582 10.8746 12.8284 10.6752C12.5985 10.4758 12.3043 10.3664 12 10.3672Z" fill="#9BA0A5"/>
</svg>
