<svg width="48" height="49" viewBox="0 0 48 49" fill="none" xmlns="http://www.w3.org/2000/svg">
<g clip-path="url(#clip0_166_15961)">
<path d="M31.2727 14.5717V33.8053C31.2727 37.6048 28.4909 40.9861 24.7091 41.3497C20.3636 41.7679 16.7273 38.3683 16.7273 34.1144V11.6448C16.7273 9.26334 18.4364 7.10001 20.8 6.86368C23.5273 6.59099 25.8182 8.71796 25.8182 11.3903V30.4785C25.8182 31.4784 25 32.2965 24 32.2965C23 32.2965 22.1818 31.4784 22.1818 30.4785V14.5717C22.1818 13.8263 21.5636 13.2082 20.8182 13.2082C20.0727 13.2082 19.4545 13.8263 19.4545 14.5717V30.224C19.4545 32.6055 21.1636 34.7688 23.5273 35.0052C26.2545 35.2779 28.5455 33.1509 28.5455 30.4785V11.6994C28.5455 7.89989 25.7636 4.51855 21.9818 4.15497C17.6545 3.73684 14 7.13636 14 11.3903V33.6963C14 38.9137 17.8182 43.5858 23.0182 44.0766C29 44.622 34 39.9681 34 34.1144V14.5717C34 13.8263 33.3818 13.2082 32.6364 13.2082C31.8909 13.2082 31.2727 13.8263 31.2727 14.5717Z" fill="#001A41"/>
</g>
<defs>
<clipPath id="clip0_166_15961">
<rect width="40" height="40" fill="white" transform="translate(4 4.12012)"/>
</clipPath>
</defs>
</svg>
