<svg width="48" height="49" viewBox="0 0 48 49" fill="none" xmlns="http://www.w3.org/2000/svg">
<g clip-path="url(#clip0_166_15971)">
<path d="M24 12.4634V15.9409C24 16.8151 25.08 17.2425 25.7 16.6209L31.28 11.2006C31.68 10.8121 31.68 10.2098 31.28 9.82129L25.7 4.40107C25.08 3.79883 24 4.22623 24 5.10046V8.57794C15.16 8.57794 8 15.5329 8 24.1198C8 26.1402 8.4 28.083 9.14 29.8508C9.68 31.1525 11.4 31.5022 12.42 30.5114C12.96 29.9868 13.18 29.1903 12.88 28.4909C12.3 27.1505 12 25.6546 12 24.1198C12 17.6894 17.38 12.4634 24 12.4634ZM35.58 17.7282C35.04 18.2527 34.82 19.0687 35.12 19.7486C35.68 21.1086 36 22.585 36 24.1198C36 30.5502 30.62 35.7762 24 35.7762V32.2987C24 31.4245 22.92 30.9971 22.3 31.6187L16.72 37.039C16.32 37.4275 16.32 38.0298 16.72 38.4183L22.3 43.8385C22.92 44.4408 24 44.0134 24 43.1586V39.6616C32.84 39.6616 40 32.7067 40 24.1198C40 22.0994 39.6 20.1566 38.86 18.3887C38.32 17.0871 36.6 16.7374 35.58 17.7282Z" fill="#001A41"/>
</g>
<defs>
<clipPath id="clip0_166_15971">
<rect width="40" height="40" fill="white" transform="translate(4 4.12012)"/>
</clipPath>
</defs>
</svg>
