<svg width="20" height="20" viewBox="0 0 20 20" fill="none" xmlns="http://www.w3.org/2000/svg">
<path d="M8.54787 18.333C9.2478 18.333 9.83348 17.8385 9.96831 17.1836H7.12744C7.26227 17.8385 7.84795 18.333 8.54787 18.333Z" fill="#666666"/>
<path d="M6.2282 6.8389C6.86781 6.8389 7.38797 7.35442 7.38797 7.98833H8.54774V7.12626C7.90813 7.12626 7.38797 6.61074 7.38797 5.97683C7.38797 5.34292 7.90813 4.82741 8.54774 4.82741V3.39062H8.35029C5.71007 3.39062 3.53926 5.42051 3.34326 7.98833H5.06842C5.06842 7.35442 5.58858 6.8389 6.2282 6.8389Z" fill="#666666"/>
<path d="M6.51833 14.3101H8.54793V12.0113C7.90831 12.0113 7.38815 11.4958 7.38815 10.8619C7.38815 10.2279 7.90831 9.71242 8.54793 9.71242V8.563H6.80827V7.98829C6.80827 7.67133 6.54819 7.41357 6.22838 7.41357C5.90857 7.41357 5.6485 7.67133 5.6485 7.98829V8.563H3.33301C3.38839 9.98771 4.05149 11.3113 5.17067 12.219L6.51833 13.3119V14.3101Z" fill="#666666"/>
<path d="M12.027 7.98829C12.027 7.67133 11.7669 7.41357 11.4471 7.41357C11.1273 7.41357 10.8672 7.67133 10.8672 7.98829V8.563H9.12755V10.2871H8.54766C8.22785 10.2871 7.96777 10.5449 7.96777 10.8619C7.96777 11.1788 8.22785 11.4366 8.54766 11.4366H9.12755V14.3101H10.5773V13.3119L11.9249 12.219C13.0441 11.3113 13.7069 9.98771 13.7626 8.563H12.027V7.98829Z" fill="#666666"/>
<path d="M10.2873 16.0342H6.80801C6.64796 16.0342 6.51807 16.1632 6.51807 16.3215C6.51807 16.4799 6.64796 16.6089 6.80801 16.6089H10.2873C10.4474 16.6089 10.5773 16.4799 10.5773 16.3215C10.5773 16.1632 10.4474 16.0342 10.2873 16.0342Z" fill="#666666"/>
<path d="M10.8675 14.8848H6.22842C6.06837 14.8848 5.93848 15.0138 5.93848 15.1721C5.93848 15.3305 6.06837 15.4595 6.22842 15.4595H6.80831H10.2876H10.8675C11.0276 15.4595 11.1575 15.3305 11.1575 15.1721C11.1575 15.0138 11.0276 14.8848 10.8675 14.8848Z" fill="#666666"/>
</svg>
