<svg width="48" height="49" viewBox="0 0 48 49" fill="none" xmlns="http://www.w3.org/2000/svg">
<g clip-path="url(#clip0_166_15965)">
<path fill-rule="evenodd" clip-rule="evenodd" d="M21.0861 5.1264L13.2874 17.8726C12.4279 19.2563 13.4342 21.0592 15.0694 21.0592H30.6458C32.281 21.0592 33.2873 19.2563 32.4278 17.8726L24.65 5.1264C23.8324 3.78469 21.9037 3.78469 21.0861 5.1264ZM34.3982 44.1201C39.6084 44.1201 43.8321 39.8964 43.8321 34.6862C43.8321 29.476 39.6084 25.2523 34.3982 25.2523C29.188 25.2523 24.9643 29.476 24.9643 34.6862C24.9643 39.8964 29.188 44.1201 34.3982 44.1201ZM18.675 43.0719H6.09642C4.94339 43.0719 4 42.1285 4 40.9754V28.3969C4 27.2439 4.94339 26.3005 6.09642 26.3005H18.675C19.828 26.3005 20.7714 27.2439 20.7714 28.3969V40.9754C20.7714 42.1285 19.828 43.0719 18.675 43.0719Z" fill="#001A41"/>
</g>
<defs>
<clipPath id="clip0_166_15965">
<rect width="40" height="40" fill="white" transform="translate(4 4.12012)"/>
</clipPath>
</defs>
</svg>
