<svg width="44" height="45" viewBox="0 0 44 45" fill="none" xmlns="http://www.w3.org/2000/svg">
<g clip-path="url(#clip0_166_21335)">
<path fill-rule="evenodd" clip-rule="evenodd" d="M22.0001 3.78687C11.8617 3.78687 3.66675 11.9819 3.66675 22.1202C3.66675 32.2585 11.8617 40.4535 22.0001 40.4535C32.1384 40.4535 40.3334 32.2585 40.3334 22.1202C40.3334 11.9819 32.1384 3.78687 22.0001 3.78687ZM30.5259 13.1751C31.1739 13.5916 31.3616 14.4545 30.9451 15.1025L21.4925 29.8099C21.252 30.1842 20.8473 30.4212 20.4033 30.448C19.9592 30.4748 19.5289 30.2881 19.2451 29.9455L13.1541 22.5918C12.6627 21.9986 12.7453 21.1194 13.3385 20.628C13.9317 20.1366 14.8109 20.2192 15.3023 20.8124L20.177 26.6975L28.5985 13.5943C29.015 12.9463 29.8779 12.7587 30.5259 13.1751Z" fill="#001A41"/>
</g>
<defs>
<clipPath id="clip0_166_21335">
<rect width="36.6667" height="36.6667" fill="white" transform="translate(3.66675 3.78687)"/>
</clipPath>
</defs>
</svg>
