<svg width="48" height="49" viewBox="0 0 48 49" fill="none" xmlns="http://www.w3.org/2000/svg">
<g clip-path="url(#clip0_166_16004)">
<path fill-rule="evenodd" clip-rule="evenodd" d="M10.2219 39.6757C10.2219 42.1201 12.2219 44.1201 14.6664 44.1201H32.4442C34.8887 44.1201 36.8887 42.1201 36.8887 39.6757V17.4534C36.8887 15.0089 34.8887 13.0089 32.4442 13.0089H14.6664C12.2219 13.0089 10.2219 15.0089 10.2219 17.4534V39.6757ZM36.889 6.34235H31.3334L29.7556 4.76456C29.3556 4.36456 28.7779 4.12012 28.2001 4.12012H18.9111C18.3334 4.12012 17.7556 4.36456 17.3556 4.76456L15.7778 6.34235H10.2222C9 6.34235 8 7.34235 8 8.56458C8 9.7868 9 10.7868 10.2222 10.7868H36.889C38.1112 10.7868 39.1112 9.7868 39.1112 8.56458C39.1112 7.34235 38.1112 6.34235 36.889 6.34235Z" fill="#001A41"/>
</g>
<defs>
<clipPath id="clip0_166_16004">
<rect width="40" height="40" fill="white" transform="translate(4 4.12012)"/>
</clipPath>
</defs>
</svg>
