<svg width="48" height="49" viewBox="0 0 48 49" fill="none" xmlns="http://www.w3.org/2000/svg">
<path fill-rule="evenodd" clip-rule="evenodd" d="M43.98 19.4951C43.98 18.0551 43.24 16.7951 42.1 16.0951L26.02 6.67512C24.78 5.93512 23.22 5.93512 21.98 6.67512L5.9 16.0951C4.76 16.7951 4 18.0551 4 19.4951V39.4951C4 41.6951 5.8 43.4951 8 43.4951H40C42.2 43.4951 44 41.6951 44 39.4951L43.98 19.4951ZM21.88 28.1751L7.48 19.1751L21.98 10.6751C23.22 9.93512 24.78 9.93512 26.02 10.6751L40.52 19.1751L26.12 28.1751C24.82 28.9751 23.18 28.9751 21.88 28.1751Z" fill="#001A41"/>
</svg>
