<svg width="44" height="45" viewBox="0 0 44 45" fill="none" xmlns="http://www.w3.org/2000/svg">
<g clip-path="url(#clip0_166_15977)">
<path d="M34.2223 36.3795H9.77786C8.65749 36.3795 7.74082 35.4628 7.74082 34.3424V9.89798C7.74082 8.77761 8.65749 7.86094 9.77786 7.86094H19.963C21.0834 7.86094 22.0001 6.94427 22.0001 5.8239C22.0001 4.70353 21.0834 3.78687 19.963 3.78687H7.74082C5.47971 3.78687 3.66675 5.6202 3.66675 7.86094V36.3795C3.66675 38.6202 5.50008 40.4535 7.74082 40.4535H36.2593C38.5001 40.4535 40.3334 38.6202 40.3334 36.3795V24.1572C40.3334 23.0369 39.4167 22.1202 38.2964 22.1202C37.176 22.1202 36.2593 23.0369 36.2593 24.1572V34.3424C36.2593 35.4628 35.3427 36.3795 34.2223 36.3795ZM26.0742 5.8239C26.0742 6.94427 26.9908 7.86094 28.1112 7.86094H33.3871L14.789 26.4591C13.9945 27.2535 13.9945 28.5369 14.789 29.3313C15.5834 30.1258 16.8667 30.1258 17.6612 29.3313L36.2593 10.7332V16.0091C36.2593 17.1295 37.176 18.0461 38.2964 18.0461C39.4167 18.0461 40.3334 17.1295 40.3334 16.0091V3.78687H28.1112C26.9908 3.78687 26.0742 4.70353 26.0742 5.8239Z" fill="#001A41"/>
</g>
<defs>
<clipPath id="clip0_166_15977">
<rect width="36.6667" height="36.6667" fill="white" transform="translate(3.66675 3.78687)"/>
</clipPath>
</defs>
</svg>
