<svg width="48" height="49" viewBox="0 0 48 49" fill="none" xmlns="http://www.w3.org/2000/svg">
<g clip-path="url(#clip0_166_21324)">
<path d="M31.2632 4.12012H11.5789C9.61053 4.12012 8 5.75648 8 7.75648V31.3928C8 32.3928 8.80526 33.211 9.78947 33.211C10.7737 33.211 11.5789 32.3928 11.5789 31.3928V9.57466C11.5789 8.57466 12.3842 7.75648 13.3684 7.75648H31.2632C32.2474 7.75648 33.0526 6.9383 33.0526 5.9383C33.0526 4.9383 32.2474 4.12012 31.2632 4.12012ZM32.3189 12.4656L40.9621 21.2474C41.6242 21.9201 42 22.8474 42 23.811V40.4838C42 42.4838 40.3895 44.1201 38.4211 44.1201H18.7189C16.7505 44.1201 15.1579 42.4838 15.1579 40.4838L15.1758 15.0292C15.1758 13.0292 16.7684 11.3928 18.7368 11.3928H29.7779C30.7263 11.3928 31.6389 11.7747 32.3189 12.4656ZM31.2632 24.1201H39.3158L29.4737 14.1201V22.3019C29.4737 23.3019 30.2789 24.1201 31.2632 24.1201Z" fill="#001A41"/>
</g>
<defs>
<clipPath id="clip0_166_21324">
<rect width="40" height="40" fill="white" transform="translate(4 4.12012)"/>
</clipPath>
</defs>
</svg>
