<svg width="44" height="45" viewBox="0 0 44 45" fill="none" xmlns="http://www.w3.org/2000/svg">
<g clip-path="url(#clip0_166_21326)">
<path d="M22.0001 3.78687C11.8801 3.78687 3.66675 12.0002 3.66675 22.1202C3.66675 32.2402 11.8801 40.4535 22.0001 40.4535C32.1201 40.4535 40.3334 32.2402 40.3334 22.1202C40.3334 12.0002 32.1201 3.78687 22.0001 3.78687ZM23.8334 34.9535H20.1667V31.2869H23.8334V34.9535ZM27.6284 20.7452L25.9784 22.4319C25.0617 23.3669 24.4017 24.2102 24.0717 25.5302C23.9251 26.1169 23.8334 26.7769 23.8334 27.6202H20.1667V26.7035C20.1667 25.8602 20.3134 25.0535 20.5701 24.3019C20.9367 23.2385 21.5417 22.2852 22.3117 21.5152L24.5851 19.2052C25.4284 18.3985 25.8317 17.1885 25.5934 15.9052C25.3551 14.5852 24.3284 13.4669 23.0451 13.1002C21.0101 12.5319 19.1217 13.6869 18.5167 15.4285C18.2967 16.1069 17.7284 16.6202 17.0134 16.6202H16.4634C15.4001 16.6202 14.6667 15.5935 14.9601 14.5669C15.7484 11.8719 18.0401 9.81853 20.8817 9.37853C23.6684 8.93853 26.3267 10.3869 27.9767 12.6785C30.1401 15.6669 29.4984 18.8752 27.6284 20.7452Z" fill="#001A41"/>
</g>
<defs>
<clipPath id="clip0_166_21326">
<rect width="36.6667" height="36.6667" fill="white" transform="translate(3.66675 3.78687)"/>
</clipPath>
</defs>
</svg>
