<svg width="16" height="17" viewBox="0 0 16 17" fill="none" xmlns="http://www.w3.org/2000/svg">
<g clip-path="url(#clip0_6865_30475)">
<path d="M7.4658 12.0102V4.98802C7.4658 4.63973 7.39234 4.36127 7.19364 4.17426C6.99698 3.98917 6.70649 3.92135 6.34079 3.92135H4.54636C4.18066 3.92135 3.89017 3.98917 3.69352 4.17426C3.49482 4.36127 3.42135 4.63973 3.42135 4.98802V12.0102C3.42135 12.3585 3.49482 12.637 3.69352 12.824C3.89017 13.0091 4.18066 13.0769 4.54636 13.0769H6.34079C6.70649 13.0769 6.99698 13.0091 7.19364 12.824C7.39234 12.637 7.4658 12.3585 7.4658 12.0102ZM11.4519 3.92135H9.65747C9.29177 3.92135 9.00129 3.98917 8.80463 4.17426C8.60593 4.36127 8.53247 4.63973 8.53247 4.98802V8.89913C8.53247 9.24743 8.60593 9.52588 8.80463 9.71289C9.00129 9.89798 9.29177 9.9658 9.65747 9.9658H11.4519C11.8176 9.9658 12.1081 9.89798 12.3047 9.71289C12.5034 9.52588 12.5769 9.24743 12.5769 8.89913V4.98802C12.5769 4.63973 12.5034 4.36127 12.3047 4.17426C12.1081 3.98917 11.8176 3.92135 11.4519 3.92135Z" fill="#0055B6" stroke="#0055B6" stroke-width="0.266667"/>
</g>
<defs>
<clipPath id="clip0_6865_30475">
<rect width="10.6667" height="10.6667" fill="white" transform="translate(2.66602 3.16602)"/>
</clipPath>
</defs>
</svg>
