<svg width="14" height="14" viewBox="0 0 14 14" fill="none" xmlns="http://www.w3.org/2000/svg">
<g clip-path="url(#clip0_4143_4196)">
<path d="M7.33334 3.66668C8.25 3.66668 9 2.91668 9 2.00001C9 1.08334 8.25 0.333344 7.33334 0.333344C6.41667 0.333344 5.66667 1.08334 5.66667 2.00001C5.66667 2.91668 6.41667 3.66668 7.33334 3.66668ZM7.33334 5.33334C6.41667 5.33334 5.66667 6.08334 5.66667 7.00001C5.66667 7.91668 6.41667 8.66668 7.33334 8.66668C8.25 8.66668 9 7.91668 9 7.00001C9 6.08334 8.25 5.33334 7.33334 5.33334ZM7.33334 10.3333C6.41667 10.3333 5.66667 11.0833 5.66667 12C5.66667 12.9167 6.41667 13.6667 7.33334 13.6667C8.25 13.6667 9 12.9167 9 12C9 11.0833 8.25 10.3333 7.33334 10.3333Z" fill="#001A41"/>
</g>
<defs>
<clipPath id="clip0_4143_4196">
<rect width="13.3333" height="13.3333" fill="white" transform="translate(0.333328 0.333344)"/>
</clipPath>
</defs>
</svg>
