<svg width="48" height="49" viewBox="0 0 48 49" fill="none" xmlns="http://www.w3.org/2000/svg">
<g clip-path="url(#clip0_166_15981)">
<path fill-rule="evenodd" clip-rule="evenodd" d="M23.98 4.12012C12.94 4.12012 4 13.0801 4 24.1201C4 35.1601 12.94 44.1201 23.98 44.1201C35.04 44.1201 44 35.1601 44 24.1201C44 13.0801 35.04 4.12012 23.98 4.12012ZM37.84 16.1201H31.94C31.3 13.6201 30.38 11.2201 29.18 9.00012C32.86 10.2601 35.92 12.8201 37.84 16.1201ZM24 8.20012C25.66 10.6001 26.96 13.2601 27.82 16.1201H20.18C21.04 13.2601 22.34 10.6001 24 8.20012ZM8.52 28.1201C8.2 26.8401 8 25.5001 8 24.1201C8 22.7401 8.2 21.4001 8.52 20.1201H15.28C15.12 21.4401 15 22.7601 15 24.1201C15 25.4801 15.12 26.8001 15.28 28.1201H8.52ZM10.16 32.1201H16.06C16.7 34.6201 17.62 37.0201 18.82 39.2401C15.14 37.9801 12.08 35.4401 10.16 32.1201ZM16.06 16.1201H10.16C12.08 12.8001 15.14 10.2601 18.82 9.00012C17.62 11.2201 16.7 13.6201 16.06 16.1201ZM24 40.0401C22.34 37.6401 21.04 34.9801 20.18 32.1201H27.82C26.96 34.9801 25.66 37.6401 24 40.0401ZM28.68 28.1201H19.32C19.14 26.8001 19 25.4801 19 24.1201C19 22.7601 19.14 21.4201 19.32 20.1201H28.68C28.86 21.4201 29 22.7601 29 24.1201C29 25.4801 28.86 26.8001 28.68 28.1201ZM29.18 39.2401C30.38 37.0201 31.3 34.6201 31.94 32.1201H37.84C35.92 35.4201 32.86 37.9801 29.18 39.2401ZM32.72 28.1201C32.88 26.8001 33 25.4801 33 24.1201C33 22.7601 32.88 21.4401 32.72 20.1201H39.48C39.8 21.4001 40 22.7401 40 24.1201C40 25.5001 39.8 26.8401 39.48 28.1201H32.72Z" fill="#001A41"/>
</g>
<defs>
<clipPath id="clip0_166_15981">
<rect width="40" height="40" fill="white" transform="translate(4 4.12012)"/>
</clipPath>
</defs>
</svg>
