<svg width="48" height="49" viewBox="0 0 48 49" fill="none" xmlns="http://www.w3.org/2000/svg">
<g clip-path="url(#clip0_166_15966)">
<path d="M40.396 21.7696C41.4523 20.9412 41.4523 19.3259 40.396 18.4975L26.3948 7.60446C24.9035 6.44474 22.8116 6.44474 21.2996 7.60446L18.4828 9.82035L34.8038 26.1393L40.396 21.7696ZM40.396 28.9972L40.3753 28.9764C39.6297 28.3966 38.5941 28.3966 37.8485 28.9764L37.7449 29.0593L40.6446 31.9586C41.4109 31.1095 41.3488 29.7427 40.396 28.9972ZM43.3993 40.5944L7.5262 4.72586C6.71844 3.9182 5.41359 3.9182 4.60582 4.72586C3.79806 5.53353 3.79806 6.83821 4.60582 7.64587L11.8964 14.9355L7.29837 18.4975C6.24207 19.3259 6.24207 20.9412 7.29837 21.7696L21.2996 32.6627C22.7909 33.8224 24.8828 33.8224 26.3948 32.6627L28.1967 31.2545L31.1378 34.1952L25.0899 38.8962C24.3443 39.4761 23.288 39.4761 22.5423 38.8962L9.80452 28.9972C9.05889 28.4173 8.02329 28.4173 7.27766 28.9972C6.22135 29.8255 6.22135 31.4201 7.27766 32.2485L21.2789 43.1416C22.7702 44.3013 24.8621 44.3013 26.3741 43.1416L34.0789 37.1566L40.4375 43.5144C41.2452 44.322 42.5501 44.322 43.3578 43.5144C44.207 42.7067 44.207 41.402 43.3993 40.5944Z" fill="#001A41"/>
</g>
<defs>
<clipPath id="clip0_166_15966">
<rect width="40" height="40" fill="white" transform="translate(4 4.12012)"/>
</clipPath>
</defs>
</svg>
