<svg width="48" height="49" viewBox="0 0 48 49" fill="none" xmlns="http://www.w3.org/2000/svg">
<g clip-path="url(#clip0_166_15967)">
<path d="M26.3721 38.6343C25.5557 39.2561 24.399 39.2561 23.5825 38.6343L9.63444 28.018C8.81796 27.3961 7.68398 27.3961 6.8675 28.018C5.71083 28.9063 5.71083 30.6165 6.8675 31.5049L22.199 43.1873C23.832 44.4311 26.1227 44.4311 27.7783 43.1873L43.1098 31.5049C44.2665 30.6165 44.2665 28.9063 43.1098 28.018L43.0871 27.9957C42.2707 27.3739 41.1367 27.3739 40.3202 27.9957L26.3721 38.6343ZM27.801 31.9269L43.1325 20.2445C44.2892 19.3561 44.2892 17.6237 43.1325 16.7353L27.801 5.05293C26.168 3.80918 23.8774 3.80918 22.2217 5.05293L6.89018 16.7575C5.73351 17.6459 5.73351 19.3783 6.89018 20.2667L22.2217 31.9491C23.8547 33.1929 26.168 33.1929 27.801 31.9269Z" fill="#001A41"/>
</g>
<defs>
<clipPath id="clip0_166_15967">
<rect width="40" height="40" fill="white" transform="translate(4 4.12012)"/>
</clipPath>
</defs>
</svg>
