<svg width="48" height="49" viewBox="0 0 48 49" fill="none" xmlns="http://www.w3.org/2000/svg">
<g clip-path="url(#clip0_166_16002)">
<path fill-rule="evenodd" clip-rule="evenodd" d="M34.6672 17.4535H32.7624V13.6439C32.7624 8.38678 28.4957 4.12012 23.2386 4.12012C17.9814 4.12012 13.7148 8.38678 13.7148 13.6439V17.4535H11.81C9.71477 17.4535 8.00049 19.1677 8.00049 21.263V40.3106C8.00049 42.4058 9.71477 44.1201 11.81 44.1201H34.6672C36.7624 44.1201 38.4767 42.4058 38.4767 40.3106V21.263C38.4767 19.1677 36.7624 17.4535 34.6672 17.4535ZM23.2386 34.5963C21.1433 34.5963 19.4291 32.882 19.4291 30.7868C19.4291 28.6915 21.1433 26.9773 23.2386 26.9773C25.3338 26.9773 27.0481 28.6915 27.0481 30.7868C27.0481 32.882 25.3338 34.5963 23.2386 34.5963ZM17.5243 17.4535V13.6439C17.5243 10.482 20.0767 7.92964 23.2386 7.92964C26.4005 7.92964 28.9529 10.482 28.9529 13.6439V17.4535H17.5243Z" fill="#001A41"/>
</g>
<defs>
<clipPath id="clip0_166_16002">
<rect width="40" height="40" fill="white" transform="translate(4 4.12012)"/>
</clipPath>
</defs>
</svg>
