<svg width="48" height="49" viewBox="0 0 48 49" fill="none" xmlns="http://www.w3.org/2000/svg">
<path fill-rule="evenodd" clip-rule="evenodd" d="M40 8.12012H8C5.8 8.12012 4 9.92012 4 12.1201V36.1201C4 38.3201 5.8 40.1201 8 40.1201H40C42.2 40.1201 44 38.3201 44 36.1201V12.1201C44 9.92012 42.2 8.12012 40 8.12012ZM39.2 16.6201L26.12 24.8001C24.82 25.6201 23.18 25.6201 21.88 24.8001L8.8 16.6201C8.3 16.3001 8 15.7601 8 15.1801C8 13.8401 9.46 13.0401 10.6 13.7401L24 22.1201L37.4 13.7401C38.54 13.0401 40 13.8401 40 15.1801C40 15.7601 39.7 16.3001 39.2 16.6201Z" fill="#001A41"/>
</svg>
