<svg xmlns="http://www.w3.org/2000/svg" width="20" height="20" viewBox="0 0 20 20" fill="none">
  <g clip-path="url(#clip0_19991_1102)">
    <path d="M10.5869 0C9.29429 0 8.2041 1.09019 8.2041 2.38281C8.2041 3.67542 9.29429 4.76562 10.5869 4.76562C11.8795 4.76562 12.9307 3.67542 12.9307 2.38281C12.9307 1.09019 11.8795 0 10.5869 0Z" fill="#ADADAD"/>
    <path d="M13.1882 4.76562C12.5442 5.47965 11.6219 5.9375 10.5869 5.9375C9.55191 5.9375 8.59054 5.47965 7.9466 4.76562C7.38441 5.38902 7.03223 6.2057 7.03223 7.10937V7.69531C7.03223 8.01917 7.2943 8.28124 7.61816 8.28124H13.5166C13.8405 8.28124 14.1025 8.01917 14.1025 7.69531V7.10937C14.1025 6.2057 13.7503 5.38902 13.1882 4.76562Z" fill="#ADADAD"/>
    <path d="M5.66197 17.9833L2.67599 11.9968C2.38767 11.4187 1.68596 11.1829 1.10717 11.4697L0.326741 11.8563C0.0361556 12.0004 -0.0820863 12.3536 0.0629524 12.6436L3.57857 19.6749C3.72314 19.9648 4.07482 20.0802 4.36306 19.9381L5.13345 19.5564C5.7145 19.2686 5.95134 18.5636 5.66197 17.9833Z" fill="#ADADAD"/>
    <path d="M19.5205 9.67662C19.04 9.32506 18.3721 9.39537 17.9737 9.82896L14.7705 13.7665C14.5479 14.0008 14.126 14.1415 13.9034 14.1415H11.1729C10.8447 14.1415 10.5869 13.8837 10.5869 13.5555C10.5869 13.2274 10.8447 12.9696 11.1729 12.9696C11.9576 12.9696 12.8264 12.9696 13.5166 12.9696C14.1611 12.9696 14.6885 12.4422 14.6885 11.7977C14.6885 11.1532 14.1611 10.6258 13.5166 10.6258C10.7648 10.6258 13.3896 10.6258 10.4463 10.6258C10.1543 10.6258 10.0086 10.4406 9.77833 10.2391C8.87173 9.42326 7.5147 9.03021 6.14087 9.34865C5.37806 9.52545 4.86365 9.83361 4.34193 10.2468L4.32455 10.2327L3.47705 10.9786L6.80767 17.6571H7.79392H13.5166C14.6182 17.6571 15.6729 17.1297 16.3291 16.2508L19.7666 11.329C20.1533 10.8133 20.0478 10.0634 19.5205 9.67662Z" fill="#ADADAD"/>
  </g>
  <defs>
    <clipPath id="clip0_19991_1102">
      <rect width="20" height="20" fill="white"/>
    </clipPath>
  </defs>
</svg>