<svg width="24" height="24" viewBox="0 0 24 24" fill="none" xmlns="http://www.w3.org/2000/svg">
<path d="M15.575 14.5001C15.2082 13.7825 13.3032 13.0665 12.6501 12.6626C12.5001 12.5814 12.4126 12.4376 12.4126 12.2689V11.3626C12.4126 10.4563 11.6751 9.7251 10.7688 9.7251C9.86258 9.7251 9.13133 10.4563 9.13133 11.3626V14.2501C9.00007 14.3064 8.86881 14.3876 8.74384 14.5001C7.23482 15.8044 8.66544 18.2488 9.47519 19.2813C9.47508 19.2813 9.22506 20.6376 9.22506 20.6376C9.14656 21.0076 9.45993 21.3865 9.83763 21.3751C9.83759 21.3751 14.8876 21.3751 14.8876 21.3751C15.2589 21.3871 15.5641 21.0308 15.5126 20.6688C15.5126 20.6688 15.2938 19.0876 15.2938 19.0876C15.6889 18.7528 15.9527 18.2845 15.9438 17.7563C15.8926 16.9158 16.1457 15.2046 15.575 14.5001ZM14.6938 17.7563C14.6557 18.2123 13.907 18.4097 14.0126 18.9501C14.0126 18.9501 14.1751 20.1251 14.1751 20.1251H10.5876C10.6199 19.772 10.9229 19.0384 10.6314 18.7376C10.0001 17.9376 9.15632 16.4939 9.32508 15.9188C9.40221 15.6637 9.47164 15.557 9.58761 15.3813C9.97083 15.4969 10.3909 15.1737 10.3813 14.7751V11.3626C10.3849 10.856 11.1601 10.8571 11.1626 11.3626V12.2688C11.1626 12.9001 11.5126 13.4751 12.0688 13.7688L14.1688 14.8626C14.3751 14.9688 14.5251 15.1376 14.6126 15.3376C14.7692 15.5636 14.6661 17.4703 14.6938 17.7563Z" fill="#9BA0A5"/>
<path d="M18.2064 13.875V4.5C18.2064 3.46874 17.3627 2.625 16.3314 2.625H7.66895C6.63772 2.625 5.79395 3.46874 5.79395 4.5V13.875C5.79395 14.8375 6.52518 15.6313 7.45646 15.7375C7.46894 15.6187 7.49396 15.5 7.52521 15.3875C7.5759 15.1305 7.8215 14.7212 7.95646 14.5C8.07391 14.2508 8.31313 14.0222 8.50646 13.8875V11.3625C8.50646 10.1125 9.51896 9.09999 10.769 9.09999C12.019 9.09999 13.0377 10.1125 13.0377 11.3625V12.1562L15.0377 13.2C15.9806 13.6951 16.5731 14.6739 16.5689 15.7312C17.4877 15.6187 18.2064 14.825 18.2064 13.875ZM14.4252 8.67499H9.57519C8.75816 8.67247 8.75571 7.4277 9.57523 7.42499C9.57519 7.42499 14.4252 7.42499 14.4252 7.42499C15.2423 7.42747 15.2447 8.67229 14.4252 8.67499ZM14.4252 6.375H9.57519C8.75816 6.37248 8.75571 5.12771 9.57523 5.125C9.57519 5.125 14.4252 5.125 14.4252 5.125C15.2423 5.12748 15.2447 6.37229 14.4252 6.375Z" fill="#9BA0A5"/>
</svg>
