<svg width="48" height="49" viewBox="0 0 48 49" fill="none" xmlns="http://www.w3.org/2000/svg">
<g clip-path="url(#clip0_166_21330)">
<path fill-rule="evenodd" clip-rule="evenodd" d="M23.5623 44.1198C25.8187 44.1198 27.6649 42.2736 27.6649 40.0172H19.4597C19.4597 42.2736 21.2854 44.1198 23.5623 44.1198ZM35.87 31.8125V21.556C35.87 15.2586 32.5059 9.98679 26.6392 8.59192V7.19704C26.6392 5.49448 25.2648 4.12012 23.5623 4.12012C21.8597 4.12012 20.4853 5.49448 20.4853 7.19704V8.59192C14.5982 9.98679 11.2546 15.2381 11.2546 21.556V31.8125L8.6084 34.4586C7.31609 35.7509 8.21866 37.9663 10.0443 37.9663H37.0597C38.8854 37.9663 39.8084 35.7509 38.5161 34.4586L35.87 31.8125Z" fill="#001A41"/>
</g>
<defs>
<clipPath id="clip0_166_21330">
<rect width="40" height="40" fill="white" transform="translate(4 4.12012)"/>
</clipPath>
</defs>
</svg>
