<svg width="48" height="49" viewBox="0 0 48 49" fill="none" xmlns="http://www.w3.org/2000/svg">
<g clip-path="url(#clip0_166_15974)">
<path fill-rule="evenodd" clip-rule="evenodd" d="M36.1685 31.4837V21.349C36.1685 15.1263 32.8443 9.91714 27.0473 8.53882V7.16051C27.0473 5.47816 25.669 4.12012 23.9867 4.12012C22.3043 4.12012 20.9665 5.47816 20.9665 7.16051V8.53882C15.1492 9.91714 11.8454 15.1061 11.8454 21.349V31.4837L9.21034 34.0984C7.93338 35.3754 8.82523 37.5645 10.6292 37.5645H37.3239C39.1278 37.5645 40.0399 35.3754 38.763 34.0984L36.1685 31.4837ZM23.9877 43.6456C26.2173 43.6456 28.0416 41.8214 28.0416 39.5918H19.9339C19.9339 41.8214 21.7378 43.6456 23.9877 43.6456ZM13.4071 8.63984C14.2584 7.8696 14.2787 6.5521 13.4679 5.74133C12.6977 4.9711 11.441 4.95083 10.6505 5.70079C7.18445 8.8628 4.79267 13.1599 4.02244 17.984C3.84002 19.2204 4.79267 20.3352 6.04937 20.3352C7.0223 20.3352 7.87361 19.6258 8.03576 18.6529C8.64384 14.7206 10.5897 11.214 13.4071 8.63984ZM37.3852 5.70079C36.5744 4.95083 35.3177 4.9711 34.5475 5.74133C33.7367 6.5521 33.7773 7.84934 34.6083 8.61957C37.4055 11.1938 39.3716 14.7004 39.9797 18.6326C40.1216 19.6055 40.9729 20.315 41.9661 20.315C43.2025 20.315 44.1754 19.2001 43.9727 17.9637C43.2025 13.1599 40.831 8.88307 37.3852 5.70079Z" fill="#001A41"/>
</g>
<defs>
<clipPath id="clip0_166_15974">
<rect width="40" height="40" fill="white" transform="translate(4 4.12012)"/>
</clipPath>
</defs>
</svg>
