<svg width="48" height="49" viewBox="0 0 48 49" fill="none" xmlns="http://www.w3.org/2000/svg">
<g clip-path="url(#clip0_166_15975)">
<path fill-rule="evenodd" clip-rule="evenodd" d="M22.4102 44.1198C24.6666 44.1198 26.5127 42.2737 26.5127 40.0173H18.3076C18.3076 42.2737 20.1333 44.1198 22.4102 44.1198ZM34.7176 21.556C34.7176 15.2585 31.3535 9.98676 25.4869 8.5919V7.19703C25.4869 5.49447 24.1125 4.12012 22.4099 4.12012C20.7074 4.12012 19.333 5.49447 19.333 7.19703V8.5919C18.8407 8.71497 18.3689 8.89959 17.9177 9.06369L34.7176 25.8636V21.556ZM8.8923 5.86383L6 8.75613L11.7641 14.5202C10.6974 16.5715 10.1026 18.951 10.1026 21.5561V31.8125L7.45641 34.4586C6.1641 35.7509 7.06666 37.9663 8.8923 37.9663H35.2102L38.7794 41.5355L41.6717 38.6432L8.8923 5.86383Z" fill="#001A41"/>
</g>
<defs>
<clipPath id="clip0_166_15975">
<rect width="40" height="40" fill="white" transform="translate(4 4.12012)"/>
</clipPath>
</defs>
</svg>
