<svg width="32" height="32" viewBox="0 0 32 32" fill="none" xmlns="http://www.w3.org/2000/svg">
<g clip-path="url(#clip0_5282_26869)">
<path fill-rule="evenodd" clip-rule="evenodd" d="M20.8485 15.2728C22.8606 15.2728 24.4728 13.6485 24.4728 11.6364C24.4728 9.62426 22.8606 8 20.8485 8C18.8363 8 17.2121 9.62426 17.2121 11.6364C17.2121 13.6485 18.8363 15.2728 20.8485 15.2728ZM11.1519 15.2728C13.164 15.2728 14.7761 13.6485 14.7761 11.6364C14.7761 9.62426 13.164 8 11.1519 8C9.13972 8 7.51546 9.62426 7.51546 11.6364C7.51546 13.6485 9.13972 15.2728 11.1519 15.2728ZM11.1514 17.6973C8.32717 17.6973 2.6665 19.1155 2.6665 21.9397V23.7579C2.6665 24.4246 3.21196 24.9701 3.87864 24.9701H18.4242C19.0909 24.9701 19.6364 24.4246 19.6364 23.7579V21.9397C19.6364 19.1155 13.9757 17.6973 11.1514 17.6973ZM20.8481 17.6973C20.4966 17.6973 20.0966 17.7215 19.6724 17.7579C19.6966 17.77 19.7087 17.7942 19.7208 17.8064C21.1027 18.8124 22.0603 20.1579 22.0603 21.9397V23.7579C22.0603 24.1822 21.9754 24.5943 21.8421 24.9701H28.1209C28.7876 24.9701 29.3331 24.4246 29.3331 23.7579V21.9397C29.3331 19.1155 23.6724 17.6973 20.8481 17.6973Z" fill="#001A41"/>
</g>
<defs>
<clipPath id="clip0_5282_26869">
<rect width="26.6667" height="26.6667" fill="white" transform="translate(2.6665 2.6665)"/>
</clipPath>
</defs>
</svg>
