<svg width="24" height="24" viewBox="0 0 24 24" fill="none" xmlns="http://www.w3.org/2000/svg">
<path fill-rule="evenodd" clip-rule="evenodd" d="M11.9998 19.7084C12.3448 19.7084 12.6248 19.9884 12.6248 20.3334C12.6248 20.6784 12.3448 20.9584 11.9998 20.9584H5.33317C4.72567 20.9584 4.14234 20.7167 3.71234 20.2875C3.28317 19.8575 3.0415 19.2742 3.0415 18.6667V5.33335C3.0415 4.72585 3.28317 4.14252 3.71234 3.71252C4.14234 3.28335 4.72567 3.04169 5.33317 3.04169H12.4882C12.8748 3.04169 13.2457 3.19502 13.519 3.46919L17.1973 7.14752C17.4715 7.42085 17.6248 7.79169 17.6248 8.17835V11.1667C17.6248 11.5117 17.3448 11.7917 16.9998 11.7917C16.6548 11.7917 16.3748 11.5117 16.3748 11.1667V8.17835C16.3748 8.12335 16.3532 8.07002 16.314 8.03085L12.6357 4.35252C12.5965 4.31335 12.5432 4.29169 12.4882 4.29169H5.33317C5.0565 4.29169 4.79234 4.40169 4.5965 4.59669C4.4015 4.79252 4.2915 5.05669 4.2915 5.33335V18.6667C4.2915 18.9434 4.4015 19.2075 4.5965 19.4034C4.79234 19.5984 5.0565 19.7084 5.33317 19.7084H11.9998Z" fill="#ADADAD"/>
<path fill-rule="evenodd" clip-rule="evenodd" d="M12.208 4.08337C12.208 3.73837 12.488 3.45837 12.833 3.45837C13.178 3.45837 13.458 3.73837 13.458 4.08337V7.00004C13.458 7.11504 13.5513 7.20837 13.6663 7.20837H16.583C16.928 7.20837 17.208 7.48837 17.208 7.83337C17.208 8.17837 16.928 8.45837 16.583 8.45837H13.6663C12.8605 8.45837 12.208 7.80587 12.208 7.00004V4.08337Z" fill="#ADADAD"/>
<path fill-rule="evenodd" clip-rule="evenodd" d="M7 11.375C6.655 11.375 6.375 11.095 6.375 10.75C6.375 10.405 6.655 10.125 7 10.125H13.6667C14.0117 10.125 14.2917 10.405 14.2917 10.75C14.2917 11.095 14.0117 11.375 13.6667 11.375H7Z" fill="#ADADAD"/>
<path fill-rule="evenodd" clip-rule="evenodd" d="M7 14.2917C6.655 14.2917 6.375 14.0117 6.375 13.6667C6.375 13.3217 6.655 13.0417 7 13.0417H10.75C11.095 13.0417 11.375 13.3217 11.375 13.6667C11.375 14.0117 11.095 14.2917 10.75 14.2917H7Z" fill="#ADADAD"/>
<path fill-rule="evenodd" clip-rule="evenodd" d="M7 17.2084C6.655 17.2084 6.375 16.9284 6.375 16.5834C6.375 16.2384 6.655 15.9584 7 15.9584H10.75C11.095 15.9584 11.375 16.2384 11.375 16.5834C11.375 16.9284 11.095 17.2084 10.75 17.2084H7Z" fill="#ADADAD"/>
<path d="M16.8838 17.9375C17.5741 17.9375 18.1338 17.3779 18.1338 16.6875C18.1338 15.9971 17.5741 15.4375 16.8838 15.4375C16.1934 15.4375 15.6338 15.9971 15.6338 16.6875C15.6338 17.3779 16.1934 17.9375 16.8838 17.9375Z" fill="#ADADAD"/>
<path fill-rule="evenodd" clip-rule="evenodd" d="M18.1631 12.87C18.1631 12.87 18.4589 13.5825 18.4581 13.5825C18.5706 13.6392 18.6798 13.7025 18.7856 13.7709L19.5506 13.6709C19.7573 13.6442 19.9648 13.7225 20.1023 13.88C20.4656 14.2967 20.7448 14.7809 20.9248 15.3042C20.9923 15.5017 20.9564 15.7209 20.8289 15.8867C20.8289 15.8867 20.3606 16.4992 20.3606 16.4984C20.3673 16.6242 20.3673 16.7509 20.3606 16.8759L20.8289 17.4884C20.9564 17.6542 20.9923 17.8734 20.9248 18.0709C20.7448 18.5942 20.4656 19.0784 20.1023 19.495C19.9648 19.6525 19.7573 19.7309 19.5506 19.7042C19.5506 19.7042 18.7856 19.6042 18.7864 19.6034C18.6806 19.6725 18.5706 19.7359 18.4589 19.7925L18.1631 20.505C18.0831 20.6984 17.9114 20.8384 17.7064 20.8784C17.1631 20.985 16.6048 20.985 16.0614 20.8784C15.8564 20.8384 15.6848 20.6984 15.6048 20.505C15.6048 20.505 15.3089 19.7925 15.3098 19.7925C15.1973 19.7359 15.0873 19.6725 14.9823 19.6042L14.2173 19.7042C14.0098 19.7309 13.8031 19.6525 13.6656 19.495C13.3014 19.0784 13.0223 18.5942 12.8431 18.0709C12.7756 17.8734 12.8114 17.6542 12.9381 17.4884C12.9381 17.4884 13.4073 16.8759 13.4073 16.8767C13.4006 16.7509 13.4006 16.6242 13.4073 16.4992L12.9381 15.8867C12.8114 15.7209 12.7756 15.5017 12.8431 15.3042C13.0223 14.7809 13.3014 14.2967 13.6656 13.88C13.8031 13.7225 14.0098 13.6442 14.2173 13.6709C14.2173 13.6709 14.9823 13.7709 14.9814 13.7717C15.0873 13.7025 15.1964 13.6392 15.3089 13.5825L15.6048 12.87C15.6848 12.6767 15.8564 12.5367 16.0614 12.4967C16.6048 12.39 17.1631 12.39 17.7064 12.4967C17.9114 12.5367 18.0831 12.6767 18.1631 12.87ZM17.1448 13.6784C16.9714 13.6634 16.7964 13.6625 16.6231 13.6784L16.3698 14.2875C16.3064 14.44 16.1848 14.5617 16.0314 14.625C15.8498 14.7 15.6798 14.7984 15.5239 14.9184C15.3931 15.0192 15.2264 15.0634 15.0623 15.0425L14.4081 14.9567C14.3081 15.1 14.2206 15.2509 14.1473 15.4092L14.5481 15.9325C14.6489 16.0642 14.6931 16.2309 14.6714 16.395C14.6456 16.5892 14.6456 16.7859 14.6714 16.98C14.6931 17.1442 14.6489 17.3109 14.5481 17.4425C14.5481 17.4425 14.1473 17.9659 14.1473 17.9667C14.2206 18.1242 14.3081 18.2759 14.4081 18.4184L15.0623 18.3325C15.2264 18.3117 15.3931 18.3559 15.5239 18.4567C15.6798 18.5767 15.8498 18.675 16.0314 18.75C16.1848 18.8134 16.3064 18.935 16.3698 19.0875L16.6231 19.6967C16.7964 19.7125 16.9714 19.7125 17.1448 19.6967L17.3981 19.0875C17.4614 18.935 17.5831 18.8134 17.7364 18.75C17.9173 18.675 18.0881 18.5767 18.2439 18.4567C18.3748 18.3559 18.5414 18.3117 18.7056 18.3325L19.3598 18.4184C19.4598 18.275 19.5473 18.1242 19.6206 17.9659L19.2198 17.4425C19.1189 17.3109 19.0748 17.1442 19.0964 16.98C19.1214 16.7859 19.1214 16.5892 19.0964 16.395C19.0748 16.2309 19.1189 16.0642 19.2198 15.9325C19.2198 15.9325 19.6206 15.4092 19.6206 15.4084C19.5464 15.2509 19.4598 15.0992 19.3598 14.9567L18.7056 15.0425C18.5414 15.0634 18.3748 15.0192 18.2439 14.9184C18.0881 14.7984 17.9173 14.7 17.7364 14.625C17.5831 14.5617 17.4614 14.44 17.3981 14.2875L17.1448 13.6784Z" fill="#ADADAD"/>
</svg>
