<svg width="48" height="49" viewBox="0 0 48 49" fill="none" xmlns="http://www.w3.org/2000/svg">
<g clip-path="url(#clip0_166_15996)">
<path fill-rule="evenodd" clip-rule="evenodd" d="M24 4.12012C35.04 4.12012 44 13.0801 44 24.1201C44 35.1601 35.04 44.1201 24 44.1201C12.96 44.1201 4 35.1601 4 24.1201C4 13.0801 12.96 4.12012 24 4.12012ZM24 40.1201C32.84 40.1201 40 32.9601 40 24.1201C40 15.2801 32.84 8.12012 24 8.12012C15.16 8.12012 8 15.2801 8 24.1201C8 32.9601 15.16 40.1201 24 40.1201ZM24 34.1201C18.4772 34.1201 14 29.643 14 24.1201C14 18.5973 18.4772 14.1201 24 14.1201C29.5228 14.1201 34 18.5973 34 24.1201C34 29.643 29.5228 34.1201 24 34.1201Z" fill="#001A41"/>
</g>
<defs>
<clipPath id="clip0_166_15996">
<rect width="40" height="40" fill="white" transform="translate(4 4.12012)"/>
</clipPath>
</defs>
</svg>
