<svg width="40" height="41" viewBox="0 0 40 41" fill="none" xmlns="http://www.w3.org/2000/svg">
<g clip-path="url(#clip0_166_15973)">
<path d="M31.7657 8.35439C28.3664 4.95918 23.549 3.00121 18.252 3.54277C10.5983 4.31347 4.30021 10.5207 3.44517 18.1651C2.29816 28.2674 10.1186 36.7867 19.9829 36.7867C26.6355 36.7867 32.3497 32.8916 35.0191 27.2884C35.6864 25.8929 34.6854 24.289 33.1422 24.289C32.3705 24.289 31.6406 24.7056 31.3069 25.393C28.9504 30.4545 23.2988 33.6623 17.1258 32.2875C12.4961 31.2669 8.7631 27.4967 7.78293 22.8726C6.03114 14.7907 12.1833 7.62536 19.9829 7.62536C23.4448 7.62536 26.5312 9.0626 28.7835 11.333L25.6345 14.4783C24.3206 15.7905 25.2383 18.0401 27.0943 18.0401H34.5811C35.7281 18.0401 36.6666 17.1028 36.6666 15.9572V8.47937C36.6666 6.62554 34.4143 5.68821 33.1004 7.00048L31.7657 8.35439Z" fill="#001A41"/>
</g>
<defs>
<clipPath id="clip0_166_15973">
<rect width="33.3333" height="33.3333" fill="white" transform="translate(3.33325 3.45337)"/>
</clipPath>
</defs>
</svg>
