<svg width="44" height="45" viewBox="0 0 44 45" fill="none" xmlns="http://www.w3.org/2000/svg">
<g clip-path="url(#clip0_166_15972)">
<path d="M22.8427 10.0408V4.73979C22.8427 3.88478 21.7864 3.46678 21.18 4.07478L13.7469 11.2758C13.3557 11.6558 13.3557 12.2448 13.7469 12.6248L21.1604 19.8259C21.7864 20.4149 22.8427 19.9969 22.8427 19.1419V13.8409C30.1388 13.8409 35.9092 20.3389 34.3052 27.692C33.3859 32.005 29.7867 35.482 25.366 36.375C18.3828 37.8 12.1625 33.145 11.2236 26.856C11.0867 25.9439 10.2651 25.2409 9.30666 25.2409C8.13302 25.2409 7.1941 26.248 7.35059 27.388C8.56335 35.729 16.7397 41.9041 25.9919 40.1561C32.0949 38.997 37.0046 34.228 38.1978 28.3C40.1343 18.5529 32.5056 10.0408 22.8427 10.0408Z" fill="#001A41"/>
</g>
<defs>
<clipPath id="clip0_166_15972">
<rect width="36.6667" height="36.6667" fill="white" transform="translate(3.66675 3.78687)"/>
</clipPath>
</defs>
</svg>
