<svg width="48" height="49" viewBox="0 0 48 49" fill="none" xmlns="http://www.w3.org/2000/svg">
<path d="M26.7672 6.12711C16.7352 5.84717 8.51645 14.0056 8.51645 24.1236H4.98849C4.10157 24.1236 3.66797 25.2034 4.29866 25.8233L9.79755 31.4222C10.1917 31.8221 10.8027 31.8221 11.1969 31.4222L16.6958 25.8233C17.3265 25.2034 16.8732 24.1236 16.006 24.1236H12.4583C12.4583 16.3251 18.7258 10.0264 26.4519 10.1263C33.7837 10.2263 39.9527 16.4851 40.0513 23.9237C40.1498 31.7421 33.9414 38.1209 26.2548 38.1209C23.0816 38.1209 20.1449 37.0211 17.8192 35.1615C17.0308 34.5416 15.9271 34.6016 15.2176 35.3214C14.3898 36.1813 14.4489 37.581 15.3753 38.3209C18.3711 40.7004 22.1553 42.1201 26.2548 42.1201C36.208 42.1201 44.2691 33.7817 43.9931 23.6037C43.7369 14.2255 36.0109 6.38706 26.7672 6.12711ZM25.7621 16.1252C24.954 16.1252 24.2839 16.805 24.2839 17.6249V24.9834C24.2839 25.6833 24.6583 26.3432 25.2496 26.7031L31.3989 30.4024C32.1084 30.8223 33.0151 30.5824 33.429 29.8825C33.8428 29.1626 33.6063 28.2428 32.9165 27.8229L27.2402 24.4036V17.6049C27.2402 16.805 26.5898 16.1252 25.7621 16.1252Z" fill="#001A41"/>
</svg>
