<svg width="44" height="45" viewBox="0 0 44 45" fill="none" xmlns="http://www.w3.org/2000/svg">
<g clip-path="url(#clip0_166_21331)">
<path fill-rule="evenodd" clip-rule="evenodd" d="M35.1255 23.9169C35.1989 23.3302 35.2539 22.7435 35.2539 22.1202C35.2539 21.4969 35.1989 20.9102 35.1255 20.3235L38.9939 17.2985C39.3422 17.0235 39.4339 16.5285 39.2139 16.1252L35.5472 9.78187C35.3272 9.37853 34.8322 9.23186 34.4289 9.37853L29.8639 11.2119C28.9105 10.4785 27.8839 9.87353 26.7655 9.4152L26.0689 4.55687C26.0139 4.11687 25.6289 3.78687 25.1705 3.78687H17.8372C17.3789 3.78687 16.9939 4.11687 16.9389 4.55687L16.2422 9.4152C15.1239 9.87353 14.0972 10.4969 13.1439 11.2119L8.57886 9.37853C8.15719 9.21353 7.68052 9.37853 7.46052 9.78187L3.79386 16.1252C3.55552 16.5285 3.66552 17.0235 4.01386 17.2985L7.88219 20.3235C7.80886 20.9102 7.75386 21.5152 7.75386 22.1202C7.75386 22.7252 7.80886 23.3302 7.88219 23.9169L4.01386 26.9419C3.66552 27.2169 3.57386 27.7119 3.79386 28.1152L7.46052 34.4585C7.68052 34.8619 8.17552 35.0085 8.57886 34.8619L13.1439 33.0285C14.0972 33.7619 15.1239 34.3669 16.2422 34.8252L16.9389 39.6835C16.9939 40.1235 17.3789 40.4535 17.8372 40.4535H25.1705C25.6289 40.4535 26.0139 40.1235 26.0689 39.6835L26.7655 34.8252C27.8839 34.3669 28.9105 33.7435 29.8639 33.0285L34.4289 34.8619C34.8505 35.0269 35.3272 34.8619 35.5472 34.4585L39.2139 28.1152C39.4339 27.7119 39.3422 27.2169 38.9939 26.9419L35.1255 23.9169ZM21.5039 28.5369C17.9655 28.5369 15.0872 25.6585 15.0872 22.1202C15.0872 18.5819 17.9655 15.7035 21.5039 15.7035C25.0422 15.7035 27.9205 18.5819 27.9205 22.1202C27.9205 25.6585 25.0422 28.5369 21.5039 28.5369Z" fill="#001A41"/>
</g>
<defs>
<clipPath id="clip0_166_21331">
<rect width="36.6667" height="36.6667" fill="white" transform="translate(3.66675 3.78687)"/>
</clipPath>
</defs>
</svg>
