<svg width="48" height="49" viewBox="0 0 48 49" fill="none" xmlns="http://www.w3.org/2000/svg">
<g clip-path="url(#clip0_166_15983)">
<path fill-rule="evenodd" clip-rule="evenodd" d="M36 32.3932C34.48 32.3932 33.12 32.9956 32.08 33.9394L17.82 25.6061C17.92 25.1442 18 24.6824 18 24.2004C18 23.7185 17.92 23.2567 17.82 22.7948L31.92 14.5418C33 15.5458 34.42 16.1683 36 16.1683C39.32 16.1683 42 13.4775 42 10.1442C42 6.81088 39.32 4.12012 36 4.12012C32.68 4.12012 30 6.81088 30 10.1442C30 10.6261 30.08 11.088 30.18 11.5498L16.08 19.8028C15 18.7988 13.58 18.1763 12 18.1763C8.68 18.1763 6 20.8671 6 24.2004C6 27.5338 8.68 30.2245 12 30.2245C13.58 30.2245 15 29.602 16.08 28.598L30.32 36.9514C30.22 37.3731 30.16 37.8149 30.16 38.2567C30.16 41.4896 32.78 44.1201 36 44.1201C39.22 44.1201 41.84 41.4896 41.84 38.2567C41.84 35.0237 39.22 32.3932 36 32.3932Z" fill="#001A41"/>
</g>
<defs>
<clipPath id="clip0_166_15983">
<rect width="40" height="40" fill="white" transform="translate(4 4.12012)"/>
</clipPath>
</defs>
</svg>
