<svg width="10" height="10" viewBox="0 0 10 10" fill="none" xmlns="http://www.w3.org/2000/svg">
<path fill-rule="evenodd" clip-rule="evenodd" d="M1.70085 4.09854H8.01224C8.13434 4.09854 8.24006 4.05358 8.32922 3.96347C8.41838 3.8733 8.46311 3.76661 8.46311 3.6433C8.46311 3.51993 8.41836 3.41317 8.32922 3.3231L5.17352 0.135459C5.08435 0.0453165 4.97863 0.000183105 4.85656 0.000183105C4.73448 0.000183105 4.62886 0.0453165 4.53952 0.135459L1.38382 3.32308C1.29458 3.41317 1.25 3.51993 1.25 3.64327C1.25 3.76661 1.29458 3.8733 1.38382 3.96344C1.47306 4.05348 1.57868 4.09854 1.70085 4.09854ZM8.01224 5.90164H1.70085C1.57878 5.90164 1.47316 5.94668 1.38382 6.03682C1.29458 6.12693 1.25 6.23367 1.25 6.35698C1.25 6.48032 1.29458 6.58708 1.38382 6.67722L4.53952 9.86483C4.62876 9.95485 4.73438 10 4.85656 10C4.97873 10 5.08435 9.95485 5.17352 9.86483L8.32922 6.67722C8.41838 6.58698 8.46311 6.48032 8.46311 6.35698C8.46311 6.23364 8.41836 6.12693 8.32922 6.03682C8.24003 5.94668 8.13434 5.90164 8.01224 5.90164Z" fill="white"/>
</svg>
