<svg xmlns="http://www.w3.org/2000/svg" width="20" height="20" viewBox="0 0 20 20" fill="none">
  <path fill-rule="evenodd" clip-rule="evenodd" d="M10.2574 12.7858C10.2574 12.8809 10.3251 12.9613 10.4151 12.9921C10.9326 13.1692 11.3067 13.6717 11.3067 14.2623C11.3068 14.4058 11.1934 14.5223 11.0537 14.5223C10.9141 14.5223 10.8007 14.4058 10.8007 14.2623C10.8008 13.8109 10.4436 13.4439 10.0044 13.4439C9.56529 13.4439 9.2076 13.8109 9.2076 14.2623C9.2077 14.8513 9.50099 14.9502 10.0628 15.0879C10.5878 15.2165 11.3067 15.3921 11.3067 16.4194C11.3068 17.0101 10.9326 17.5125 10.4151 17.6896C10.3251 17.7204 10.2574 17.8008 10.2575 17.8959C10.2575 18.0394 10.1441 18.1559 10.0045 18.1559C9.86471 18.1559 9.75136 18.0394 9.75136 17.8959C9.75138 17.8008 9.68371 17.7204 9.59372 17.6896C9.0761 17.5124 8.70159 17.01 8.70159 16.4194C8.70169 16.2759 8.8149 16.1594 8.95459 16.1594C9.09484 16.1594 9.2076 16.2759 9.2076 16.4194C9.2077 16.8708 9.56514 17.2378 10.0044 17.2378C10.4437 17.2378 10.8007 16.8708 10.8007 16.4194C10.8008 15.8304 10.5077 15.7311 9.9455 15.5939C9.42079 15.4652 8.70159 15.2892 8.70159 14.2623C8.70166 13.6716 9.07607 13.1692 9.59374 12.9921C9.68374 12.9613 9.75143 12.8809 9.75146 12.7858C9.75146 12.6423 9.86471 12.5258 10.0044 12.5258C10.1442 12.5258 10.2574 12.6423 10.2574 12.7858ZM10.0045 12.0234C8.22474 12.0234 6.77637 13.5117 6.77637 15.3406C6.77649 17.1701 8.22457 18.6578 10.0044 18.6578C11.7842 18.6578 13.2324 17.1701 13.2324 15.3406C13.2325 13.5117 11.7842 12.0235 10.0045 12.0234Z" fill="#9BA0A5"/>
  <path fill-rule="evenodd" clip-rule="evenodd" d="M11.2331 10.7979L8.83636 10.2126C8.75843 10.1935 8.67706 10.1935 8.59913 10.2126L6.20171 10.7979C6.16357 10.8069 6.1234 10.807 6.08478 10.7979L4.44085 10.3966C4.12595 10.3197 3.82227 10.5582 3.82227 10.8823L3.82231 19.4808C3.82231 19.7569 4.04616 19.9808 4.32231 19.9808H15.6871C15.9632 19.9808 16.1871 19.7569 16.1871 19.4808V11.1431C16.1871 10.9126 16.0296 10.712 15.8057 10.6573L13.9842 10.2126C13.9063 10.1935 13.8249 10.1935 13.747 10.2126L11.3502 10.7979C11.3118 10.8069 11.2714 10.807 11.2331 10.7979ZM10.0046 11.3983C12.0633 11.3983 13.7386 13.1198 13.7386 15.2355C13.7387 17.3515 12.0633 19.0726 10.0047 19.0726C7.94549 19.0726 6.27057 17.3515 6.27057 15.2355C6.2707 13.1198 7.94539 11.3983 10.0046 11.3983Z" fill="#9BA0A5"/>
  <path fill-rule="evenodd" clip-rule="evenodd" d="M14.8021 8.04132H5.20726C5.06751 8.04132 4.95411 7.92489 4.95411 7.78136C4.95426 7.63735 5.06741 7.52136 5.20712 7.52136L14.8021 7.52133C14.9418 7.52133 15.055 7.63737 15.055 7.78136C15.0551 7.92489 14.9417 8.04135 14.8021 8.04132ZM4.32227 0C4.04612 0 3.82227 0.223858 3.82227 0.5V8.83784C3.82227 9.06829 3.97977 9.26889 4.20365 9.32356L6.02457 9.76824C6.1025 9.78728 6.18386 9.78728 6.26179 9.76825L8.65918 9.18288C8.69753 9.17385 8.73733 9.17386 8.77597 9.18289L11.173 9.76824C11.2509 9.78728 11.3323 9.78727 11.4102 9.76824L13.8072 9.18288C13.8458 9.17385 13.8857 9.17386 13.9244 9.18289L15.5683 9.58419C15.8832 9.66105 16.1869 9.42259 16.1869 9.09846L16.1871 0.500008C16.1871 0.223862 15.9632 0 15.6871 0H4.32227ZM14.8021 5.00489H5.20726C5.06751 5.00489 4.95411 4.88892 4.95411 4.74491C4.95426 4.60138 5.06741 4.48492 5.20712 4.48492L14.8021 4.4849C14.9418 4.4849 15.055 4.60138 15.055 4.74491C15.0551 4.88889 14.9417 5.00491 14.8021 5.00489ZM14.8021 1.96892H5.20726C5.06751 1.96892 4.95411 1.85247 4.95411 1.70894C4.95426 1.56537 5.06741 1.44894 5.20712 1.44894L14.8021 1.44893C14.9418 1.44893 15.055 1.56538 15.055 1.70894C15.0551 1.85246 14.9417 1.96893 14.8021 1.96892Z" fill="#9BA0A5"/>
</svg>