<svg width="18" height="17" viewBox="0 0 18 17" fill="none" xmlns="http://www.w3.org/2000/svg">
<path fill-rule="evenodd" clip-rule="evenodd" d="M9.00033 0.166687C4.39199 0.166687 0.666992 3.89169 0.666992 8.50002C0.666992 13.1084 4.39199 16.8334 9.00033 16.8334C13.6087 16.8334 17.3337 13.1084 17.3337 8.50002C17.3337 3.89169 13.6087 0.166687 9.00033 0.166687ZM12.8757 4.43408C13.1703 4.62339 13.2556 5.01563 13.0663 5.31017L8.76963 11.9953C8.66029 12.1655 8.47635 12.2732 8.27449 12.2854C8.07264 12.2976 7.87708 12.2127 7.74808 12.057L4.97941 8.71439C4.75606 8.44475 4.7936 8.0451 5.06324 7.82175C5.33288 7.5984 5.73253 7.63593 5.95588 7.90558L8.17164 10.5806L11.9996 4.62463C12.1889 4.33009 12.5812 4.24478 12.8757 4.43408Z" fill="#01AB08"/>
</svg>
