<svg width="18" height="17" viewBox="0 0 18 17" fill="none" xmlns="http://www.w3.org/2000/svg">
<path d="M9.00033 0.166687C4.40035 0.166687 0.666992 3.90004 0.666992 8.50002C0.666992 13.1 4.40035 16.8334 9.00033 16.8334C13.6003 16.8334 17.3337 13.1 17.3337 8.50002C17.3337 3.90004 13.6003 0.166687 9.00033 0.166687ZM3.02254 8.50002C3.02254 5.18891 5.71142 2.50002 9.00033 2.50002C10.2448 2.50002 11.4226 2.87782 12.3781 3.54446L4.06701 11.8778C3.40033 10.9223 3.02254 9.74447 3.02254 8.50002ZM9.00033 14.4778C7.75587 14.4778 6.57808 14.1 5.62255 13.4334L13.9337 5.12225C14.6004 6.07781 14.9781 7.25557 14.9781 8.50002C14.9781 11.8111 12.3114 14.4778 9.00033 14.4778Z" fill="#BA1A1A"/>
</svg>
