<svg width="48" height="49" viewBox="0 0 48 49" fill="none" xmlns="http://www.w3.org/2000/svg">
<g clip-path="url(#clip0_166_15970)">
<path d="M24 8.57336V5.09477C24 4.22027 22.92 3.79273 22.3 4.4146L16.7 9.83653C16.3 10.2252 16.3 10.8276 16.7 11.2163L22.28 16.6382C22.92 17.2407 24 16.8131 24 15.9386V12.46C30.62 12.46 36 17.6876 36 24.1201C36 25.6554 35.7 27.1517 35.12 28.4926C34.82 29.1922 35.04 29.989 35.58 30.5137C36.6 31.5048 38.32 31.155 38.86 29.853C39.6 28.0845 40 26.1412 40 24.1201C40 15.5305 32.84 8.57336 24 8.57336ZM24 35.7802C17.38 35.7802 12 30.5526 12 24.1201C12 22.5849 12.3 21.0885 12.88 19.7476C13.18 19.048 12.96 18.2512 12.42 17.7265C11.4 16.7354 9.68 17.0852 9.14 18.3873C8.4 20.1557 8 22.099 8 24.1201C8 32.7097 15.16 39.6669 24 39.6669V43.1455C24 44.02 25.08 44.4475 25.7 43.8256L31.28 38.4037C31.68 38.015 31.68 37.4126 31.28 37.0239L25.7 31.602C25.08 30.9996 24 31.4271 24 32.3016V35.7802Z" fill="#001A41"/>
</g>
<defs>
<clipPath id="clip0_166_15970">
<rect width="40" height="40" fill="white" transform="translate(4 4.12012)"/>
</clipPath>
</defs>
</svg>
