<svg width="16" height="17" viewBox="0 0 16 17" fill="none" xmlns="http://www.w3.org/2000/svg">
<g clip-path="url(#clip0_6865_58708)">
<path d="M6.77208 6.44004H9.22664V7.56124H6.77208V6.44004Z" fill="#0055B6" stroke="#0055B6" stroke-width="1.21212"/>
<path d="M10.5 5.83398H14V8.1673H10.5V5.83398Z" fill="#0055B6"/>
<path d="M6.16602 11.834H9.8327V14.5006H6.16602V11.834Z" fill="#0055B6"/>
<path d="M2 5.83398H5.49997V8.1673H2V5.83398Z" fill="#0055B6"/>
<path d="M6.16602 8.83398H9.8327V11.1673H6.16602V8.83398Z" fill="#0055B6"/>
<path d="M14 5.16666V4.16663C13.9992 3.24652 13.2535 2.50082 12.3334 2.5H3.66663C2.74652 2.50082 2.00082 3.24652 2 4.16663V5.16666H14Z" fill="#0055B6"/>
<path d="M5.49997 11.834H2V12.834C2.00082 13.7541 2.74652 14.4998 3.66663 14.5006H5.49997V11.834Z" fill="#0055B6"/>
<path d="M2 8.83398H5.49997V11.1673H2V8.83398Z" fill="#0055B6"/>
<path d="M10.5 11.834V14.5006H12.3333C13.2534 14.4998 13.9991 13.7541 14 12.834V11.834H10.5Z" fill="#0055B6"/>
<path d="M10.5 8.83398H14V11.1673H10.5V8.83398Z" fill="#0055B6"/>
</g>
<defs>
<clipPath id="clip0_6865_58708">
<rect width="12" height="12" fill="white" transform="translate(2 2.5)"/>
</clipPath>
</defs>
</svg>
