<svg width="48" height="49" viewBox="0 0 48 49" fill="none" xmlns="http://www.w3.org/2000/svg">
<g clip-path="url(#clip0_166_16001)">
<path fill-rule="evenodd" clip-rule="evenodd" d="M32.7619 17.4535H34.6667C36.7619 17.4535 38.4762 19.1677 38.4762 21.263V40.3106C38.4762 42.4058 36.7619 44.1201 34.6667 44.1201H11.8095C9.71429 44.1201 8 42.4058 8 40.3106V21.263C8 19.1677 9.71429 17.4535 11.8095 17.4535H28.9524V13.6439C28.9524 10.5011 26.381 7.92964 23.2381 7.92964C20.6286 7.92964 18.3619 9.70107 17.7143 12.2154C17.4476 13.2439 16.4 13.8534 15.3905 13.5868C14.3619 13.3201 13.7524 12.2915 14.019 11.263C15.1048 7.05345 18.8952 4.12012 23.2381 4.12012C28.4952 4.12012 32.7619 8.38678 32.7619 13.6439V17.4535ZM19.4286 30.7868C19.4286 28.6915 21.1429 26.9773 23.2381 26.9773C25.3333 26.9773 27.0476 28.6915 27.0476 30.7868C27.0476 32.882 25.3333 34.5963 23.2381 34.5963C21.1429 34.5963 19.4286 32.882 19.4286 30.7868Z" fill="#001A41"/>
</g>
<defs>
<clipPath id="clip0_166_16001">
<rect width="40" height="40" fill="white" transform="translate(4 4.12012)"/>
</clipPath>
</defs>
</svg>
