<svg width="46" height="47" viewBox="0 0 46 47" fill="none" xmlns="http://www.w3.org/2000/svg">
<g clip-path="url(#clip0_166_21329)">
<path d="M20.8665 16.1941V24.0326C20.8665 24.7781 21.2712 25.481 21.9102 25.8644L28.5559 29.8049C29.3227 30.2522 30.3025 29.9966 30.7498 29.2511C31.1971 28.4843 30.9628 27.5045 30.196 27.0572L24.0828 23.4149V16.1728C24.0616 15.3208 23.3373 14.5966 22.464 14.5966C21.5907 14.5966 20.8665 15.3208 20.8665 16.1941ZM42.1666 17.7916V6.52391C42.1666 5.56541 41.0164 5.09681 40.3561 5.77841L36.5647 9.56982C32.7094 5.71451 27.214 3.4993 21.2073 4.03181C12.2826 4.84121 4.93411 12.0193 3.95431 20.944C2.6763 32.4887 11.6862 42.2867 22.9965 42.2867C32.7733 42.2867 40.846 34.9595 42.0175 25.5023C42.1666 24.2243 41.1655 23.1167 39.8875 23.1167C38.8225 23.1167 37.9279 23.9048 37.8001 24.9485C36.8842 32.3822 30.4729 38.1332 22.7835 38.0267C14.8812 37.9202 8.21432 31.2533 8.08652 23.3297C7.95872 15.0226 14.7108 8.20662 22.9965 8.20662C27.1075 8.20662 30.835 9.88932 33.5401 12.5731L29.0884 17.0248C28.4068 17.7064 28.8754 18.8566 29.8339 18.8566H41.1016C41.698 18.8566 42.1666 18.388 42.1666 17.7916Z" fill="#001A41"/>
</g>
<defs>
<clipPath id="clip0_166_21329">
<rect width="38.3333" height="38.3333" fill="white" transform="translate(3.83325 3.95337)"/>
</clipPath>
</defs>
</svg>
