<svg width="48" height="49" viewBox="0 0 48 49" fill="none" xmlns="http://www.w3.org/2000/svg">
<g clip-path="url(#clip0_166_15979)">
<path fill-rule="evenodd" clip-rule="evenodd" d="M24 14.7248C29.0182 14.7248 33.091 18.7975 33.091 23.8157C33.091 24.743 32.9091 25.6339 32.6546 26.4703L38.2183 32.034C40.7456 29.7976 42.7456 26.9976 44.0001 23.7975C40.8547 15.8339 33.091 10.1793 24 10.1793C21.6909 10.1793 19.4727 10.5429 17.3818 11.2157L21.3273 15.1611C22.1818 14.9066 23.0727 14.7248 24 14.7248ZM7.10911 8.65194C6.40001 9.36103 6.40001 10.5065 7.10911 11.2156L10.691 14.7974C7.74548 17.1429 5.40001 20.2338 4 23.8157C7.14547 31.7975 14.9092 37.4521 24.0001 37.4521C26.7638 37.4521 29.4002 36.9067 31.8365 35.9612L36.782 40.9067C37.4911 41.6158 38.6366 41.6158 39.3457 40.9067C40.0548 40.1976 40.0548 39.0521 39.3457 38.343L9.69094 8.65194C8.98185 7.94284 7.81821 7.94284 7.10911 8.65194ZM23.9997 32.9064C18.9815 32.9064 14.9087 28.8337 14.9087 23.8154C14.9087 22.4154 15.236 21.0881 15.7997 19.9245L18.6542 22.7791C18.5997 23.1063 18.5451 23.4518 18.5451 23.8154C18.5451 26.8336 20.9815 29.27 23.9997 29.27C24.3633 29.27 24.6906 29.2155 25.0361 29.1427L27.8906 31.9973C26.7088 32.5791 25.3997 32.9064 23.9997 32.9064ZM29.4 23.216C29.1273 20.6705 27.1273 18.6887 24.6 18.4159L29.4 23.216Z" fill="#001A41"/>
</g>
<defs>
<clipPath id="clip0_166_15979">
<rect width="40" height="40" fill="white" transform="translate(4 4.12012)"/>
</clipPath>
</defs>
</svg>
