<svg width="48" height="49" viewBox="0 0 48 49" fill="none" xmlns="http://www.w3.org/2000/svg">
<path fill-rule="evenodd" clip-rule="evenodd" d="M24 10.1201C14.9091 10.1201 7.14545 15.7747 4 23.7565C7.14545 31.7383 14.9091 37.3928 24 37.3928C33.0909 37.3928 40.8545 31.7383 44 23.7565C40.8545 15.7747 33.0909 10.1201 24 10.1201ZM23.9991 32.8478C18.981 32.8478 14.9082 28.775 14.9082 23.7568C14.9082 18.7387 18.981 14.6659 23.9991 14.6659C29.0173 14.6659 33.0901 18.7387 33.0901 23.7568C33.0901 28.775 29.0173 32.8478 23.9991 32.8478ZM23.9998 18.3025C20.9816 18.3025 18.5453 20.7389 18.5453 23.757C18.5453 26.7752 20.9816 29.2116 23.9998 29.2116C27.018 29.2116 29.4544 26.7752 29.4544 23.757C29.4544 20.7389 27.018 18.3025 23.9998 18.3025Z" fill="#001A41"/>
</svg>
