<svg width="48" height="49" viewBox="0 0 48 49" fill="none" xmlns="http://www.w3.org/2000/svg">
<g clip-path="url(#clip0_166_21327)">
<path d="M24 4.12012C12.96 4.12012 4 13.0801 4 24.1201C4 35.1601 12.96 44.1201 24 44.1201C35.04 44.1201 44 35.1601 44 24.1201C44 13.0801 35.04 4.12012 24 4.12012ZM24 26.1201C22.9 26.1201 22 25.2201 22 24.1201V16.1201C22 15.0201 22.9 14.1201 24 14.1201C25.1 14.1201 26 15.0201 26 16.1201V24.1201C26 25.2201 25.1 26.1201 24 26.1201ZM26 34.1201H22V30.1201H26V34.1201Z" fill="#001A41"/>
</g>
<defs>
<clipPath id="clip0_166_21327">
<rect width="40" height="40" fill="white" transform="translate(4 4.12012)"/>
</clipPath>
</defs>
</svg>
