<svg width="44" height="45" viewBox="0 0 44 45" fill="none" xmlns="http://www.w3.org/2000/svg">
<g clip-path="url(#clip0_166_15985)">
<path fill-rule="evenodd" clip-rule="evenodd" d="M21.9999 3.78662C32.0833 3.78662 40.3333 12.0366 40.3333 22.12C40.3333 32.2033 32.0833 40.4533 21.9999 40.4533C11.9166 40.4533 3.66659 32.2033 3.66659 22.12C3.66659 12.0366 11.9166 3.78662 21.9999 3.78662ZM15.4916 29.0866L22.9716 24.485C23.5216 24.155 23.8516 23.5683 23.8516 22.9266L23.8516 14.3283C23.8333 13.5766 23.2099 12.9533 22.4583 12.9533C21.7066 12.9533 21.0833 13.5766 21.0833 14.3283L21.0833 22.4866L14.0433 26.7216C13.3833 27.125 13.1633 27.9866 13.5666 28.6466C13.9699 29.2883 14.8316 29.49 15.4916 29.0866Z" fill="#001A41"/>
</g>
<defs>
<clipPath id="clip0_166_15985">
<rect width="36.6667" height="36.6667" fill="white" transform="translate(40.3333 40.4534) rotate(180)"/>
</clipPath>
</defs>
</svg>
