<svg width="48" height="49" viewBox="0 0 48 49" fill="none" xmlns="http://www.w3.org/2000/svg">
<g clip-path="url(#clip0_166_15964)">
<path d="M25.1612 29.2994V42.0029C25.1612 43.1674 26.1135 44.1201 27.2773 44.1201H39.9741C41.1379 44.1201 42.0902 43.1674 42.0902 42.0029V29.2994C42.0902 28.1349 41.1379 27.1822 39.9741 27.1822H27.2773C26.1135 27.1822 25.1612 28.1349 25.1612 29.2994ZM6.11612 44.1201H18.8129C19.9767 44.1201 20.929 43.1674 20.929 42.0029V29.2994C20.929 28.1349 19.9767 27.1822 18.8129 27.1822H6.11612C4.95226 27.1822 4 28.1349 4 29.2994V42.0029C4 43.1674 4.95226 44.1201 6.11612 44.1201ZM4 8.127V20.8305C4 21.9949 4.95226 22.9477 6.11612 22.9477H18.8129C19.9767 22.9477 20.929 21.9949 20.929 20.8305V8.127C20.929 6.96251 19.9767 6.00976 18.8129 6.00976H6.11612C4.95226 6.00976 4 6.96251 4 8.127ZM31.4038 4.73941L22.4103 13.7165C21.585 14.5422 21.585 15.8761 22.4103 16.7018L31.4038 25.7001C32.2291 26.5258 33.5622 26.5258 34.3875 25.7001L43.381 16.7018C44.2063 15.8761 44.2063 14.5422 43.381 13.7165L34.4087 4.73941C33.5834 3.91369 32.2291 3.91369 31.4038 4.73941Z" fill="#001A41"/>
</g>
<defs>
<clipPath id="clip0_166_15964">
<rect width="40" height="40" fill="white" transform="translate(4 4.12012)"/>
</clipPath>
</defs>
</svg>
