<svg width="48" height="49" viewBox="0 0 48 49" fill="none" xmlns="http://www.w3.org/2000/svg">
<path d="M4.81138 19.2325C5.79561 20.2441 7.35879 20.3433 8.42022 19.4309C17.4327 11.8143 30.5171 11.8143 39.5488 19.411C40.6295 20.3234 42.212 20.2441 43.1963 19.2325C44.3349 18.0623 44.2577 16.1185 43.0033 15.0672C31.9838 5.80441 16.0432 5.80441 5.00437 15.0672C3.74996 16.0986 3.65347 18.0424 4.81138 19.2325ZM19.7871 34.6242L22.624 37.54C23.3766 38.3135 24.5924 38.3135 25.3451 37.54L28.182 34.6242C29.089 33.692 28.896 32.0854 27.7381 31.4705C25.3837 30.2209 22.5661 30.2209 20.1923 31.4705C19.0923 32.0854 18.88 33.692 19.7871 34.6242ZM12.5887 27.2259C13.5343 28.1978 15.0203 28.297 16.1203 27.4838C20.8292 24.0523 27.1591 24.0523 31.868 27.4838C32.968 28.2771 34.454 28.1978 35.3996 27.2259L35.4189 27.2061C36.5768 26.016 36.4996 23.9928 35.168 23.0209C28.5293 18.0821 19.4783 18.0821 12.8203 23.0209C11.4887 24.0127 11.4115 26.016 12.5887 27.2259Z" fill="#001A41"/>
</svg>
