<svg width="48" height="49" viewBox="0 0 48 49" fill="none" xmlns="http://www.w3.org/2000/svg">
<g clip-path="url(#clip0_166_15987)">
<path fill-rule="evenodd" clip-rule="evenodd" d="M32.5878 29.2773H30.781L30.1407 28.6599C32.3819 26.0526 33.7313 22.6679 33.7313 18.9858C33.7313 10.7753 27.076 4.12012 18.8656 4.12012C10.6552 4.12012 4 10.7753 4 18.9858C4 27.1962 10.6552 33.8514 18.8656 33.8514C22.5477 33.8514 25.9325 32.5021 28.5397 30.2608L29.1572 30.9011V32.7079L40.5923 44.1201L44 40.7125L32.5878 29.2773ZM18.8654 29.2771C13.1708 29.2771 8.57384 24.6802 8.57384 18.9856C8.57384 13.2909 13.1708 8.69396 18.8654 8.69396C24.5601 8.69396 29.157 13.2909 29.157 18.9856C29.157 24.6802 24.5601 29.2771 18.8654 29.2771ZM13.1477 17.8422H24.5828V20.1292H13.1477V17.8422Z" fill="#001A41"/>
</g>
<defs>
<clipPath id="clip0_166_15987">
<rect width="40" height="40" fill="white" transform="translate(4 4.12012)"/>
</clipPath>
</defs>
</svg>
